
<svg   xmlns="http://www.w3.org/2000/svg" >
         <g id="magnifier">
            <polygon id="magnifier_handle" fill="#E4C09C" points="4.95 11.6 6.37 13 1.42 17.96 1.13686838e-13 16.55"></polygon>
            <path d="M11.9999997,-5.68434189e-14 C15.3137082,-5.68434189e-14 17.9999997,2.6862915 17.9999997,6 C17.9999997,9.3137085 15.3137082,12 11.9999997,12 C10.7244643,12 9.54189247,11.6019757 8.56971024,10.9233532 L7.23743656,12.2552038 L5.823223,10.8409903 L7.14198803,9.52205423 C6.4236439,8.53294641 5.9999997,7.31594691 5.9999997,6 C5.9999997,2.6862915 8.6862912,-5.68434189e-14 11.9999997,-5.68434189e-14 Z M11.9999997,2 C9.7908607,2 7.9999997,3.790861 7.9999997,6 C7.9999997,8.209139 9.7908607,10 11.9999997,10 C14.2091387,10 15.9999997,8.209139 15.9999997,6 C15.9999997,3.790861 14.2091387,2 11.9999997,2 Z" id="magnifier_lens" fill="#7FA9D9"></path>
        </g>
</svg>