<svg width="18px" height="18px" xmlns="http://www.w3.org/2000/svg" >
    <g id="sprite-info">
        <path d="M9,0.538504202 C13.9708673,0.538504202 18,4.5676369 18,9.5385042 C18,14.5081688 13.9708673,18.5373015 9,18.5373015 C4.0291327,18.5373015 1.13686838e-13,14.5081688 1.13686838e-13,9.5385042 C1.13686838e-13,4.5676369 4.0291327,0.538504202 9,0.538504202 Z M9.54283042,7.24290083 C8.4351196,7.24290083 7.67379393,8.05834918 7.01590271,9.04578738 C7.01590271,9.16605999 7.04957905,9.42103794 7.07363357,9.59783869 L7.56554858,8.98805652 L7.94921823,8.54545329 C8.12842443,8.34459801 8.34130696,8.20748723 8.44714687,8.24477174 C8.55298677,8.28205625 8.61312308,8.40713978 8.57824402,8.52500694 L7.12775625,13.3262898 C6.9786182,13.8242185 7.22998797,14.3570262 7.69424028,14.5169888 C7.76640385,14.5418451 7.83910196,14.5565451 7.91090917,14.5618015 L8.04543632,14.5626924 C9.15314713,14.5626924 9.91447281,13.747244 10.572364,12.7598058 C10.572364,12.6431414 10.5410931,12.385758 10.5158359,12.2077545 L10.0239209,12.8175367 L9.64025124,13.2613426 C9.45984231,13.4609952 9.23372979,13.598106 9.12788988,13.5608215 C9.02806361,13.5271451 8.97033275,13.4152916 8.9907791,13.3070462 L10.449686,8.48531698 C10.598824,7.98378016 10.3462515,7.45217519 9.88079647,7.29100988 C9.77495657,7.25372537 9.54884405,7.24290083 9.54283042,7.24290083 Z M10.3065615,4.54759147 C9.75210477,4.54759147 9.30228518,4.95050474 9.30228518,5.54585419 C9.30228518,6.14120365 9.75210477,6.54411692 10.3065615,6.54411692 C10.8586129,6.54411692 11.3084324,6.14120365 11.3084324,5.54585419 C11.3084324,4.95050474 10.8586129,4.54759147 10.3065615,4.54759147 Z" id="sprite-info" fill="#268ECD"></path>
    </g>
</svg>