<svg width="18px" height="18px" xmlns="http://www.w3.org/2000/svg">
    <g id="sprite-delete">
        <path d="M9,0 C13.97025,0 18,4.02975 18,9 C18,13.97025 13.97025,18 9,18 C4.02975,18 0,13.97025 0,9 C0,4.02975 4.02975,0 9,0 Z M11.6656004,4.82024412 L11.5984,4.87614118 L8.99981176,7.47472941 L6.40592941,4.87614118 C6.25687059,4.72708235 6.02926765,4.70845 5.86057279,4.82024412 L5.79228235,4.87614118 L4.87651765,5.79190588 C4.72745882,5.94096471 4.70882647,6.16856765 4.82062059,6.3372625 L4.87651765,6.40555294 L7.47510588,8.99943529 L4.87651765,11.5980235 C4.72745882,11.7470824 4.70882647,11.9746853 4.82062059,12.1402276 L4.87651765,12.2069647 L5.79228235,13.1274353 C5.94134118,13.2723765 6.16894412,13.2904941 6.33763897,13.1817882 L6.40592941,13.1274353 L8.99981176,10.5288471 L11.5984,13.1274353 C11.7441647,13.2723765 11.9742382,13.2904941 12.1404496,13.1817882 L12.2073412,13.1274353 L13.1231059,12.2069647 C13.2721647,12.0620235 13.2907971,11.8349353 13.1790029,11.6663048 L13.1231059,11.5980235 L10.5292235,8.99943529 L13.1231059,6.40555294 C13.2721647,6.25649412 13.2907971,6.02889118 13.1790029,5.86019632 L13.1231059,5.79190588 L12.2073412,4.87614118 C12.0624,4.72708235 11.8324294,4.70845 11.6656004,4.82024412 Z" id="sprite-delete" fill="#DF0F0F"></path>
    </g>
</svg>