<svg width="18" height="18" viewBox="0 0 18 18" fill="none" xmlns="http://www.w3.org/2000/svg">
<path fill-rule="evenodd" clip-rule="evenodd" d="M14.2309 6.80928C14.2286 6.34736 13.8157 5.95542 13.3309 5.95435C12.846 5.95435 12.4444 6.34628 12.4477 6.81682C12.4511 7.29705 12.8449 7.67175 13.3399 7.66529C13.8394 7.65883 14.2331 7.27982 14.2309 6.80928ZM11.9246 8.19613C11.7322 7.20768 10.8277 6.59393 9.67911 6.55194C8.59574 6.51102 7.31774 7.26367 7.00049 8.19613H11.9246Z" fill="#AECB44"/>
<path fill-rule="evenodd" clip-rule="evenodd" d="M14.9569 7.55911C14.8399 7.6474 14.7555 7.77661 14.6104 7.93705H17.2778C16.9785 7.41052 16.7006 6.92167 16.4194 6.43391C15.4305 4.72188 14.4394 3.01094 13.4494 1.29999H13.3785C13.2862 1.36352 13.1996 1.43673 13.1006 1.48949C9.14625 3.56546 5.18962 5.63927 1.23413 7.71416C0.833625 7.92412 0.4365 8.13947 0 8.37205C0.49725 9.24206 0.982125 10.0927 1.46812 10.9433C1.50862 10.9369 1.55025 10.9315 1.59075 10.925C1.59075 10.3005 1.584 9.67599 1.593 9.05148C1.60313 8.39897 1.97438 8.05226 2.64488 7.97042C2.96213 7.93166 3.29288 7.84875 3.57188 7.70447C6.06038 6.41345 8.53875 5.10413 11.0216 3.80127C11.4109 3.59669 11.7529 3.67098 12.0161 4.01446C12.3131 4.40101 12.7496 4.51515 13.1985 4.32241C13.5202 4.18566 13.923 4.30841 14.094 4.6056C14.4652 5.24411 14.832 5.88585 15.1987 6.52651C15.4507 6.96582 15.3787 7.24254 14.9569 7.55911Z" fill="#AECB44"/>
<path fill-rule="evenodd" clip-rule="evenodd" d="M16.6142 14.4559C16.613 14.8209 16.3655 15.0944 15.9954 15.145C15.4172 15.2247 15.1888 15.4411 15.11 15.9805C15.0583 16.3402 14.7804 16.5771 14.4013 16.5771C12.9433 16.5781 11.4853 16.5781 10.0273 16.5781C8.59179 16.5781 7.15741 16.5781 5.72304 16.5771C5.30229 16.5771 5.05479 16.3596 5.01204 15.959C4.96141 15.4745 4.64866 15.1805 4.14691 15.1461C3.77791 15.1202 3.48204 14.8241 3.48091 14.4688C3.47866 13.7032 3.47866 12.9377 3.48091 12.1732C3.48204 11.82 3.77791 11.5271 4.15029 11.4991C4.64754 11.4636 4.94679 11.1879 5.00641 10.7153C5.06379 10.263 5.28991 10.0692 5.76241 10.0692C8.63228 10.0692 11.501 10.0692 14.3709 10.0692C14.7995 10.0692 15.0527 10.2878 15.1134 10.7045C15.1832 11.1901 15.4453 11.4356 15.9628 11.5002C16.3644 11.5497 16.613 11.8125 16.6142 12.1936C16.6153 12.9473 16.6153 13.7021 16.6142 14.4559ZM17.7279 9H2.38966C2.38966 9.57606 2.38854 10.136 2.38966 10.6948C2.39304 13.012 2.39754 15.3302 2.40204 17.6473H17.7167C17.7279 17.5472 17.7493 17.4481 17.7493 17.348C17.7504 14.6712 17.7504 11.9934 17.7493 9.31549C17.7493 9.2175 17.7369 9.11844 17.7279 9Z" fill="#4D9E3B"/>
<path fill-rule="evenodd" clip-rule="evenodd" d="M8.53219 11.9029C7.81107 12.7105 7.82457 13.8184 8.56594 14.6066C9.46369 15.5606 11.0983 15.8039 12.2424 15.131C12.9703 14.7024 13.4642 14.1156 13.4642 13.1336C13.4777 12.788 13.3314 12.382 13.0423 12.0213C11.9466 10.6517 9.70219 10.5936 8.53219 11.9029Z" fill="#4D9E3B"/>
<path fill-rule="evenodd" clip-rule="evenodd" d="M5.89487 11.9564C5.40437 11.9532 5.00162 12.3365 5.0005 12.8103C4.99825 13.2744 5.41112 13.6685 5.89487 13.6663C6.38762 13.6642 6.79487 13.2765 6.7915 12.8114C6.78925 12.343 6.38762 11.9597 5.89487 11.9564Z" fill="#4D9E3B"/>
<path fill-rule="evenodd" clip-rule="evenodd" d="M14.9028 11.9565C14.4179 11.949 14.0061 12.3377 14.0005 12.8093C13.996 13.2562 14.4078 13.6718 14.8566 13.6718C15.373 13.6729 15.8005 13.2863 15.8028 12.8179C15.805 12.3614 15.391 11.9641 14.9028 11.9565Z" fill="#4D9E3B"/>
</svg>
