
<svg  xmlns="http://www.w3.org/2000/svg" >
        <g id="user_add" >
            <path d="M9,0 C9.5094,0 10.0206,0.115964286 10.5156,0.347285714 C11.0106,0.579214286 11.4408,0.879142857 11.8056,1.24889286 C12.1704,1.61803571 12.459,2.05032143 12.6702,2.54514286 C12.8814,3.04057143 12.9672,3.53721429 12.9264,4.03507143 L12.8842125,4.50396596 C12.8430375,4.94039732 12.8049,5.27941072 12.7698,5.52075 C12.9378,5.74357143 13.0218,6.11028571 13.0218,6.61967857 C13.0218,6.69992006 13.0182132,6.77696533 13.0110397,6.85081532 L13,6.8495 C9.6854902,6.8495 7,9.53655882 7,12.8495 C7,14.937087 8.06530541,16.7751487 9.68211122,17.8498799 L0,17.8495 L0.0174,16.5009286 C0.0288,16.2489643 0.0924,15.9441786 0.2082,15.5865714 C0.324,15.2289643 0.4866,14.9448214 0.6948,14.7341429 C0.8916,14.5289286 1.2858,14.3030714 1.8762,14.0571786 C2.349,13.8599786 2.87172,13.6546186 3.44436,13.4407877 L4.35204444,13.1038294 C4.86501481,12.9075423 5.25893333,12.7388016 5.5338,12.5976071 C5.9742,12.3693214 6.3156,12.0335714 6.5592,11.5909643 C6.8022,11.1489643 6.924,10.6899643 6.924,10.2151786 C6.924,9.89278571 6.7326,9.51210714 6.3504,9.07253571 C6.1476,8.83817857 5.9568,8.4745 5.7774,7.98271429 C5.2446,7.76535714 4.9782,7.31121429 4.9782,6.61967857 C4.9782,6.11028571 5.0616,5.74357143 5.2296,5.52075 L5.19383437,5.24686217 C5.1569625,4.94043527 5.1168,4.53641964 5.0736,4.03507143 C5.0328,3.53721429 5.1186,3.04057143 5.3298,2.54514286 C5.541,2.05032143 5.829,1.61803571 6.1944,1.24889286 C6.5592,0.879142857 6.9888,0.579214286 7.4844,0.347285714 C7.9794,0.115964286 8.49,0 9,0 Z" id="Path" fill="#268ECD"></path>
            <path d="M17.7246889,16.5488634 L17.9546425,16.2367566 L17.9728169,16.3730802 L17.9826,16.5009286 L18,17.8495 L16.3178888,17.8498799 C16.8535988,17.4937801 17.3287622,17.0538778 17.7246889,16.5488634 L17.7246889,16.5488634 Z" id="Path" fill="#268ECD"></path>
            <circle id="Oval" fill="#6AAF57" cx="13" cy="12.8495" r="5"></circle>
            <path d="M13.6071429,8.8495 C13.745214,8.8495 13.8571429,8.96142881 13.8571429,9.0995 L13.857,11.9915 L16.75,11.9923571 C16.8880712,11.9923571 17,12.104286 17,12.2423571 L17,13.4566429 C17,13.594714 16.8880712,13.7066429 16.75,13.7066429 L13.857,13.7065 L13.8571429,16.5995 C13.8571429,16.7375712 13.745214,16.8495 13.6071429,16.8495 L12.3928571,16.8495 C12.254786,16.8495 12.1428571,16.7375712 12.1428571,16.5995 L12.142,13.7065 L9.25,13.7066429 C9.11192881,13.7066429 9,13.594714 9,13.4566429 L9,12.2423571 C9,12.104286 9.11192881,11.9923571 9.25,11.9923571 L12.142,11.9915 L12.1428571,9.0995 C12.1428571,8.96142881 12.254786,8.8495 12.3928571,8.8495 L13.6071429,8.8495 Z" id="plus" fill="#FFFFFF"></path>
        </g>
   </svg>