<?xml version="1.0" encoding="UTF-8"?>
<svg width="1022px" height="182px" viewBox="0 0 1022 182" version="1.1" xmlns="http://www.w3.org/2000/svg" xmlns:xlink="http://www.w3.org/1999/xlink">
    <!-- Generator: Sketch 52.1 (67048) - http://www.bohemiancoding.com/sketch -->
    <title>Artboard</title>
    <desc>Created with Sketch.</desc>
    <defs>
        <path d="M0.900001526,30.0999985 C0.900001526,13.5299985 14.3300015,0.0999984741 30.9000015,0.0999984741 C47.4690015,0.0999984741 60.9000015,13.5299985 60.9000015,30.0999985 C60.9000015,46.6699985 47.4690015,60.0999985 30.9000015,60.0999985 C14.3300015,60.0999985 0.900001526,46.6699985 0.900001526,30.0999985 Z" id="path-1"></path>
        <polygon id="path-3" points="0 60 60 60 60 0 0 0"></polygon>
        <polygon id="path-5" points="0 60 60 60 60 0 0 0"></polygon>
        <polygon id="path-7" points="0 60 60 60 60 0 0 0"></polygon>
        <polygon id="path-9" points="0 60 60 60 60 0 0 0"></polygon>
        <polygon id="path-11" points="0 60 60 60 60 0 0 0"></polygon>
        <polygon id="path-13" points="0 60 60 60 60 0 0 0"></polygon>
        <polygon id="path-15" points="0 60 60 60 60 0 0 0"></polygon>
        <polygon id="path-17" points="0 60 60 60 60 0 0 0"></polygon>
        <polygon id="path-19" points="0 60 60 60 60 0 0 0"></polygon>
        <polygon id="path-21" points="0 60 60 60 60 0 0 0"></polygon>
        <path d="M30.1000061,0.0999984741 C46.6690061,0.0999984741 60.1000061,13.5299985 60.1000061,30.0999985 C60.1000061,46.6699985 46.6690061,60.0999985 30.1000061,60.0999985 C13.5300061,60.0999985 0.100006104,46.6699985 0.100006104,30.0999985 C0.100006104,13.5299985 13.5300061,0.0999984741 30.1000061,0.0999984741 Z" id="path-23"></path>
        <path d="M0.100006104,30.0999985 C0.100006104,13.5299985 13.5300061,0.0999984741 30.1000061,0.0999984741 C46.6700061,0.0999984741 60.1000061,13.5299985 60.1000061,30.0999985 C60.1000061,46.6699985 46.6700061,60.0999985 30.1000061,60.0999985 C13.5300061,60.0999985 0.100006104,46.6699985 0.100006104,30.0999985 Z" id="path-25"></path>
        <path d="M30,60 C46.568542,60 60,46.5685425 60,30 C60,13.4314575 46.568542,0 30,0 C13.431458,0 0,13.4314575 0,30 C0,46.5685425 13.431458,60 30,60 Z" id="path-27"></path>
        <path d="M0.5,30.5 C0.5,13.93 13.93,0.5 30.5,0.5 C47.07,0.5 60.5,13.93 60.5,30.5 C60.5,47.07 47.07,60.5 30.5,60.5 C13.93,60.5 0.5,47.07 0.5,30.5 Z" id="path-29"></path>
        <path d="M30.5,0.100000001 C47.07,0.100000001 60.5,13.53 60.5,30.1 C60.5,46.67 47.07,60.1 30.5,60.1 C13.93,60.1 0.5,46.67 0.5,30.1 C0.5,13.53 13.93,0.100000001 30.5,0.100000001 Z" id="path-31"></path>
        <path d="M0.5,30.1 C0.5,13.53 13.93,0.100000001 30.5,0.100000001 C47.07,0.100000001 60.5,13.53 60.5,30.1 C60.5,46.67 47.07,60.1 30.5,60.1 C13.93,60.1 0.5,46.67 0.5,30.1 Z" id="path-33"></path>
        <path d="M0.0999755859,30.1 C0.0999755859,13.53 13.5299756,0.100000001 30.0999756,0.100000001 C46.6699756,0.100000001 60.0999756,13.53 60.0999756,30.1 C60.0999756,46.67 46.6699756,60.1 30.0999756,60.1 C13.5299756,60.1 0.0999755859,46.67 0.0999755859,30.1 Z" id="path-35"></path>
        <path d="M0.0999755859,30.1 C0.0999755859,13.53 13.5299756,0.100000001 30.0999756,0.100000001 C46.6699756,0.100000001 60.0999756,13.53 60.0999756,30.1 C60.0999756,46.67 46.6699756,60.1 30.0999756,60.1 C13.5299756,60.1 0.0999755859,46.67 0.0999755859,30.1 Z" id="path-37"></path>
        <path d="M30.2,0.099998 C46.77,0.099998 60.2,13.529998 60.2,30.099998 C60.2,46.669998 46.77,60.099998 30.2,60.099998 C13.63,60.099998 0.200000003,46.669998 0.200000003,30.099998 C0.200000003,13.529998 13.63,0.099998 30.2,0.099998 Z" id="path-39"></path>
        <path d="M30.2,0.099998 C46.77,0.099998 60.2,13.529998 60.2,30.099998 C60.2,46.669998 46.77,60.099998 30.2,60.099998 C13.63,60.099998 0.200000003,46.669998 0.200000003,30.099998 C0.200000003,13.529998 13.63,0.099998 30.2,0.099998 Z" id="path-41"></path>
        <path d="M0.0999755859,30.1 C0.0999755859,13.53 13.5299756,0.100000001 30.0999756,0.100000001 C46.6699756,0.100000001 60.0999756,13.53 60.0999756,30.1 C60.0999756,46.67 46.6699756,60.1 30.0999756,60.1 C13.5299756,60.1 0.0999755859,46.67 0.0999755859,30.1 Z" id="path-43"></path>
        <path d="M0.0999755859,30.1 C0.0999755859,13.53 13.5299756,0.100000001 30.0999756,0.100000001 C46.6699756,0.100000001 60.0999756,13.53 60.0999756,30.1 C60.0999756,46.67 46.6699756,60.1 30.0999756,60.1 C13.5299756,60.1 0.0999755859,46.67 0.0999755859,30.1 Z" id="path-45"></path>
        <path d="M0.0999755859,30.1 C0.0999755859,13.53 13.5299756,0.100000001 30.0999756,0.100000001 C46.6699756,0.100000001 60.0999756,13.53 60.0999756,30.1 C60.0999756,46.67 46.6699756,60.1 30.0999756,60.1 C13.5299756,60.1 0.0999755859,46.67 0.0999755859,30.1 Z" id="path-47"></path>
        <path d="M0.0999755859,30.1 C0.0999755859,13.53 13.5299756,0.100000001 30.0999756,0.100000001 C46.6699756,0.100000001 60.0999756,13.53 60.0999756,30.1 C60.0999756,46.67 46.6699756,60.1 30.0999756,60.1 C13.5299756,60.1 0.0999755859,46.67 0.0999755859,30.1 Z" id="path-49"></path>
        <circle id="path-51" cx="29.1" cy="29.1" r="29"></circle>
        <path d="M0,29.5 C0,13.1766667 13.1766667,0 29.5,0 C45.8233333,0 59,13.1766667 59,29.5 C59,45.8233333 45.8233333,59 29.5,59 C13.1766667,59 0,45.8233333 0,29.5 Z" id="path-53"></path>
    </defs>
    <g id="Artboard" stroke="none" stroke-width="1" fill="none" fill-rule="evenodd">
        <g id="analytics_icons_download" transform="translate(1.000000, 1.000000)">
            <path d="M56.3,44.2639594 C52.9,50.4568528 47.5,55.4314721 40.9,58.071066 C42.5,55.2284264 44.4,50.6598985 45.6,44.2639594 L56.3,44.2639594 Z M46.8,31.0659898 L60,31.0659898 C59.9,35.1269036 58.9,38.7817259 57.3,42.2335025 L45.8,42.2335025 C46.4,38.8832487 46.8,35.3299492 46.8,31.0659898 Z M44.8,29.035533 L31.5,29.035533 L31.5,17.8680203 L43.9,17.8680203 C44.4,21.1167513 44.8,24.7715736 44.8,29.035533 Z M31.5,31.0659898 L44.8,31.0659898 C44.7,35.3299492 44.1,38.8832487 43.6,42.2335025 L31.5,42.2335025 L31.5,31.0659898 Z M43.5,44.2639594 C42.1,51.3705584 40,56.142132 38.3,58.9847716 C36.1,59.5939086 33.8,59.8984772 31.5,60 L31.5,44.2639594 L43.5,44.2639594 Z M29.5,44.2639594 L29.5,60 C27.2,59.8984772 24.4,59.5939086 22.3,58.9847716 C20.6,56.142132 18.4,51.3705584 17.1,44.2639594 L29.5,44.2639594 Z M14.8,44.2639594 C16,50.7614213 17.9,55.2284264 19.5,58.1725888 C12.7,55.6345178 7.2,50.6598985 3.7,44.2639594 L14.8,44.2639594 Z M14.4,42.2335025 L2.7,42.2335025 C1.2,38.7817259 0.2,35.1269036 0,31.0659898 L13.5,31.0659898 C13.6,35.3299492 13.9,38.8832487 14.4,42.2335025 Z M13.5,29.035533 L0,29.035533 C0.1,24.9746193 1,21.319797 2.6,17.8680203 L14.4,17.8680203 C13.9,21.1167513 13.5,24.7715736 13.5,29.035533 Z M3.7,15.8375635 C7.1,9.5431472 12.7,4.56852792 19.5,2.03045685 C17.9,4.97461929 16,9.4416244 14.8,15.8375635 L3.7,15.8375635 Z M22.7,1.11675127 C24.9,0.50761421 27.2,0.20304568 29.5,0.10152284 L29.5,15.8375635 L17.5,15.8375635 C18.8,8.73096447 21,3.95939086 22.7,1.11675127 Z M17.1,17.8680203 L29.5,17.8680203 L29.5,29.035533 L16.2,29.035533 C16.2,24.7715736 16.6,21.1167513 17.1,17.8680203 Z M17.1,42.2335025 C16.6,38.8832487 15.8,35.3299492 15.7,31.0659898 L29.5,31.0659898 L29.5,42.2335025 L17.1,42.2335025 Z M31.5,15.8375635 L31.5,0 C33.9,0.10152284 35.9,0.50761421 38.1,1.11675127 C39.8,3.95939086 41.9,8.73096447 43.3,15.7360406 L31.5,15.7360406 L31.5,15.8375635 Z M40.9,2.03045685 C47.5,4.67005076 52.9,9.5431472 56.3,15.8375635 L45.5,15.8375635 C44.3,9.4416244 42.5,4.97461929 40.9,2.03045685 Z M45.9,17.8680203 L57.4,17.8680203 C58.9,21.319797 59.9,24.9746193 60,29.035533 L46.8,29.035533 C46.8,24.7715736 46.4,21.1167513 45.9,17.8680203 Z" id="Shape" fill="#F27921" fill-rule="nonzero"></path>
            <path d="M119.5,150.5 C119.5,133.93 132.93,120.5 149.5,120.5 C166.069,120.5 179.5,133.93 179.5,150.5 C179.5,167.07 166.069,180.5 149.5,180.5 C132.93,180.5 119.5,167.07 119.5,150.5 Z" id="Fill-1" fill="#FFFFFF"></path>
            <g id="Stroke-3" transform="translate(119.000000, 120.000000)">
                <g id="path-1-Clipped">
                    <g>
                        <mask id="mask-2" fill="white">
                            <use xlink:href="#path-1"></use>
                        </mask>
                        <g id="path-1"></g>
                        <path d="M0.900001526,30.0999985 C0.900001526,13.5299985 14.3300015,0.0999984741 30.9000015,0.0999984741 C47.4690015,0.0999984741 60.9000015,13.5299985 60.9000015,30.0999985 C60.9000015,46.6699985 47.4690015,60.0999985 30.9000015,60.0999985 C14.3300015,60.0999985 0.900001526,46.6699985 0.900001526,30.0999985 Z" id="path-1" stroke="#F27921" stroke-width="2" mask="url(#mask-2)"></path>
                    </g>
                </g>
            </g>
            <g id="Fill-5-Clipped" transform="translate(119.000000, 120.000000)">
                <g>
                    <mask id="mask-4" fill="white">
                        <use xlink:href="#path-3"></use>
                    </mask>
                    <g id="path-3"></g>
                    <polygon id="Fill-5" fill="#F27921" mask="url(#mask-4)" points="13.5 26.5 20.5 26.5 20.5 25.5 13.5 25.5"></polygon>
                </g>
            </g>
            <g id="Fill-7-Clipped" transform="translate(119.000000, 120.000000)">
                <g>
                    <mask id="mask-6" fill="white">
                        <use xlink:href="#path-5"></use>
                    </mask>
                    <g id="path-5"></g>
                    <polygon id="Fill-7" fill="#F27921" mask="url(#mask-6)" points="40.5 26.5 47.5 26.5 47.5 25.5 40.5 25.5"></polygon>
                </g>
            </g>
            <g id="Fill-8-Clipped" transform="translate(119.000000, 120.000000)">
                <g>
                    <mask id="mask-8" fill="white">
                        <use xlink:href="#path-7"></use>
                    </mask>
                    <g id="path-7"></g>
                    <polygon id="Fill-8" fill="#F27921" mask="url(#mask-8)" points="26.5 26.5 33.5 26.5 33.5 25.5 26.5 25.5"></polygon>
                </g>
            </g>
            <g id="Fill-9-Clipped" transform="translate(119.000000, 120.000000)">
                <g>
                    <mask id="mask-10" fill="white">
                        <use xlink:href="#path-9"></use>
                    </mask>
                    <g id="path-9"></g>
                    <polygon id="Fill-9" fill="#F27921" mask="url(#mask-10)" points="14.5 37.5 19.5 37.5 19.5 26.5 14.5 26.5"></polygon>
                </g>
            </g>
            <g id="Fill-10-Clipped" transform="translate(119.000000, 120.000000)">
                <g>
                    <mask id="mask-12" fill="white">
                        <use xlink:href="#path-11"></use>
                    </mask>
                    <g id="path-11"></g>
                    <polygon id="Fill-10" fill="#F27921" mask="url(#mask-12)" points="27.5 37.5 32.5 37.5 32.5 26.5 27.5 26.5"></polygon>
                </g>
            </g>
            <g id="Fill-11-Clipped" transform="translate(119.000000, 120.000000)">
                <g>
                    <mask id="mask-14" fill="white">
                        <use xlink:href="#path-13"></use>
                    </mask>
                    <g id="path-13"></g>
                    <polygon id="Fill-11" fill="#F27921" mask="url(#mask-14)" points="41.5 37.5 46.5 37.5 46.5 26.5 41.5 26.5"></polygon>
                </g>
            </g>
            <g id="Fill-12-Clipped" transform="translate(119.000000, 120.000000)">
                <g>
                    <mask id="mask-16" fill="white">
                        <use xlink:href="#path-15"></use>
                    </mask>
                    <g id="path-15"></g>
                    <path d="M28.2295,20.3701 C28.2295,19.1901 29.1895,18.2301 30.3705,18.2301 C31.5405,18.2301 32.4995,19.1901 32.4995,20.3701 C32.4995,21.5401 31.5405,22.5001 30.3705,22.5001 C29.1895,22.5001 28.2295,21.5401 28.2295,20.3701 Z M30.3705,12.6301 L11.4295,24.5001 L49.2995,24.5001 L30.3705,12.6301 Z" id="Fill-12" fill="#F27921" fill-rule="nonzero" mask="url(#mask-16)"></path>
                </g>
            </g>
            <g id="Fill-13-Clipped" transform="translate(119.000000, 120.000000)">
                <g>
                    <mask id="mask-18" fill="white">
                        <use xlink:href="#path-17"></use>
                    </mask>
                    <g id="path-17"></g>
                    <polygon id="Fill-13" fill="#F27921" mask="url(#mask-18)" points="9.5 46.5 51.5 46.5 51.5 44.5 9.5 44.5"></polygon>
                </g>
            </g>
            <g id="Fill-14-Clipped" transform="translate(119.000000, 120.000000)">
                <g>
                    <mask id="mask-20" fill="white">
                        <use xlink:href="#path-19"></use>
                    </mask>
                    <g id="path-19"></g>
                    <polygon id="Fill-14" fill="#F27921" mask="url(#mask-20)" points="11.5 43.5 49.5 43.5 49.5 41.5 11.5 41.5"></polygon>
                </g>
            </g>
            <g id="Fill-15-Clipped" transform="translate(119.000000, 120.000000)">
                <g>
                    <mask id="mask-22" fill="white">
                        <use xlink:href="#path-21"></use>
                    </mask>
                    <g id="path-21"></g>
                    <polygon id="Fill-15" fill="#F27921" mask="url(#mask-22)" points="13.5 40.5 47.5 40.5 47.5 38.5 13.5 38.5"></polygon>
                </g>
            </g>
            <path d="M240.5,150.5 C240.5,133.93 253.93,120.5 270.5,120.5 C287.069,120.5 300.5,133.93 300.5,150.5 C300.5,167.07 287.069,180.5 270.5,180.5 C253.93,180.5 240.5,167.07 240.5,150.5" id="Fill-1" fill="#FFFFFF"></path>
            <g id="Stroke-3" transform="translate(240.000000, 120.000000)">
                <g id="path-5-Clipped">
                    <g>
                        <mask id="mask-24" fill="white">
                            <use xlink:href="#path-23"></use>
                        </mask>
                        <g id="path-23"></g>
                        <path d="M30.1000061,0.0999984741 C46.6690061,0.0999984741 60.1000061,13.5299985 60.1000061,30.0999985 C60.1000061,46.6699985 46.6690061,60.0999985 30.1000061,60.0999985 C13.5300061,60.0999985 0.100006104,46.6699985 0.100006104,30.0999985 C0.100006104,13.5299985 13.5300061,0.0999984741 30.1000061,0.0999984741 Z" id="path-5" stroke="#F27921" stroke-width="2" mask="url(#mask-24)"></path>
                    </g>
                </g>
            </g>
            <path d="M360.5,150.5 C360.5,133.93 373.93,120.5 390.5,120.5 C407.07,120.5 420.5,133.93 420.5,150.5 C420.5,167.07 407.07,180.5 390.5,180.5 C373.93,180.5 360.5,167.07 360.5,150.5" id="Fill-1" fill="#FFFFFF"></path>
            <g id="Stroke-3" transform="translate(360.000000, 120.000000)">
                <g id="path-7-Clipped">
                    <g>
                        <mask id="mask-26" fill="white">
                            <use xlink:href="#path-25"></use>
                        </mask>
                        <g id="path-25"></g>
                        <path d="M0.100006104,30.0999985 C0.100006104,13.5299985 13.5300061,0.0999984741 30.1000061,0.0999984741 C46.6700061,0.0999984741 60.1000061,13.5299985 60.1000061,30.0999985 C60.1000061,46.6699985 46.6700061,60.0999985 30.1000061,60.0999985 C13.5300061,60.0999985 0.100006104,46.6699985 0.100006104,30.0999985 Z" id="path-7" stroke="#F27921" stroke-width="2" mask="url(#mask-26)"></path>
                    </g>
                </g>
            </g>
            <path d="M386.9199,137.9301 C385.3199,138.8901 383.4099,140.1601 381.6599,141.6001 L390.0999,149.8801 L397.9099,142.3901 L393.6099,137.9301 L397.1099,134.4301 L401.5699,138.7301 L402.0499,138.2501 C402.5299,138.5701 403.1599,139.2101 403.7999,139.8401 L403.3199,140.3201 C406.1899,143.0301 406.9899,146.6901 408.7399,149.5601 C405.5499,147.8101 401.7299,146.6901 399.8199,144.1501 L392.1699,151.7901 L404.4399,164.0601 C403.7999,165.0101 402.9999,165.8101 402.2099,166.4501 L390.0999,154.0201 L377.8399,166.2901 C377.1999,166.1301 375.6099,164.5301 375.7699,164.0601 L387.8699,151.9501 L379.9099,143.5101 C378.3099,144.7801 377.0399,147.1701 376.2399,148.7601 C374.9699,147.8101 373.5399,146.5301 372.2599,145.4201 C374.0099,141.2801 379.5899,135.8601 383.4099,134.1101 L386.9199,137.9301 Z" id="Fill-5" fill="#F27921"></path>
            <g id="path-9-Clipped" transform="translate(120.000000, 0.000000)">
                <g>
                    <mask id="mask-28" fill="white">
                        <use xlink:href="#path-27"></use>
                    </mask>
                    <g id="path-27"></g>
                    <path d="M30,60 C46.568542,60 60,46.5685425 60,30 C60,13.4314575 46.568542,0 30,0 C13.431458,0 0,13.4314575 0,30 C0,46.5685425 13.431458,60 30,60 Z" id="path-9" stroke="#F27921" stroke-width="2" fill="#FFFFFF" mask="url(#mask-28)"></path>
                </g>
            </g>
            <path d="M175.625454,39.2 C175.625454,39.2 157.658182,35.8 150.785454,39.2 C150.785454,39.2 155.4,35.3 175.625454,37.8 L175.625454,39.2 Z" id="Shape" fill="#F27921"></path>
            <path d="M174.152727,35.5 C174.152727,35.5 156.774545,34.3 150.294545,38.6 C150.294545,38.6 155.203636,33.5 173.465454,34.3 L174.152727,35.5 Z" id="Shape" fill="#F27921"></path>
            <path d="M172.778182,32.7 C172.778182,32.7 158.738182,30.7 150.294545,38.3 C150.294545,38.3 155.203636,29.3 172.287273,31.3 L172.778182,32.7 Z" id="Shape" fill="#F27921"></path>
            <path d="M170.127273,28.7 C170.127273,28.7 157.56,27.1 150.098182,38.2 C150.098182,38.2 155.203636,26.9 168.949091,27.3 L170.127273,28.7 Z" id="Shape" fill="#F27921"></path>
            <path d="M166.003636,25.7 C166.003636,25.7 156.872727,24.7 149.803636,38.3 C149.803636,38.3 153.632727,25 164.432727,24.5 L166.003636,25.7 Z" id="Shape" fill="#F27921"></path>
            <path d="M152.16,41.8 C151.963636,40.6 151.963636,38.3 153.436364,38.7 L176.901818,43.2 C176.705454,44.4 176.705454,45.3 176.705454,45.9 L154.810909,41.7 C155.498182,44.4 151.276364,45 150.196364,45 C148.92,45 144.894545,44.4 145.778182,41.7 L123.883636,45.9 C123.883636,45.6 123.200195,45.0729492 123.200195,43.2729492 L147.152727,38.3 C148.232727,37.9 148.232727,40.3 148.429091,41.8 L152.16,41.8 Z" id="Shape" fill="#F27921"></path>
            <path d="M124.570909,39.2 C124.570909,39.2 142.047273,35.8 148.821818,39.2 C148.821818,39.2 144.501818,35.3 124.570909,37.8 L124.570909,39.2 Z" id="Shape" fill="#F27921"></path>
            <path d="M126.141818,35.5 C126.141818,35.5 143.127273,34.3 149.607273,38.6 C149.607273,38.6 144.698182,33.5 126.829091,34.3 L126.141818,35.5 Z" id="Shape" fill="#F27921"></path>
            <path d="M127.516364,32.7 C127.516364,32.7 141.36,30.7 149.607273,38.3 C149.607273,38.3 144.698182,29.3 127.909091,31.3 L127.516364,32.7 Z" id="Shape" fill="#F27921"></path>
            <path d="M130.167273,28.7 C130.167273,28.7 142.538182,27.1 149.901818,38.2 C149.901818,38.2 144.894545,26.9 131.345455,27.3 L130.167273,28.7 Z" id="Shape" fill="#F27921"></path>
            <path d="M134.094546,25.7 C134.094546,25.7 143.029091,24.7 150,38.3 C150,38.3 146.269091,25 135.665455,24.5 L134.094546,25.7 Z" id="Shape" fill="#F27921"></path>
            <path d="M240.5,30.5 C240.5,13.93 253.93,0.5 270.5,0.5 C287.07,0.5 300.5,13.93 300.5,30.5 C300.5,47.07 287.07,60.5 270.5,60.5 C253.93,60.5 240.5,47.07 240.5,30.5" id="Fill-1" fill="#FFFFFF"></path>
            <g id="Stroke-3" transform="translate(240.000000, 0.000000)">
                <g id="path-11-Clipped">
                    <g>
                        <mask id="mask-30" fill="white">
                            <use xlink:href="#path-29"></use>
                        </mask>
                        <g id="path-29"></g>
                        <path d="M0.5,30.5 C0.5,13.93 13.93,0.5 30.5,0.5 C47.07,0.5 60.5,13.93 60.5,30.5 C60.5,47.07 47.07,60.5 30.5,60.5 C13.93,60.5 0.5,47.07 0.5,30.5 Z" id="path-11" stroke="#F27921" stroke-width="2" mask="url(#mask-30)"></path>
                    </g>
                </g>
            </g>
            <path d="M960.099976,150.1 C960.099976,133.53 973.529976,120.1 990.099976,120.1 C1006.66998,120.1 1020.09998,133.53 1020.09998,150.1 C1020.09998,166.67 1006.66998,180.1 990.099976,180.1 C973.529976,180.1 960.099976,166.67 960.099976,150.1 Z" id="path-23" fill="#FFFFFF"></path>
            <path d="M276.065,19.31 C276.065,20.13 275.235,20.13 274.675,22.04 C274.115,23.41 274.675,26.42 274.675,26.97 C274.675,27.79 270.775,30.52 270.775,31.34 C270.775,31.89 271.615,32.44 272.165,32.99 C271.895,33.26 271.055,33.53 271.055,34.35 C271.055,34.9 271.615,35.17 271.615,35.72 C271.895,37.36 272.165,39.28 272.725,40.92 C274.675,36.82 277.185,32.16 276.345,28.06 C278.855,29.7 282.475,29.7 285.265,31.07 C288.605,32.71 287.775,37.09 289.165,40.37 C282.475,43.11 276.625,43.93 270.215,43.93 C265.205,43.93 259.635,43.11 254.895,41.47 C253.785,40.92 251.835,40.65 251.835,40.1 C251.835,39.28 252.385,37.64 252.385,36.54 C252.945,35.17 253.225,33.53 253.785,32.44 C254.055,31.34 255.735,31.07 256.845,30.8 C258.795,29.98 262.415,29.43 264.645,28.06 C264.365,28.61 264.365,29.43 264.365,30.25 C264.365,34.9 265.205,34.9 267.715,40.92 C268.545,40.37 268.545,39.28 268.545,38.73 C268.825,37.36 269.665,34.9 269.665,34.35 C269.665,33.53 268.825,33.53 268.825,32.99 C268.825,32.16 269.945,31.89 269.945,31.07 C269.945,30.52 267.715,28.88 266.315,27.79 C266.035,25.05 266.315,23.68 264.925,20.67 C264.645,20.4 264.645,19.85 264.645,19.31 L264.645,18.49 C264.925,17.94 264.925,15.75 264.925,15.75 C264.925,13.29 266.875,10.28 270.215,10.28 C275.795,10.28 276.065,16.57 276.065,19.31" id="Fill-5" fill="#F27921"></path>
            <polygon id="Fill-7" fill="#F27921" points="270.3052 30.6699 272.6852 32.6699 271.1752 34.1599 273.0652 40.9899 267.9352 40.9899 269.5952 34.3099 267.9352 32.6699"></polygon>
            <polygon id="Fill-9" fill="#F27921" points="261.1099 36.6201 261.1099 47.6101 254.0599 48.6101 254.0599 50.7201 286.9399 50.7201 286.9399 48.6101 280.2899 47.6101 280.2899 36.6201"></polygon>
            <path d="M360.5,30.5 C360.5,13.93 373.93,0.5 390.5,0.5 C407.07,0.5 420.5,13.93 420.5,30.5 C420.5,47.07 407.07,60.5 390.5,60.5 C373.93,60.5 360.5,47.07 360.5,30.5" id="Fill-1" fill="#FFFFFF"></path>
            <g id="Stroke-3" transform="translate(360.000000, 0.000000)">
                <g id="path-13-Clipped">
                    <g>
                        <mask id="mask-32" fill="white">
                            <use xlink:href="#path-31"></use>
                        </mask>
                        <g id="path-31"></g>
                        <path d="M30.5,0.100000001 C47.07,0.100000001 60.5,13.53 60.5,30.1 C60.5,46.67 47.07,60.1 30.5,60.1 C13.93,60.1 0.5,46.67 0.5,30.1 C0.5,13.53 13.93,0.100000001 30.5,0.100000001 Z" id="path-13" stroke="#FF9949" stroke-width="2" mask="url(#mask-32)"></path>
                    </g>
                </g>
            </g>
            <path d="M388.9751,40.04 C388.9751,38.64 390.1151,37.51 391.5151,37.51 C392.9251,37.51 394.0651,38.64 394.0651,40.04 C394.0651,41.44 392.9251,42.57 391.5151,42.57 C390.1151,42.57 388.9751,41.44 388.9751,40.04 M389.8951,33.28 C389.8951,32.39 390.6251,31.66 391.5151,31.66 C392.4151,31.66 393.1451,32.39 393.1451,33.28 C393.1451,34.18 392.4151,34.9 391.5151,34.9 C390.6251,34.9 389.8951,34.18 389.8951,33.28 M393.6051,26.1 L393.6051,25.17 C394.6451,24.45 395.4951,23.26 395.4951,21.91 C395.4951,19.72 393.7151,17.95 391.5151,17.95 C389.3251,17.95 387.5451,19.72 387.5451,21.91 C387.5451,23.47 388.4551,24.82 389.7851,25.46 L389.7851,25.61 C389.7851,29.07 380.8451,48.33 377.3651,51.29 C377.8651,51.29 378.3551,51.79 383.8251,51.79 C383.8251,51.29 384.8151,51.29 384.8151,50.8 C383.3251,46.85 388.2951,45.37 391.7651,45.37 C392.7651,45.37 398.7251,46.56 398.7251,49.03 C398.7251,50.02 398.7251,51.01 399.2151,51.5 L405.6751,51.5 C401.7051,47.05 397.5751,38.66 395.5951,33.72 C394.5951,31.25 393.6051,27.59 393.6051,26.1" id="Fill-5" fill="#F27921" fill-rule="nonzero"></path>
            <path d="M388.9751,40.04 C388.9751,38.64 390.1151,37.51 391.5151,37.51 C392.9251,37.51 394.0651,38.64 394.0651,40.04 C394.0651,41.44 392.9251,42.57 391.5151,42.57 C390.1151,42.57 388.9751,41.44 388.9751,40.04 Z M389.8951,33.28 C389.8951,32.39 390.6251,31.66 391.5151,31.66 C392.4151,31.66 393.1451,32.39 393.1451,33.28 C393.1451,34.18 392.4151,34.9 391.5151,34.9 C390.6251,34.9 389.8951,34.18 389.8951,33.28 Z M393.6051,26.1 L393.6051,25.17 C394.6451,24.45 395.4951,23.26 395.4951,21.91 C395.4951,19.72 393.7151,17.95 391.5151,17.95 C389.3251,17.95 387.5451,19.72 387.5451,21.91 C387.5451,23.47 388.4551,24.82 389.7851,25.46 L389.7851,25.61 C389.7851,29.07 380.8451,48.33 377.3651,51.29 C377.8651,51.29 378.3551,51.79 383.8251,51.79 C383.8251,51.29 384.8151,51.29 384.8151,50.8 C383.3251,46.85 388.2951,45.37 391.7651,45.37 C392.7651,45.37 398.7251,46.56 398.7251,49.03 C398.7251,50.02 398.7251,51.01 399.2151,51.5 L405.6751,51.5 C401.7051,47.05 397.5751,38.66 395.5951,33.72 C394.5951,31.25 393.6051,27.59 393.6051,26.1 Z" id="Stroke-7" stroke="#F27921" stroke-linecap="round" stroke-linejoin="round"></path>
            <path d="M382.6049,29.98 C379.8749,28.32 377.5849,25.32 377.5849,21.91 C377.5849,18.49 379.8749,15.49 382.6049,13.83 L382.6049,10.58 C378.2149,12.49 374.6849,16.84 374.6849,21.91 C374.6849,26.97 378.2149,31.32 382.6049,33.23 L382.6049,29.98 Z" id="Fill-9" fill="#F27921"></path>
            <path d="M399.6049,30.01 C402.1749,28.34 403.5949,25.34 403.5949,21.91 C403.5949,18.47 402.1749,15.47 399.6049,13.8 L399.6049,10.54 C403.7349,12.46 406.3149,16.82 406.3149,21.91 C406.3149,26.99 403.7349,31.35 399.6049,33.27 L399.6049,30.01 Z" id="Fill-11" fill="#F27921"></path>
            <path d="M383.6049,24.7099 C383.1349,23.8899 382.3949,22.9299 382.3949,21.9099 C382.3949,20.8799 383.1349,19.9299 383.6049,19.0999 L383.6049,16.3799 C382.0849,17.7399 380.6549,19.7099 380.6549,21.9099 C380.6549,24.0999 382.0849,26.0699 383.6049,27.4299 L383.6049,24.7099 Z" id="Fill-13" fill="#F27921"></path>
            <path d="M398.6049,24.72 C399.0549,23.89 398.9449,22.93 398.9449,21.91 C398.9449,20.88 399.0549,19.92 398.6049,19.09 L398.6049,16.36 C400.0349,17.73 400.5749,19.7 400.5749,21.91 C400.5749,24.11 400.0349,26.09 398.6049,27.45 L398.6049,24.72 Z" id="Fill-15" fill="#F27921"></path>
            <path d="M480.5,30.5 C480.5,13.93 493.93,0.5 510.5,0.5 C527.07,0.5 540.5,13.93 540.5,30.5 C540.5,47.07 527.07,60.5 510.5,60.5 C493.93,60.5 480.5,47.07 480.5,30.5" id="Fill-1" fill="#FFFFFF"></path>
            <g id="Stroke-3" transform="translate(480.000000, 0.000000)">
                <g id="path-15-Clipped">
                    <g>
                        <mask id="mask-34" fill="white">
                            <use xlink:href="#path-33"></use>
                        </mask>
                        <g id="path-33"></g>
                        <path d="M0.5,30.1 C0.5,13.53 13.93,0.100000001 30.5,0.100000001 C47.07,0.100000001 60.5,13.53 60.5,30.1 C60.5,46.67 47.07,60.1 30.5,60.1 C13.93,60.1 0.5,46.67 0.5,30.1 Z" id="path-15" stroke="#F27921" stroke-width="2" mask="url(#mask-34)"></path>
                    </g>
                </g>
            </g>
            <path d="M501.7202,54.5 L501.7202,51.5 C503.4902,51.41 505.0202,50.75 506.1502,49.52 C507.2602,48.3 507.8202,46.75 507.8202,44.91 C507.8202,44.08 507.6802,43.3 507.4102,42.58 C507.1502,41.86 506.7702,41.25 506.2702,40.72 C505.7702,40.2 505.0302,39.77 504.2502,39.39 C503.8302,39.2 502.9902,38.97 501.7202,38.66 L501.7202,32.5 C502.2802,32.61 502.7402,32.83 503.0602,33.14 C503.3902,33.45 503.7102,33.91 503.8202,34.5 L506.8202,34.5 C506.6002,32.92 505.9102,31.69 504.9102,30.78 C504.1102,30.06 503.0502,29.64 501.7202,29.5 L501.7202,28.5 L499.7202,28.5 L499.7202,29.5 C497.9502,29.67 496.6302,30.12 495.7402,30.84 C494.3902,31.92 493.8202,33.33 493.8202,35.08 C493.8202,36.06 494.0302,36.94 494.4602,37.7 C494.8802,38.48 495.3902,39.08 496.1702,39.52 C497.2402,40.11 498.4102,40.62 499.7202,41.05 L499.7202,48.5 C498.6102,48.41 497.6602,47.97 496.8802,47.16 C496.3102,46.59 496.0402,45.72 495.8202,44.5 L492.8202,44.5 C492.9202,46 493.3102,47.27 493.9602,48.3 C494.6202,49.33 495.3002,50.08 496.2102,50.55 C497.1102,51.02 498.2802,51.33 499.7202,51.5 L499.7202,54.5 L501.8202,54.5 L501.7202,54.5 Z M499.7202,38.02 C498.3602,37.58 497.6202,37.14 497.3102,36.7 C496.9802,36.27 496.8202,35.73 496.8202,35.08 C496.8202,34.44 496.9902,33.88 497.5202,33.39 C498.0502,32.92 498.7802,32.62 499.7202,32.5 L499.7202,38.02 Z M501.7202,41.7 C502.6302,42 503.4402,42.41 503.9902,42.91 C504.5402,43.41 504.8202,44.08 504.8202,44.89 C504.8202,45.88 504.4202,46.69 503.8602,47.34 C503.3002,48 502.5802,48.39 501.7202,48.5 L501.7202,41.7 Z" id="Fill-5" fill="#F27921" fill-rule="nonzero"></path>
            <path d="M513.7202,28.5 L513.7202,25.5 L519.7202,25.5 L519.7202,22.5 L513.7202,22.5 L513.7202,20.5 L519.7202,20.5 L519.7202,17.5 L514.8702,17.5 L520.3702,6.5 L517.3702,6.5 L513.2002,14.02 L511.8102,16.55 C511.4502,15.89 511.0302,15.12 510.5602,14.23 L506.3702,6.5 L503.3702,6.5 L508.8702,17.5 L504.7202,17.5 L504.7202,20.5 L510.7202,20.5 L510.7202,22.5 L504.7202,22.5 L504.7202,25.5 L510.7202,25.5 L510.7202,28.5 L513.3702,28.5 L513.7202,28.5 Z" id="Fill-7" fill="#F27921"></path>
            <path d="M527.5806,33.5 L528.1806,30.72 C526.9396,29.91 525.4306,29.5 523.6306,29.5 C521.7606,29.5 520.0406,29.92 518.4796,30.77 C515.9506,32.14 514.3906,34.38 513.7906,37.5 L512.0306,37.5 L511.5906,39.5 L513.6006,39.5 C513.5906,39.72 513.5906,39.92 513.5906,40.12 C513.5906,40.62 513.6006,41.08 513.6406,41.5 L512.0306,41.5 L511.5906,43.5 L513.9306,43.5 C514.1496,44.53 514.4206,45.41 514.7296,46.12 C516.2606,49.72 519.3506,51.5 523.7206,51.5 C525.1706,51.5 526.5006,51.22 527.7206,50.62 L527.7206,47.5 C526.7006,48.17 525.3006,48.5 523.5196,48.5 C522.2406,48.5 520.8996,48.22 519.8106,47.62 C518.2696,46.81 517.3106,45.44 516.8996,43.5 L525.1606,43.5 L525.5806,41.5 L516.6006,41.5 C516.5906,41.34 516.5906,40.89 516.5906,40.11 C516.5906,39.92 516.5906,39.72 516.6006,39.5 L526.1806,39.5 L526.5806,37.5 L516.8206,37.5 C516.9206,36.81 517.2296,36.06 517.7696,35.28 C518.2906,34.53 518.8806,33.95 519.5406,33.53 C520.6306,32.84 521.9796,32.5 523.6006,32.5 C525.0906,32.5 526.4106,32.84 527.5806,33.5" id="Fill-9" fill="#F27921"></path>
            <path d="M600.5,30.5 C600.5,13.93 613.93,0.5 630.5,0.5 C647.07,0.5 660.5,13.93 660.5,30.5 C660.5,47.07 647.07,60.5 630.5,60.5 C613.93,60.5 600.5,47.07 600.5,30.5" id="Fill-1" fill="#FFFFFF"></path>
            <g id="Stroke-3" transform="translate(600.000000, 0.000000)">
                <g id="path-17-Clipped">
                    <g>
                        <mask id="mask-36" fill="white">
                            <use xlink:href="#path-35"></use>
                        </mask>
                        <g id="path-35"></g>
                        <path d="M0.0999755859,30.1 C0.0999755859,13.53 13.5299756,0.100000001 30.0999756,0.100000001 C46.6699756,0.100000001 60.0999756,13.53 60.0999756,30.1 C60.0999756,46.67 46.6699756,60.1 30.0999756,60.1 C13.5299756,60.1 0.0999755859,46.67 0.0999755859,30.1 Z" id="path-17" stroke="#FF9949" stroke-width="2" mask="url(#mask-36)"></path>
                    </g>
                </g>
            </g>
            <path d="M720.5,30.5 C720.5,13.93 733.93,0.5 750.5,0.5 C767.07,0.5 780.5,13.93 780.5,30.5 C780.5,47.07 767.07,60.5 750.5,60.5 C733.93,60.5 720.5,47.07 720.5,30.5" id="Fill-1" fill="#FFFFFF"></path>
            <g id="Stroke-3" transform="translate(720.000000, 0.000000)">
                <g id="path-19-Clipped">
                    <g>
                        <mask id="mask-38" fill="white">
                            <use xlink:href="#path-37"></use>
                        </mask>
                        <g id="path-37"></g>
                        <path d="M0.0999755859,30.1 C0.0999755859,13.53 13.5299756,0.100000001 30.0999756,0.100000001 C46.6699756,0.100000001 60.0999756,13.53 60.0999756,30.1 C60.0999756,46.67 46.6699756,60.1 30.0999756,60.1 C13.5299756,60.1 0.0999755859,46.67 0.0999755859,30.1 Z" id="path-19" stroke="#FF9949" stroke-width="2" mask="url(#mask-38)"></path>
                    </g>
                </g>
            </g>
            <path d="M840.099976,150.1 C840.099976,133.53 853.529976,120.1 870.099976,120.1 C886.669976,120.1 900.099976,133.53 900.099976,150.1 C900.099976,166.67 886.669976,180.1 870.099976,180.1 C853.529976,180.1 840.099976,166.67 840.099976,150.1 Z" id="path-23" fill="#FFFFFF"></path>
            <path d="M760.1289,7.7099 L757.5489,12.0699 C758.4089,12.7699 758.4089,13.1099 758.4089,13.7199 C758.4089,14.8599 757.3689,15.8099 756.7699,17.0299 C757.1989,17.2999 758.2389,17.4699 758.8389,17.8199 C759.5289,18.1699 760.8189,19.2999 761.0789,20.1699 C761.5089,21.2199 761.6799,21.6499 761.6799,22.6999 C761.6799,23.9199 761.2489,24.4399 761.2489,24.9599 C761.2489,25.1399 761.9399,26.0099 762.1989,26.6199 C763.2299,28.5399 763.7489,30.8199 763.7489,32.7399 C763.7489,37.0099 761.4189,42.1499 755.9089,44.4999 L764.2699,44.4999 C766.2489,45.1099 765.9889,46.2399 765.9889,47.4599 C765.9889,48.3299 766.1589,49.6299 764.8689,50.2399 C764.6989,50.3299 764.4399,50.4999 764.1799,50.4999 L737.8099,50.4999 C736.9489,50.5899 735.9989,49.3699 735.9989,48.8399 L735.9989,46.1599 C735.9089,45.5499 736.9489,44.3299 737.7189,44.4999 L746.7789,44.4999 C744.7989,43.7199 742.2989,41.6799 740.9189,39.4999 L734.9989,39.4999 L734.9989,36.4999 L749.9989,36.4999 L749.9989,39.4999 L747.9299,39.4999 C749.0489,40.1999 750.1399,40.3699 751.2589,40.3699 C755.6489,40.3699 759.0999,36.7299 759.0999,32.5499 C759.0999,31.3299 758.5789,29.5799 757.9799,28.6199 C757.8899,28.4499 757.7989,28.0099 757.5489,28.0099 C757.3689,28.0099 756.4299,28.1899 756.2489,28.1899 C754.7889,28.1899 752.8099,27.4899 751.6899,25.6599 C750.9089,26.7899 750.1399,28.0999 749.3589,29.4099 C749.7889,29.6699 750.3099,30.0199 750.8289,30.3699 L748.7589,33.8499 L739.5389,28.1899 L741.6089,24.6999 C742.1289,24.9599 742.6399,25.2299 743.1589,25.5699 C746.1689,20.6899 749.1899,15.7299 752.1989,10.7599 C752.3789,10.3299 753.3189,10.0599 753.7589,10.0599 C753.9299,10.0599 754.4399,10.2399 754.7889,10.3299 L757.3689,6.0599 C758.2389,6.4899 759.1799,7.0999 760.1289,7.7099" id="Fill-5" fill="#F27921"></path>
            <path d="M840.5,31.5 C840.5,14.93 853.93,1.5 870.5,1.5 C887.07,1.5 900.5,14.93 900.5,31.5 C900.5,48.07 887.07,61.5 870.5,61.5 C853.93,61.5 840.5,48.07 840.5,31.5" id="Fill-1" fill="#FFFFFF"></path>
            <path d="M866.09,59.74 L866.09,35.96 C865.98,33.29 862.53,30.41 860.29,30.41 L855.39,30.41 C854.43,28.17 852.51,27 850.8,27 C848.03,27 846,28.88 846,31.33 C846,34.21 848.56,36.36 850.8,36.36 C852.72,36.36 855.07,34.86 855.49,32.41 L859.57,32.41 C861.28,32.3 863.09,34.44 863.09,35.5 L863.09,59.05 L866.09,59.74 Z" id="Fill-5" fill="#F27921"></path>
            <path d="M876.048096,0.96972656 L876,13.84 C876,16.94 878.87,19.71 881.32,19.71 L886.02,19.71 C886.87,22.06 888.79,23.02 890.5,23.02 C893.27,23.02 895.4,20.5 895.4,18.15 C895.4,15.27 892.74,13.87 890.5,13.87 C888.36,13.87 886.66,14.94 885.91,17.71 L880.99,17.71 C880.03,17.6 878,15.79 878,14.72 L877.897217,1.57861328 L876.048096,0.96972656 Z" id="Fill-7" fill="#F27921"></path>
            <path d="M877.954346,58.7617188 L878,38.06 C878,37.21 879.83,35.31 881,35.31 L885.91,35.31 C886.12,37.76 888.9,39.26 890.5,39.26 C893.27,39.26 895.4,36.35 895.4,34.11 C895.4,31.23 892.74,29 890.5,29 C888.79,29 886.87,29.96 886.02,32.31 L882.08,32.31 C878.88,32.1 876,35.4 876,38.07 L876,59.31 L877.954346,58.7617188 Z" id="Fill-9" fill="#F27921"></path>
            <path d="M873.848877,60 L873.88,19.9 C873.67,17.13 870.22,14.41 868.19,14.41 L863.28,14.41 C862.32,12.17 860.4,11 858.7,11 C856.03,11 854,12.99 854,15.44 C854,18.11 856.03,20.36 858.7,20.36 C860.62,20.36 862.96,18.86 863.39,16.41 L868.15,16.41 C870.17,16.41 871.88,18.44 871.88,20.04 L871.900635,60 L873.848877,60 Z" id="Fill-11" fill="#F27921"></path>
            <path d="M960.099976,30.1 C960.099976,13.53 973.529976,0.100000001 990.099976,0.100000001 C1006.66998,0.100000001 1020.09998,13.53 1020.09998,30.1 C1020.09998,46.67 1006.66998,60.1 990.099976,60.1 C973.529976,60.1 960.099976,46.67 960.099976,30.1 Z" id="path-23" fill="#FFFFFF"></path>
            <path d="M1006.1753,11.5898 C1006.1753,10.2798 1004.3453,10.2798 1002.7853,10.2798 C998.8643,10.2798 982.4353,19.1498 980.6053,20.1998 L974.6053,18.1098 C974.3453,18.1098 973.8243,18.3698 973.5653,18.3698 C974.3453,19.9298 977.7343,24.1098 979.8243,24.1098 C982.9553,24.1098 986.6053,22.0198 990.7853,21.2398 L989.7343,33.2398 C990.5253,32.9798 991.8243,32.4598 992.0853,31.9298 C994.4353,27.2398 995.4753,22.2798 997.3053,17.8498 C997.5653,16.7998 1006.1753,14.7198 1006.1753,11.5898 Z M990.5253,13.4098 L983.4753,11.0698 C982.4353,11.3298 981.3953,11.8498 980.6053,12.3698 L985.8243,15.7598 L990.5253,13.4098 Z M1007.4353,31.4598 C1007.1753,31.1998 1006.4353,31.1498 1005.9153,31.1498 C1005.1353,31.1498 1005.6943,31.6698 1005.4353,31.9298 L1005.4353,43.4998 L975.4353,43.4998 L975.4353,50.4998 L977.4353,50.4998 L977.4353,45.4998 L1005.4353,45.4998 L1005.4353,50.4998 L1007.4353,50.4998 L1007.4353,31.4598 Z M1000.8453,33.2798 C999.9553,33.3898 999.5453,33.8098 999.4253,34.6898 C999.3153,34.9698 999.2653,35.2698 999.2653,35.5898 C999.2653,36.9598 1000.3753,38.0698 1001.7343,38.0698 C1003.1053,38.0698 1004.2153,36.9598 1004.2153,35.5898 C1004.2153,34.2198 1003.1053,33.1098 1001.7343,33.1098 C1001.4253,33.1098 1001.1253,33.1698 1000.8453,33.2798 Z M998.4353,34.4998 L993.7853,34.4998 C988.0453,35.2798 981.9553,35.8498 976.4753,36.3698 C976.2153,36.6298 975.6943,36.8898 975.4353,37.1498 L975.4353,40.4998 L1003.4353,40.4998 C1003.4353,40.4998 1003.9153,39.2398 998.4353,39.2398 L998.4353,34.4998 Z" id="Fill-5" fill="#F27921" fill-rule="nonzero"></path>
            <g id="Group-3" transform="translate(0.000000, 120.000000)">
                <mask id="mask-40" fill="white">
                    <use xlink:href="#path-39"></use>
                </mask>
                <use id="path-39" fill="#FFFFFF" xlink:href="#path-39"></use>
                <path d="M36.0768,20.842455 L40.6752,20.842455 L42,44 L18,44 L19.3248,20.842455 L23.9232,20.842455 C23.952,20.509566 23.9808,20.152554 24.0336,19.824488 C24.8592,16.456996 27.5616,15 29.9856,15 C32.8224,15 35.7984,16.929795 36.0768,20.842455 Z M33.624,19.872733 C33.6768,20.036766 33.9264,20.427549 33.9264,20.731492 L33.9264,20.842455 L26.0736,20.842455 L26.0736,20.731492 C26.376,18.333722 28.248,17.446016 29.9856,17.446016 C31.3104,17.446016 32.9088,18.106971 33.624,19.872733 Z" id="Fill-13" fill="#F27921" fill-rule="nonzero" mask="url(#mask-40)"></path>
                <g id="path-25-Clipped" mask="url(#mask-40)">
                    <g>
                        <mask id="mask-42" fill="white">
                            <use xlink:href="#path-41"></use>
                        </mask>
                        <g id="path-39"></g>
                        <path d="M0.200000003,30.099998 C0.200000003,13.529998 13.63,0.099998 30.2,0.099998 C46.77,0.099998 60.2,13.529998 60.2,30.099998 C60.2,46.669998 46.77,60.099998 30.2,60.099998 C13.63,60.099998 0.200000003,46.669998 0.200000003,30.099998 Z" id="path-25" stroke="#F27921" stroke-width="1.96" mask="url(#mask-42)"></path>
                    </g>
                </g>
                <path d="M33.9264,20.731492 L33.9264,20.842455 L26.0736,20.842455 L26.0736,20.731492 C26.376,18.333722 28.248,17.446016 29.9856,17.446016 C31.3104,17.446016 32.9088,18.106971 33.624,19.872733 C33.6768,20.036766 33.9264,20.427549 33.9264,20.731492 Z" id="Fill-13-path" fill="#FFFFFF" mask="url(#mask-40)"></path>
            </g>
            <path d="M507.42,136.7 C507.42,133.55 509.98,131 513.12,131 C516.27,131 518.83,133.55 518.83,136.7 C518.83,139.85 516.27,142.4 513.12,142.4 C509.98,142.4 507.42,139.85 507.42,136.7" id="Fill-77" fill="#E3712B"></path>
            <path d="M525.25,150.58 C524.25,151.83 523,153.33 521.5,153.58 C517.5,154.83 509.25,155.08 508.75,155.08 C508,155.08 506,154.83 506,153.83 C506,153.33 507,152.58 507.5,152.58 C510.25,152.33 520.75,151.83 520.75,149.58 C520.75,147.83 518.5,148.08 517.5,148.08 C517,148.08 511.75,148.58 511.25,148.58 C507.25,148.58 505.5,145.08 501.25,145.08 C499,145.08 494.25,146.58 492.75,148.83 C493,149.08 493,149.33 492.75,157.33 C493,159.33 496.25,158.83 497.75,159.33 C503,160.58 512.75,162.83 513.5,162.83 C516,162.83 523.75,159.33 524.5,158.33 C528.25,154.08 534,144.83 534,144.33 L534,142.58 C533.75,142.58 533.75,142.33 533,142.33 C530.75,142.33 526.5,148.83 525.25,150.58 Z M487,162.64 L491,162.64 L491,145.83 C489.75,145.83 488.5,145.58 487,145.83 L487,162.64 Z" id="Stroke-78" stroke="#E5712A" stroke-linecap="round" stroke-linejoin="round"></path>
            <path d="M632.1,147.82 L637.63,147.82 C638.07,147.82 638.05,148.59 638.05,149.03 C638.05,149.47 637.7,149.82 637.26,149.82 L630.89,149.82 C630.45,149.82 630.1,149.47 630.1,149.03 L630.1,137.88 C630.1,137.44 630.82,137.09 631.26,137.09 C631.69,137.09 632.1,137.44 632.1,137.88 L632.1,147.82" id="Fill-74" fill="#E5722A"></path>
            <path d="M618.01,131.09 C621.85,126.71 626.33,126 631.47,126 C642.92,126 652.2,135.52 652.2,147.26 C652.2,158.99 642.92,168.51 631.47,168.51 C621.9,168.51 613.84,161.61 611.46,152.57 C611.43,152.49 611.43,152.4 611.41,152.32 L605,152.32 L614.53,145.53 L625.62,152.32 L617.17,152.32 L617.27,152.6 C619.49,158.36 624.97,162.68 631.37,162.68 C639.74,162.68 646.52,155.73 646.52,147.15 C646.52,138.58 639.74,131.62 631.37,131.62 C627.79,131.62 624.51,132.89 621.92,135.02 C621.92,135.02 617.81,131.32 618.01,131.09 Z" id="Stroke-75" stroke="#E5712A" stroke-linecap="round" stroke-linejoin="round"></path>
            <path d="M749.86,138.95 C760.82,138.95 769.84,147.79 770.98,158.42 L779,158.42 C777.9,143.4 765.34,131 750,131 C734.66,131 722.1,143.4 721,158.42 L728.74,158.42 C729.88,147.79 738.9,138.95 749.86,138.95 Z" id="Path" stroke="#F27921" fill="#FFFFFF"></path>
            <path d="M749.56,160.88 C749.34,161.33 748.24,162 747.81,162 C746.49,162 745.17,160.66 745.17,159.54 C745.17,157.3 753.73,146.78 755.93,144.77 C754.39,150.14 751.98,155.51 749.56,160.88" id="Fill-76" fill="#F27921"></path>
            <g id="Group" transform="translate(976.000000, 145.000000)" fill="#F27921">
                <polygon id="Path-2" points="0 5 5.44705767 12 11 12 5.44705767 5"></polygon>
                <polygon id="Path-3" points="12 12.2282385 23.952069 8 27 12.2282385 15.4037772 17"></polygon>
                <polygon id="Path-4" points="3 0.907051857 4.74243173 4 15 2.35560572 12.4930187 0"></polygon>
                <polygon id="Path-5" points="17.5863404 0 15 2.19907728 23.7103167 7 27 3.5"></polygon>
                <polygon id="Path-6" points="5 13 11.1890091 13 15.1078077 18.1452007 23 14.9226745 23 19.4967993 12.5208641 24 5 15.5726003"></polygon>
            </g>
            <polygon id="Path-2" fill="#F27921" points="847 141 855.811861 151.301504 864.795015 151.301504 855.811861 141"></polygon>
            <polygon id="Path-3" fill="#F27921" points="866 150.99877 885.466318 145 890.430478 150.99877 871.543727 157.768658"></polygon>
            <polygon id="Path-4" fill="#F27921" points="853 135.460472 855.716103 140.440523 871.705601 137.792833 867.797718 134"></polygon>
            <polygon id="Path-5" fill="#F27921" points="876.192421 134 872 137.347838 886.119298 144.65668 891.451827 139.32834"></polygon>
            <polygon id="Path-6" fill="#F27921" points="855 152 865.034354 152 871.387974 159.916597 884.18373 154.958299 884.18373 161.996217 867.193715 168.925009 855 155.958299"></polygon>
            <g id="Stroke-3" transform="translate(840.000000, 0.000000)">
                <g id="path-23-Clipped">
                    <g>
                        <mask id="mask-44" fill="white">
                            <use xlink:href="#path-43"></use>
                        </mask>
                        <g id="path-41"></g>
                        <path d="M0.0999755859,30.1 C0.0999755859,13.53 13.5299756,0.100000001 30.0999756,0.100000001 C46.6699756,0.100000001 60.0999756,13.53 60.0999756,30.1 C60.0999756,46.67 46.6699756,60.1 30.0999756,60.1 C13.5299756,60.1 0.0999755859,46.67 0.0999755859,30.1 Z" id="path-23" stroke="#F27921" stroke-width="2" mask="url(#mask-44)"></path>
                    </g>
                </g>
            </g>
            <g id="Stroke-3" transform="translate(960.000000, 0.000000)">
                <g id="path-23-Clipped">
                    <g>
                        <mask id="mask-46" fill="white">
                            <use xlink:href="#path-45"></use>
                        </mask>
                        <g id="path-43"></g>
                        <path d="M0.0999755859,30.1 C0.0999755859,13.53 13.5299756,0.100000001 30.0999756,0.100000001 C46.6699756,0.100000001 60.0999756,13.53 60.0999756,30.1 C60.0999756,46.67 46.6699756,60.1 30.0999756,60.1 C13.5299756,60.1 0.0999755859,46.67 0.0999755859,30.1 Z" id="path-23" stroke="#F27921" stroke-width="2" mask="url(#mask-46)"></path>
                    </g>
                </g>
            </g>
            <g id="Stroke-3" transform="translate(960.000000, 120.000000)">
                <g id="path-23-Clipped">
                    <g>
                        <mask id="mask-48" fill="white">
                            <use xlink:href="#path-47"></use>
                        </mask>
                        <g id="path-45"></g>
                        <path d="M0.0999755859,30.1 C0.0999755859,13.53 13.5299756,0.100000001 30.0999756,0.100000001 C46.6699756,0.100000001 60.0999756,13.53 60.0999756,30.1 C60.0999756,46.67 46.6699756,60.1 30.0999756,60.1 C13.5299756,60.1 0.0999755859,46.67 0.0999755859,30.1 Z" id="path-23" stroke="#F27921" stroke-width="2" mask="url(#mask-48)"></path>
                    </g>
                </g>
            </g>
            <g id="Stroke-3" transform="translate(840.000000, 120.000000)">
                <g id="path-23-Clipped">
                    <g>
                        <mask id="mask-50" fill="white">
                            <use xlink:href="#path-49"></use>
                        </mask>
                        <g id="path-47"></g>
                        <path d="M0.0999755859,30.1 C0.0999755859,13.53 13.5299756,0.100000001 30.0999756,0.100000001 C46.6699756,0.100000001 60.0999756,13.53 60.0999756,30.1 C60.0999756,46.67 46.6699756,60.1 30.0999756,60.1 C13.5299756,60.1 0.0999755859,46.67 0.0999755859,30.1 Z" id="path-23" stroke="#F27921" stroke-width="2" mask="url(#mask-50)"></path>
                    </g>
                </g>
            </g>
            <text id="10" fill="#F27921" font-family="OpenSans-Semibold, Open Sans" font-size="13" font-weight="500">
                <tspan x="983" y="142">10</tspan>
            </text>
            <g id="NEW-GOODS-ICON" transform="translate(601.000000, 1.000000)">
                <mask id="mask-52" fill="white">
                    <use xlink:href="#path-51"></use>
                </mask>
                <g id="Mask"></g>
                <g id="Group" mask="url(#mask-52)">
                    <g transform="translate(-8.000000, 0.000000)">
                        <g id="Group" stroke-width="1" fill="none" fill-rule="evenodd" transform="translate(0.000000, 4.000000)">
                            <path d="M52.8,2.8 C52.8,4.1 52.9,5.5 52.8,6.8 L39.2,6.8 C39.6,9.2 40.5,11.8 43,14.2 C38.7,12.8 37.3,8.3 37.3,5.2 C37.3,5 37.4,3.7 37.6,2.8 C37.6,2.8 52.8,2.8 52.8,2.8 Z M54.1,0.4 C54.4,1.8 54.9,3.4 54.9,4.8 C54.9,7.8 54,11.2 51.1,13.9 C49.8,15.1 46,16.9 46,18.4 L46,22.5 C47.3,24.4 49.2,24.3 50.9,25.6 L50.9,26 L39.4,26 C39.4,26 39.3,26 39.3,25.8 C39.3,25.4 39.7,25.5 40.1,25.4 C41.5,24.3 43.1,24.2 44.4,22.7 L44.4,18.4 C43.7,16.3 40.8,15.4 39.3,14 C37.8,12.6 36.7,10.7 36.2,9.1 C36,8.2 35.6,6.5 35.6,6.3 L35.6,3.8 C35.8,2.6 36.1,1.5 36.4,0.4 C36.4,0.4 54.1,0.4 54.1,0.4 Z" id="Shape" fill="#F27921" fill-rule="nonzero"></path>
                            <path d="M37,47.6 C39.2,48.1 44.5,48.2 46.5,47.6 C48.4,47 49.5,46 50,45.3 C50.5,44.6 56.2,37.2 56.2,37.2 C56.2,37.2 57.3,35.5 57.6,36 C57.9,36.6 59,44.1 59,44.1 L60.4,43.7 L60.1,32 C60.1,32 60.4,30.3 60.5,29.9 C60.7,29.1 60.8,27.5 59.9,26.6 C58.8,25.6 56.4,24.1 55.4,23.7 C55,23.5 54.4,23.8 54.2,24.1 C53.9,24.5 54.9,25.6 53.8,29.4 C53.4,30.8 48.7,42.4 46.4,43.1 C44.2,43.7 43,42.3 42.6,42.1 C42.1,41.9 41.6,41.5 41.4,41.5 C40.7,41.7 39.1,43 38,44.3 C37,45.5 36.2,46.5 36.4,47 C36.3,47.3 36.5,47.4 37,47.6 Z" id="Path" fill="#F27921"></path>
                            <g transform="translate(0.000000, 14.000000)">
                                <path d="M23.8,8.4 L16.9,8.4 C14.7,8.4 12.9,6.7 12.9,4.4 C12.9,2.2 14.6,0.4 16.9,0.4 L23.8,0.4 C26,0.4 27.8,2.1 27.8,4.4 C27.7,6.6 25.9,8.4 23.8,8.4 Z" id="Path" fill="#F27921"></path>
                                <path d="M34.4,26.6 L5.4,26.6 C2.7,26.6 0.6,24.5 0.6,21.8 L0.6,8.7 C0.6,6 2.7,3.9 5.4,3.9 L34.4,3.9 C37.1,3.9 39.2,6 39.2,8.7 L39.2,21.8 C39.2,24.4 37.1,26.6 34.4,26.6 Z" id="Path" fill="#F27921"></path>
                                <circle id="Oval" stroke="#FFFFFF" stroke-width="4" cx="20.3" cy="15.3" r="7.4"></circle>
                                <circle id="Oval" fill="#FFFFFF" cx="33.8" cy="8.7" r="1.7"></circle>
                            </g>
                        </g>
                        <circle id="Oval" fill="none" cx="37.1" cy="29.1" r="29"></circle>
                        <path d="M52.8,6.8 C52.8,8.1 52.9,9.5 52.8,10.8 L39.2,10.8 C39.6,13.2 40.5,15.8 43,18.2 C38.7,16.8 37.3,12.3 37.3,9.2 C37.3,9 37.4,7.7 37.6,6.8 C37.6,6.8 52.8,6.8 52.8,6.8 Z" id="Path" fill="#FFFFFF" fill-rule="evenodd"></path>
                    </g>
                </g>
            </g>
            <g id="NEW-TRANSIT-ICON" transform="translate(241.000000, 121.000000)">
                <g id="Stroke-3_12_">
                    <g id="path-5-Clipped_1_">
                        <mask id="mask-54" fill="white">
                            <use xlink:href="#path-53"></use>
                        </mask>
                        <g id="Mask"></g>
                        <g id="Group" mask="url(#mask-54)">
                            <g transform="translate(-6.000000, 10.000000)">
                                <path d="M42.1,18 C42.4,19.2 42.6,19.8 42.8,19.7 C42.8,19.7 43.3,19.6 43.2,17.4 C43.2,17 43,13.6 43.1,13 C43.2,12.4 43.4,12 43.8,11.7 C44.5,11.1 45.9,11.1 45.9,11.1 L45.9,12.6 C45.9,12.6 45.9,12.9 45.9,12.6 C45.9,12.4 45.1,12.4 44.7,12.9 C44.2,13.5 44.5,15.5 44.5,17.6 C44.5,19.7 44.5,20.3 43.9,21.1 C43.6,21.5 42.7,21.6 42,21.2 C41,20.7 40.2,15.9 40.2,15.9 C40,16 39.8,15 39.8,15 C39.5,14.7 39.1,14.8 38.8,14.8 C38.5,14.7 38.2,14.4 38,14.1 C36.8,12.2 36.7,12.1 36.5,11.7 C36.4,11.5 36.2,10.5 36.1,9.9 C35.4,10 34.6,10.2 33.9,10.3 L33.3,9.3 C37.9,8.9 36.5,7.6 38.2,10.4 L40.9,14.2 C41,14.3 41.9,16.8 42.1,18 Z M57.7,3.6 L57.7,8.2 L48.2,8.2 L48.2,3.1 L56.7,3.1 C57.1,3.2 57.4,3.3 57.7,3.6 Z M58.8,0.2 C59.1,0.2 59.8,0.3 59.8,0.8 L59.8,23.5 C60.2,23.5 60.6,23.2 60.9,23.3 C61.8,23.7 60.8,24.6 61.1,25.6 L44.5,25.6 L44.5,23.9 C45,23.1 45.2,23.6 46,23.6 L46,0.7 C46.1,0.4 46.5,0.2 46.8,0.2 L58.8,0.2 Z M57.7,3.6 L57.7,8.2 L48.2,8.2 L48.2,3.1 L56.7,3.1 C57.1,3.2 57.4,3.3 57.7,3.6 Z" id="Shape" fill="#F27921" fill-rule="nonzero"></path>
                                <g id="Group" stroke-width="1" fill="none" fill-rule="evenodd" transform="translate(0.000000, 7.000000)">
                                    <path d="M38.9,29 L9.2,29 C4.2,29 0.1,24.9 0.1,19.9 C0.1,14.9 6.6,12.7 9.2,11.8 C9.2,11.8 16.2,9.6 23.2,9.6 C32.2,9.6 38.9,11.8 38.9,11.8 C44.6,13.4 48,14.8 48,19.9 C48,24.9 43.9,29 38.9,29 Z" id="Path" fill="#F27921"></path>
                                    <path d="M12.1,35 L9.5,35 C8.3,35 7.3,34 7.3,32.8 L7.3,28.1 C7.3,26.9 8.3,25.9 9.5,25.9 L12.1,25.9 C13.3,25.9 14.3,26.9 14.3,28.1 L14.3,32.8 C14.3,34 13.3,35 12.1,35 Z" id="Path" fill="#F27921"></path>
                                    <path d="M36.4,35 L39,35 C40.2,35 41.2,34 41.2,32.8 L41.2,28.1 C41.2,26.9 40.2,25.9 39,25.9 L36.4,25.9 C35.2,25.9 34.2,26.9 34.2,28.1 L34.2,32.8 C34.2,34 35.2,35 36.4,35 Z" id="Path" fill="#F27921"></path>
                                    <path d="M40.6,14.2 C41.1,15.6 40.5,11.9 40.3,10.3 C39.4,4.5 35.6,-2.84217094e-14 30,-2.84217094e-14 L24.2,-2.84217094e-14 L18.4,-2.84217094e-14 C12.7,-2.84217094e-14 9,4.6 8.1,10.3 C8,11 7.9,12 7.7,12.9 C7.5,14.1 7.5,14.9 7.7,14.1 C7.7,14.1 13.2,12.3 17.5,11.9 C21.8,11.5 22.5,11.4 24.7,11.5 C26.9,11.6 30.1,11.6 34,12.4 C37.9,13.2 40.6,14.2 40.6,14.2 Z" id="Path" stroke="#F27921" stroke-width="3" fill="#FFFFFF"></path>
                                    <circle id="Oval" fill="#FFFFFF" cx="8.1" cy="20.4" r="4.3"></circle>
                                    <circle id="Oval" fill="#FFFFFF" cx="39.9" cy="20.4" r="4.3"></circle>
                                </g>
                                <path d="M57.8,3.6 L57.8,8.2 L48.3,8.2 L48.3,3.1 L56.8,3.1 C57.2,3.2 57.5,3.3 57.8,3.6 Z" id="Path" fill="#FFFFFF" fill-rule="evenodd"></path>
                            </g>
                        </g>
                    </g>
                </g>
            </g>
        </g>
    </g>
</svg>