<svg width="18" height="18" viewBox="0 0 18 18" fill="none" xmlns="http://www.w3.org/2000/svg">
<path d="M17.8491 13.8396C17.9332 14.1112 17.9792 14.3428 17.9874 14.5341L18 16H13.1912C12.7345 15.8005 12.219 15.5909 11.6451 15.3708C11.0556 15.1447 10.6208 14.9564 10.3424 14.8058C9.99479 14.6165 9.72533 14.338 9.53306 13.9709C9.34127 13.6043 9.24514 13.2236 9.24514 12.8298C9.24514 12.5624 9.3962 12.2466 9.69786 11.882C9.85793 11.6877 10.0085 11.386 10.1501 10.9781C10.5706 10.7978 10.7809 10.4212 10.7809 9.84759C10.7809 9.42508 10.7146 9.12092 10.582 8.93611C10.6189 8.66921 10.6601 8.25829 10.7056 7.70385C10.7378 7.29092 10.6701 6.87899 10.5034 6.46807C10.3367 6.05765 10.1089 5.6991 9.82099 5.39293C9.53306 5.08625 9.19352 4.83748 8.80283 4.64511C8.75818 4.62318 8.71336 4.60251 8.66839 4.58308C8.69609 4.36618 8.75388 4.14959 8.84162 3.9333C8.99429 3.55743 9.20246 3.22906 9.46658 2.94866C9.73027 2.6678 10.0408 2.43997 10.399 2.2638C10.7568 2.08809 11.1259 2 11.4945 2C11.8628 2 12.2323 2.08809 12.5901 2.2638C12.9479 2.43997 13.2588 2.6678 13.5225 2.94866C13.7862 3.22906 13.9948 3.55743 14.1475 3.9333C14.3001 4.30963 14.3622 4.68688 14.3327 5.06505C14.291 5.57282 14.2533 5.94915 14.2195 6.19358C14.3409 6.36283 14.4016 6.64139 14.4016 7.02832C14.4016 7.55362 14.2091 7.89859 13.8239 8.06369C13.6943 8.43725 13.5563 8.7135 13.4098 8.89152C13.1335 9.22542 12.9951 9.51459 12.9951 9.75948C12.9951 10.1201 13.0832 10.4688 13.2588 10.8045C13.4349 11.1407 13.6817 11.3958 14 11.5692C14.255 11.7071 14.6532 11.8796 15.1931 12.0866C15.7331 12.2937 16.2166 12.4906 16.6434 12.6779C17.0706 12.8646 17.3551 13.0362 17.4978 13.1921C17.6483 13.3521 17.7654 13.568 17.8491 13.8396Z" fill="#4D9E3B"/>
<path d="M5.96792 12.8584C5.96336 13.2421 5.8673 13.6132 5.68017 13.9709C5.51241 14.2912 5.2859 14.544 5 14.7291L5.00167 14.5341C5.00991 14.3428 5.05588 14.1112 5.13959 13.8396C5.22329 13.568 5.34082 13.3521 5.49132 13.1921C5.58645 13.0878 5.74541 12.9766 5.96792 12.8584Z" fill="#4D9E3B"/>
<path fill-rule="evenodd" clip-rule="evenodd" d="M13.9865 17.7087C13.9776 17.5146 13.9281 17.2799 13.8376 17.0045C13.7475 16.729 13.6215 16.5102 13.4596 16.3479C13.3061 16.1899 12.9999 16.0159 12.5403 15.8266C12.0811 15.6367 11.5607 15.437 10.9797 15.2271C10.3987 15.0171 9.97033 14.8422 9.69593 14.7024C9.3534 14.5266 9.08787 14.268 8.8984 13.9271C8.7094 13.5867 8.61467 13.2332 8.61467 12.8675C8.61467 12.6192 8.76353 12.326 9.0608 11.9875C9.21853 11.807 9.36693 11.5269 9.50647 11.1481C9.92087 10.9807 10.1281 10.6309 10.1281 10.0983C10.1281 9.70602 10.0627 9.42358 9.93207 9.25197C9.96847 9.00414 10.0091 8.62257 10.0539 8.10773C10.0856 7.72429 10.0189 7.34179 9.8546 6.96022C9.69033 6.57912 9.46587 6.24618 9.18213 5.96187C8.8984 5.6771 8.5638 5.4461 8.1788 5.26747C7.7938 5.08931 7.3962 5 7 5C6.60333 5 6.2062 5.08931 5.8212 5.26747C5.43573 5.4461 5.1016 5.6771 4.81787 5.96187C4.53367 6.24618 4.30967 6.57912 4.1454 6.96022C3.98113 7.34179 3.9144 7.72429 3.94613 8.10773C3.99093 8.62257 4.03153 9.00414 4.06747 9.25197C3.9368 9.42358 3.87193 9.70602 3.87193 10.0983C3.87193 10.6309 4.07913 10.9807 4.49353 11.1481C4.63307 11.5269 4.78147 11.807 4.9392 11.9875C5.23647 12.326 5.38533 12.6192 5.38533 12.8675C5.38533 13.2332 5.2906 13.5867 5.1016 13.9271C4.91213 14.268 4.6466 14.5266 4.30407 14.7024C4.0292 14.8422 3.60127 15.0171 3.02027 15.2271C2.43927 15.437 1.91893 15.6367 1.45927 15.8266C1.00007 16.0159 0.693467 16.1899 0.5404 16.3479C0.378467 16.5102 0.252 16.729 0.161933 17.0045C0.0718667 17.2799 0.0224 17.5146 0.0135333 17.7087L0 18H14L13.9865 17.7087Z" fill="#268ECD"/>
</svg>
