<svg width="18" height="18" viewBox="0 0 18 18" fill="none" xmlns="http://www.w3.org/2000/svg">
<path fill-rule="evenodd" clip-rule="evenodd" d="M5.73014 17.2101V15.3603L3.06093 17.9935L4.49941 14.4353L2.40915 15.3603L3.92172 12.843L7.55028 15.571L5.73014 17.2101Z" fill="#F37070"/>
<path fill-rule="evenodd" clip-rule="evenodd" d="M1.60337 13.0707C1.60337 13.0707 0.576373 9.92968 2.9339 6.6774C4.31122 4.77746 6.49958 5.77131 6.49958 5.77131C6.49958 5.77131 4.8907 8.26337 3.8949 11.5898C2.12886 12.0163 1.60337 13.0707 1.60337 13.0707Z" fill="#E93C3C"/>
<path fill-rule="evenodd" clip-rule="evenodd" d="M14.4504 1.75675L15.6321 0.126282L16.0844 0.473636L14.9327 2.06331C15.1678 2.84578 15.6705 5.15613 14.5847 8.01408L9.08624 3.78278C11.3682 1.94711 13.5865 1.75304 14.4504 1.75675Z" fill="#E93C3C"/>
<path fill-rule="evenodd" clip-rule="evenodd" d="M4.4656 12.3056C4.4656 12.3056 6.23723 7.20581 7.50232 5.48652C8.07095 4.71401 8.66149 4.09476 9.25446 3.57193L14.7478 7.75902C14.4215 8.48332 14.0015 9.23976 13.4365 10.0073C12.1921 11.6994 7.86226 14.9032 7.86226 14.9032L4.4656 12.3056Z" fill="#F37070"/>
<path fill-rule="evenodd" clip-rule="evenodd" d="M8.5785 17.9929C8.5785 17.9929 9.41473 17.139 9.30869 15.1927C12.1343 13.1805 14.0043 10.7827 14.0043 10.7827C14.0043 10.7827 15.5575 12.7446 14.1742 14.7271C11.8065 18.1206 8.5785 17.9929 8.5785 17.9929Z" fill="#E93C3C"/>
</svg>
