<svg width="18" height="18" viewBox="0 0 18 18" fill="none" xmlns="http://www.w3.org/2000/svg">
<path fill-rule="evenodd" clip-rule="evenodd" d="M5.56915 12.616V8.85571L9.19057 6.05587L12.6386 8.85571V12.616H10.4305L13.9653 17.8761L17.5 12.616H15.2904V8.2319C15.2904 7.83692 15.1141 7.46235 14.8041 7.21457L11.5691 4.58818L10.31 3.56648L10.3336 1.38607C10.3336 0.660243 9.39331 0 8.66168 0C7.93005 0 7.19401 0.619433 7.19401 1.34526L7.21164 4.23838L7.25865 4.28065L3.40364 7.21457C3.09953 7.46235 2.91736 7.83692 2.91736 8.2319V12.616H0.707777L4.24399 17.8761L7.77873 12.616H5.56915Z" fill="#4D9E3B"/>
<path fill-rule="evenodd" clip-rule="evenodd" d="M14.7391 5.46205L8.72769 12.083L10.5928 13.9142L16.5986 7.32161L14.7391 5.46205Z" fill="#E08500"/>
<path fill-rule="evenodd" clip-rule="evenodd" d="M14.7216 4.73747L17.2897 7.30552L10.6129 14.6346L8.03428 12.1028L14.7216 4.73747ZM14.7565 6.18663L9.4211 12.0631L10.5727 13.1938L15.9076 7.33769L14.7565 6.18663Z" fill="white"/>
<path fill-rule="evenodd" clip-rule="evenodd" d="M7 16.0004L9.73904 14.9369L7.79544 13.1707L7 16.0004Z" fill="#614F08"/>
<path fill-rule="evenodd" clip-rule="evenodd" d="M14.7391 5.46205L8.72769 12.083L10.5928 13.9142L16.5986 7.32161L14.7391 5.46205Z" fill="#E08500"/>
</svg>
