<svg width="18" height="18" viewBox="0 0 18 18" fill="none" xmlns="http://www.w3.org/2000/svg">
<path fill-rule="evenodd" clip-rule="evenodd" d="M15 11.5H14.3555H3C1.34315 11.5 0 10.1569 0 8.5C0 6.84315 1.34315 5.5 3 5.5H3.02746C3.00932 5.33583 3 5.169 3 5C3 2.51472 5.01472 0.5 7.5 0.5C9.16736 0.5 10.6229 1.40682 11.4004 2.75419C11.7322 2.5914 12.1054 2.5 12.5 2.5C13.8807 2.5 15 3.61929 15 5C15 5.17123 14.9828 5.33844 14.95 5.5H15C16.6569 5.5 18 6.84315 18 8.5C18 10.1569 16.6569 11.5 15 11.5Z" fill="#ABDFF5"/>
<path fill-rule="evenodd" clip-rule="evenodd" d="M12.4711 10.9445C12.4711 10.9445 13.3104 10.9445 12.8852 10.5456L9.1704 6.63137C9.1704 6.63137 8.94789 6.32936 8.74612 6.64137L5.09924 10.5816C5.09924 10.5816 4.70703 10.9296 5.48203 10.9256L7.27719 10.9156L7.29605 15.7579C7.33753 16.51 8.05974 16.5 8.05974 16.5L9.96804 16.49C10.6884 16.46 10.694 15.6859 10.694 15.6859L10.6657 10.8956L12.4711 10.9445Z" fill="#4D9E3B"/>
<path fill-rule="evenodd" clip-rule="evenodd" d="M12.4711 11.9445V10.9871C12.4711 11.9445 12.4711 11.9445 12.4711 11.9445L12.4731 11.9445L12.4755 11.9445L12.4812 11.9444L12.4965 11.9443C12.5084 11.9441 12.5236 11.9437 12.5415 11.9431C12.5771 11.9418 12.6256 11.9394 12.6818 11.9345C12.781 11.9259 12.9582 11.9057 13.1409 11.8475C13.2322 11.8185 13.3682 11.7667 13.5064 11.6719C13.6444 11.5774 13.8462 11.3965 13.9476 11.0953C14.1602 10.4639 13.7598 10.0023 13.595 9.84093L9.91991 5.96846C9.89723 5.94189 9.86747 5.90907 9.83098 5.87346C9.76189 5.80602 9.63209 5.69224 9.44542 5.60796C9.2472 5.51847 8.94145 5.44553 8.59612 5.55469C8.30686 5.64613 8.10437 5.82939 7.96893 6.0089L4.38418 9.88201C4.37831 9.88785 4.37212 9.89412 4.36566 9.90079C4.33605 9.93135 4.29554 9.97588 4.25287 10.0322C4.19765 10.1051 4.00522 10.3656 4.0001 10.7415C3.99709 10.9629 4.06055 11.2015 4.21488 11.4112C4.36011 11.6086 4.54275 11.7224 4.68946 11.7875C4.95832 11.9069 5.25103 11.9269 5.4872 11.9256L6.2811 11.9212L6.29615 15.7875L6.29756 15.813C6.31175 16.0702 6.36938 16.2954 6.45715 16.49C6.7301 17.0951 7.3736 17.486 8.0308 17.4997L8.0648 17.5L9.99147 17.4899L10.0097 17.4891C10.8286 17.455 11.2986 16.9499 11.5084 16.4973C11.6036 16.2919 11.6476 16.0999 11.6691 15.9667C11.6802 15.8978 11.6863 15.8385 11.6897 15.7926C11.6914 15.7696 11.6924 15.7495 11.693 15.7329L11.6937 15.7105L11.6939 15.7012L11.694 15.6971L11.694 15.6951C11.694 15.6951 11.694 15.6933 10.694 15.6859C10.694 15.6859 10.6884 16.46 9.96804 16.49L8.05974 16.5C8.05974 16.5 7.33753 16.51 7.29605 15.758L7.27719 10.9156L5.48203 10.9256C5.47832 10.9257 5.47464 10.9257 5.47098 10.9257C5.4475 10.9257 5.42512 10.9254 5.40378 10.9248C4.73448 10.9053 5.09924 10.5816 5.09924 10.5816L8.74612 6.64138C8.94789 6.32936 9.1704 6.63138 9.1704 6.63138L12.8852 10.5456C13.2529 10.8905 12.6751 10.9372 12.512 10.9435C12.4865 10.9445 12.4711 10.9445 12.4711 10.9445L10.6657 10.8956L10.694 15.6859L11.694 15.6933L11.6941 15.68L11.6718 11.9232L12.4576 11.9445H12.4711Z" fill="white"/>
</svg>
