<svg width="18" height="18" viewBox="0 0 18 18" fill="none" xmlns="http://www.w3.org/2000/svg">
<path fill-rule="evenodd" clip-rule="evenodd" d="M5.36914 12.6157V8.85542L8.99056 6.05558L12.4386 8.85542V12.6157H10.2305L13.7652 17.8758L17.3 12.6157H15.0904V8.23161C15.0904 7.83663 14.9141 7.46206 14.6041 7.21428L11.3691 4.58789L10.11 3.56619L10.1335 1.38578C10.1335 0.659953 9.1933 -0.000289917 8.46167 -0.000289917C7.73004 -0.000289917 6.994 0.619143 6.994 1.34497L7.01163 4.23809L7.05864 4.28036L3.20363 7.21428C2.89952 7.46206 2.71735 7.83663 2.71735 8.23161V12.6157H0.507765L4.04398 17.8758L7.57872 12.6157H5.36914Z" fill="#4D9E3B"/>
</svg>
