<svg width="18" height="18" viewBox="0 0 18 18" fill="none" xmlns="http://www.w3.org/2000/svg">
<path d="M5.4 2.92876C4.06957 3.55485 2.81739 4.6505 2.50435 6.13746V9.03311C2.11304 9.73746 0.626087 10.6766 0.626087 10.9896C0.626087 11.3809 2.26957 11.5375 2.50435 12.0853C2.66087 12.2418 2.66087 12.5548 2.66087 12.7114C2.81739 12.8679 3.05217 12.6331 3.13043 13.0244C3.2087 13.3375 2.58261 13.3375 2.58261 13.6505C2.58261 14.0418 2.73913 14.7462 2.73913 15.0592C2.89565 15.2157 3.13043 15.294 3.28696 15.4505H5.86957C6.57391 16.5462 6.26087 15.9201 6.41739 17.0157H11.3478V16.6244C11.3478 16.2331 11.1913 15.1375 11.5043 14.7462C11.8957 13.807 12.3652 12.8679 12.8348 11.9288C13.6957 10.9114 14.1652 9.58094 14.1652 8.09398C14.1652 4.80702 11.6609 2.14615 8.53044 2.14615C7.51304 1.98963 6.26087 2.30268 5.4 2.92876Z" fill="#268ECD"/>
<path fill-rule="evenodd" clip-rule="evenodd" d="M8.5494 1.89618C11.822 1.9069 14.4152 4.68892 14.4152 8.09398C14.4152 9.6232 13.9353 11.0034 13.0451 12.0671C12.5794 12.9987 12.1189 13.9212 11.7351 14.8423C11.7261 14.8639 11.7142 14.8841 11.6996 14.9023C11.6596 14.9523 11.6204 15.0458 11.5939 15.1938C11.5683 15.337 11.5587 15.5064 11.5587 15.6853C11.5587 15.8632 11.5681 16.0428 11.5778 16.206C11.5793 16.2308 11.5808 16.2554 11.5823 16.2798C11.5903 16.4107 11.5978 16.5338 11.5978 16.6244V17.0157C11.5978 17.1538 11.4859 17.2657 11.3478 17.2657H6.41739C6.29298 17.2657 6.1875 17.1742 6.1699 17.0511C6.12945 16.7679 6.1189 16.5925 6.11494 16.4711C6.11355 16.4285 6.11279 16.3976 6.11222 16.3746C6.11092 16.3226 6.11063 16.3107 6.10638 16.2937C6.10293 16.28 6.09356 16.2531 6.01986 16.1382C5.99178 16.0944 5.9574 16.0422 5.914 15.9763C5.90326 15.96 5.89197 15.9429 5.88008 15.9248C5.83814 15.8611 5.78957 15.7871 5.73341 15.7005H3.28696C3.22065 15.7005 3.15706 15.6742 3.11018 15.6273C3.05748 15.5746 2.98743 15.531 2.88442 15.4692L2.87493 15.4635C2.78333 15.4086 2.66267 15.3363 2.56235 15.236C2.51547 15.1891 2.48913 15.1255 2.48913 15.0592C2.48913 14.9306 2.45662 14.7113 2.4176 14.448L2.41357 14.4208C2.37532 14.1626 2.33261 13.8685 2.33261 13.6505C2.33261 13.474 2.42617 13.3517 2.51718 13.2742C2.59299 13.2097 2.68682 13.16 2.75124 13.1259C2.75716 13.1227 2.76284 13.1197 2.76822 13.1169C2.82599 13.0861 2.85996 13.066 2.88038 13.0512C2.87796 13.0414 2.87562 13.0333 2.87351 13.0268C2.86703 13.0265 2.85917 13.0262 2.84921 13.0259C2.82699 13.0251 2.79237 13.024 2.75579 13.019C2.67563 13.0082 2.57377 12.9778 2.48409 12.8881C2.43721 12.8413 2.41087 12.7777 2.41087 12.7114C2.41087 12.6317 2.41042 12.5337 2.39471 12.4394C2.37803 12.3394 2.35041 12.2849 2.32757 12.2621C2.30508 12.2396 2.28709 12.213 2.27456 12.1838C2.25222 12.1316 2.17502 12.0532 1.99598 11.9595C1.82682 11.8711 1.61565 11.7933 1.39342 11.7143C1.37392 11.7074 1.35426 11.7004 1.3345 11.6934C1.13896 11.6241 0.934002 11.5515 0.775441 11.4728C0.688023 11.4295 0.59743 11.3761 0.52567 11.3085C0.45347 11.2404 0.376087 11.1339 0.376087 10.9896C0.376087 10.8655 0.442834 10.7605 0.48849 10.6976C0.541892 10.6241 0.612848 10.5478 0.689266 10.4726C0.829365 10.3349 1.01407 10.1761 1.20318 10.0135C1.22056 9.99859 1.23799 9.98361 1.25542 9.96861C1.46625 9.7872 1.68263 9.5992 1.87013 9.41405C2.03756 9.24873 2.17037 9.09676 2.25435 8.96446V6.13746C2.25435 6.12015 2.25615 6.10289 2.25971 6.08596C2.5939 4.49857 3.9145 3.35692 5.27232 2.71259C6.17836 2.06238 7.4757 1.73715 8.5494 1.89618ZM8.49242 2.39325C7.54266 2.24713 6.3566 2.54218 5.54704 3.13095C5.5343 3.14021 5.52071 3.14826 5.50645 3.15497C4.21867 3.76098 3.05332 4.79807 2.75435 6.16398V9.03311C2.75435 9.0756 2.74352 9.11738 2.72289 9.15452C2.60727 9.36264 2.42015 9.57362 2.22144 9.76983C2.02009 9.96865 1.79136 10.1671 1.58154 10.3476C1.56517 10.3617 1.54895 10.3756 1.53287 10.3895C1.33909 10.5561 1.16729 10.7038 1.03981 10.8292C0.980423 10.8876 0.93642 10.9356 0.906533 10.9736C0.928446 10.9881 0.95823 11.0054 0.997658 11.0249C1.12766 11.0894 1.30346 11.1518 1.50867 11.2246C1.52588 11.2308 1.54331 11.2369 1.56093 11.2432C1.77892 11.3207 2.02264 11.4093 2.22766 11.5165C2.40997 11.6118 2.61074 11.746 2.71386 11.944C2.82332 12.0729 2.86738 12.2341 2.8879 12.3572C2.89771 12.4161 2.90333 12.4743 2.90655 12.5278C2.92089 12.5285 2.93673 12.5296 2.95261 12.5314C3.02654 12.5396 3.13174 12.5646 3.22284 12.6557C3.30636 12.7392 3.35003 12.8507 3.37453 12.9702C3.39276 13.0474 3.39201 13.1267 3.36781 13.2035C3.34356 13.2805 3.30048 13.3401 3.25685 13.3848C3.17927 13.4644 3.07515 13.5199 3.00866 13.5553L3.00352 13.558C2.92078 13.6022 2.87341 13.6276 2.84124 13.655C2.83749 13.6582 2.8347 13.6608 2.83267 13.6628C2.83427 13.8357 2.86909 14.0838 2.90817 14.3476C2.91082 14.3654 2.91349 14.3834 2.91618 14.4015C2.94393 14.588 2.97302 14.7836 2.98428 14.94C3.02654 14.9708 3.07776 15.0021 3.14167 15.0405L3.15115 15.0462C3.21878 15.0867 3.30223 15.1367 3.38165 15.2005H5.86957C5.95463 15.2005 6.03386 15.2438 6.07986 15.3153C6.16723 15.4512 6.23883 15.5604 6.29774 15.6499C6.30911 15.6672 6.32007 15.6839 6.33063 15.6999C6.37424 15.7661 6.41085 15.8216 6.44074 15.8683C6.51133 15.9783 6.56555 16.0689 6.59145 16.1725C6.61037 16.2482 6.61202 16.331 6.6135 16.4056C6.61383 16.4225 6.61416 16.439 6.61468 16.4549C6.61702 16.5267 6.62207 16.6244 6.63756 16.7657H11.0978V16.6244C11.0978 16.5505 11.0915 16.4467 11.0835 16.3147C11.0819 16.2894 11.0803 16.2631 11.0787 16.2358C11.0689 16.0712 11.0587 15.8791 11.0587 15.6853C11.0587 15.4925 11.0687 15.2901 11.1017 15.1056C11.1317 14.9383 11.1846 14.762 11.2857 14.6209C11.6779 13.6835 12.1458 12.7478 12.6091 11.8211L12.6112 11.817C12.6201 11.7992 12.6311 11.7825 12.6439 11.7673C13.4631 10.7992 13.9152 9.52754 13.9152 8.09398C13.9152 4.9317 11.5098 2.39615 8.53044 2.39615C8.51771 2.39615 8.505 2.39518 8.49242 2.39325Z" fill="#268ECD"/>
<path d="M10.5804 0.972236C10.5804 0.908112 10.6021 0.852161 10.6347 0.8155C10.6632 0.783441 10.7113 0.75267 10.8 0.75267H12.1304C12.1946 0.75267 12.2505 0.774326 12.2872 0.806914C12.3192 0.835411 12.35 0.883553 12.35 0.972236V1.12876C12.35 1.32662 12.3997 1.5181 12.5152 1.67689C12.6278 1.83169 12.7902 1.93783 12.9865 1.99152L13.6552 2.28869C13.8354 2.40007 14.0501 2.41763 14.2276 2.39396C14.4093 2.36972 14.6043 2.29536 14.7333 2.1664L15.1246 1.7751C15.1369 1.76275 15.1964 1.73093 15.3 1.73093C15.4036 1.73093 15.463 1.76275 15.4754 1.7751L16.1797 2.47945C16.1921 2.49179 16.2239 2.55128 16.2239 2.65484C16.2239 2.75841 16.1921 2.81789 16.1797 2.83024L15.7709 3.23905L15.7572 3.25965C15.5834 3.52036 15.4446 3.93973 15.6636 4.29561L15.9717 5.06604L15.9764 5.07534C16.0543 5.23107 16.1972 5.32279 16.3396 5.37458C16.4833 5.42683 16.6514 5.44832 16.8261 5.44832C16.922 5.44832 16.9935 5.48455 17.0308 5.52184C17.0662 5.55716 17.0618 5.5789 17.0585 5.58883L17.0457 5.62732V6.92006C17.0457 7.03845 17.0157 7.11434 16.983 7.15519C16.9564 7.18854 16.9135 7.21789 16.8261 7.21789C16.6282 7.21789 16.4367 7.26762 16.278 7.38309C16.1232 7.49568 16.017 7.65811 15.9633 7.85441L15.6662 8.52304C15.5548 8.70331 15.5372 8.91796 15.5609 9.09549C15.5851 9.27723 15.6595 9.47223 15.7884 9.60119L16.1603 9.973C16.203 10.0447 16.2239 10.1254 16.2239 10.1972C16.2239 10.2777 16.1989 10.3241 16.1797 10.3433L15.4949 11.0281C15.4232 11.0709 15.3425 11.0918 15.2707 11.0918C15.1902 11.0918 15.1438 11.0668 15.1246 11.0476L14.7158 10.6388L14.6952 10.6251C14.4334 10.4506 14.0116 10.3113 13.6548 10.5342L12.9781 10.835C12.6698 10.9431 12.35 11.2552 12.35 11.694V11.7722C12.35 11.8906 12.3201 11.9665 12.2874 12.0074C12.2607 12.0407 12.2179 12.0701 12.1304 12.0701H10.8C10.7274 12.0701 10.5804 11.9726 10.5804 11.7722V11.694C10.5804 11.4961 10.5307 11.3046 10.4152 11.1458C10.3069 10.9969 10.1524 10.893 9.96602 10.8375L9.52998 10.5468C9.34576 10.424 9.12173 10.4042 8.93761 10.4288C8.75587 10.453 8.56088 10.5274 8.43192 10.6563L8.04061 11.0476C8.02827 11.06 7.96878 11.0918 7.86522 11.0918C7.76166 11.0918 7.70217 11.06 7.68982 11.0476L7.00496 10.3628C6.96217 10.2911 6.9413 10.2104 6.9413 10.1385C6.9413 10.0581 6.96632 10.0116 6.98547 9.99249L7.39428 9.58368L7.40801 9.56308C7.61924 9.24624 7.61038 8.84759 7.51543 8.56274L7.50981 8.54589L7.19607 7.9184C7.08607 7.61196 6.77518 7.29615 6.33913 7.29615H6.02609C5.9535 7.29615 5.80652 7.19872 5.80652 6.99832V5.66789C5.80652 5.60376 5.82818 5.54781 5.86077 5.51115C5.88926 5.47909 5.9374 5.44832 6.02609 5.44832H6.33913C6.53699 5.44832 6.72848 5.39859 6.88726 5.28312C7.03861 5.17305 7.14344 5.01534 7.19821 4.82491L7.49154 4.31159C7.60965 4.12892 7.62852 3.9087 7.60433 3.72724C7.5801 3.5455 7.50573 3.3505 7.37678 3.22155L6.98547 2.83024C6.97313 2.81789 6.9413 2.75841 6.9413 2.65484C6.9413 2.55128 6.97313 2.49179 6.98547 2.47945L7.67033 1.79459C7.74202 1.75179 7.82275 1.73093 7.89457 1.73093C7.97499 1.73093 8.02146 1.75595 8.04061 1.7751L8.44942 2.18391L8.47002 2.19764C8.78686 2.40887 9.18551 2.40001 9.47036 2.30506L9.50212 2.29447L9.97415 1.97978C10.2755 1.86487 10.5804 1.55724 10.5804 1.12876V0.972236Z" fill="#268ECD"/>
<path fill-rule="evenodd" clip-rule="evenodd" d="M10.261 0.483318C10.389 0.339291 10.5756 0.25267 10.8 0.25267H12.1304C12.3011 0.25267 12.4799 0.309275 12.6194 0.433209C12.7634 0.561233 12.85 0.747875 12.85 0.972236V1.12876C12.85 1.24394 12.8785 1.32637 12.9196 1.3828C12.9593 1.43736 13.0235 1.48564 13.1302 1.51231L13.1513 1.51757L13.8949 1.84807L13.9126 1.85988C13.9632 1.89359 14.0522 1.91292 14.1615 1.89834C14.2733 1.88344 14.3522 1.84042 14.3797 1.81285L14.771 1.42155C14.9152 1.27737 15.1296 1.23093 15.3 1.23093C15.4704 1.23093 15.6848 1.27737 15.829 1.42155L16.5333 2.12589C16.6775 2.27007 16.7239 2.48449 16.7239 2.65484C16.7239 2.8252 16.6775 3.03962 16.5333 3.18379L16.1605 3.55655C16.037 3.75233 16.0248 3.93706 16.095 4.04226L16.1094 4.06391L16.4259 4.85513C16.432 4.86305 16.4525 4.88361 16.5104 4.90468C16.5819 4.93068 16.6877 4.94832 16.8261 4.94832C17.0432 4.94832 17.2456 5.02949 17.3844 5.16828C17.5158 5.29975 17.5966 5.49424 17.5457 5.70252V6.92006C17.5457 7.11471 17.4973 7.31274 17.3735 7.46754C17.2436 7.62984 17.0517 7.71789 16.8261 7.71789C16.7109 7.71789 16.6285 7.74642 16.572 7.78746C16.5175 7.82714 16.4692 7.89141 16.4425 7.99809L16.4373 8.01915L16.1068 8.76278L16.095 8.78048C16.0613 8.83104 16.0419 8.92006 16.0565 9.02941C16.0714 9.14115 16.1144 9.22007 16.142 9.24763L16.5508 9.65644L16.5645 9.67704C16.6703 9.83573 16.7239 10.021 16.7239 10.1972C16.7239 10.3712 16.6707 10.5595 16.5333 10.6968L15.8114 11.4187L15.7908 11.4324C15.6322 11.5382 15.4469 11.5918 15.2707 11.5918C15.0967 11.5918 14.9084 11.5386 14.771 11.4012L14.3983 11.0284C14.2025 10.9049 14.0178 10.8927 13.9126 10.9629L13.8949 10.9747L13.1601 11.3012L13.1486 11.3051C12.9911 11.3576 12.85 11.5126 12.85 11.694V11.7722C12.85 11.9669 12.8017 12.1649 12.6778 12.3197C12.548 12.482 12.356 12.5701 12.1304 12.5701H10.8C10.403 12.5701 10.0804 12.1979 10.0804 11.7722V11.694C10.0804 11.5788 10.0519 11.4964 10.0109 11.4399C9.97118 11.3854 9.90692 11.3371 9.80024 11.3104L9.75822 11.2999L9.25263 10.9629C9.20206 10.9291 9.11305 10.9098 9.00369 10.9244C8.89195 10.9393 8.81304 10.9823 8.78547 11.0099L8.39417 11.4012C8.24999 11.5454 8.03557 11.5918 7.86522 11.5918C7.69487 11.5918 7.48044 11.5454 7.33627 11.4012L6.61441 10.6793L6.60068 10.6587C6.49489 10.5 6.4413 10.3148 6.4413 10.1385C6.4413 9.96462 6.49455 9.77631 6.63192 9.63894L7.0037 9.26715C7.09174 9.11942 7.0998 8.91084 7.04611 8.73651L6.73366 8.11163L6.72805 8.09477C6.67553 7.93722 6.5205 7.79615 6.33913 7.79615H6.02609C5.62911 7.79615 5.30652 7.42401 5.30652 6.99832V5.66789C5.30652 5.49723 5.36313 5.3184 5.48706 5.17897C5.61508 5.03494 5.80173 4.94832 6.02609 4.94832H6.33913C6.45431 4.94832 6.53674 4.91979 6.59317 4.87875C6.64773 4.83907 6.69601 4.77481 6.72268 4.66812L6.73105 4.63467L7.06547 4.04942L7.07025 4.04226C7.10396 3.99169 7.1233 3.90268 7.10871 3.79332C7.09382 3.68158 7.05079 3.60266 7.02322 3.5751L6.63192 3.18379C6.48774 3.03962 6.4413 2.8252 6.4413 2.65484C6.4413 2.48449 6.48774 2.27007 6.63192 2.12589L7.35377 1.40404L7.37437 1.39031C7.53306 1.28451 7.71832 1.23093 7.89456 1.23093C8.06848 1.23093 8.2568 1.28418 8.39417 1.42155L8.76595 1.79333C8.90975 1.87903 9.11121 1.88894 9.28261 1.83989L9.75005 1.52826L9.78181 1.51767C9.93937 1.46516 10.0804 1.31013 10.0804 1.12876V0.972236C10.0804 0.801576 10.137 0.622744 10.261 0.483318ZM10.6347 0.8155C10.6021 0.852161 10.5804 0.908112 10.5804 0.972236V1.12876C10.5804 1.55724 10.2755 1.86487 9.97415 1.97978L9.50212 2.29447L9.47036 2.30506C9.18551 2.40001 8.78686 2.40887 8.47002 2.19764L8.44942 2.18391L8.04061 1.7751C8.02146 1.75595 7.97499 1.73093 7.89456 1.73093C7.82275 1.73093 7.74202 1.75179 7.67033 1.79459L6.98547 2.47945C6.97312 2.49179 6.9413 2.55128 6.9413 2.65484C6.9413 2.75841 6.97312 2.81789 6.98547 2.83024L7.37678 3.22155C7.50573 3.3505 7.5801 3.5455 7.60433 3.72724C7.62852 3.9087 7.60965 4.12892 7.49153 4.31159L7.19821 4.82491C7.14344 5.01534 7.03861 5.17305 6.88726 5.28312C6.72848 5.39859 6.53699 5.44832 6.33913 5.44832H6.02609C5.9374 5.44832 5.88926 5.47909 5.86077 5.51115C5.82818 5.54781 5.80652 5.60376 5.80652 5.66789V6.99832C5.80652 7.19872 5.9535 7.29615 6.02609 7.29615H6.33913C6.77518 7.29615 7.08607 7.61196 7.19607 7.9184L7.50981 8.54589L7.51543 8.56274C7.61038 8.84759 7.61924 9.24624 7.40801 9.56308L7.39428 9.58368L6.98547 9.99249C6.96632 10.0116 6.9413 10.0581 6.9413 10.1385C6.9413 10.2104 6.96217 10.2911 7.00496 10.3628L7.68982 11.0476C7.70217 11.06 7.76166 11.0918 7.86522 11.0918C7.96878 11.0918 8.02827 11.06 8.04061 11.0476L8.43192 10.6563C8.56088 10.5274 8.75587 10.453 8.93761 10.4288C9.12173 10.4042 9.34576 10.424 9.52998 10.5468L9.96602 10.8375C10.1524 10.893 10.3069 10.9969 10.4152 11.1458C10.5307 11.3046 10.5804 11.4961 10.5804 11.694V11.7722C10.5804 11.9726 10.7274 12.0701 10.8 12.0701H12.1304C12.2179 12.0701 12.2607 12.0407 12.2874 12.0074C12.3201 11.9665 12.35 11.8906 12.35 11.7722V11.694C12.35 11.2552 12.6698 10.9431 12.9781 10.835L13.6548 10.5342C14.0116 10.3113 14.4334 10.4506 14.6952 10.6251L14.7158 10.6388L15.1246 11.0476C15.1438 11.0668 15.1902 11.0918 15.2707 11.0918C15.3425 11.0918 15.4232 11.0709 15.4949 11.0281L16.1797 10.3433C16.1989 10.3241 16.2239 10.2777 16.2239 10.1972C16.2239 10.1254 16.203 10.0447 16.1603 9.973L15.7884 9.60119C15.6595 9.47223 15.5851 9.27723 15.5609 9.09549C15.5372 8.91796 15.5548 8.70331 15.6662 8.52304L15.9633 7.85441C16.017 7.65811 16.1232 7.49568 16.278 7.38309C16.4367 7.26762 16.6282 7.21789 16.8261 7.21789C16.9135 7.21789 16.9564 7.18854 16.983 7.15519C17.0157 7.11434 17.0457 7.03845 17.0457 6.92006V5.62732L17.0585 5.58883C17.0618 5.5789 17.0661 5.55716 17.0308 5.52184C16.9935 5.48455 16.922 5.44832 16.8261 5.44832C16.6514 5.44832 16.4833 5.42683 16.3396 5.37458C16.1972 5.32279 16.0543 5.23107 15.9764 5.07534L15.9717 5.06604L15.6636 4.29561C15.4446 3.93973 15.5834 3.52036 15.7572 3.25965L15.7709 3.23905L16.1797 2.83024C16.1921 2.81789 16.2239 2.75841 16.2239 2.65484C16.2239 2.55128 16.1921 2.49179 16.1797 2.47945L15.4754 1.7751C15.463 1.76275 15.4036 1.73093 15.3 1.73093C15.1964 1.73093 15.1369 1.76275 15.1246 1.7751L14.7333 2.1664C14.6043 2.29536 14.4093 2.36972 14.2276 2.39396C14.0501 2.41763 13.8354 2.40007 13.6552 2.28869L12.9865 1.99152C12.7902 1.93783 12.6278 1.83169 12.5152 1.67689C12.3997 1.5181 12.35 1.32662 12.35 1.12876V0.972236C12.35 0.883553 12.3192 0.835411 12.2872 0.806914C12.2505 0.774326 12.1946 0.75267 12.1304 0.75267H10.8C10.7113 0.75267 10.6632 0.783441 10.6347 0.8155Z" fill="white"/>
<path d="M11.5826 3.71137C13.0696 3.71137 14.3217 4.96354 14.3217 6.4505C14.3217 7.93746 13.0696 9.18963 11.5826 9.18963C10.0957 9.18963 8.84348 7.93746 8.84348 6.4505C8.84348 4.96354 10.0957 3.71137 11.5826 3.71137Z" fill="white"/>
</svg>
