<svg width="18" height="18" viewBox="0 0 18 18" fill="none" xmlns="http://www.w3.org/2000/svg">
<path d="M3 0.5V1.75C3 2.30228 3.44772 2.75 4 2.75V1.5H14V2.75C14.5523 2.75 15 2.30228 15 1.75V0.5H3Z" fill="#268ECD"/>
<path d="M6.78873 9.05486C7.03348 8.75435 7.02994 8.25219 6.78452 7.96073C5.85873 6.86126 4.5 4.77766 4.5 2H5.5C5.5 4.44627 6.69968 6.30742 7.54944 7.31662C8.10852 7.98058 8.10809 9.01843 7.56409 9.68636C6.82532 10.5935 5.79623 12.2276 5.55301 14.5H12.447C12.2038 12.2276 11.1747 10.5935 10.4359 9.68636C9.89191 9.01843 9.89148 7.98058 10.4506 7.31662C11.3003 6.30742 12.5 4.44627 12.5 2H13.5C13.5 4.77766 12.1413 6.86126 11.2155 7.96073C10.9701 8.25219 10.9665 8.75435 11.2113 9.05486C12.1444 10.2006 13.5 12.3989 13.5 15.5H4.5C4.5 12.3989 5.85556 10.2006 6.78873 9.05486Z" fill="#268ECD"/>
<path d="M3 15.75V17H15V15.75C15 15.1977 14.5523 14.75 14 14.75V16H4V14.75C3.44772 14.75 3 15.1977 3 15.75Z" fill="#268ECD"/>
<path d="M14 1.5H4V2H5.50001C5.50001 4.44627 6.69968 6.30742 7.54945 7.31662C8.10853 7.98058 8.1081 9.01843 7.56409 9.68636C6.82532 10.5935 5.79624 12.2276 5.55302 14.5H12.447C12.2038 12.2276 11.1747 10.5935 10.4359 9.68636C9.89191 9.01843 9.89149 7.98058 10.4506 7.31662C11.3003 6.30742 12.5 4.44627 12.5 2H14V1.5Z" fill="white"/>
<path d="M9 6C7.5 6 6.5 5.25 6.5 5.25C6.5 5.25 8 7 8.5 8C9 9 9 9.5 9 9.5C9 9.5 9 9 9.5 8C10 7 11.5 5.25 11.5 5.25C11.5 5.25 10.5 6 9 6Z" fill="#F0B82C"/>
<path d="M8 12.5C9 12 8.99994 11.5 8.99994 11.5V14.25H6C6.00005 13.4123 6.55271 13.1754 7.48225 12.7455C7.6623 12.6623 7.83773 12.5811 8 12.5Z" fill="#F0B82C"/>
<path d="M8.99994 11.5C8.99994 11.5 8.99994 12 9.99994 12.5C10.1622 12.5811 10.3376 12.6623 10.5177 12.7455C11.4472 13.1754 11.9999 13.4123 12 14.25H8.99994V11.5Z" fill="#F0B82C"/>
</svg>
