<svg width="18" height="18" viewBox="0 0 18 18" fill="none" xmlns="http://www.w3.org/2000/svg">
<path fill-rule="evenodd" clip-rule="evenodd" d="M13.2671 7.94128H4.73407V4.83938C4.73407 2.75302 6.64344 1.58895 9.00058 1.58895C11.3577 1.58895 13.2671 2.75302 13.2671 4.83938V7.94128ZM2.59965 7.94128C1.71457 7.94128 1 8.65055 1 9.52907V16.4111C1 17.2907 1.71457 18 2.59965 18H15.4003C16.2854 18 17 17.2907 17 16.4111V9.52907C17 8.65055 16.2854 7.94128 15.4003 7.94128H14.8667V4.76454C14.8667 2.13356 12.7172 0 10.0666 0H7.93337C5.28275 0 3.13326 2.13356 3.13326 4.76454V7.94128H2.59965Z" fill="#E2B30C"/>
<path fill-rule="evenodd" clip-rule="evenodd" d="M13.2671 8.02061H4.73407V4.91871C4.73407 2.83235 6.64344 1.66828 9.00058 1.66828C11.3577 1.66828 13.2671 2.83235 13.2671 4.91871V8.02061ZM15.4003 8.02061H14.8667V4.84387C14.8667 2.2129 12.7172 0.0793323 10.0666 0.0793323H7.93337C5.28275 0.0793323 3.13326 2.2129 3.13326 4.84387V8.02061H2.59965H15.4003Z" fill="#6A6A6A"/>
</svg>
