<svg width="18" height="18" viewBox="0 0 18 18" fill="none" xmlns="http://www.w3.org/2000/svg">
<path fill-rule="evenodd" clip-rule="evenodd" d="M8.9796 0C4.02 0 0 4.02 0 8.9796C0 13.938 4.02 17.958 8.9796 17.958C13.9392 17.958 17.9592 13.938 17.9592 8.9796C17.9592 4.02 13.9392 0 8.9796 0Z" fill="#268ECD"/>
<path fill-rule="evenodd" clip-rule="evenodd" d="M9.2812 4.996C9.2812 5.59 9.73 5.992 10.2832 5.992C10.834 5.992 11.2828 5.59 11.2828 4.996C11.2828 4.402 10.834 4 10.2832 4C9.73 4 9.2812 4.402 9.2812 4.996ZM7 8.488C7 8.608 7.0336 8.8624 7.0576 9.0388L7.5484 8.4304L7.9312 7.9888C8.11 7.7884 8.3224 7.6516 8.428 7.6888C8.5336 7.726 8.5936 7.8508 8.5588 7.9684L7.1116 12.7588C6.9628 13.2556 7.2136 13.7872 7.6768 13.9468C7.7848 13.984 7.894 13.9984 7.9996 13.9924H8.0272C9.1324 13.9924 9.892 13.1788 10.5484 12.1936C10.5484 12.0772 10.5172 11.8204 10.492 11.6428L10.0012 12.2512L9.6184 12.694C9.4384 12.8932 9.2128 13.03 9.1072 12.9928C9.0076 12.9592 8.95 12.8476 8.9704 12.7396L10.426 7.9288C10.5748 7.4284 10.3228 6.898 9.8584 6.7372C9.7528 6.7 9.5272 6.6892 9.5212 6.6892C8.416 6.6892 7.6564 7.5028 7 8.488Z" fill="white"/>
</svg>
