<svg width="18" height="18" viewBox="0 0 18 18" fill="none" xmlns="http://www.w3.org/2000/svg">
<path d="M16.9508 5.07516L15.2365 9.64659C15.125 9.94393 14.8407 10.141 14.5231 10.141H6.77013L7.06993 11.125C7.16815 11.4479 7.4613 11.6648 7.79873 11.6648H13.7143C14.2666 11.6648 14.7143 12.1125 14.7143 12.6648V13.1886H7.79873C6.78608 13.1886 5.90736 12.5379 5.61234 11.5692L3.24106 3.78605C3.14322 3.49327 2.85267 3.28382 2.52417 3.28382H1V1.76001H2.52417C3.50929 1.76001 4.38094 2.38799 4.6927 3.32288L4.91294 4.04572H16.2374C16.7694 4.04572 17.1376 4.57707 16.9508 5.07516ZM6.71428 13.9505C6.08309 13.9505 5.57142 14.4622 5.57142 15.0933C5.57142 15.7245 6.08309 16.2362 6.71428 16.2362C7.34546 16.2362 7.85713 15.7245 7.85713 15.0933C7.85713 14.4622 7.34546 13.9505 6.71428 13.9505ZM14.3333 13.9505C13.7021 13.9505 13.1905 14.4622 13.1905 15.0933C13.1905 15.7245 13.7021 16.2362 14.3333 16.2362C14.9645 16.2362 15.4762 15.7245 15.4762 15.0933C15.4762 14.4622 14.9645 13.9505 14.3333 13.9505Z" fill="#268ECD"/>
</svg>
