<svg width="18" height="18" viewBox="0 0 18 18" fill="none" xmlns="http://www.w3.org/2000/svg">
<path d="M8.96602 17C8.00643 17 7.23876 16.2323 7.23876 15.2727C7.23876 14.3132 8.00643 13.5455 8.96602 13.5455C9.9256 13.5455 10.6933 14.3132 10.6933 15.2727C10.6933 16.2323 9.9256 17 8.96602 17ZM12.8683 7.27619C12.6764 7.53208 12.4525 7.78797 12.2286 8.01187C12.0687 8.1718 11.8768 8.33173 11.6529 8.58762C11.397 8.81153 11.2051 9.00344 11.0451 9.19536C10.8852 9.35529 10.7253 9.51522 10.6293 9.64317C10.3414 10.027 10.2135 10.5388 10.2455 11.0186V12.0101H7.75054V10.6667C7.71855 10.2189 7.78253 9.77111 7.97444 9.32331C8.23033 8.90749 8.51821 8.52365 8.90204 8.1718L10.5014 6.57249C10.8532 6.18866 11.0131 5.70886 11.0131 5.19708C11.0131 4.6853 10.8212 4.20551 10.4694 3.85366C10.1175 3.50181 9.60574 3.3099 9.09396 3.3099C8.58218 3.27791 8.0704 3.46983 7.68657 3.82168C7.30273 4.17353 7.07883 4.6853 7.04684 5.19708H4.36C4.45596 4.01359 4.99973 2.89408 5.89534 2.12641C6.82294 1.35874 7.97444 0.974903 9.18992 1.00689C10.3414 0.942917 11.4929 1.32675 12.3885 2.06243C13.2202 2.76613 13.636 3.78969 13.636 5.06914C13.604 5.8688 13.3481 6.66845 12.8683 7.27619Z" fill="#268ECD"/>
</svg>
