<svg width="18" height="18" viewBox="0 0 18 18" fill="none" xmlns="http://www.w3.org/2000/svg">
<path d="M18 9C18 13.9706 13.9706 18 9 18C4.02944 18 0 13.9706 0 9C0 4.02944 4.02944 0 9 0C13.9706 0 18 4.02944 18 9Z" fill="#CCCCCC"/>
<path fill-rule="evenodd" clip-rule="evenodd" d="M9 18C13.9706 18 18 13.9706 18 9C18 4.02944 13.9706 0 9 0C4.02944 0 0 4.02944 0 9C0 13.9706 4.02944 18 9 18ZM17.6786 9C17.6786 13.793 13.793 17.6786 9 17.6786C4.20696 17.6786 0.321429 13.793 0.321429 9C0.321429 4.20696 4.20696 0.321429 9 0.321429C13.793 0.321429 17.6786 4.20696 17.6786 9Z" fill="#999999"/>
<path d="M11.8432 7.71429C11.8432 9.48949 10.548 10.9286 8.95035 10.9286C7.35267 10.9286 6.05749 9.48949 6.05749 7.71429C6.05749 5.93908 7.02178 4.5 8.95035 4.5C10.8789 4.5 11.8432 5.93908 11.8432 7.71429Z" fill="white"/>
<path d="M2.57143 14.8516C2.60516 14.6343 2.68213 14.4234 2.79653 14.2321C3.63519 12.8292 5.53811 11.5714 8.95035 11.5714C12.3626 11.5714 14.2655 12.8292 15.1042 14.2321C15.2286 14.4401 15.3087 14.6713 15.3371 14.9087C13.7525 16.6126 11.491 17.6786 8.98059 17.6786C6.44223 17.6786 4.15839 16.5888 2.57143 14.8516Z" fill="white"/>
<path d="M15.323 15.3854C15.323 15.3854 15.323 15.3854 15.323 15.3854Z" fill="white"/>
<path d="M15.3565 14.9087C13.7719 16.6126 11.5104 17.6785 9 17.6785C6.46163 17.6785 4.1778 16.5888 2.59083 14.8516C2.56721 15.0038 2.56479 15.1591 2.58558 15.3131C4.21808 16.9716 6.48895 18 9 18C11.4744 18 13.7155 17.0014 15.3424 15.3854C15.3715 15.227 15.3754 15.0665 15.3565 14.9087Z" fill="#E9E9E9"/>
</svg>
