<svg width="18" height="18" viewBox="0 0 18 18" fill="none" xmlns="http://www.w3.org/2000/svg">
<path fill-rule="evenodd" clip-rule="evenodd" d="M6.6312 17.2645L0.42372 11.0505C-0.147665 10.4785 -0.139418 9.54094 0.437858 8.96188L9.38328 0L18 0.0365598L17.9929 7.97241L16.9 9.06569C15.9625 8.32027 14.776 7.87494 13.4855 7.87494C10.4504 7.87494 7.99126 10.3381 7.99126 13.3749C7.99126 14.6655 8.43491 15.8519 9.17791 16.7899L8.71764 17.2504C8.13919 17.8294 7.20259 17.8365 6.6312 17.2645Z" fill="#268ECD"/>
<path fill-rule="evenodd" clip-rule="evenodd" d="M9 13.5C9 15.9859 11.0141 18 13.5 18C15.9859 18 18 15.9859 18 13.5C18 11.0153 15.9859 9 13.5 9C11.0141 9 9 11.0153 9 13.5Z" fill="#4D9E3B"/>
<path fill-rule="evenodd" clip-rule="evenodd" d="M14.2413 14.2709L14.1861 16.7597C14.1822 16.9229 14.0486 17.0501 13.888 17.0449L13.0079 17.0282C12.8486 17.0244 12.7188 16.8895 12.7214 16.7301L12.7753 14.2388L10.2866 14.1874C10.126 14.1823 9.99747 14.0487 10 13.888L10.0206 13.0079C10.0219 12.846 10.1555 12.7188 10.3187 12.7227L12.8087 12.7754L12.8601 10.2866C12.864 10.1234 12.9976 9.99623 13.1608 10.0001L14.0383 10.0181C14.2015 10.0219 14.33 10.1556 14.3261 10.3187L14.2709 12.8075L16.7609 12.8614C16.9228 12.8627 17.0526 12.9976 17.0474 13.1595L17.0282 14.0371C17.0243 14.2003 16.8907 14.3275 16.7275 14.3249L14.2413 14.2709Z" fill="white"/>
<circle cx="15.5" cy="2.5" r="1.5" fill="white"/>
</svg>
