<svg width="28" height="28" viewBox="0 0 28 28" fill="none" xmlns="http://www.w3.org/2000/svg">
<path d="M28 14C28 21.732 21.732 28 14 28C6.26801 28 0 21.732 0 14C0 6.26801 6.26801 0 14 0C21.732 0 28 6.26801 28 14Z" fill="#CCCCCC"/>
<path fill-rule="evenodd" clip-rule="evenodd" d="M14 28C21.732 28 28 21.732 28 14C28 6.26801 21.732 0 14 0C6.26801 0 0 6.26801 0 14C0 21.732 6.26801 28 14 28ZM27.5 14C27.5 21.4558 21.4558 27.5 14 27.5C6.54416 27.5 0.5 21.4558 0.5 14C0.5 6.54416 6.54416 0.5 14 0.5C21.4558 0.5 27.5 6.54416 27.5 14Z" fill="#999999"/>
<path d="M18.4228 12C18.4228 14.7614 16.4081 17 13.9228 17C11.4375 17 9.42277 14.7614 9.42277 12C9.42277 9.23858 10.9228 7 13.9228 7C16.9228 7 18.4228 9.23858 18.4228 12Z" fill="white"/>
<path d="M4 23.1025C4.05248 22.7645 4.17221 22.4364 4.35016 22.1388C5.65475 19.9565 8.61483 18 13.9228 18C19.2307 18 22.1908 19.9565 23.4954 22.1388C23.6889 22.4624 23.8135 22.822 23.8578 23.1913C21.3928 25.8419 17.8749 27.5 13.9698 27.5C10.0212 27.5 6.46861 25.8048 4 23.1025Z" fill="white"/>
<path d="M23.8358 23.9329C23.8358 23.9329 23.8358 23.9329 23.8358 23.9329V23.9329Z" fill="white"/>
<path d="M23.8879 23.1913C21.423 25.8419 17.9051 27.5 14 27.5C10.0514 27.5 6.4988 25.8048 4.03019 23.1025C3.99344 23.3392 3.98968 23.5809 4.02201 23.8204C6.56147 26.4003 10.0939 28 14 28C17.849 28 21.3352 26.4467 23.866 23.9328C23.9112 23.6865 23.9173 23.4368 23.8879 23.1913Z" fill="#E9E9E9"/>
</svg>
