<svg width="18" height="18" viewBox="0 0 18 18" fill="none" xmlns="http://www.w3.org/2000/svg">
<path d="M7.83419 2.12781C8.01748 1.66333 8.42729 1 9.273 1C10.149 1 10.5573 1.71162 10.7306 2.17684C13.7883 2.94165 13.7883 5.92638 13.7883 5.92638V10.1472C13.7883 11.1274 14.258 11.6182 14.7318 11.864C15.2246 12.1196 15.7001 12.5627 15.7001 13.1179V14.5H2.5V13.1104C2.5 12.5581 2.96428 12.1154 3.46978 11.8929C4.00459 11.6576 4.56135 11.1675 4.56135 10.1472V5.92638C4.56135 5.92638 4.56135 2.80326 7.83419 2.12781Z" fill="#268ECD"/>
<path d="M7.20006 15C7.20006 15 7.29082 17 9.20006 17C11.1093 17 11.2001 15 11.2001 15H7.20006Z" fill="#268ECD"/>
</svg>
