<svg width="18" height="18" viewBox="0 0 18 18" fill="none" xmlns="http://www.w3.org/2000/svg">
<path fill-rule="evenodd" clip-rule="evenodd" d="M7.09218 11.3098C4.76283 11.3098 2.87452 9.42153 2.87452 7.09218C2.87452 4.76283 4.76283 2.87452 7.09218 2.87452C9.42153 2.87452 11.3098 4.76283 11.3098 7.09218C11.3098 9.42153 9.42153 11.3098 7.09218 11.3098ZM1 7.09218C1 3.72756 3.72756 1 7.09218 1C10.4568 1 13.1844 3.72756 13.1844 7.09218C13.1844 8.4363 12.7491 9.67876 12.0118 10.6863L16.7255 15.4C17.0915 15.766 17.0915 16.3595 16.7255 16.7255C16.3595 17.0915 15.766 17.0915 15.4 16.7255L10.6863 12.0118C9.67876 12.7491 8.4363 13.1844 7.09218 13.1844C3.72756 13.1844 1 10.4568 1 7.09218Z" fill="black"/>
</svg>
