<svg width="18" height="18" viewBox="0 0 18 18" fill="none" xmlns="http://www.w3.org/2000/svg">
<path fill-rule="evenodd" clip-rule="evenodd" d="M0 8.98024C0 4.02198 4.03361 0 9 0C13.9664 0 18 4.02198 18 8.98024C18 13.9347 13.9702 18 9 18C4.02979 18 0 13.9347 0 8.98024ZM9 1.46583C4.84317 1.46583 1.47089 4.83227 1.47089 8.97572C1.47089 13.124 4.84799 16.5342 9 16.5342C13.152 16.5342 16.5291 13.124 16.5291 8.97572C16.5291 4.83227 13.1568 1.46583 9 1.46583Z" fill="#E08500"/>
<path fill-rule="evenodd" clip-rule="evenodd" d="M8.27921 11.3456V6.32904H9.3265V11.3456H8.27921Z" fill="#E08500"/>
<path fill-rule="evenodd" clip-rule="evenodd" d="M8.4363 10.2958L13.1065 10.3034L13.1048 11.3507L8.4346 11.3431L8.4363 10.2958Z" fill="#E08500"/>
</svg>
