<?xml version="1.0" encoding="UTF-8"?>
<svg width="8px" height="5px" viewBox="0 0 8 5" version="1.1" xmlns="http://www.w3.org/2000/svg" xmlns:xlink="http://www.w3.org/1999/xlink">
        <path d="M7.68729642,1.33140306 L4.10664736,4.90722644 C4.04536132,4.96851249 3.97297623,4.99891422 3.8894921,4.99891422 C3.80600796,4.99891422 3.73362287,4.96851249 3.67233683,4.90722644 L0.091687779,1.33140306 C0.0304017372,1.27011702 0,1.19724937 0,1.11183496 C0,1.02642056 0.0304017372,0.953552901 0.091687779,0.89226686 L0.892749427,0.0960308843 C0.954035469,0.0347448426 1.02642056,0.00434310532 1.10990469,0.00434310532 C1.19338883,0.00434310532 1.26577392,0.0347448426 1.32705996,0.0960308843 L3.8894921,2.65846302 L6.45192424,0.0960308843 C6.51321028,0.0347448426 6.58559537,0.00434310532 6.6690795,0.00434310532 C6.75256364,0.00434310532 6.82494873,0.0347448426 6.88623477,0.0960308843 L7.68729642,0.89226686 C7.74858246,0.953552901 7.7789842,1.02642056 7.7789842,1.11183496 C7.7789842,1.19724937 7.74809989,1.27011702 7.68729642,1.33140306 Z" id="downArrow" fill="#868686" fill-rule="nonzero"></path>
</svg>