<?xml version="1.0" encoding="UTF-8"?>
<svg width="40px" height="500px" viewBox="0 0 40 500" version="1.1" xmlns="http://www.w3.org/2000/svg" xmlns:xlink="http://www.w3.org/1999/xlink">
    <!-- Generator: Sketch 55 (78076) - https://sketchapp.com -->
    <title>home_search_nav</title>
    <desc>Created with Sketch.</desc>
    <g id="home_search_nav" stroke="none" stroke-width="1" fill="none" fill-rule="evenodd">
        <g id="Group" fill="#1867CD" fill-rule="nonzero">
            <g transform="translate(0.000000, 94.000000)">
                <path d="M0.4,40.9 C0.4,40.7 0.4,40.5 0.4,40.3 C0.4,40.1 0.4,39.9 0.4,39.7 C0.4,39.5 0.4,39.3 0.5,39.1 C0.5,38.9 0.6,38.8 0.7,38.6 C0.9,38.3 1.1,38.1 1.4,37.9 C1.7,37.7 2.1,37.6 2.5,37.6 C3,37.6 3.4,37.7 3.7,37.9 C4,38.1 4.3,38.4 4.4,38.8 L4.4,38.8 C4.5,38.3 4.8,37.9 5.1,37.6 C5.5,37.3 5.9,37.2 6.4,37.2 C6.7,37.2 7,37.3 7.3,37.4 C7.6,37.5 7.9,37.7 8.1,37.9 C8.3,38.1 8.5,38.4 8.7,38.7 C8.8,39 8.9,39.4 8.9,39.8 L8.9,43.9 L0.3,43.9 L0.4,40.9 Z M4.1,40.6 C4.1,40 4,39.5 3.8,39.2 C3.6,38.9 3.2,38.8 2.8,38.8 C2.5,38.8 2.3,38.8 2.1,38.9 C1.9,39 1.8,39.1 1.7,39.3 C1.6,39.5 1.5,39.7 1.5,39.9 C1.5,40.1 1.5,40.4 1.5,40.6 L1.5,42.9 L4.2,42.9 L4.1,40.6 Z M8,40 C8,39.5 7.9,39.1 7.6,38.8 C7.3,38.5 7,38.4 6.5,38.4 C6.2,38.4 6,38.5 5.8,38.6 C5.6,38.7 5.5,38.8 5.4,39 C5.3,39.2 5.2,39.4 5.2,39.6 C5.2,39.8 5.1,40.1 5.1,40.3 L5.1,42.9 L8.1,42.9 L8,40 Z" id="Shape"></path>
                <path d="M2.7,34.2 L4,34.2 L4,34.2 C3.5,34 3.1,33.7 2.9,33.3 C2.7,32.9 2.5,32.5 2.6,31.9 L3.7,31.9 C3.7,32.3 3.8,32.7 3.9,32.9 C4,33.2 4.2,33.4 4.4,33.6 C4.6,33.8 4.9,33.9 5.2,34 C5.5,34.1 5.9,34.1 6.3,34.1 L9.1,34.1 L9.1,35.1 L2.9,35.1 L2.7,34.2 Z" id="Path"></path>
                <path d="M4.6,30.7 C4.2,30.6 3.9,30.4 3.6,30.1 C3.3,29.8 3.1,29.5 2.9,29.2 C2.7,28.8 2.6,28.4 2.6,27.9 C2.6,27.4 2.7,27 2.8,26.6 C2.9,26.2 3.2,25.9 3.5,25.7 C3.8,25.5 4.1,25.3 4.5,25.1 C4.9,25 5.3,24.9 5.8,24.9 C6.3,24.9 6.7,25 7.1,25.1 C7.5,25.2 7.8,25.4 8.1,25.7 C8.4,26 8.6,26.3 8.8,26.6 C9,27 9,27.4 9,27.9 C9,28.4 8.9,28.8 8.8,29.2 C8.6,29.6 8.4,29.9 8.1,30.1 C7.8,30.4 7.5,30.5 7.1,30.7 C6.7,30.8 6.3,30.9 5.8,30.9 C5.4,30.9 5,30.9 4.6,30.7 Z M6.8,29.7 C7.1,29.6 7.3,29.5 7.5,29.3 C7.7,29.1 7.8,28.9 7.9,28.7 C8,28.5 8.1,28.2 8.1,27.9 C8.1,27.6 8,27.4 7.9,27.2 C7.8,27 7.6,26.8 7.4,26.6 C7.2,26.4 7,26.3 6.7,26.2 C6.4,26.1 6.1,26.1 5.7,26.1 C5.3,26.1 5,26.2 4.7,26.3 C4.4,26.4 4.2,26.5 4,26.7 C3.8,26.9 3.6,27.1 3.5,27.3 C3.4,27.5 3.3,27.8 3.3,28.1 C3.3,28.4 3.4,28.6 3.5,28.8 C3.6,29 3.8,29.2 4,29.4 C4.2,29.6 4.4,29.7 4.7,29.8 C5,29.9 5.3,29.9 5.7,29.9 C6.2,29.9 6.5,29.8 6.8,29.7 Z" id="Shape"></path>
                <polygon id="Path" points="8.9 17.9 4 19.1 4 19.1 8.9 20.3 8.9 21.4 2.7 23.4 2.7 22.3 7.8 20.9 7.8 20.9 2.7 19.7 2.7 18.6 7.8 17.3 7.8 17.3 2.7 15.9 2.7 14.8 8.9 16.8 8.9 17.9"></polygon>
                <path d="M7.5,12.3 C7.7,12.2 7.8,12.1 7.9,11.9 C8,11.7 8.1,11.6 8.1,11.4 C8.1,11.2 8.2,11 8.2,10.8 C8.2,10.6 8.2,10.5 8.2,10.3 C8.2,10.1 8.1,10 8.1,9.8 C8,9.7 7.9,9.5 7.8,9.4 C7.7,9.3 7.5,9.3 7.3,9.3 C7,9.3 6.8,9.4 6.7,9.6 C6.6,9.8 6.5,10.1 6.4,10.4 C6.3,10.7 6.2,11 6.2,11.4 C6.1,11.8 6,12.1 5.9,12.4 C5.8,12.7 5.6,13 5.4,13.2 C5.2,13.4 4.9,13.5 4.5,13.5 C4.2,13.5 3.9,13.4 3.7,13.3 C3.5,13.2 3.3,13 3.2,12.8 C3.1,12.6 3,12.3 2.9,12.1 C2.8,11.8 2.8,11.6 2.8,11.3 C2.8,10.9 2.8,10.6 2.9,10.3 C3,10 3.1,9.7 3.2,9.5 C3.3,9.3 3.5,9.1 3.8,9 C4.1,8.9 4.4,8.8 4.7,8.8 L4.7,9.8 C4.5,9.8 4.3,9.9 4.2,10 C4.1,10.1 4,10.2 3.9,10.3 C3.8,10.4 3.8,10.6 3.7,10.8 C3.6,11 3.6,11.1 3.6,11.3 C3.6,11.5 3.6,11.6 3.6,11.8 C3.6,12 3.7,12.1 3.7,12.2 C3.8,12.3 3.8,12.4 3.9,12.5 C4,12.6 4.1,12.6 4.3,12.6 C4.5,12.6 4.6,12.5 4.7,12.4 C4.8,12.3 4.9,12.1 5,11.9 C5.1,11.7 5.1,11.5 5.2,11.3 C5.3,11.1 5.3,10.8 5.4,10.6 C5.5,10.3 5.5,10.1 5.6,9.8 C5.7,9.6 5.8,9.3 5.9,9.2 C6,9 6.2,8.9 6.4,8.7 C6.6,8.6 6.8,8.5 7.1,8.5 C7.5,8.5 7.8,8.6 8,8.7 C8.2,8.8 8.4,9.1 8.6,9.3 C8.8,9.6 8.9,9.8 8.9,10.2 C9,10.2 9,10.5 9,10.8 C9,11.1 9,11.5 8.9,11.8 C8.8,12.1 8.7,12.4 8.5,12.6 C8.3,12.8 8.1,13 7.9,13.2 C7.7,13.4 7.3,13.4 6.9,13.4 L6.9,12.4 C7.2,12.4 7.3,12.4 7.5,12.3 Z" id="Path"></path>
                <path d="M8.5,1.9 C8.9,2.4 9,2.9 9,3.7 C9,4.2 8.9,4.6 8.8,5 C8.6,5.4 8.4,5.7 8.1,5.9 C7.8,6.1 7.5,6.3 7.1,6.5 C6.7,6.6 6.3,6.7 5.8,6.7 C5.3,6.7 4.9,6.6 4.5,6.5 C4.1,6.4 3.8,6.2 3.5,5.9 C3.2,5.6 3,5.3 2.8,5 C2.6,4.6 2.6,4.3 2.6,3.8 C2.6,3.2 2.7,2.8 2.9,2.4 C3.1,2 3.4,1.7 3.8,1.5 C4.2,1.3 4.5,1.1 5,1 C5.4,0.9 5.8,0.9 6.2,0.9 L6.2,5.5 C6.5,5.5 6.7,5.5 7,5.4 C7.2,5.3 7.5,5.2 7.6,5.1 C7.8,4.9 7.9,4.7 8,4.5 C8.1,4.3 8.2,4 8.2,3.6 C8.2,3.2 8.1,2.8 7.9,2.5 C7.7,2.2 7.4,2 7,2 L7,1 C7.6,1.1 8.1,1.4 8.5,1.9 Z M4.5,2.1 C4.3,2.2 4.1,2.3 3.9,2.5 C3.7,2.7 3.6,2.8 3.5,3.1 C3.4,3.3 3.4,3.5 3.4,3.8 C3.4,4.1 3.4,4.3 3.5,4.5 C3.6,4.7 3.7,4.9 3.9,5 C4.1,5.2 4.2,5.3 4.5,5.4 C4.7,5.5 4.9,5.5 5.2,5.5 L5.2,1.9 C4.9,2 4.7,2 4.5,2.1 Z" id="Shape"></path>
            </g>
            <g transform="translate(0.000000, 179.000000)">
                <polygon id="Path" points="8.8 23.6 1.6 25.6 1.6 25.6 8.8 27.6 8.8 28.8 0.2 31 0.2 29.8 7.3 28.1 7.3 28.1 0.2 26.2 0.2 25 7.3 23.1 7.3 23.1 0.2 21.4 0.2 20.3 8.8 22.6"></polygon>
                <path d="M2.6,17.8 L3.9,17.8 L3.9,17.8 C3.4,17.6 3,17.3 2.8,16.9 C2.6,16.5 2.4,16.1 2.5,15.5 L3.6,15.5 C3.6,15.9 3.7,16.3 3.8,16.5 C3.9,16.8 4.1,17 4.3,17.2 C4.5,17.4 4.8,17.5 5.1,17.6 C5.4,17.7 5.8,17.7 6.2,17.7 L9,17.7 L9,18.7 L2.8,18.7 L2.6,17.8 Z" id="Path"></path>
                <path d="M1.5,13.8 L0.3,13.8 L0.3,12.8 L1.5,12.8 L1.5,13.8 Z M2.6,12.8 L8.8,12.8 L8.8,13.8 L2.6,13.8 L2.6,12.8 Z" id="Shape"></path>
                <path d="M2.6,7.8 L3.5,7.8 L3.5,9 L7.4,9 C7.5,9 7.6,9 7.7,9 C7.8,9 7.8,8.9 7.9,8.9 C7.9,8.8 8,8.8 8,8.7 C8,8.6 8,8.5 8,8.3 L8,7.8 L8.9,7.8 L8.9,8.6 C8.9,8.9 8.9,9.1 8.8,9.3 C8.8,9.5 8.7,9.6 8.6,9.8 C8.5,9.9 8.4,10 8.2,10.1 C8,10.2 7.8,10.2 7.5,10.2 L3.6,10.2 L3.6,11.3 L2.7,11.3 L2.7,10.2 L0.8,10.2 L0.8,9.2 L2.7,9.2 L2.6,7.8 Z" id="Path"></path>
                <path d="M8.4,1.5 C8.8,2 8.9,2.5 8.9,3.3 C8.9,3.8 8.8,4.2 8.7,4.6 C8.5,5 8.3,5.3 8,5.5 C7.7,5.7 7.4,5.9 7,6.1 C6.6,6.2 6.2,6.3 5.7,6.3 C5.2,6.3 4.8,6.2 4.4,6.1 C4,6 3.7,5.8 3.4,5.5 C3.1,5.2 2.9,4.9 2.7,4.6 C2.5,4.2 2.5,3.9 2.5,3.4 C2.5,2.8 2.6,2.4 2.8,2 C3,1.6 3.3,1.3 3.7,1.1 C4.1,0.9 4.4,0.7 4.9,0.6 C5.2,0.5 5.6,0.5 6,0.5 L6,5.1 C6.3,5.1 6.5,5.1 6.8,5 C7,4.9 7.3,4.8 7.4,4.7 C7.6,4.5 7.7,4.3 7.8,4.1 C7.9,3.9 8,3.6 8,3.2 C8,2.8 7.9,2.4 7.7,2.1 C7.5,1.8 7.2,1.6 6.8,1.6 L6.8,0.6 C7.5,0.7 8,1 8.4,1.5 Z M4.4,1.7 C4.2,1.8 4,1.9 3.8,2.1 C3.6,2.3 3.5,2.4 3.4,2.7 C3.3,2.9 3.3,3.1 3.3,3.4 C3.3,3.7 3.3,3.9 3.4,4.1 C3.5,4.3 3.6,4.5 3.8,4.6 C4,4.8 4.1,4.9 4.4,5 C4.6,5.1 4.8,5.1 5.1,5.2 L5.1,1.6 C4.8,1.6 4.6,1.7 4.4,1.7 Z" id="Shape"></path>
            </g>
            <g>
                <g transform="translate(0.000000, 14.000000)">
                    <path d="M1.4,36 C1.1,36.3 1,36.8 1,37.4 C1,37.6 1,37.9 1.1,38.1 C1.1,38.3 1.2,38.5 1.3,38.7 C1.4,38.9 1.6,39 1.8,39.1 C2,39.2 2.2,39.3 2.5,39.3 C2.8,39.3 3,39.2 3.1,39.1 C3.3,38.9 3.4,38.7 3.5,38.5 C3.6,38.2 3.7,37.9 3.8,37.6 C3.9,37.3 3.9,36.9 4,36.6 C4.1,36.3 4.2,35.9 4.3,35.6 C4.4,35.3 4.6,35 4.7,34.7 C4.9,34.4 5.1,34.2 5.4,34.1 C5.7,33.9 6,33.9 6.5,33.9 C7,33.9 7.3,34 7.7,34.2 C8,34.4 8.3,34.7 8.5,35 C8.7,35.3 8.9,35.7 8.9,36.1 C9,36.4 9,36.8 9,37.2 C9,37.7 8.9,38.1 8.8,38.6 C8.7,39 8.5,39.4 8.3,39.7 C8.1,40 7.7,40.3 7.4,40.5 C7,40.6 6.5,40.7 6,40.7 L6,39.6 C6.4,39.6 6.7,39.5 6.9,39.4 C7.2,39.3 7.4,39.1 7.5,38.8 C7.7,38.6 7.8,38.3 7.9,38 C8,37.8 8.1,37.5 8.1,37.1 C8.1,36.8 8.1,36.6 8,36.3 C8,36 7.9,35.8 7.8,35.6 C7.7,35.4 7.5,35.2 7.3,35.1 C7.1,35 6.8,34.9 6.5,34.9 C6.2,34.9 6,35 5.8,35.1 C5.6,35.3 5.5,35.5 5.4,35.7 C5.3,36 5.2,36.3 5.1,36.6 C5,36.9 5,37.3 4.9,37.6 C4.8,37.9 4.7,38.3 4.6,38.6 C4.5,38.9 4.4,39.2 4.2,39.5 C4,39.8 3.8,40 3.6,40.1 C3.3,40.4 3,40.5 2.6,40.5 C2.2,40.5 1.8,40.4 1.5,40.2 C1.2,40 0.9,39.8 0.7,39.5 C0.5,39.2 0.3,38.9 0.2,38.5 C0.1,38.1 0,37.8 0,37.4 C0,37 0.1,36.6 0.2,36.2 C0.3,35.8 0.5,35.5 0.7,35.2 C0.9,34.9 1.2,34.7 1.5,34.5 C1.8,34.3 2.2,34.2 2.7,34.2 L2.7,35.3 C2.1,35.4 1.7,35.6 1.4,36 Z" id="Path"></path>
                    <path d="M8.4,27.5 C8.8,28 8.9,28.5 8.9,29.3 C8.9,29.8 8.8,30.2 8.7,30.6 C8.5,31 8.3,31.3 8,31.5 C7.7,31.7 7.4,31.9 7,32.1 C6.6,32.2 6.2,32.3 5.7,32.3 C5.2,32.3 4.8,32.2 4.4,32.1 C4,32 3.7,31.8 3.4,31.5 C3.1,31.2 2.9,30.9 2.7,30.6 C2.5,30.2 2.5,29.9 2.5,29.4 C2.5,28.8 2.6,28.4 2.8,28 C3,27.5 3.3,27.2 3.7,27 C4.1,26.8 4.4,26.6 4.9,26.5 C5.4,26.4 5.6,26.4 6,26.5 L6,31.1 C6.3,31.1 6.5,31.1 6.8,31 C7,30.9 7.3,30.8 7.4,30.7 C7.6,30.5 7.7,30.3 7.8,30.1 C8,29.8 8,29.5 8,29.2 C8,28.8 7.9,28.4 7.7,28.1 C7.5,27.8 7.2,27.6 6.8,27.6 L6.8,26.6 C7.5,26.7 8,27 8.4,27.5 Z M4.4,27.7 C4.2,27.8 4,27.9 3.8,28.1 C3.6,28.3 3.5,28.4 3.4,28.7 C3.3,28.9 3.3,29.1 3.3,29.4 C3.3,29.7 3.3,29.9 3.4,30.1 C3.5,30.3 3.6,30.5 3.8,30.6 C4,30.8 4.1,30.9 4.4,31 C4.6,31.1 4.8,31.1 5.1,31.2 L5.1,27.6 C4.9,27.6 4.6,27.6 4.4,27.7 Z" id="Shape"></path>
                    <path d="M8.7,19.1 C8.8,19.3 8.9,19.5 8.9,19.8 C8.9,20.1 8.8,20.3 8.7,20.4 C8.6,20.6 8.3,20.6 8,20.6 C8.3,20.9 8.6,21.2 8.7,21.6 C8.8,22 8.9,22.4 8.9,22.8 C8.9,23.1 8.9,23.3 8.8,23.6 C8.7,23.9 8.6,24.1 8.5,24.3 C8.4,24.5 8.2,24.7 8,24.8 C7.8,24.9 7.5,25 7.2,25 C6.8,25 6.6,24.9 6.3,24.8 C6.1,24.7 5.9,24.5 5.8,24.3 C5.7,24.1 5.6,23.9 5.5,23.6 C5.4,23.3 5.4,23.1 5.3,22.8 C5.2,22.5 5.2,22.3 5.2,22 C5.2,21.7 5.1,21.6 5,21.4 C4.9,21.2 4.9,21.1 4.8,20.9 C4.7,20.8 4.6,20.7 4.4,20.7 C4.2,20.7 4,20.7 3.9,20.8 C3.8,20.9 3.7,21 3.6,21.1 C3.5,21.2 3.5,21.4 3.5,21.5 C3.5,21.7 3.5,21.8 3.5,22 C3.5,22.4 3.6,22.8 3.7,23.1 C3.8,23.4 4.2,23.5 4.6,23.6 L4.6,24.6 C4.2,24.6 3.9,24.5 3.6,24.4 C3.3,24.3 3.1,24.1 3,23.8 C2.8,23.6 2.7,23.3 2.6,23 C2.5,22.7 2.5,22.4 2.5,22 C2.5,21.7 2.5,21.4 2.6,21.2 C2.6,20.9 2.7,20.7 2.8,20.4 C2.9,20.2 3.1,20 3.3,19.9 C3.5,19.8 3.8,19.7 4.2,19.7 L7.4,19.7 C7.6,19.7 7.8,19.7 7.9,19.7 C8,19.7 8.1,19.6 8.1,19.4 C8.1,19.3 8.1,19.2 8.1,19.1 L8.7,19.1 L8.7,19.1 Z M5.6,20.8 C5.7,20.9 5.8,21.1 5.8,21.3 C5.8,21.5 5.9,21.7 5.9,22 C5.9,22.2 6,22.5 6,22.7 C6,22.9 6.1,23.1 6.2,23.3 C6.3,23.5 6.4,23.6 6.5,23.7 C6.6,23.8 6.8,23.9 7.1,23.9 C7.3,23.9 7.4,23.9 7.5,23.8 C7.6,23.7 7.7,23.6 7.8,23.5 C7.9,23.4 7.9,23.3 8,23.1 C8,23 8,22.8 8,22.6 C8,22.3 8,22 7.9,21.7 C7.8,21.4 7.7,21.3 7.6,21.1 C7.5,20.9 7.3,20.8 7.1,20.8 C6.9,20.7 6.8,20.7 6.6,20.7 L5.6,20.8 Z" id="Shape"></path>
                    <path d="M2.6,16.5 L3.9,16.5 L3.9,16.5 C3.4,16.2 3,15.9 2.8,15.5 C2.6,15.1 2.4,14.7 2.5,14.1 L3.6,14.1 C3.6,14.5 3.7,14.9 3.8,15.1 C3.9,15.4 4.1,15.6 4.3,15.8 C4.5,16 4.8,16.1 5.1,16.2 C5.4,16.3 5.8,16.3 6.2,16.3 L9,16.3 L9,17.3 L2.8,17.3 L2.6,16.5 Z" id="Path"></path>
                    <path d="M3.6,9.1 C3.4,9.4 3.3,9.7 3.3,10.1 C3.3,10.5 3.4,10.8 3.5,11 C3.6,11.3 3.8,11.5 4,11.7 C4.2,11.8 4.5,12 4.8,12 C5.1,12.1 5.4,12.1 5.7,12.1 C6,12.1 6.3,12.1 6.5,12 C6.8,11.9 7,11.8 7.2,11.7 C7.4,11.6 7.6,11.4 7.7,11.1 C7.9,10.9 8,10.6 8,10.3 C8,9.8 7.9,9.4 7.6,9.1 C7.3,8.8 7,8.6 6.5,8.6 L6.5,7.6 C7.3,7.7 7.9,8 8.3,8.5 C8.7,9 8.9,9.6 8.9,10.4 C8.9,10.9 8.8,11.3 8.7,11.7 C8.6,12.1 8.3,12.2 8,12.4 C7.7,12.6 7.4,12.8 7,13 C6.6,13.1 6.2,13.2 5.7,13.2 C5.2,13.2 4.8,13.1 4.4,13 C4,12.9 3.7,12.7 3.4,12.5 C3.1,12.3 2.9,12 2.7,11.6 C2.5,11.2 2.4,10.8 2.4,10.3 C2.4,9.9 2.4,9.6 2.5,9.3 C2.6,9 2.7,8.7 2.9,8.5 C3.1,8.3 3.3,8.1 3.6,7.9 C3.9,7.7 4.2,7.7 4.6,7.6 L4.6,8.7 C4.1,8.7 3.8,8.9 3.6,9.1 Z" id="Path"></path>
                    <path d="M0.2,4.6 L3.5,4.6 L3.5,4.6 C3.3,4.5 3.1,4.4 3,4.2 C2.9,4.1 2.8,3.9 2.7,3.7 C2.6,3.5 2.6,3.3 2.5,3.1 C2.5,2.9 2.4,2.7 2.4,2.5 C2.4,2.1 2.5,1.8 2.6,1.5 C2.7,1.2 2.9,1 3.1,0.8 C3.3,0.6 3.5,0.5 3.8,0.4 C4,0.5 4.3,0.5 4.6,0.5 L8.7,0.5 L8.7,1.5 L4.5,1.5 C4.1,1.5 3.8,1.6 3.6,1.8 C3.4,2 3.3,2.3 3.3,2.7 C3.3,3 3.3,3.3 3.4,3.5 C3.5,3.7 3.6,3.9 3.8,4.1 C4,4.3 4.2,4.4 4.5,4.5 C4.7,4.6 5,4.6 5.3,4.6 L8.8,4.6 L8.8,5.6 L0.2,5.6 L0.2,4.6 Z" id="Path"></path>
                </g>
                <path d="M3.5,6.4 C2.2,6.4 1.1,5.3 1.1,4 C1.1,2.7 2.2,1.6 3.5,1.6 C4.8,1.6 5.9,2.7 5.9,4 C5.9,5.3 4.9,6.4 3.5,6.4 Z M8.7,8.1 L6.6,6 C6.6,6 6.6,6 6.5,6 C6.8,5.4 7,4.7 7,4 C7,2 5.5,0.5 3.5,0.5 C1.6,0.5 0,2 0,4 C0,6 1.6,7.5 3.5,7.5 C4.2,7.5 4.9,7.3 5.4,6.9 C5.4,6.9 5.4,6.9 5.4,7 L7.5,9.1 C7.8,9.3 8,9.4 8.2,9.4 C8.4,9.4 8.6,9.3 8.7,9.2 C9,8.9 9,8.4 8.7,8.1 Z" id="Shape"></path>
            </g>
            <path d="M0,79.6 L2.4,79.6 L2.4,82 L0,82 L0,79.6 Z M0,83.2 L2.4,83.2 L2.4,85.6 L0,85.6 L0,83.2 Z M0,86.8 L2.4,86.8 L2.4,89.2 L0,89.2 L0,86.8 Z M3.6,79.6 L6,79.6 L6,82 L3.6,82 L3.6,79.6 Z M3.6,83.2 L6,83.2 L6,85.6 L3.6,85.6 L3.6,83.2 Z M3.6,86.8 L6,86.8 L6,89.2 L3.6,89.2 L3.6,86.8 Z M7.2,79.6 L9.6,79.6 L9.6,82 L7.2,82 L7.2,79.6 Z M7.2,83.2 L9.6,83.2 L9.6,85.6 L7.2,85.6 L7.2,83.2 Z M7.2,89.2 L7.2,86.8 L9.6,86.8 L9.6,89.2 L7.2,89.2 Z" id="Shape"></path>
            <path d="M6.3,172.3 L8.2,170.7 L8.8,173.4 L6.3,172.3 Z M5.5,171.3 L7.3,169.6 L7.9,170.3 L6,171.9 L5.5,171.3 Z M0,164.7 L1.8,163 L7.1,169.3 L5.3,171 L0,164.7 Z" id="Shape"></path>
        </g>
        <g id="Group" transform="translate(0.000000, 329.000000)" fill="#8533FF" fill-rule="nonzero">
            <path d="M0.4,40.9 C0.4,40.7 0.4,40.5 0.4,40.3 C0.4,40.1 0.4,39.9 0.4,39.7 C0.4,39.5 0.4,39.3 0.5,39.1 C0.6,38.9 0.6,38.8 0.7,38.6 C0.9,38.3 1.1,38.1 1.4,37.9 C1.7,37.7 2.1,37.6 2.5,37.6 C3,37.6 3.4,37.7 3.7,37.9 C4,38.1 4.3,38.4 4.4,38.8 L4.4,38.8 C4.5,38.3 4.8,37.9 5.1,37.6 C5.5,37.3 5.9,37.2 6.4,37.2 C6.7,37.2 7,37.3 7.3,37.4 C7.6,37.5 7.9,37.7 8.1,37.9 C8.3,38.1 8.5,38.4 8.7,38.7 C8.8,39 8.9,39.4 8.9,39.8 L8.9,43.9 L0.3,43.9 L0.4,40.9 Z M4.1,40.6 C4.1,40 4,39.5 3.8,39.2 C3.6,38.9 3.2,38.8 2.8,38.8 C2.5,38.8 2.3,38.9 2.1,38.9 C1.9,39 1.8,39.1 1.7,39.3 C1.6,39.5 1.5,39.7 1.5,39.9 C1.5,40.1 1.5,40.4 1.5,40.6 L1.5,42.9 L4.2,42.9 L4.1,40.6 Z M8,40 C8,39.5 7.9,39.1 7.6,38.8 C7.3,38.5 7,38.4 6.5,38.4 C6.2,38.4 6,38.5 5.8,38.6 C5.6,38.7 5.5,38.8 5.4,39 C5.3,39.2 5.2,39.4 5.2,39.6 C5.2,39.8 5.1,40.1 5.1,40.3 L5.1,42.9 L8.1,42.9 L8,40 Z" id="Shape"></path>
            <path d="M2.7,34.2 L4,34.2 L4,34.2 C3.5,34 3.1,33.7 2.9,33.3 C2.7,32.9 2.5,32.5 2.6,31.9 L3.7,31.9 C3.7,32.3 3.8,32.7 3.9,32.9 C4,33.2 4.2,33.4 4.4,33.6 C4.6,33.8 4.9,33.9 5.2,34 C5.5,34.1 5.9,34.1 6.3,34.1 L9.1,34.1 L9.1,35.1 L2.9,35.1 L2.7,34.2 Z" id="Path"></path>
            <path d="M4.6,30.7 C4.2,30.6 3.9,30.4 3.6,30.1 C3.3,29.8 3.1,29.5 2.9,29.2 C2.7,28.8 2.6,28.4 2.6,27.9 C2.6,27.4 2.7,27 2.8,26.6 C3,26.2 3.2,25.9 3.5,25.7 C3.8,25.4 4.1,25.3 4.5,25.1 C4.9,25 5.3,24.9 5.8,24.9 C6.3,24.9 6.7,25 7.1,25.1 C7.5,25.2 7.8,25.4 8.1,25.7 C8.4,26 8.6,26.3 8.8,26.6 C9,27 9,27.4 9,27.9 C9,28.4 8.9,28.8 8.8,29.2 C8.6,29.6 8.4,29.9 8.1,30.1 C7.8,30.4 7.5,30.6 7.1,30.7 C6.7,30.8 6.3,30.9 5.8,30.9 C5.4,30.9 5,30.9 4.6,30.7 Z M6.8,29.7 C7.1,29.6 7.3,29.5 7.5,29.3 C7.7,29.1 7.8,28.9 7.9,28.7 C8,28.5 8.1,28.2 8.1,27.9 C8.1,27.6 8,27.4 7.9,27.2 C7.8,27 7.6,26.8 7.4,26.6 C7.2,26.4 7,26.3 6.7,26.2 C6.4,26.1 6.1,26.1 5.7,26.1 C5.3,26.1 5,26.2 4.7,26.3 C4.4,26.4 4.2,26.5 4,26.7 C3.8,26.9 3.6,27.1 3.5,27.3 C3.4,27.5 3.3,27.8 3.3,28.1 C3.3,28.4 3.4,28.6 3.5,28.9 C3.6,29.1 3.8,29.3 4,29.5 C4.2,29.7 4.4,29.8 4.7,29.9 C5,30 5.3,30 5.7,30 C6.2,29.9 6.5,29.8 6.8,29.7 Z" id="Shape"></path>
            <polygon id="Path" points="8.9 17.9 4 19.1 4 19.1 8.9 20.3 8.9 21.4 2.7 23.4 2.7 22.3 7.8 20.9 7.8 20.9 2.7 19.7 2.7 18.6 7.8 17.3 7.8 17.3 2.7 15.9 2.7 14.8 8.9 16.8 8.9 17.9"></polygon>
            <path d="M7.5,12.3 C7.7,12.2 7.8,12.1 7.9,11.9 C8,11.7 8.1,11.6 8.1,11.4 C8.1,11.2 8.2,11 8.2,10.8 C8.2,10.6 8.2,10.5 8.2,10.3 C8.2,10.1 8,9.9 8,9.8 C7.9,9.7 7.8,9.5 7.7,9.4 C7.6,9.3 7.4,9.3 7.2,9.3 C6.9,9.3 6.7,9.4 6.6,9.6 C6.5,9.8 6.4,10.1 6.3,10.4 C6.2,10.7 6.1,11 6.1,11.4 C6,11.8 5.9,12.1 5.8,12.4 C5.7,12.7 5.5,13 5.3,13.2 C5.1,13.4 4.8,13.5 4.4,13.5 C4.1,13.5 3.8,13.4 3.6,13.3 C3.4,13.2 3.2,13 3.1,12.8 C3,12.6 2.9,12.3 2.8,12.1 C2.7,11.8 2.7,11.6 2.7,11.3 C2.7,10.9 2.7,10.6 2.8,10.3 C2.9,10 3,9.7 3.1,9.5 C3.2,9.3 3.4,9.1 3.7,9 C4,8.9 4.3,8.8 4.6,8.8 L4.6,9.8 C4.4,9.8 4.2,9.9 4.1,10 C4,10.1 3.9,10.2 3.8,10.3 C3.7,10.4 3.7,10.6 3.6,10.8 C3.5,11 3.5,11.1 3.5,11.3 C3.5,11.5 3.5,11.6 3.5,11.8 C3.5,12 3.6,12.1 3.6,12.2 C3.6,12.3 3.7,12.4 3.8,12.5 C3.9,12.6 4,12.6 4.2,12.6 C4.4,12.6 4.5,12.5 4.6,12.4 C4.7,12.3 4.8,12.1 4.9,11.9 C5,11.7 5,11.5 5.1,11.3 C5.2,11.1 5.2,10.8 5.3,10.6 C5.4,10.3 5.4,10.1 5.5,9.8 C5.6,9.6 5.7,9.3 5.8,9.2 C5.9,9 6.1,8.9 6.3,8.7 C6.5,8.6 6.7,8.5 7,8.5 C7.4,8.5 7.7,8.6 7.9,8.7 C8.1,8.9 8.3,9.1 8.5,9.3 C8.7,9.6 8.8,9.8 8.8,10.2 C9,10.2 9,10.5 9,10.8 C9,11.1 9,11.5 8.9,11.8 C8.8,12.1 8.7,12.4 8.5,12.6 C8.3,12.8 8.1,13 7.9,13.2 C7.7,13.4 7.3,13.4 6.9,13.4 L6.9,12.4 C7.2,12.4 7.3,12.4 7.5,12.3 Z" id="Path"></path>
            <path d="M8.5,1.9 C8.9,2.4 9,2.9 9,3.7 C9,4.2 8.9,4.6 8.8,5 C8.6,5.4 8.4,5.7 8.1,5.9 C7.8,6.1 7.5,6.3 7.1,6.5 C6.7,6.6 6.3,6.7 5.8,6.7 C5.3,6.7 4.9,6.6 4.5,6.5 C4.1,6.4 3.8,6.2 3.5,5.9 C3.2,5.6 3,5.3 2.8,5 C2.6,4.6 2.6,4.3 2.6,3.8 C2.6,3.2 2.7,2.8 2.9,2.4 C3.1,2 3.4,1.7 3.8,1.5 C4.2,1.3 4.5,1.1 5,1 C5.4,0.9 5.8,0.9 6.2,0.9 L6.2,5.5 C6.5,5.5 6.7,5.5 7,5.4 C7.2,5.3 7.5,5.2 7.6,5.1 C7.8,4.9 7.9,4.7 8,4.5 C8.1,4.3 8.2,4 8.2,3.6 C8.2,3.2 8.1,2.8 7.9,2.5 C7.7,2.2 7.4,2 7,2 L7,1 C7.6,1.1 8.1,1.4 8.5,1.9 Z M4.5,2.1 C4.3,2.2 4.1,2.3 3.9,2.5 C3.7,2.7 3.6,2.8 3.5,3.1 C3.4,3.3 3.4,3.5 3.4,3.8 C3.4,4.1 3.4,4.3 3.5,4.5 C3.6,4.7 3.7,4.9 3.9,5 C4.1,5.2 4.2,5.3 4.5,5.4 C4.7,5.5 4.9,5.5 5.2,5.6 L5.2,2 C4.9,2 4.7,2 4.5,2.1 Z" id="Shape"></path>
        </g>
        <g id="Group" transform="translate(0.000000, 414.000000)" fill="#8533FF" fill-rule="nonzero">
            <path d="M8.8,23.6 L1.6,25.6 L1.6,25.6 L8.8,27.6 L8.8,28.8 L0.2,31 L0.2,29.8 L7.3,28.1 L7.3,28.1 L0.2,26.2 L0.2,25 L7.3,23.1 L7.3,23.1 L0.2,21.4 L0.2,20.3 L8.8,22.6 C8.8,22.6 8.8,23.6 8.8,23.6 Z" id="Path"></path>
            <path d="M2.6,17.8 L3.9,17.8 L3.9,17.8 C3.4,17.6 3,17.3 2.8,16.9 C2.6,16.5 2.4,16.1 2.5,15.5 L3.6,15.5 C3.6,15.9 3.7,16.3 3.8,16.5 C3.9,16.8 4.1,17 4.3,17.2 C4.5,17.4 4.8,17.5 5.1,17.6 C5.4,17.7 5.8,17.7 6.2,17.7 L9,17.7 L9,18.7 L2.8,18.7 L2.6,17.8 Z" id="Path"></path>
            <path d="M1.5,13.8 L0.3,13.8 L0.3,12.8 L1.5,12.8 L1.5,13.8 Z M2.6,12.8 L8.8,12.8 L8.8,13.8 L2.6,13.8 L2.6,12.8 Z" id="Shape"></path>
            <path d="M2.6,7.8 L3.5,7.8 L3.5,9 L7.4,9 C7.5,9 7.6,9 7.7,9 C7.8,9 7.8,8.9 7.9,8.9 C7.9,8.8 8,8.8 8,8.7 C8,8.6 8,8.5 8,8.3 L8,7.8 L8.9,7.8 L8.9,8.6 C8.9,8.9 8.9,9.1 8.8,9.3 C8.8,9.5 8.7,9.6 8.6,9.8 C8.5,9.9 8.4,10 8.2,10.1 C8,10.2 7.8,10.2 7.5,10.2 L3.6,10.2 L3.6,11.3 L2.7,11.3 L2.7,10.2 L0.8,10.2 L0.8,9.2 L2.7,9.2 L2.6,7.8 Z" id="Path"></path>
            <path d="M8.4,1.5 C8.8,2 8.9,2.5 8.9,3.3 C8.9,3.8 8.8,4.2 8.7,4.6 C8.5,5 8.3,5.3 8,5.5 C7.7,5.7 7.4,5.9 7,6.1 C6.6,6.2 6.2,6.3 5.7,6.3 C5.2,6.3 4.8,6.2 4.4,6.1 C4,6 3.7,5.8 3.4,5.5 C3.1,5.2 2.9,4.9 2.7,4.6 C2.5,4.2 2.5,3.9 2.5,3.4 C2.5,2.8 2.6,2.4 2.8,2 C3,1.6 3.3,1.3 3.7,1.1 C4.1,0.9 4.4,0.7 4.9,0.6 C5.2,0.5 5.6,0.5 6,0.5 L6,5.1 C6.3,5.1 6.5,5.1 6.8,5 C7,4.9 7.3,4.8 7.4,4.7 C7.5,4.6 7.7,4.3 7.8,4.1 C7.9,3.9 8,3.6 8,3.2 C8,2.8 7.9,2.4 7.7,2.1 C7.5,1.8 7.2,1.6 6.8,1.6 L6.8,0.6 C7.5,0.7 8,1 8.4,1.5 Z M4.4,1.7 C4.2,1.8 4,1.9 3.8,2.1 C3.6,2.3 3.5,2.4 3.4,2.7 C3.3,2.9 3.3,3.1 3.3,3.4 C3.3,3.7 3.3,3.9 3.4,4.1 C3.5,4.3 3.6,4.5 3.8,4.6 C4,4.8 4.1,4.9 4.4,5 C4.6,5.1 4.8,5.1 5.1,5.2 L5.1,1.6 C4.8,1.6 4.6,1.7 4.4,1.7 Z" id="Shape"></path>
        </g>
        <path d="M0,314 L2.5,314 L2.5,316.5 L0,316.5 L0,314 Z M0,317.75 L2.5,317.75 L2.5,320.25 L0,320.25 L0,317.75 Z M0,321.5 L2.5,321.5 L2.5,324 L0,324 L0,321.5 Z M3.75,314 L6.25,314 L6.25,316.5 L3.75,316.5 L3.75,314 Z M3.75,317.75 L6.25,317.75 L6.25,320.25 L3.75,320.25 L3.75,317.75 Z M3.75,321.5 L6.25,321.5 L6.25,324 L3.75,324 L3.75,321.5 Z M7.5,314 L10,314 L10,316.5 L7.5,316.5 L7.5,314 Z M7.5,317.75 L10,317.75 L10,320.25 L7.5,320.25 L7.5,317.75 Z M7.5,324 L7.5,321.5 L10,321.5 L10,324 L7.5,324 Z" id="Shape" fill="#8533FF" fill-rule="nonzero"></path>
        <path d="M6.44318182,406.942308 L8.38636364,405.403846 L9,408 L6.44318182,406.942308 Z M5.625,405.980769 L7.46590909,404.346154 L8.07954545,405.019231 L6.13636364,406.557692 L5.625,405.980769 Z M0,399.634615 L1.84090909,398 L7.26136364,404.057692 L5.42045455,405.692308 L0,399.634615 Z" id="Shape" fill="#8533FF" fill-rule="nonzero"></path>
        <g id="Group" transform="translate(0.000000, 235.000000)" fill="#8533FF" fill-rule="nonzero">
            <g transform="translate(0.000000, 14.000000)">
                <path d="M1.4,35.9 C1.1,36.3 1,36.8 1,37.4 C1,37.6 1,37.9 1.1,38.1 C1.1,38.3 1.2,38.5 1.3,38.7 C1.4,38.9 1.6,39 1.8,39.1 C2,39.2 2.2,39.3 2.5,39.3 C2.8,39.3 3,39.2 3.1,39.1 C3.3,38.9 3.4,38.7 3.5,38.5 C3.6,38.2 3.7,37.9 3.8,37.6 C3.9,37.3 3.9,36.9 4,36.6 C4.1,36.3 4.2,35.9 4.3,35.6 C4.4,35.3 4.6,35 4.7,34.7 C4.9,34.4 5.1,34.2 5.4,34.1 C5.7,33.9 6,33.9 6.5,33.9 C7,33.9 7.3,34 7.7,34.2 C8,34.4 8.3,34.7 8.5,35 C8.7,35.3 8.9,35.7 8.9,36.1 C9,36.5 9,36.9 9,37.3 C9,37.8 8.9,38.2 8.8,38.7 C8.7,39.1 8.5,39.5 8.3,39.8 C8.1,40.1 7.7,40.4 7.4,40.6 C7,40.5 6.5,40.6 6,40.6 L6,39.5 C6.4,39.5 6.7,39.4 6.9,39.3 C7.2,39.2 7.4,39 7.5,38.7 C7.6,38.4 7.8,38.2 7.9,37.9 C8,37.6 8,37.3 8,37 C8,36.7 8,36.5 7.9,36.2 C7.9,35.9 7.8,35.7 7.7,35.5 C7.6,35.3 7.4,35.1 7.2,35 C7,34.9 6.7,34.8 6.4,34.8 C6.1,34.8 5.9,34.9 5.7,35 C5.5,35.1 5.4,35.4 5.3,35.6 C5.2,35.9 5.1,36.2 5,36.5 C4.9,36.8 4.9,37.2 4.8,37.5 C4.7,37.8 4.6,38.2 4.5,38.5 C4.4,38.8 4.3,39.1 4.1,39.4 C3.9,39.7 3.7,39.9 3.5,40 C3.2,40.2 2.9,40.2 2.5,40.2 C2.1,40.2 1.7,40.1 1.4,39.9 C1.1,39.7 0.8,39.5 0.6,39.2 C0.4,38.9 0.2,38.6 0.1,38.2 C0,37.8 0,37.7 0,37.3 C0,36.9 0.1,36.5 0.2,36.1 C0.3,35.7 0.5,35.4 0.7,35.1 C0.9,34.8 1.2,34.6 1.5,34.4 C1.8,34.2 2.2,34.1 2.7,34.1 L2.7,35.2 C2.1,35.3 1.7,35.5 1.4,35.9 Z" id="Path"></path>
                <path d="M8.4,27.4 C8.8,27.9 8.9,28.4 8.9,29.2 C8.9,29.7 8.8,30.1 8.7,30.5 C8.5,30.9 8.3,31.2 8,31.4 C7.7,31.6 7.4,31.8 7,32 C6.6,32.1 6.2,32.2 5.7,32.2 C5.2,32.2 4.8,32.1 4.4,32 C4,31.9 3.7,31.7 3.4,31.4 C3.1,31.1 2.9,30.8 2.7,30.5 C2.5,30.1 2.5,29.8 2.5,29.3 C2.5,28.7 2.6,28.3 2.8,27.9 C3,27.5 3.3,27.2 3.7,27 C4.1,26.8 4.4,26.6 4.9,26.5 C5.4,26.4 5.7,26.4 6.1,26.4 L6.1,31 C6.4,31 6.6,31 6.9,30.9 C7.1,30.8 7.4,30.7 7.5,30.6 C7.7,30.4 7.8,30.2 7.9,30 C8,29.8 8.1,29.5 8.1,29.1 C8.1,28.7 8,28.3 7.8,28 C7.6,27.7 7.3,27.5 6.9,27.5 L6.9,26.5 C7.5,26.6 8,26.9 8.4,27.4 Z M4.4,27.6 C4.2,27.7 4,27.8 3.8,28 C3.6,28.2 3.5,28.3 3.4,28.6 C3.3,28.8 3.3,29 3.3,29.3 C3.3,29.6 3.3,29.8 3.4,30 C3.5,30.2 3.6,30.4 3.8,30.5 C4,30.7 4.1,30.8 4.4,30.9 C4.6,31 4.8,31 5.1,31.1 L5.1,27.5 C4.9,27.5 4.6,27.5 4.4,27.6 Z" id="Shape"></path>
                <path d="M8.7,19 C8.8,19.2 8.9,19.4 8.9,19.7 C8.9,20 8.8,20.2 8.7,20.3 C8.6,20.4 8.3,20.5 8,20.5 C8.3,20.8 8.6,21.1 8.7,21.5 C8.8,21.9 8.9,22.3 8.9,22.7 C8.9,23 8.9,23.2 8.8,23.5 C8.7,23.8 8.6,24 8.5,24.2 C8.4,24.4 8.2,24.5 8,24.6 C7.8,24.7 7.5,24.8 7.2,24.8 C6.8,24.8 6.6,24.7 6.3,24.6 C6.1,24.5 5.9,24.3 5.8,24.1 C5.7,23.9 5.6,23.7 5.5,23.4 C5.4,23.1 5.4,22.9 5.3,22.6 C5.2,22.3 5.2,22.1 5.2,21.8 C5.2,21.5 5.1,21.5 5,21.3 C4.9,21.1 4.9,21 4.8,20.8 C4.7,20.7 4.6,20.6 4.4,20.6 C4.2,20.6 4,20.6 3.9,20.7 C3.8,20.8 3.7,20.9 3.6,21 C3.5,21.1 3.5,21.3 3.5,21.4 C3.5,21.6 3.5,21.7 3.5,21.9 C3.5,22.3 3.6,22.7 3.7,23 C3.8,23.3 4.2,23.4 4.6,23.5 L4.6,24.5 C4.2,24.5 3.9,24.4 3.6,24.3 C3.3,24.2 3.1,24 3,23.7 C2.8,23.5 2.7,23.2 2.6,22.9 C2.5,22.6 2.5,22.3 2.5,21.9 C2.5,21.6 2.5,21.3 2.6,21.1 C2.6,20.8 2.7,20.6 2.8,20.3 C2.9,20.1 3.1,19.9 3.3,19.8 C3.5,19.7 3.8,19.6 4.2,19.6 L7.4,19.6 C7.6,19.6 7.8,19.6 7.9,19.6 C8,19.6 8.1,19.5 8.1,19.3 C8.1,19.2 8.1,19.1 8.1,19 C8.1,19 8.7,19 8.7,19 Z M5.6,20.7 C5.7,20.8 5.8,21 5.8,21.2 C5.8,21.4 5.9,21.6 5.9,21.9 C5.9,22.1 6,22.4 6,22.6 C6,22.8 6.1,23 6.2,23.2 C6.3,23.4 6.4,23.5 6.5,23.6 C6.6,23.7 6.8,23.8 7.1,23.8 C7.3,23.8 7.4,23.8 7.5,23.7 C7.6,23.6 7.7,23.5 7.8,23.4 C7.9,23.3 7.9,23.2 8,23 C8,22.9 8,22.7 8,22.5 C8,22.2 8,21.9 7.9,21.6 C7.8,21.4 7.7,21.2 7.6,21 C7.5,20.8 7.3,20.7 7.1,20.7 C6.9,20.6 6.8,20.6 6.6,20.6 L5.6,20.7 Z" id="Shape"></path>
                <path d="M2.6,16.4 L3.9,16.4 L3.9,16.4 C3.4,16.2 3,15.9 2.8,15.5 C2.6,15.1 2.4,14.7 2.5,14.1 L3.6,14.1 C3.6,14.5 3.7,14.9 3.8,15.1 C3.9,15.4 4.1,15.6 4.3,15.8 C4.5,16 4.8,16.1 5.1,16.2 C5.4,16.3 5.8,16.3 6.2,16.3 L9,16.3 L9,17.3 L2.8,17.3 L2.6,16.4 Z" id="Path"></path>
                <path d="M3.6,9.1 C3.4,9.4 3.3,9.7 3.3,10.1 C3.3,10.5 3.4,10.8 3.5,11 C3.6,11.2 3.8,11.4 4,11.6 C4.2,11.7 4.5,11.9 4.8,11.9 C5.1,12 5.4,12 5.7,12 C6,12 6.3,12 6.5,11.9 C6.8,11.8 7,11.7 7.2,11.6 C7.4,11.5 7.6,11.3 7.7,11 C7.8,10.8 7.9,10.5 7.9,10.2 C7.9,9.7 7.8,9.3 7.5,9 C7.2,8.7 6.9,8.5 6.4,8.5 L6.4,7.5 C7.2,7.6 7.8,7.9 8.2,8.4 C8.6,8.9 8.8,9.5 8.8,10.3 C8.8,10.8 8.7,11.2 8.6,11.6 C8.4,12 8.2,12.3 8,12.5 C7.8,12.7 7.4,12.9 7,13.1 C6.6,13.2 6.2,13.3 5.7,13.3 C5.2,13.3 4.8,13.2 4.4,13.1 C4,13 3.6,12.8 3.3,12.6 C3,12.4 2.8,12.1 2.6,11.7 C2.4,11.3 2.3,10.9 2.3,10.4 C2.3,10 2.3,9.7 2.4,9.4 C2.5,9.1 2.6,8.8 2.8,8.6 C3,8.4 3.2,8.2 3.5,8 C3.8,7.8 4.1,7.8 4.5,7.7 L4.5,8.8 C4.1,8.6 3.8,8.8 3.6,9.1 Z" id="Path"></path>
                <path d="M0.2,4.5 L3.5,4.5 L3.5,4.5 C3.3,4.4 3.1,4.3 3,4.2 C2.9,4.1 2.8,3.9 2.7,3.7 C2.6,3.5 2.6,3.3 2.5,3.1 C2.5,2.9 2.4,2.7 2.4,2.5 C2.4,2.1 2.5,1.8 2.6,1.5 C2.7,1.2 2.9,1 3.1,0.8 C3.3,0.6 3.5,0.5 3.8,0.4 C4.1,0.3 4.4,0.3 4.7,0.3 L8.8,0.3 L8.8,1.3 L4.6,1.3 C4.2,1.3 3.9,1.4 3.7,1.6 C3.5,1.8 3.4,2.1 3.4,2.5 C3.4,2.8 3.4,3.1 3.5,3.3 C3.6,3.5 3.7,3.7 3.9,3.9 C4.1,4.1 4.3,4.2 4.5,4.2 C4.7,4.5 5,4.5 5.2,4.5 L8.7,4.5 L8.7,5.5 L0.1,5.5 L0.2,4.5 Z" id="Path"></path>
            </g>
            <path d="M3.5,6.3 C2.2,6.3 1.1,5.2 1.1,3.9 C1.1,2.6 2.2,1.5 3.5,1.5 C4.8,1.5 5.9,2.6 5.9,3.9 C5.9,5.2 4.9,6.3 3.5,6.3 Z M8.7,8.1 L6.6,6 C6.6,6 6.6,6 6.5,6 C6.8,5.4 7.1,4.8 7.1,4.1 C7.1,2.1 5.5,0.6 3.6,0.6 C1.7,0.6 0.1,2.1 0.1,4.1 C0.1,6.1 1.7,7.6 3.6,7.6 C4.3,7.6 5,7.4 5.5,7 C5.5,7 5.5,7 5.5,7.1 L7.6,9.2 C7.7,9.3 7.9,9.4 8.1,9.4 C8.3,9.4 8.5,9.3 8.6,9.2 C9,8.8 9,8.3 8.7,8.1 Z" id="Shape"></path>
        </g>
        <g id="home" transform="translate(0.000000, 460.000000)" fill="#333333">
            <path d="M3.83333333,11.9259259 L3.83333333,21 L8.94444444,21 L8.94444444,15.225 C8.94444444,14.8361111 9.26388889,14.5185185 9.66,14.5185185 L13.34,14.5185185 C13.7361111,14.5185185 14.0555556,14.8361111 14.0555556,15.225 L14.0555556,21 L19.1283333,21 L19.1666667,11.9259259 L23,11.9259259 L11.6916667,0 L0,11.9259259 L3.83333333,11.9259259 Z" id="Page-1"></path>
        </g>
    </g>
</svg>