<svg width="500" height="400" fill="none" xmlns="http://www.w3.org/2000/svg"><path d="M36.694 241.055h.178c1.524.156 2.663 2.495 3.038 5.931 2.089-2.266 4.177-3.603 5.618-3.603a1.78 1.78 0 0 1 .72.136c1.296.595 1.463 2.851.533 5.879a14.279 14.279 0 0 1 5.524-1.619 2.567 2.567 0 0 1 1.67.47c1.191 1.044.178 3.53-2.505 6.422a29.857 29.857 0 0 1 3.341-.209c2.872 0 4.95.533 5.535 1.567.751 1.305-1.107 3.184-4.626 4.907 4.51 1.097 7.696 2.694 7.936 4.271.292 1.786-3.227 3.039-8.552 3.289 5.064 3.227 8.353 6.641 7.769 8.5-.251.898-1.316 1.337-2.956 1.337a21.941 21.941 0 0 1-6.265-1.232c3.31 4.719 4.97 8.917 3.645 10.442a1.886 1.886 0 0 1-1.494.595c-2.172 0-5.868-2.203-9.815-5.754 1.64 7.184 1.566 13.303-.794 14.316-.22.101-.458.151-.7.147-2.203 0-5.116-3.812-7.601-9.336-1.493 6.589-3.926 11.487-6.349 11.487h-.094c-2.652-.126-4.02-6.005-3.853-13.502-4.052 5.555-8.28 9.398-10.766 9.398a1.822 1.822 0 0 1-.981-.261c-2.089-1.295-.836-6.913 2.328-13.397-4.177 2.422-7.925 3.884-10.18 3.884a2.153 2.153 0 0 1-2.016-.856c-1.138-1.953 2.182-6.526 7.455-11.194a39.437 39.437 0 0 1-5.596.459c-3.499 0-5.733-.71-5.775-2.151-.052-1.984 4.062-4.646 9.847-6.839-5.221-1.232-8.354-3.081-7.644-4.793.71-1.713 5.054-2.767 10.651-2.913-3.738-2.726-5.513-5.326-4.25-6.579a3.831 3.831 0 0 1 2.684-.741c2.157.089 4.288.494 6.328 1.201-1.817-3.133-2.162-5.681-.742-6.381.3-.125.627-.175.95-.146 1.598 0 4.094 1.243 6.757 3.3-.303-3.561.428-6.025 1.984-6.265.09-.011.18-.011.271 0 1.42 0 3.227 1.691 4.845 4.417 1.044-2.851 2.559-4.595 3.947-4.595v.011Zm0-1.055c-1.493.01-2.944 1.222-4.124 3.456-1.149-1.618-2.861-3.299-4.668-3.299a2.919 2.919 0 0 0-.439 0c-1.764.282-2.798 2.192-2.923 5.221-1.702-1.097-3.864-2.235-5.65-2.235a3.032 3.032 0 0 0-1.45.324 2.483 2.483 0 0 0-1.296 1.566 6.464 6.464 0 0 0 .554 4.104 19.202 19.202 0 0 0-4.365-.606 4.762 4.762 0 0 0-3.425 1.044 2.452 2.452 0 0 0-.7 1.922c.126 1.503 1.41 3.132 2.924 4.469-3.414.334-7.904 1.169-8.844 3.435a2.279 2.279 0 0 0 .083 1.995c.742 1.493 2.945 2.631 5.336 3.393-3.686 1.64-7.78 4.062-7.706 6.673 0 1.451 1.253 3.132 6.819 3.132.804 0 1.67.001 2.579-.104-3.133 3.133-6.892 7.654-5.347 10.327a3.133 3.133 0 0 0 2.924 1.368c1.911 0 4.668-.887 7.947-2.527-1.755 4.177-3.54 10.098-.648 11.883.463.279.995.424 1.535.418 3.133 0 7.216-4.344 9.753-7.445.167 4.532 1.044 11.329 4.814 11.486h.146c3.29 0 5.472-5.43 6.652-9.513 1.733 3.258 4.469 7.372 7.31 7.372.38.004.758-.074 1.106-.229 3.268-1.41 2.725-8.156 1.984-12.531 3.32 2.611 6.265 4.073 8.218 4.073a2.891 2.891 0 0 0 2.297-.972c1.744-2.088-.084-6.16-2.088-9.397a17.8 17.8 0 0 0 3.905.522c2.799 0 3.697-1.149 3.968-2.089.835-2.527-2.778-5.795-5.785-7.998 2.37-.324 4.95-1.044 6.056-2.35a2.307 2.307 0 0 0 .564-1.817c-.323-2.088-3.435-3.519-6.265-4.427a6.99 6.99 0 0 0 3.007-3.227 2.347 2.347 0 0 0-.188-1.879c-.783-1.379-2.955-2.089-6.442-2.089h-.971a7.078 7.078 0 0 0 1.67-4.176 2.447 2.447 0 0 0-.856-1.786 3.525 3.525 0 0 0-2.36-.752c-1.39.059-2.76.356-4.051.877.428-2.579-.126-4.385-1.587-5.054a2.692 2.692 0 0 0-1.16-.24c-1.67 0-3.498 1.243-4.907 2.496-.627-2.914-1.87-4.647-3.624-4.804l-.282-.01Z" fill="#fff"/><path d="M49.643 265.426c-1.045-.532-2.089-.992-3.133-1.451 1.044-.23 2.088-.449 3.133-.762 7.31-2.089 11.883-5.221 10.765-7.184-1.117-1.964-7.226-2.089-14.149-.418a27.37 27.37 0 0 0-2.903.793c.501-.736.961-1.5 1.379-2.286 2.934-5.221 3.456-9.743 1.556-10.62-1.9-.877-5.837 2.088-9.158 7.048-.48.721-.971 1.483-1.378 2.246a31.8 31.8 0 0 0-.784-2.475c-2.004-5.597-5.168-9.398-7.309-9.095-2.14.303-2.757 4.949-1.148 10.849.26.867.522 1.713.814 2.548-.856-.501-1.744-1.044-2.715-1.452-6.704-3.268-13.261-4.521-14.932-2.85-1.67 1.67 2.35 6.087 9.46 9.742 1.045.533 2.005.992 3.018 1.441-1.159.23-2.391.46-3.655.762-9.397 2.287-17.5 6.401-17.427 9.179.073 2.778 8.98 2.851 19.109 0a64.733 64.733 0 0 0 3.832-1.211c-.783 1.044-1.567 2.088-2.35 3.268-6.181 9.21-9.721 19.37-6.808 21.166 2.913 1.796 10.578-6.098 16.123-16.018.71-1.263 1.347-2.475 1.869-3.655.26 1.253.553 2.548.93 3.874 2.86 10.536 8.186 19.255 11.391 17.877 3.206-1.378 2.277-11.455-1.221-21.229a48.051 48.051 0 0 0-1.41-3.539 34.817 34.817 0 0 0 3.279 1.827c8.52 4.417 16.342 5.858 17.083 3.195.814-2.475-5.325-7.685-13.261-11.57Z" fill="#53B8E7"/><path d="M32.142 247.508c1.117-4.073 3.017-6.652 4.73-6.453 1.786.167 3.05 3.341 3.133 7.779a22.368 22.368 0 0 0-3.467 4.114c-.167.303-.345.606-.522.909-.178.302-.355.605-.522.908a10.374 10.374 0 0 0-.669-1.963 20.627 20.627 0 0 0-2.683-5.294ZM28.863 256.258c-.668-.417-1.41-.793-2.162-1.169a31.545 31.545 0 0 0-6.84-2.538c-2.787-4.02-3.508-7.32-1.89-8.197 1.62-.877 5.493 1.055 9.399 4.532.031 1.791.309 3.569.825 5.284.186.707.41 1.404.668 2.088ZM22.16 262.231a60.478 60.478 0 0 1 2.234-.491l.564-.115-1.619-.73-.773-.355a26.869 26.869 0 0 1-5.576-3.634c-7.038-.188-12.885.856-13.762 2.944-.877 2.089 3.644 4.177 10.442 5.368a44.955 44.955 0 0 1 8.49-2.987ZM4.94 284.327c-1.326-2.298 3.52-8.229 10.442-13.68a41.329 41.329 0 0 0 8.25-1.472 50 50 0 0 0 2.902-.867 51.1 51.1 0 0 0-1.754 2.423 42.124 42.124 0 0 0-4.427 8.573c-7.3 4.835-14.087 7.32-15.413 5.023ZM50.123 256.029c3.686-3.436 5.221-6.61 3.874-7.78-1.347-1.169-4.991-.23-9.158 2.089a19.633 19.633 0 0 1-2.161 5.409 29.58 29.58 0 0 1-.971 1.524l-.178.282a46.593 46.593 0 0 1 2.308-.637 29.646 29.646 0 0 1 6.286-.887ZM31.912 274.511c.522-.908 1.013-1.786 1.42-2.652.178.908.407 1.858.742 2.84a35.83 35.83 0 0 0 3.613 8.729c-1.337 8.647-4.167 15.81-7.258 15.653-3.09-.157-4.438-8.082-3.654-17.302a43.166 43.166 0 0 0 5.137-7.268ZM63.677 265.207c-.293-1.89-4.804-3.811-10.755-4.866a27.418 27.418 0 0 1-6.558 2.642c-.69.188-1.41.355-2.088.512l-.387.094.616.261.25.107c.527.226 1.066.457 1.598.728a37.824 37.824 0 0 1 6.328 3.853c6.641.073 11.34-1.284 10.996-3.331ZM40.746 269.635a28.31 28.31 0 0 0 2.527 1.399 34.94 34.94 0 0 0 8.113 3.07c4.762 5.858 7.654 11.465 5.921 13.491-1.733 2.026-7.654-1.337-13.575-7.31a40.557 40.557 0 0 0-1.942-8.009 43.475 43.475 0 0 0-1.044-2.641Z" fill="#268ECD"/><path d="M52.66 268.58a40.018 40.018 0 0 0-6.338-3.874 25.121 25.121 0 0 0-2.454-1.044c.814-.147 1.64-.376 2.496-.606a26.96 26.96 0 0 0 6.557-2.652c1.817-1.097 2.715-2.235 2.266-3.07-.449-.836-2.422-1.326-5.064-1.253a36.007 36.007 0 0 0-6.265.919c-.815.188-1.556.407-2.308.637.418-.564.783-1.212 1.159-1.817 1-1.683 1.728-3.511 2.161-5.42.335-1.744.105-2.997-.71-3.331-.814-.334-2.422.303-4.02 1.775a21.683 21.683 0 0 0-3.467 4.177c-.39.581-.738 1.188-1.044 1.817-.188-.647-.376-1.326-.595-2.005a20.527 20.527 0 0 0-2.684-5.304c-1.18-1.608-2.37-2.485-3.3-2.298-.929.188-1.566 1.598-1.607 3.676.043 1.798.327 3.582.845 5.305.176.71.4 1.408.669 2.088-.669-.376-1.42-.794-2.162-1.138a31.547 31.547 0 0 0-6.86-2.538c-2.454-.532-4.313-.459-4.981.261-.668.721.104 2.392 2.088 4.094a29.061 29.061 0 0 0 5.587 3.644c.783.407 1.608.752 2.38 1.096-.887.147-1.816.376-2.787.606a43.395 43.395 0 0 0-8.552 2.913c-2.788 1.368-4.543 2.809-4.428 3.948.115 1.138 2.538 1.775 6.067 1.545 2.81-.21 5.592-.707 8.301-1.483a30.364 30.364 0 0 0 2.903-.908c-.553.752-1.148 1.556-1.712 2.422a41.253 41.253 0 0 0-4.428 8.605c-1.159 3.132-1.305 5.68-.114 6.369 1.19.689 3.853-.908 6.515-3.957a44.71 44.71 0 0 0 5.138-7.237c.522-.908 1.044-1.817 1.42-2.652.188.908.407 1.859.71 2.84a39.6 39.6 0 0 0 3.644 8.772c1.681 2.808 3.436 4.437 4.73 3.947 1.295-.491 1.797-3.342 1.348-7.09a41.243 41.243 0 0 0-1.984-7.978 33.415 33.415 0 0 0-1.045-2.652c.784.449 1.64.95 2.496 1.399a36.691 36.691 0 0 0 8.082 3.07c2.725.605 4.657.459 5.033-.606.376-1.065-1.117-3.049-3.686-5.012ZM120 240h66v60h-66z" fill="#fff"/><path d="M169.566 265.426c-1.044-.532-2.088-.992-3.132-1.451 1.044-.23 2.088-.449 3.132-.762 7.31-2.089 11.884-5.221 10.766-7.184-1.117-1.964-7.226-2.089-14.149-.418a27.424 27.424 0 0 0-2.903.793c.501-.736.961-1.5 1.379-2.286 2.934-5.221 3.456-9.743 1.556-10.62-1.901-.877-5.838 2.088-9.158 7.048-.48.721-.971 1.483-1.378 2.246-.22-.805-.481-1.64-.784-2.475-2.004-5.597-5.168-9.398-7.309-9.095-2.141.303-2.757 4.949-1.149 10.849.261.867.522 1.713.815 2.548-.856-.501-1.744-1.044-2.715-1.452-6.704-3.268-13.262-4.521-14.932-2.85-1.671 1.67 2.349 6.087 9.46 9.742 1.044.533 2.005.992 3.018 1.441-1.159.23-2.391.46-3.655.762-9.398 2.287-17.501 6.401-17.428 9.179.074 2.778 8.981 2.851 19.109 0a64.81 64.81 0 0 0 3.833-1.211c-.783 1.044-1.567 2.088-2.35 3.268-6.181 9.21-9.721 19.37-6.808 21.166 2.913 1.796 10.578-6.098 16.123-16.018.71-1.263 1.347-2.475 1.869-3.655a55.8 55.8 0 0 0 .929 3.874c2.861 10.536 8.187 19.255 11.392 17.877 3.206-1.378 2.277-11.455-1.221-21.229a48.406 48.406 0 0 0-1.41-3.539 34.721 34.721 0 0 0 3.279 1.827c8.52 4.417 16.341 5.858 17.083 3.195.814-2.475-5.326-7.685-13.262-11.57Z" fill="#53B8E7"/><path d="M152.066 247.508c1.117-4.073 3.017-6.652 4.73-6.453 1.785.167 3.049 3.341 3.132 7.779a22.403 22.403 0 0 0-3.466 4.114c-.167.303-.345.606-.522.909a36.44 36.44 0 0 0-.522.908 10.376 10.376 0 0 0-.669-1.963 20.603 20.603 0 0 0-2.683-5.294ZM148.787 256.258c-.668-.417-1.41-.793-2.162-1.169a31.548 31.548 0 0 0-6.839-2.538c-2.788-4.02-3.509-7.32-1.89-8.197 1.618-.877 5.492 1.055 9.398 4.532.031 1.791.309 3.569.825 5.284.186.707.409 1.404.668 2.088ZM142.083 262.231a60.404 60.404 0 0 1 2.235-.491l.563-.115-1.618-.73-.773-.355a26.882 26.882 0 0 1-5.576-3.634c-7.038-.188-12.885.856-13.762 2.944-.878 2.089 3.644 4.177 10.442 5.368a44.966 44.966 0 0 1 8.489-2.987ZM124.864 284.327c-1.326-2.298 3.519-8.229 10.442-13.68a41.32 41.32 0 0 0 8.249-1.472 49.817 49.817 0 0 0 2.903-.867 51.457 51.457 0 0 0-1.754 2.423 42.113 42.113 0 0 0-4.427 8.573c-7.299 4.835-14.087 7.32-15.413 5.023ZM170.047 256.029c3.686-3.436 5.221-6.61 3.874-7.78-1.347-1.169-4.991-.23-9.158 2.089a19.64 19.64 0 0 1-2.161 5.409 30.632 30.632 0 0 1-.971 1.524l-.178.282a46.545 46.545 0 0 1 2.308-.637 29.64 29.64 0 0 1 6.286-.887ZM151.836 274.511c.522-.908 1.013-1.786 1.42-2.652.178.908.407 1.858.741 2.84a35.85 35.85 0 0 0 3.613 8.729c-1.336 8.647-4.166 15.81-7.257 15.653-3.091-.157-4.438-8.082-3.655-17.302a43.163 43.163 0 0 0 5.138-7.268ZM183.601 265.207c-.293-1.89-4.804-3.811-10.756-4.866a27.414 27.414 0 0 1-6.557 2.642c-.689.188-1.41.355-2.089.512l-.386.094.616.261.249.107c.527.226 1.067.457 1.599.728a37.801 37.801 0 0 1 6.328 3.853c6.641.073 11.34-1.284 10.996-3.331ZM160.67 269.635c.818.509 1.661.976 2.527 1.399a34.94 34.94 0 0 0 8.113 3.07c4.762 5.858 7.654 11.465 5.921 13.491-1.733 2.026-7.654-1.337-13.575-7.31a40.493 40.493 0 0 0-1.942-8.009 44.14 44.14 0 0 0-1.044-2.641Z" fill="#268ECD"/><path d="M172.584 268.58a40.028 40.028 0 0 0-6.338-3.874 25.093 25.093 0 0 0-2.454-1.044c.814-.147 1.639-.376 2.495-.606a26.962 26.962 0 0 0 6.558-2.652c1.817-1.097 2.715-2.235 2.266-3.07-.449-.836-2.423-1.326-5.064-1.253a36.014 36.014 0 0 0-6.266.919c-.814.188-1.556.407-2.307.637.417-.564.783-1.212 1.159-1.817a18.736 18.736 0 0 0 2.161-5.42c.334-1.744.105-2.997-.71-3.331-.814-.334-2.422.303-4.02 1.775a21.695 21.695 0 0 0-3.467 4.177c-.39.581-.739 1.188-1.044 1.817-.188-.647-.376-1.326-.595-2.005a20.54 20.54 0 0 0-2.684-5.304c-1.18-1.608-2.37-2.485-3.299-2.298-.93.188-1.567 1.598-1.609 3.676.044 1.798.328 3.582.846 5.305.176.71.399 1.408.669 2.088-.669-.376-1.421-.794-2.162-1.138a31.561 31.561 0 0 0-6.86-2.538c-2.454-.532-4.313-.459-4.981.261-.669.721.104 2.392 2.088 4.094a29.047 29.047 0 0 0 5.587 3.644c.783.407 1.608.752 2.38 1.096-.887.147-1.816.376-2.788.606a43.417 43.417 0 0 0-8.552 2.913c-2.788 1.368-4.542 2.809-4.427 3.948.115 1.138 2.537 1.775 6.067 1.545 2.81-.21 5.592-.707 8.301-1.483a30.393 30.393 0 0 0 2.903-.908c-.553.752-1.149 1.556-1.712 2.422a41.226 41.226 0 0 0-4.428 8.605c-1.159 3.132-1.305 5.68-.115 6.369 1.191.689 3.853-.908 6.516-3.957a44.768 44.768 0 0 0 5.138-7.237c.522-.908 1.044-1.817 1.42-2.652.188.908.407 1.859.71 2.84a39.584 39.584 0 0 0 3.644 8.772c1.681 2.808 3.436 4.437 4.73 3.947 1.295-.491 1.796-3.342 1.347-7.09a41.185 41.185 0 0 0-1.984-7.978 33.34 33.34 0 0 0-1.044-2.652c.783.449 1.64.95 2.496 1.399a36.671 36.671 0 0 0 8.082 3.07c2.725.605 4.657.459 5.033-.606.376-1.065-1.117-3.049-3.686-5.012Z" fill="#fff"/><path fill-rule="evenodd" clip-rule="evenodd" d="M290.215 243.498c-1.389-.641-3.865.77-6.393 3.511-.35-3.461-1.496-5.811-3.026-5.954-1.424-.165-2.978 1.59-4.103 4.527-1.718-2.87-3.65-4.566-5.107-4.36-1.54.218-2.291 2.683-1.993 6.245-3.287-2.562-6.315-3.862-7.697-3.113-1.376.746-1.062 3.241.774 6.44-4.332-1.384-7.896-1.647-9.065-.477-1.205 1.205.551 3.839 4.292 6.585-5.634.146-9.997 1.167-10.745 2.948-.748 1.781 2.429 3.562 7.595 4.786-5.729 2.187-9.798 4.833-9.747 6.805.054 2.031 4.831 2.616 11.354 1.669-5.282 4.68-8.618 9.263-7.49 11.217 1.13 1.957 6.226.442 12.224-3.041-3.158 6.475-4.398 12.087-2.304 13.378 2.191 1.351 7.068-2.778 11.71-9.127-.17 7.518 1.199 13.409 3.859 13.544 2.573.13 4.964-4.81 6.465-11.456 2.75 6.095 6.034 10.082 8.279 9.117 2.44-1.049 2.485-7.138.824-14.297 5.103 4.586 9.798 6.916 11.31 5.15 1.431-1.673-.291-5.787-3.615-10.468 4.987 1.594 8.712 1.666 9.212-.131.612-1.861-2.709-5.27-7.77-8.499 5.311-.245 8.843-1.506 8.543-3.29-.244-1.574-3.416-3.171-7.909-4.27 3.544-1.714 5.397-3.579 4.64-4.908-.823-1.446-4.352-1.895-8.92-1.364 2.681-2.887 3.675-5.403 2.509-6.416-1.126-.977-3.856-.481-7.154 1.061.908-2.987.725-5.222-.552-5.812Zm.031 21.208a40.028 40.028 0 0 1 6.338 3.874c2.569 1.963 4.062 3.947 3.686 5.012-.376 1.065-2.308 1.211-5.033.606a36.671 36.671 0 0 1-8.082-3.07c-.717-.376-1.434-.789-2.108-1.177l-.388-.222c.376.835.71 1.702 1.044 2.652a41.185 41.185 0 0 1 1.984 7.978c.449 3.748-.052 6.599-1.347 7.09-1.294.49-3.049-1.139-4.73-3.947a39.584 39.584 0 0 1-3.644-8.772 30.432 30.432 0 0 1-.71-2.84c-.376.835-.898 1.744-1.42 2.652a44.768 44.768 0 0 1-5.138 7.237c-2.663 3.049-5.325 4.646-6.516 3.957-1.19-.689-1.044-3.237.115-6.369a41.226 41.226 0 0 1 4.428-8.605c.54-.831 1.11-1.604 1.644-2.329l.068-.093c-.952.351-1.921.654-2.903.908a41.333 41.333 0 0 1-8.301 1.483c-3.53.23-5.952-.407-6.067-1.545-.115-1.139 1.639-2.58 4.427-3.948a43.417 43.417 0 0 1 8.552-2.913l.345-.082c.847-.201 1.661-.395 2.443-.524-.17-.076-.343-.152-.518-.228a31.816 31.816 0 0 1-1.862-.868 29.047 29.047 0 0 1-5.587-3.644c-1.984-1.702-2.757-3.373-2.088-4.094.668-.72 2.527-.793 4.981-.261a31.561 31.561 0 0 1 6.86 2.538c.741.344 1.493.762 2.162 1.138-.27-.68-.493-1.378-.669-2.088a20.135 20.135 0 0 1-.846-5.305c.042-2.078.679-3.488 1.609-3.676.929-.187 2.119.69 3.299 2.298a20.54 20.54 0 0 1 2.684 5.304c.17.528.322 1.055.469 1.567l.126.438c.305-.629.654-1.236 1.044-1.817a21.695 21.695 0 0 1 3.467-4.177c1.598-1.472 3.206-2.109 4.02-1.775.815.334 1.044 1.587.71 3.331a18.736 18.736 0 0 1-2.161 5.42c-.097.156-.193.315-.29.475-.278.459-.559.923-.869 1.342.751-.23 1.493-.449 2.307-.637a36.014 36.014 0 0 1 6.266-.919c2.641-.073 4.615.417 5.064 1.253.449.835-.449 1.973-2.266 3.07a26.962 26.962 0 0 1-6.558 2.652l-.242.065c-.77.207-1.516.408-2.253.541.836.304 1.655.653 2.454 1.044Z" fill="#fff"/><path d="M379.551 187.861c-1.493.898-3.184 1.385-5.224 1.385-5.895 0-9.327-4.233-9.327-11.392 0-5.08 1.89-8.441 4.378-10.212 1.417-1.001 3.507-1.642 5.298-1.642 1.417 0 2.959.334 4.128 1.001.796.436 1.17.744 2.09 1.539l-2.711 3.798c-1.12-1.078-2.338-1.72-3.383-1.72-2.512 0-3.632 2.233-3.632 7.416 0 2.899.374 4.618 1.095 5.567.597.77 1.542 1.258 2.512 1.258 1.293 0 2.462-.565 3.855-1.822l.324-.308 2.537 3.49c-.796.872-1.194 1.18-1.94 1.642Z" fill="#fff"/><path fill-rule="evenodd" clip-rule="evenodd" d="M398.205 186.142c-1.641 1.898-3.755 3.053-7.064 3.053-5.82 0-9.601-4.49-9.601-11.418 0-6.928 3.856-11.546 9.601-11.546 3.06 0 5.423 1.078 7.263 3.31 1.717 2.078 2.463 4.49 2.463 8.056 0 3.798-.846 6.389-2.662 8.545Zm-4.576-14.472c-.547-.744-1.418-1.154-2.413-1.154-1.343 0-2.413.872-2.885 2.232-.373 1.155-.597 2.72-.597 4.926 0 2.541.249 4.439.721 5.568.498 1.206 1.766 1.822 2.836 1.822 2.412 0 3.457-2.232 3.457-7.467.025-3.002-.348-4.952-1.119-5.927Z" fill="#fff"/><path d="M414.945 187.166c.373.898.945 1.643 1.666 2.156l3.955-2.31c-.846-1.026-1.293-2.54-1.293-4.002v-16.858l-5.348 1.155v15.523c-.398 1.078-2.089 2.104-3.457 2.104-.846 0-1.667-.41-1.965-1.026-.274-.59-.448-1.642-.448-3.618v-14.189l-5.522 1.078v14.137c0 2.233.125 3.387.448 4.388.721 2.104 3.308 3.566 6.318 3.566 2.263 0 4.278-.718 5.646-2.104Z" fill="#fff"/><path fill-rule="evenodd" clip-rule="evenodd" d="M438.549 186.706c-1.467 1.591-3.383 2.489-5.721 2.489-1.666 0-3.258-.436-4.477-1.155.075.513.075 1.155.075 1.822v6.902l-5.398 1.463v-25.53c0-2.9-.049-3.695-.323-5.568l4.975-.898c.199.77.323 1.385.373 2.078.97-1.206 3.084-2.078 5.273-2.078 1.492 0 3.059.513 4.228 1.334 2.288 1.591 3.98 4.439 3.98 9.519 0 4.747-.771 7.159-2.985 9.622Zm-3.656-13.932c-.423-1.206-1.294-1.848-2.686-1.848-1.369 0-2.712.616-3.731 1.694v10.725c.746.641 1.965 1.283 3.084 1.283 2.761 0 3.855-1.95 3.855-6.979 0-2.104-.149-3.798-.522-4.875ZM455.512 187.194c.548 1.129 1.717 2.104 3.01 2.668l2.91-3.515c-1.89-1.488-2.064-2.515-2.015-4.926l.125-7.416c.05-2.386-.075-3.079-.373-3.977-.821-2.463-3.308-3.848-6.89-3.848-1.965 0-3.756.384-5.845 1.283-1.493.667-2.338 1.077-3.458 1.821l2.388 4.131c2.313-1.591 4.403-2.489 6.194-2.489 2.064 0 2.512.821 2.512 3.285v.898c-.448-.052-.821-.052-1.244-.052-6.815 0-10.272 2.412-10.272 7.595 0 4.413 2.586 6.902 7.362 6.902 1.766 0 3.258-.436 4.303-1.206.423-.282.871-.718 1.293-1.154Zm-6.964-4.747c0-2.617 1.343-3.361 5.223-3.361h.249l-.075 4.746c-.845.95-1.89 1.514-2.935 1.514-1.417 0-2.462-1.18-2.462-2.899ZM349.584 161.67c-.901-.408-2.507.515-4.149 2.322-.243-2.306-.993-3.877-1.991-3.985-.938-.107-1.96 1.083-2.697 3.08-1.129-1.951-2.398-3.11-3.347-2.952-1.018.165-1.505 1.817-1.307 4.209-2.145-1.709-4.12-2.574-5.053-2.077-.926.472-.705 2.158.486 4.292-2.817-.922-5.132-1.094-5.896-.309-.824.846.33 2.591 2.773 4.418-3.66.099-6.488.821-6.964 1.963-.478 1.15 1.602 2.392 4.997 3.221-3.784 1.474-6.47 3.264-6.436 4.598.036 1.422 3.16 1.79 7.429 1.145-3.444 3.136-5.613 6.207-4.868 7.522.745 1.295 4.06.297 7.97-2.027-2.068 4.354-2.881 8.129-1.514 8.993 1.448.924 4.647-1.872 7.688-6.157-.107 5.039.786 8.985 2.523 9.072 1.606.085 3.228-3.224 4.218-7.7 1.803 4.117 3.96 6.814 5.431 6.167 1.541-.683 1.597-4.795.523-9.623 3.343 3.087 6.419 4.657 7.398 3.46.865-1.05-.216-3.869-2.377-7.038 3.277 1.08 5.726 1.133 6.056-.078.403-1.251-1.771-3.544-5.083-5.714 3.481-.166 5.786-1.013 5.595-2.208-.163-1.06-2.242-2.137-5.191-2.878 2.301-1.154 3.515-2.418 3.022-3.298-.519-.939-2.824-1.258-5.806-.916 1.757-1.941 2.42-3.632 1.639-4.314-.717-.619-2.537-.305-4.721.748.608-2.028.492-3.538-.348-3.936Zm.047 14.257c1.584.816 3.022 1.707 4.143 2.599 1.682 1.324 2.656 2.598 2.413 3.337-.244.713-1.511.815-3.29.408-1.487-.357-3.363-1.045-5.288-2.064a50.15 50.15 0 0 1-1.633-.942c.244.56.463 1.146.683 1.783.633 1.91 1.072 3.77 1.267 5.4.292 2.522.024 4.407-.878 4.764-.852.331-1.998-.764-3.094-2.649-.878-1.554-1.731-3.618-2.364-5.885a21.844 21.844 0 0 1-.463-1.91c-.268.56-.585 1.171-.926 1.783-1.048 1.859-2.218 3.541-3.363 4.865-1.755 2.038-3.412 3.159-4.265 2.65-.779-.459-.682-2.14.074-4.28.609-1.732 1.608-3.796 2.899-5.783.333-.533.685-1.023 1.022-1.491l.099-.139c-.609.229-1.242.433-1.9.611-1.974.561-3.851.892-5.41.994-2.315.153-3.899-.179-3.972-1.045-.073-.764 1.072-1.732 2.9-2.649 1.51-.739 3.436-1.452 5.531-1.962l.22-.053c.555-.134 1.091-.264 1.608-.354l-.231-.103c-.44-.196-.893-.397-1.329-.636-1.511-.79-2.753-1.656-3.655-2.445-1.292-1.147-1.852-2.191-1.365-2.752.439-.484 1.657-.535 3.266-.178 1.316.306 2.9.866 4.508 1.681.487.23.975.51 1.413.765-.17-.433-.316-.892-.438-1.376-.366-1.35-.536-2.573-.536-3.566.024-1.402.389-2.344 1.047-2.471.61-.128 1.389.458 2.12 1.477.634.892 1.268 2.114 1.755 3.566.113.356.212.711.307 1.055l.083.296c.195-.408.439-.816.707-1.223.731-1.121 1.51-2.089 2.266-2.777 1.048-.993 2.047-1.477 2.632-1.197.536.229.682 1.07.463 2.242-.195 1.019-.658 2.292-1.414 3.642l-.158.268c-.192.325-.387.656-.597.955.487-.153.975-.306 1.511-.433 1.511-.357 2.924-.56 4.118-.611 1.73-.051 2.997.229 3.314.84.293.561-.292 1.325-1.486 2.064-1.024.637-2.51 1.274-4.289 1.783l-.194.053c-.491.135-.965.265-1.439.355a14.92 14.92 0 0 1 1.608.738Z" fill="#fff"/><path fill="#fff" d="M160 160h143v40H160z"/><path d="M219.551 187.861c-1.493.898-3.184 1.385-5.224 1.385-5.895 0-9.327-4.233-9.327-11.392 0-5.08 1.89-8.441 4.378-10.212 1.417-1.001 3.507-1.642 5.298-1.642 1.417 0 2.959.334 4.128 1.001.796.436 1.17.744 2.09 1.539l-2.711 3.798c-1.12-1.078-2.338-1.72-3.383-1.72-2.512 0-3.632 2.233-3.632 7.416 0 2.899.374 4.618 1.095 5.567.597.77 1.542 1.258 2.512 1.258 1.293 0 2.462-.565 3.855-1.822l.324-.308 2.537 3.49c-.796.872-1.194 1.18-1.94 1.642Z" fill="#268ECD"/><path fill-rule="evenodd" clip-rule="evenodd" d="M238.205 186.142c-1.641 1.898-3.755 3.053-7.064 3.053-5.82 0-9.601-4.49-9.601-11.418 0-6.928 3.856-11.546 9.601-11.546 3.06 0 5.423 1.078 7.263 3.31 1.717 2.078 2.463 4.49 2.463 8.056 0 3.798-.846 6.389-2.662 8.545Zm-4.576-14.472c-.547-.744-1.418-1.154-2.413-1.154-1.343 0-2.413.872-2.885 2.232-.373 1.155-.597 2.72-.597 4.926 0 2.541.249 4.439.721 5.568.498 1.206 1.766 1.822 2.836 1.822 2.412 0 3.457-2.232 3.457-7.467.025-3.002-.348-4.952-1.119-5.927Z" fill="#268ECD"/><path d="M254.945 187.166c.373.898.945 1.643 1.666 2.156l3.955-2.31c-.846-1.026-1.293-2.54-1.293-4.002v-16.858l-5.348 1.155v15.523c-.398 1.078-2.089 2.104-3.457 2.104-.846 0-1.667-.41-1.965-1.026-.274-.59-.448-1.642-.448-3.618v-14.189l-5.522 1.078v14.137c0 2.233.125 3.387.448 4.388.721 2.104 3.308 3.566 6.318 3.566 2.263 0 4.278-.718 5.646-2.104Z" fill="#268ECD"/><path fill-rule="evenodd" clip-rule="evenodd" d="M278.549 186.706c-1.467 1.591-3.383 2.489-5.721 2.489-1.666 0-3.258-.436-4.477-1.155.075.513.075 1.155.075 1.822v6.902l-5.398 1.463v-25.53c0-2.9-.049-3.695-.323-5.568l4.975-.898c.199.77.323 1.385.373 2.078.97-1.206 3.084-2.078 5.273-2.078 1.492 0 3.059.513 4.228 1.334 2.288 1.591 3.98 4.439 3.98 9.519 0 4.747-.771 7.159-2.985 9.622Zm-3.656-13.932c-.423-1.206-1.294-1.848-2.686-1.848-1.369 0-2.712.616-3.731 1.694v10.725c.746.641 1.965 1.283 3.084 1.283 2.761 0 3.855-1.95 3.855-6.979 0-2.104-.149-3.798-.522-4.875ZM295.512 187.194c.548 1.129 1.717 2.104 3.01 2.668l2.91-3.515c-1.89-1.488-2.064-2.515-2.015-4.926l.125-7.416c.05-2.386-.075-3.079-.373-3.977-.821-2.463-3.308-3.848-6.89-3.848-1.965 0-3.756.384-5.845 1.283-1.493.667-2.338 1.077-3.458 1.821l2.388 4.131c2.313-1.591 4.403-2.489 6.194-2.489 2.064 0 2.512.821 2.512 3.285v.898c-.448-.052-.821-.052-1.244-.052-6.815 0-10.272 2.412-10.272 7.595 0 4.413 2.586 6.902 7.362 6.902 1.766 0 3.258-.436 4.303-1.206.423-.282.871-.718 1.293-1.154Zm-6.964-4.747c0-2.617 1.343-3.361 5.223-3.361h.249l-.075 4.746c-.845.95-1.89 1.514-2.935 1.514-1.417 0-2.462-1.18-2.462-2.899Z" fill="#268ECD"/><path d="M191.802 176.407a48.525 48.525 0 0 0-2.072-.972 29.288 29.288 0 0 0 2.047-.512c4.752-1.381 7.774-3.53 7.043-4.835-.707-1.28-4.728-1.408-9.26-.282a21.18 21.18 0 0 0-1.901.537c.317-.486.634-.997.902-1.535 1.925-3.531 2.266-6.55 1.023-7.138-1.243-.563-3.826 1.407-5.995 4.733-.316.486-.633.998-.901 1.51-.146-.538-.317-1.1-.512-1.663-1.316-3.761-3.387-6.346-4.776-6.115-1.414.23-1.804 3.326-.756 7.292.171.588.341 1.151.536 1.714a23.5 23.5 0 0 0-1.779-.972c-4.386-2.201-8.675-3.045-9.771-1.919-1.146 1.177 1.535 4.093 6.189 6.55.658.358 1.316.665 1.974.972-.755.154-1.56.307-2.388.512-6.165 1.535-11.453 4.298-11.405 6.166.049 1.945 5.873 1.919 12.502.026a43.13 43.13 0 0 0 2.51-.819 41.087 41.087 0 0 0-1.536 2.2c-4.045 6.192-6.36 13.024-4.459 14.226 1.925 1.228 6.945-4.119 10.576-10.797.463-.845.877-1.663 1.218-2.457.171.845.366 1.715.61 2.61 1.876 7.088 5.361 12.947 7.456 12.026 2.023-.896 1.487-7.702-.804-14.277a35.835 35.835 0 0 0-.926-2.38 25.03 25.03 0 0 0 2.145 1.228c5.58 2.968 10.698 3.941 11.185 2.15.536-1.664-3.485-5.169-8.675-7.779Z" fill="#53B8E7"/><path d="M183.248 168.008c-.243.407-.487.813-.706 1.219a7.023 7.023 0 0 0-.439-1.32c-.487-1.448-1.121-2.668-1.754-3.557.731-2.743 1.973-4.47 3.094-4.343 1.17.127 1.999 2.26 2.072 5.232a14.72 14.72 0 0 0-2.267 2.769ZM178.204 170.243a14.81 14.81 0 0 1-.439-1.371c-.365-1.321-.536-2.54-.536-3.556-2.558-2.337-5.093-3.633-6.189-3.049-1.097.559-.585 2.82 1.242 5.513 1.316.304 2.9.863 4.509 1.676.487.254.974.508 1.413.787ZM174.587 173.354c.358.172.709.34 1.059.497l-.366.078c-.472.102-.959.207-1.462.328-2.095.533-4.045 1.245-5.531 1.981-4.46-.787-7.409-2.26-6.848-3.607.56-1.346 4.386-2.108 8.992-1.956.902.813 2.145 1.651 3.655 2.439.169.08.337.16.501.24ZM174.794 178.931a34.659 34.659 0 0 0 1.9-.584c-.39.508-.755 1.041-1.145 1.625-1.292 2.007-2.291 4.039-2.9 5.767-4.776 3.251-9.211 4.902-10.089 3.378-.877-1.549 2.291-5.538 6.824-9.195 1.559-.102 3.436-.432 5.41-.991ZM188 170.701c-.511.127-1.023.279-1.51.432l.122-.191c.209-.325.429-.668.633-1.029.731-1.346 1.218-2.616 1.413-3.632 2.73-1.575 5.142-2.159 5.995-1.423.902.788-.122 2.922-2.534 5.233-1.194.025-2.632.229-4.119.61ZM181.128 180.734a24.784 24.784 0 0 1-.926 1.779c-1.048 1.854-2.217 3.556-3.363 4.851-.511 6.198.366 11.533 2.389 11.634 1.925.102 3.874-4.674 4.727-10.491-.902-1.524-1.754-3.607-2.364-5.867a21.77 21.77 0 0 1-.463-1.906ZM200.989 176.264c-.195-1.27-3.144-2.566-7.043-3.277-1.023.635-2.51 1.27-4.289 1.778-.452.129-.922.239-1.38.347l-.252.059c.131.059.266.118.403.178.395.172.807.352 1.205.559 1.608.813 3.022 1.702 4.143 2.591 4.362.051 7.432-.864 7.213-2.235ZM186.66 181.014a24.353 24.353 0 0 0-.682-1.778c.511.33 1.048.635 1.657.94 1.925 1.016 3.801 1.727 5.288 2.057 3.119 3.937 4.922 7.799 3.875 9.069-1.121 1.371-4.996-.889-8.871-4.903-.195-1.626-.633-3.505-1.267-5.385Z" fill="#268ECD"/><path d="M193.775 178.526c-1.121-.892-2.559-1.783-4.143-2.599a14.846 14.846 0 0 0-1.609-.738c.537-.102 1.073-.255 1.633-.408 1.779-.509 3.266-1.146 4.289-1.783 1.194-.739 1.779-1.503 1.487-2.064-.317-.611-1.584-.891-3.315-.84-1.194.051-2.607.254-4.118.611-.536.127-1.023.28-1.511.433.268-.382.512-.815.756-1.223.755-1.35 1.218-2.623 1.413-3.642.219-1.172.073-2.013-.463-2.242-.585-.28-1.584.204-2.632 1.197-.755.688-1.535 1.656-2.266 2.777a10.45 10.45 0 0 0-.707 1.223c-.122-.433-.243-.892-.39-1.351-.487-1.452-1.121-2.674-1.754-3.566-.731-1.019-1.511-1.605-2.12-1.477-.658.127-1.024 1.069-1.048 2.471 0 .993.17 2.216.536 3.566.122.484.268.943.439 1.376a19.021 19.021 0 0 0-1.414-.765c-1.608-.815-3.192-1.375-4.508-1.681-1.608-.357-2.827-.306-3.266.178-.487.561.074 1.605 1.365 2.752.902.789 2.145 1.655 3.655 2.445.512.28 1.048.51 1.56.739-.585.102-1.194.255-1.828.407-2.095.51-4.02 1.223-5.531 1.962-1.828.917-2.973 1.885-2.9 2.649.073.866 1.657 1.198 3.972 1.045 1.56-.102 3.436-.433 5.41-.994a21.025 21.025 0 0 0 1.901-.611c-.366.509-.756 1.044-1.121 1.63-1.292 1.987-2.291 4.051-2.9 5.783-.756 2.14-.853 3.821-.073 4.28.853.509 2.51-.612 4.264-2.65 1.145-1.324 2.315-3.006 3.363-4.865.341-.612.658-1.223.926-1.783.122.611.268 1.248.463 1.91.634 2.267 1.487 4.331 2.364 5.885 1.096 1.885 2.242 2.98 3.095 2.649.901-.357 1.169-2.242.877-4.764-.195-1.63-.634-3.49-1.267-5.4a24.32 24.32 0 0 0-.683-1.783c.512.305 1.073.636 1.633.942 1.925 1.019 3.802 1.707 5.288 2.064 1.779.407 3.046.305 3.29-.408.244-.739-.731-2.013-2.412-3.337Z" fill="#fff"/><path d="M59.55 187.861c-1.492.898-3.183 1.385-5.223 1.385-5.895 0-9.327-4.233-9.327-11.392 0-5.08 1.89-8.441 4.378-10.212 1.417-1.001 3.507-1.642 5.298-1.642 1.417 0 2.96.334 4.128 1.001.796.436 1.17.744 2.09 1.539l-2.711 3.798c-1.12-1.078-2.338-1.72-3.383-1.72-2.512 0-3.631 2.233-3.631 7.416 0 2.899.373 4.618 1.094 5.567.597.77 1.542 1.258 2.512 1.258 1.294 0 2.462-.565 3.855-1.822l.324-.308 2.537 3.49c-.796.872-1.194 1.18-1.94 1.642Z" fill="#268ECD"/><path fill-rule="evenodd" clip-rule="evenodd" d="M78.205 186.142c-1.641 1.898-3.755 3.053-7.064 3.053-5.82 0-9.6-4.49-9.6-11.418 0-6.928 3.855-11.546 9.6-11.546 3.06 0 5.423 1.078 7.263 3.31 1.717 2.078 2.463 4.49 2.463 8.056 0 3.798-.846 6.389-2.662 8.545ZM73.63 171.67c-.547-.744-1.418-1.154-2.413-1.154-1.343 0-2.413.872-2.885 2.232-.373 1.155-.597 2.72-.597 4.926 0 2.541.249 4.439.721 5.568.498 1.206 1.766 1.822 2.836 1.822 2.412 0 3.457-2.232 3.457-7.467.025-3.002-.348-4.952-1.12-5.927Z" fill="#268ECD"/><path d="M94.945 187.166c.373.898.945 1.643 1.666 2.156l3.955-2.31c-.846-1.026-1.293-2.54-1.293-4.002v-16.858l-5.348 1.155v15.523c-.398 1.078-2.09 2.104-3.457 2.104-.846 0-1.667-.41-1.965-1.026-.274-.59-.448-1.642-.448-3.618v-14.189l-5.522 1.078v14.137c0 2.233.124 3.387.448 4.388.721 2.104 3.308 3.566 6.318 3.566 2.263 0 4.278-.718 5.646-2.104Z" fill="#268ECD"/><path fill-rule="evenodd" clip-rule="evenodd" d="M118.549 186.706c-1.467 1.591-3.383 2.489-5.721 2.489-1.666 0-3.258-.436-4.477-1.155.075.513.075 1.155.075 1.822v6.902l-5.398 1.463v-25.53c0-2.9-.049-3.695-.323-5.568l4.975-.898c.199.77.323 1.385.373 2.078.97-1.206 3.084-2.078 5.273-2.078 1.492 0 3.059.513 4.228 1.334 2.288 1.591 3.98 4.439 3.98 9.519 0 4.747-.771 7.159-2.985 9.622Zm-3.656-13.932c-.423-1.206-1.294-1.848-2.686-1.848-1.369 0-2.712.616-3.731 1.694v10.725c.746.641 1.965 1.283 3.084 1.283 2.761 0 3.855-1.95 3.855-6.979 0-2.104-.149-3.798-.522-4.875ZM135.512 187.194c.548 1.129 1.717 2.104 3.01 2.668l2.91-3.515c-1.89-1.488-2.064-2.515-2.015-4.926l.125-7.416c.05-2.386-.075-3.079-.373-3.977-.821-2.463-3.308-3.848-6.89-3.848-1.965 0-3.756.384-5.845 1.283-1.493.667-2.338 1.077-3.458 1.821l2.388 4.131c2.313-1.591 4.403-2.489 6.194-2.489 2.064 0 2.512.821 2.512 3.285v.898c-.448-.052-.821-.052-1.244-.052-6.815 0-10.272 2.412-10.272 7.595 0 4.413 2.586 6.902 7.362 6.902 1.766 0 3.258-.436 4.303-1.206.423-.282.871-.718 1.293-1.154Zm-6.964-4.747c0-2.617 1.343-3.361 5.223-3.361h.249l-.075 4.746c-.845.95-1.89 1.514-2.935 1.514-1.417 0-2.462-1.18-2.462-2.899Z" fill="#268ECD"/><path d="M31.802 176.407a48.68 48.68 0 0 0-2.072-.972 29.415 29.415 0 0 0 2.047-.512c4.752-1.381 7.774-3.53 7.043-4.835-.707-1.28-4.728-1.408-9.26-.282-.658.154-1.292.333-1.901.537.317-.486.634-.997.902-1.535 1.925-3.531 2.266-6.55 1.023-7.138-1.243-.563-3.826 1.407-5.995 4.733-.316.486-.633.998-.901 1.51-.146-.538-.317-1.1-.512-1.663-1.316-3.761-3.387-6.346-4.776-6.115-1.414.23-1.804 3.326-.756 7.292.17.588.341 1.151.536 1.714a23.675 23.675 0 0 0-1.779-.972c-4.386-2.201-8.675-3.045-9.771-1.919-1.146 1.177 1.535 4.093 6.19 6.55.657.358 1.315.665 1.973.972-.755.154-1.56.307-2.388.512C5.24 175.819-.048 178.582 0 180.45c.05 1.945 5.873 1.919 12.502.026.877-.256 1.73-.538 2.51-.819a41.145 41.145 0 0 0-1.536 2.2c-4.045 6.192-6.36 13.024-4.46 14.226 1.926 1.228 6.946-4.119 10.577-10.797.463-.845.877-1.663 1.218-2.457.17.845.366 1.715.61 2.61 1.876 7.088 5.36 12.947 7.456 12.026 2.023-.896 1.487-7.702-.804-14.277a36.223 36.223 0 0 0-.926-2.38c.683.435 1.39.845 2.145 1.228 5.58 2.968 10.698 3.941 11.185 2.15.536-1.664-3.485-5.169-8.675-7.779Z" fill="#53B8E7"/><path d="M23.248 168.008c-.243.407-.487.813-.706 1.219a6.979 6.979 0 0 0-.439-1.32c-.487-1.448-1.12-2.668-1.754-3.557.73-2.743 1.973-4.47 3.094-4.343 1.17.127 1.999 2.26 2.072 5.232a14.722 14.722 0 0 0-2.267 2.769ZM18.204 170.243c-.17-.457-.317-.914-.439-1.371-.365-1.321-.536-2.54-.536-3.556-2.558-2.337-5.093-3.633-6.19-3.049-1.096.559-.584 2.82 1.243 5.513 1.316.304 2.9.863 4.509 1.676.487.254.974.508 1.413.787ZM14.588 173.354c.357.172.708.34 1.058.497l-.366.078c-.472.102-.959.207-1.462.328-2.095.533-4.045 1.245-5.531 1.981-4.46-.787-7.409-2.26-6.848-3.607.56-1.346 4.386-2.108 8.992-1.956.902.813 2.145 1.651 3.655 2.439.17.08.337.16.502.24ZM14.793 178.931a34.476 34.476 0 0 0 1.901-.584c-.39.508-.755 1.041-1.145 1.625-1.292 2.007-2.29 4.039-2.9 5.767-4.776 3.251-9.211 4.902-10.089 3.378-.877-1.549 2.291-5.538 6.824-9.195 1.56-.102 3.436-.432 5.41-.991ZM28 170.701c-.511.127-1.023.279-1.51.432l.122-.191c.209-.325.43-.668.633-1.029.731-1.346 1.218-2.616 1.413-3.632 2.73-1.575 5.142-2.159 5.995-1.423.902.788-.122 2.922-2.534 5.233-1.194.025-2.632.229-4.119.61ZM21.128 180.734a25.157 25.157 0 0 1-.926 1.779c-1.048 1.854-2.217 3.556-3.363 4.851-.511 6.198.366 11.533 2.389 11.634 1.925.102 3.874-4.674 4.727-10.491-.901-1.524-1.754-3.607-2.364-5.867a21.698 21.698 0 0 1-.463-1.906ZM40.989 176.264c-.195-1.27-3.144-2.566-7.043-3.277-1.023.635-2.51 1.27-4.289 1.778-.452.129-.922.239-1.38.347l-.252.059c.131.059.266.118.403.178.395.172.807.352 1.205.559 1.608.813 3.022 1.702 4.143 2.591 4.362.051 7.432-.864 7.213-2.235ZM26.66 181.014a24.169 24.169 0 0 0-.682-1.778c.511.33 1.048.635 1.657.94 1.925 1.016 3.801 1.727 5.288 2.057 3.12 3.937 4.922 7.799 3.874 9.069-1.12 1.371-4.995-.889-8.87-4.903-.195-1.626-.633-3.505-1.267-5.385Z" fill="#268ECD"/><path d="M33.775 178.526c-1.121-.892-2.56-1.783-4.143-2.599a14.925 14.925 0 0 0-1.609-.738c.537-.102 1.073-.255 1.633-.408 1.78-.509 3.266-1.146 4.29-1.783 1.193-.739 1.778-1.503 1.486-2.064-.317-.611-1.584-.891-3.315-.84-1.194.051-2.607.254-4.118.611-.536.127-1.023.28-1.51.433.267-.382.511-.815.755-1.223.755-1.35 1.218-2.623 1.413-3.642.22-1.172.073-2.013-.463-2.242-.585-.28-1.584.204-2.632 1.197-.755.688-1.535 1.656-2.266 2.777-.268.407-.512.815-.707 1.223-.122-.433-.243-.892-.39-1.351-.487-1.452-1.12-2.674-1.754-3.566-.731-1.019-1.511-1.605-2.12-1.477-.658.127-1.024 1.069-1.048 2.471 0 .993.17 2.216.536 3.566.122.484.268.943.439 1.376a19.087 19.087 0 0 0-1.414-.765c-1.608-.815-3.192-1.375-4.508-1.681-1.608-.357-2.827-.306-3.265.178-.488.561.073 1.605 1.364 2.752.902.789 2.145 1.655 3.655 2.445.512.28 1.048.51 1.56.739-.585.102-1.194.255-1.828.407-2.095.51-4.02 1.223-5.531 1.962-1.828.917-2.973 1.885-2.9 2.649.073.866 1.657 1.198 3.972 1.045 1.56-.102 3.436-.433 5.41-.994a20.94 20.94 0 0 0 1.9-.611c-.365.509-.755 1.044-1.12 1.63-1.292 1.987-2.291 4.051-2.9 5.783-.756 2.14-.853 3.821-.073 4.28.853.509 2.51-.612 4.264-2.65 1.145-1.324 2.315-3.006 3.363-4.865.341-.612.658-1.223.926-1.783.122.611.268 1.248.463 1.91.634 2.267 1.487 4.331 2.364 5.885 1.096 1.885 2.242 2.98 3.095 2.649.901-.357 1.17-2.242.877-4.764-.195-1.63-.634-3.49-1.267-5.4a24.143 24.143 0 0 0-.682-1.783c.511.305 1.072.636 1.632.942 1.925 1.019 3.802 1.707 5.288 2.064 1.78.407 3.046.305 3.29-.408.244-.739-.731-2.013-2.412-3.337Z" fill="#fff"/><path fill-rule="evenodd" clip-rule="evenodd" d="M262.353 81.284c-.681-.314-1.894.397-3.134 1.787-.184-1.774-.751-2.983-1.505-3.066-.709-.082-1.481.834-2.038 2.37-.853-1.501-1.811-2.393-2.529-2.272-.769.128-1.137 1.398-.987 3.239-1.621-1.315-3.113-1.98-3.819-1.598-.699.363-.532 1.66.368 3.301-2.129-.709-3.878-.841-4.455-.238-.623.651.249 1.994 2.095 3.399-2.766.076-4.902.631-5.262 1.51-.361.885 1.211 1.84 3.776 2.478-2.859 1.134-4.889 2.51-4.863 3.537.027 1.094 2.388 1.377 5.613.88-2.602 2.412-4.241 4.775-3.678 5.787.563.996 3.068.228 6.022-1.559-1.563 3.349-2.177 6.252-1.144 6.917 1.094.711 3.511-1.44 5.809-4.736-.081 3.876.594 6.912 1.906 6.979 1.214.065 2.44-2.481 3.187-5.924 1.363 3.167 2.992 5.242 4.104 4.744 1.165-.525 1.207-3.688.396-7.402 2.525 2.375 4.849 3.582 5.589 2.661.654-.807-.163-2.976-1.796-5.413 2.476.83 4.327.871 4.576-.06.305-.963-1.338-2.727-3.84-4.396 2.63-.127 4.371-.78 4.227-1.698-.123-.816-1.694-1.644-3.923-2.214 1.739-.888 2.656-1.86 2.284-2.537-.392-.723-2.134-.968-4.387-.705 1.328-1.493 1.828-2.794 1.238-3.318-.542-.476-1.917-.234-3.567.575.46-1.56.372-2.721-.263-3.028Zm.036 10.968c1.197.627 2.284 1.313 3.131 1.999 1.27 1.019 2.007 1.998 1.822 2.567-.184.548-1.141.627-2.485.313-1.123-.274-2.541-.803-3.996-1.587-.423-.235-.847-.49-1.233-.725.184.431.349.882.515 1.372.479 1.47.81 2.9.958 4.154.22 1.94.018 3.39-.663 3.664-.645.255-1.51-.588-2.339-2.038-.663-1.195-1.307-2.782-1.786-4.526-.147-.51-.258-1-.35-1.47-.202.431-.442.901-.699 1.372-.792 1.43-1.676 2.724-2.541 3.742-1.326 1.568-2.578 2.43-3.223 2.038-.589-.352-.515-1.646.056-3.292.46-1.332 1.215-2.92 2.191-4.448.251-.41.517-.787.771-1.147l.076-.107c-.46.176-.939.333-1.436.47-1.492.431-2.91.686-4.088.765-1.749.117-2.946-.138-3.001-.804-.056-.588.81-1.332 2.191-2.038 1.141-.568 2.596-1.117 4.18-1.509l.165-.04c.42-.104.825-.204 1.215-.273a14.712 14.712 0 0 0-.174-.08c-.333-.15-.675-.305-1.004-.489-1.142-.607-2.081-1.273-2.762-1.88-.976-.882-1.399-1.686-1.031-2.117.331-.372 1.252-.412 2.467-.137.995.235 2.191.666 3.407 1.293.368.177.736.392 1.068.588a8.728 8.728 0 0 1-.332-1.058c-.276-1.039-.405-1.98-.405-2.744.019-1.077.295-1.802.792-1.9.46-.098 1.049.352 1.602 1.136.479.686.957 1.627 1.326 2.744.085.273.16.546.232.81l.062.228c.147-.313.332-.627.534-.94.552-.863 1.142-1.607 1.713-2.136.791-.765 1.546-1.137 1.988-.921.405.176.516.823.35 1.724-.147.784-.497 1.764-1.068 2.802l-.12.206c-.145.25-.292.505-.451.735.368-.118.737-.235 1.142-.333 1.141-.275 2.209-.431 3.112-.47 1.307-.04 2.264.176 2.504.646.221.431-.221 1.019-1.123 1.587-.774.49-1.897.98-3.241 1.372l-.147.04c-.371.104-.729.204-1.087.273.405.157.81.353 1.215.569Z" fill="#fff"/><path d="M284.099 101.729c-1.134.716-2.42 1.105-3.971 1.105-4.482 0-7.091-3.378-7.091-9.09 0-4.053 1.437-6.735 3.328-8.148 1.078-.799 2.666-1.31 4.028-1.31 1.078 0 2.25.266 3.139.798.605.348.889.594 1.589 1.228l-2.062 3.03c-.851-.86-1.777-1.371-2.572-1.371-1.91 0-2.76 1.781-2.76 5.917 0 2.313.283 3.685.832 4.442.453.615 1.172 1.003 1.91 1.003.983 0 1.872-.45 2.931-1.453l.246-.246 1.928 2.785c-.605.696-.907.941-1.475 1.31Z" fill="#fff"/><path fill-rule="evenodd" clip-rule="evenodd" d="M298.283 100.357c-1.249 1.515-2.856 2.436-5.371 2.436-4.425 0-7.3-3.582-7.3-9.11s2.931-9.213 7.3-9.213c2.326 0 4.122.86 5.522 2.641 1.305 1.658 1.872 3.583 1.872 6.428 0 3.03-.643 5.098-2.023 6.818Zm-3.48-11.547c-.416-.594-1.078-.921-1.834-.921-1.022 0-1.835.696-2.194 1.781-.284.921-.454 2.17-.454 3.93 0 2.028.189 3.543.549 4.444.378.962 1.342 1.453 2.155 1.453 1.835 0 2.629-1.781 2.629-5.957.019-2.396-.265-3.952-.851-4.73Z" fill="#fff"/><path d="M311.009 101.175c.284.716.719 1.31 1.267 1.72l3.007-1.843c-.643-.819-.983-2.027-.983-3.194v-13.45l-4.066.92v12.387c-.302.86-1.588 1.679-2.628 1.679-.643 0-1.268-.328-1.494-.82-.208-.47-.341-1.31-.341-2.886V84.366l-4.198.86v11.28c0 1.782.095 2.703.34 3.502.549 1.679 2.516 2.846 4.804 2.846 1.721 0 3.252-.574 4.292-1.679Z" fill="#fff"/><path fill-rule="evenodd" clip-rule="evenodd" d="M328.956 100.808c-1.116 1.269-2.572 1.985-4.35 1.985-1.267 0-2.477-.348-3.404-.921.057.41.057.921.057 1.454v5.507L317.155 110V89.63c0-2.314-.037-2.949-.245-4.444l3.782-.716c.151.614.246 1.106.283 1.658.738-.962 2.345-1.658 4.01-1.658 1.134 0 2.326.41 3.214 1.064 1.74 1.27 3.026 3.542 3.026 7.596 0 3.788-.586 5.712-2.269 7.678Zm-2.78-11.117c-.322-.963-.983-1.475-2.042-1.475-1.041 0-2.062.492-2.837 1.352v8.558c.567.511 1.494 1.023 2.345 1.023 2.099 0 2.931-1.556 2.931-5.569 0-1.678-.113-3.03-.397-3.89ZM341.853 101.197c.416.9 1.305 1.678 2.288 2.129l2.213-2.805c-1.437-1.188-1.57-2.007-1.532-3.931l.095-5.917c.037-1.904-.057-2.457-.284-3.173-.624-1.966-2.515-3.071-5.238-3.071-1.494 0-2.856.307-4.444 1.024-1.135.532-1.778.86-2.629 1.453l1.815 3.296c1.759-1.269 3.348-1.986 4.709-1.986 1.57 0 1.91.656 1.91 2.621v.717c-.34-.041-.624-.041-.945-.041-5.182 0-7.811 1.924-7.811 6.06 0 3.521 1.967 5.507 5.598 5.507 1.343 0 2.477-.348 3.272-.962.321-.225.661-.573.983-.921Zm-5.295-3.788c0-2.088 1.021-2.682 3.971-2.682h.189l-.056 3.787c-.643.758-1.438 1.208-2.232 1.208-1.078 0-1.872-.941-1.872-2.313Z" fill="#fff"/><path fill="#fff" d="M120 80h107v30H120z"/><path d="M144.045 92.621a35.998 35.998 0 0 0-1.566-.748c.516-.118 1.032-.236 1.548-.394 3.593-1.062 5.877-2.716 5.325-3.72-.535-.983-3.575-1.082-7.002-.216-.497.118-.976.256-1.437.413.239-.373.479-.767.682-1.18 1.455-2.716 1.713-5.039.773-5.492-.939-.433-2.892 1.083-4.532 3.642-.24.373-.479.767-.682 1.16-.11-.412-.239-.846-.387-1.278-.995-2.894-2.561-4.882-3.611-4.704-1.069.177-1.364 2.558-.571 5.609.129.453.258.886.405 1.319a17.966 17.966 0 0 0-1.345-.748c-3.317-1.693-6.559-2.343-7.389-1.477-.866.906 1.161 3.15 4.68 5.039.498.275.995.512 1.493.748-.571.118-1.179.236-1.806.394-4.661 1.18-8.66 3.306-8.623 4.743.037 1.496 4.441 1.476 9.452.02a31.49 31.49 0 0 0 1.898-.63 31.536 31.536 0 0 0-1.161 1.692c-3.058 4.763-4.809 10.018-3.371 10.943 1.455.945 5.251-3.169 7.996-8.305.35-.65.663-1.28.921-1.89.129.65.277 1.319.461 2.008 1.419 5.451 4.054 9.959 5.638 9.25 1.529-.689 1.124-5.924-.608-10.982-.221-.65-.461-1.26-.7-1.83.516.334 1.05.649 1.621.944 4.22 2.283 8.089 3.031 8.458 1.653.405-1.279-2.635-3.975-6.56-5.983Z" fill="#53B8E7"/><path d="M137.578 86.16c-.184.313-.368.625-.534.938a5.424 5.424 0 0 0-.332-1.016c-.368-1.114-.847-2.052-1.326-2.736.552-2.11 1.492-3.439 2.34-3.341.884.098 1.511 1.74 1.566 4.025a11.274 11.274 0 0 0-1.714 2.13ZM133.764 87.88a11.552 11.552 0 0 1-.331-1.055c-.277-1.017-.406-1.954-.406-2.736-1.934-1.798-3.851-2.794-4.68-2.345-.829.43-.442 2.169.94 4.24.995.235 2.193.665 3.409 1.29.368.195.737.39 1.068.606ZM131.03 90.272c.27.132.535.262.8.382l-.276.061c-.357.078-.726.159-1.106.252-1.584.41-3.058.957-4.182 1.524-3.372-.606-5.602-1.739-5.178-2.775.424-1.035 3.317-1.621 6.799-1.504.682.625 1.622 1.27 2.764 1.876l.379.184ZM131.186 94.562c.497-.136.976-.293 1.437-.45-.295.392-.571.802-.866 1.251-.977 1.544-1.732 3.107-2.193 4.436-3.611 2.501-6.965 3.771-7.628 2.599-.663-1.192 1.732-4.26 5.159-7.074 1.179-.078 2.598-.332 4.091-.762ZM141.171 88.231c-.387.098-.774.215-1.142.333l.092-.147c.158-.25.325-.514.479-.791.553-1.036.921-2.013 1.069-2.795 2.063-1.211 3.887-1.66 4.532-1.094.682.606-.092 2.247-1.916 4.025-.903.02-1.99.176-3.114.47ZM135.975 95.95c-.202.449-.442.898-.7 1.367-.792 1.427-1.677 2.736-2.543 3.733-.386 4.767.277 8.871 1.806 8.949 1.456.078 2.93-3.596 3.575-8.07-.682-1.173-1.327-2.775-1.788-4.514a17.045 17.045 0 0 1-.35-1.465ZM150.992 92.51c-.148-.976-2.377-1.973-5.325-2.52-.774.488-1.898.977-3.243 1.368-.342.099-.698.184-1.044.267l-.19.045c.099.046.201.09.304.137.299.132.611.27.912.43 1.216.625 2.284 1.31 3.132 1.993 3.298.04 5.62-.664 5.454-1.72ZM140.158 96.165a18.98 18.98 0 0 0-.516-1.368c.387.254.792.488 1.253.723 1.455.781 2.874 1.328 3.998 1.582 2.359 3.029 3.722 5.999 2.93 6.976-.848 1.055-3.777-.684-6.707-3.771-.147-1.25-.479-2.697-.958-4.142Z" fill="#268ECD"/><path d="M145.537 94.25c-.848-.685-1.935-1.371-3.133-1.998-.405-.216-.81-.412-1.216-.568.406-.079.811-.196 1.235-.314 1.345-.392 2.469-.882 3.243-1.372.903-.568 1.345-1.156 1.124-1.587-.24-.47-1.198-.686-2.506-.647-.903.04-1.972.196-3.114.47a16.22 16.22 0 0 0-1.142.334c.202-.294.387-.627.571-.94.571-1.04.921-2.02 1.068-2.803.166-.901.056-1.548-.35-1.724-.442-.216-1.197.156-1.99.92-.571.53-1.16 1.274-1.713 2.137a8.006 8.006 0 0 0-.534.94c-.093-.333-.185-.686-.295-1.038-.369-1.117-.848-2.058-1.327-2.744-.553-.784-1.142-1.234-1.603-1.136-.497.098-.774.823-.792 1.9 0 .765.129 1.705.405 2.744.092.372.203.725.332 1.058-.332-.196-.7-.412-1.069-.588-1.216-.627-2.414-1.058-3.408-1.293-1.217-.275-2.138-.235-2.469.137-.369.431.055 1.234 1.031 2.116.682.608 1.622 1.274 2.764 1.881.387.216.792.392 1.179.569-.442.078-.902.196-1.382.313-1.584.392-3.04.94-4.182 1.51-1.382.705-2.248 1.45-2.193 2.037.056.666 1.253.921 3.004.804 1.179-.079 2.598-.334 4.09-.765.498-.137.977-.294 1.437-.47-.276.392-.571.803-.847 1.254-.977 1.529-1.732 3.116-2.193 4.448-.571 1.646-.645 2.94-.055 3.292.645.392 1.898-.47 3.224-2.038.866-1.018 1.751-2.312 2.543-3.742.258-.47.497-.94.7-1.372.092.47.203.96.35 1.47.479 1.744 1.124 3.331 1.787 4.526.83 1.45 1.695 2.293 2.34 2.038.682-.274.885-1.724.664-3.664-.148-1.254-.479-2.685-.958-4.154-.166-.49-.332-.941-.516-1.372.387.235.81.49 1.234.725 1.456.784 2.874 1.313 3.998 1.587 1.345.314 2.304.235 2.488-.313.184-.569-.553-1.548-1.824-2.567Z" fill="#fff"/><path d="M165.864 100.959c-1.114.696-2.377 1.074-3.9 1.074-4.401 0-6.964-3.284-6.964-8.837 0-3.941 1.411-6.549 3.269-7.922 1.058-.776 2.618-1.274 3.955-1.274 1.059 0 2.21.259 3.083.776.594.339.873.578 1.56 1.195l-2.024 2.945c-.836-.836-1.746-1.333-2.526-1.333-1.876 0-2.711 1.731-2.711 5.752 0 2.25.278 3.583.817 4.32.445.597 1.151.975 1.875.975.966 0 1.839-.438 2.879-1.413l.241-.24 1.895 2.708c-.595.676-.892.915-1.449 1.274Z" fill="#268ECD"/><path fill-rule="evenodd" clip-rule="evenodd" d="M179.792 99.625c-1.225 1.473-2.804 2.369-5.274 2.369-4.345 0-7.168-3.484-7.168-8.858 0-5.374 2.878-8.957 7.168-8.957 2.284 0 4.049.836 5.423 2.568 1.281 1.612 1.838 3.483 1.838 6.25 0 2.946-.631 4.956-1.987 6.628Zm-3.417-11.226c-.408-.577-1.058-.896-1.801-.896-1.003 0-1.801.677-2.154 1.732-.279.896-.446 2.11-.446 3.822 0 1.97.186 3.443.539 4.319.371.935 1.318 1.413 2.117 1.413 1.801 0 2.581-1.732 2.581-5.792.019-2.329-.26-3.842-.836-4.598Z" fill="#268ECD"/><path d="M192.291 100.42c.278.697.705 1.274 1.244 1.672l2.953-1.791c-.632-.797-.966-1.971-.966-3.106V84.118l-3.993.896v12.042c-.297.836-1.56 1.632-2.581 1.632-.632 0-1.244-.318-1.467-.796-.205-.458-.335-1.274-.335-2.806V84.078l-4.122.836v10.968c0 1.731.093 2.627.334 3.403.539 1.633 2.47 2.767 4.717 2.767 1.69 0 3.194-.557 4.216-1.632Z" fill="#268ECD"/><path fill-rule="evenodd" clip-rule="evenodd" d="M209.915 100.063c-1.096 1.234-2.526 1.931-4.272 1.931-1.244 0-2.433-.339-3.343-.896.056.398.056.896.056 1.413v5.354l-4.03 1.135V89.195c0-2.25-.037-2.866-.241-4.32l3.714-.696c.149.597.241 1.075.279 1.612.724-.935 2.302-1.612 3.937-1.612 1.114 0 2.284.398 3.157 1.035 1.708 1.234 2.971 3.444 2.971 7.385 0 3.682-.576 5.553-2.228 7.464Zm-2.73-10.808c-.316-.936-.966-1.433-2.006-1.433-1.021 0-2.024.477-2.786 1.313v8.32c.557.498 1.467.996 2.303.996 2.062 0 2.879-1.513 2.879-5.414 0-1.633-.112-2.946-.39-3.782ZM222.58 100.441c.409.876 1.281 1.632 2.247 2.07L227 99.784c-1.411-1.154-1.541-1.95-1.504-3.821l.093-5.753c.037-1.85-.056-2.388-.279-3.085-.613-1.91-2.47-2.986-5.144-2.986-1.467 0-2.804.299-4.364.996-1.115.517-1.746.835-2.582 1.413l1.783 3.204c1.727-1.234 3.287-1.93 4.624-1.93 1.542 0 1.876.637 1.876 2.547v.697c-.334-.04-.613-.04-.929-.04-5.088 0-7.669 1.871-7.669 5.892 0 3.424 1.931 5.354 5.497 5.354 1.318 0 2.432-.338 3.212-.935.316-.219.65-.558.966-.896Zm-5.2-3.682c0-2.03 1.003-2.608 3.9-2.608h.186l-.056 3.683c-.631.736-1.411 1.174-2.191 1.174-1.059 0-1.839-.916-1.839-2.25Z" fill="#268ECD"/><path d="M24.045 92.621a36.283 36.283 0 0 0-1.566-.748 22.288 22.288 0 0 0 1.548-.394c3.593-1.062 5.877-2.716 5.325-3.72-.535-.983-3.575-1.082-7.002-.216-.497.118-.977.256-1.437.413.24-.373.479-.767.682-1.18 1.455-2.716 1.713-5.039.774-5.492-.94-.433-2.893 1.083-4.533 3.642-.24.373-.48.767-.682 1.16-.11-.412-.24-.846-.387-1.278-.995-2.894-2.56-4.882-3.611-4.704-1.069.177-1.364 2.558-.571 5.609.129.453.258.886.405 1.319a17.887 17.887 0 0 0-1.345-.748c-3.317-1.693-6.56-2.343-7.389-1.477-.866.906 1.161 3.15 4.68 5.039.498.275.995.512 1.493.748-.571.118-1.18.236-1.806.394C3.962 92.168-.037 94.293 0 95.73c.037 1.496 4.44 1.476 9.452.02a31.79 31.79 0 0 0 1.898-.63 31.536 31.536 0 0 0-1.16 1.692c-3.06 4.763-4.81 10.018-3.372 10.943 1.455.945 5.25-3.169 7.996-8.305.35-.65.663-1.28.921-1.89.13.65.277 1.319.461 2.008 1.419 5.451 4.054 9.959 5.638 9.25 1.53-.689 1.124-5.924-.608-10.982a28.25 28.25 0 0 0-.7-1.83c.516.334 1.05.649 1.621.944 4.22 2.283 8.09 3.031 8.458 1.653.405-1.279-2.635-3.975-6.56-5.983Z" fill="#53B8E7"/><path d="M17.578 86.16a24.16 24.16 0 0 0-.534.938 5.444 5.444 0 0 0-.332-1.016c-.368-1.114-.847-2.052-1.326-2.736.553-2.11 1.492-3.439 2.34-3.341.884.098 1.51 1.74 1.566 4.025a11.27 11.27 0 0 0-1.714 2.13ZM13.764 87.88a11.59 11.59 0 0 1-.331-1.055c-.277-1.017-.406-1.954-.406-2.736-1.934-1.798-3.85-2.794-4.68-2.345-.829.43-.442 2.169.94 4.24.995.235 2.192.665 3.409 1.29.368.195.737.39 1.068.606ZM11.03 90.272c.27.132.535.262.8.382l-.276.061c-.357.078-.726.159-1.106.252-1.584.41-3.058.957-4.182 1.524-3.372-.606-5.602-1.739-5.178-2.775.424-1.035 3.317-1.621 6.8-1.504.68.625 1.62 1.27 2.763 1.876l.379.184ZM11.185 94.562c.498-.136.977-.293 1.438-.45-.295.392-.571.802-.866 1.251-.977 1.544-1.732 3.107-2.193 4.436-3.611 2.501-6.965 3.771-7.628 2.599-.663-1.192 1.732-4.26 5.16-7.074 1.178-.078 2.597-.332 4.09-.762ZM21.171 88.231c-.387.098-.774.215-1.142.333l.092-.147c.158-.25.325-.514.48-.791.552-1.036.92-2.013 1.068-2.795 2.063-1.211 3.887-1.66 4.532-1.094.682.606-.092 2.247-1.916 4.025-.903.02-1.99.176-3.114.47ZM15.975 95.95c-.202.449-.442.898-.7 1.367-.792 1.427-1.677 2.736-2.543 3.733-.386 4.767.277 8.871 1.806 8.949 1.456.078 2.93-3.596 3.575-8.07-.682-1.173-1.327-2.775-1.788-4.514a16.935 16.935 0 0 1-.35-1.465ZM30.992 92.51c-.148-.976-2.377-1.973-5.325-2.52-.774.488-1.898.977-3.243 1.368-.342.099-.698.184-1.044.267l-.19.045.304.137c.3.132.61.27.912.43 1.216.625 2.284 1.31 3.132 1.993 3.298.04 5.62-.664 5.454-1.72ZM20.158 96.165a18.746 18.746 0 0 0-.516-1.368c.387.254.792.488 1.253.723 1.455.781 2.874 1.328 3.998 1.582 2.358 3.029 3.722 5.999 2.93 6.976-.848 1.055-3.777-.684-6.707-3.771-.148-1.25-.48-2.697-.958-4.142Z" fill="#268ECD"/><path d="M25.537 94.25c-.848-.685-1.935-1.371-3.133-1.998a11.28 11.28 0 0 0-1.216-.568c.406-.079.811-.196 1.235-.314 1.345-.392 2.469-.882 3.243-1.372.902-.568 1.345-1.156 1.124-1.587-.24-.47-1.198-.686-2.506-.647-.903.04-1.972.196-3.114.47-.405.099-.774.216-1.142.334.202-.294.387-.627.57-.94.572-1.04.922-2.02 1.07-2.803.165-.901.055-1.548-.35-1.724-.443-.216-1.198.156-1.99.92-.572.53-1.161 1.274-1.714 2.137a8.11 8.11 0 0 0-.534.94c-.093-.333-.185-.686-.295-1.038-.369-1.117-.848-2.058-1.327-2.744-.553-.784-1.142-1.234-1.603-1.136-.497.098-.774.823-.792 1.9 0 .765.129 1.705.405 2.744.092.372.203.725.332 1.058a14.21 14.21 0 0 0-1.069-.588c-1.216-.627-2.413-1.058-3.408-1.293-1.217-.275-2.138-.235-2.47.137-.368.431.056 1.234 1.032 2.116.682.608 1.622 1.274 2.764 1.881.387.216.792.392 1.18.569-.443.078-.904.196-1.383.313-1.584.392-3.04.94-4.182 1.51-1.382.705-2.248 1.45-2.193 2.037.056.666 1.253.921 3.004.804 1.179-.079 2.598-.334 4.09-.765.498-.137.977-.294 1.437-.47-.276.392-.571.803-.847 1.254-.977 1.529-1.732 3.116-2.193 4.448-.571 1.646-.645 2.94-.055 3.292.645.392 1.898-.47 3.224-2.038.866-1.018 1.75-2.312 2.543-3.742.258-.47.497-.94.7-1.372.092.47.203.96.35 1.47.48 1.744 1.124 3.331 1.787 4.526.83 1.45 1.695 2.293 2.34 2.038.682-.274.885-1.724.664-3.664-.148-1.254-.48-2.685-.958-4.154a18.92 18.92 0 0 0-.516-1.372c.387.235.81.49 1.234.725 1.456.784 2.875 1.313 3.998 1.587 1.345.314 2.304.235 2.488-.313.184-.569-.553-1.548-1.824-2.567Z" fill="#fff"/><path d="M45.864 100.959c-1.114.696-2.377 1.074-3.9 1.074-4.401 0-6.964-3.284-6.964-8.837 0-3.941 1.411-6.549 3.269-7.922C39.327 84.498 40.887 84 42.224 84c1.059 0 2.21.259 3.083.776.594.339.873.578 1.56 1.195l-2.024 2.945c-.836-.836-1.746-1.333-2.526-1.333-1.876 0-2.711 1.731-2.711 5.752 0 2.25.278 3.583.817 4.32.445.597 1.151.975 1.875.975.966 0 1.839-.438 2.879-1.413l.241-.24 1.895 2.708c-.595.676-.892.915-1.449 1.274Z" fill="#268ECD"/><path fill-rule="evenodd" clip-rule="evenodd" d="M59.792 99.625c-1.225 1.473-2.804 2.369-5.274 2.369-4.345 0-7.168-3.484-7.168-8.858 0-5.374 2.878-8.957 7.168-8.957 2.284 0 4.049.836 5.423 2.568 1.281 1.612 1.838 3.483 1.838 6.25 0 2.946-.63 4.956-1.987 6.628Zm-3.417-11.226c-.408-.577-1.058-.896-1.801-.896-1.003 0-1.801.677-2.154 1.732-.279.896-.446 2.11-.446 3.822 0 1.97.186 3.443.539 4.319.371.935 1.318 1.413 2.117 1.413 1.801 0 2.581-1.732 2.581-5.792.019-2.329-.26-3.842-.836-4.598Z" fill="#268ECD"/><path d="M72.29 100.42c.28.697.706 1.274 1.245 1.672l2.953-1.791c-.632-.797-.966-1.971-.966-3.106V84.118l-3.993.896v12.042c-.297.836-1.56 1.632-2.581 1.632-.631 0-1.244-.318-1.467-.796-.204-.458-.334-1.274-.334-2.806V84.078l-4.123.836v10.968c0 1.731.093 2.627.334 3.403.539 1.633 2.47 2.767 4.717 2.767 1.69 0 3.194-.557 4.216-1.632Z" fill="#268ECD"/><path fill-rule="evenodd" clip-rule="evenodd" d="M89.915 100.063c-1.096 1.234-2.526 1.931-4.272 1.931-1.244 0-2.433-.339-3.343-.896.056.398.056.896.056 1.413v5.354L78.326 109V89.195c0-2.25-.037-2.866-.241-4.32l3.714-.696c.149.597.241 1.075.279 1.612.724-.935 2.302-1.612 3.937-1.612 1.114 0 2.284.398 3.157 1.035 1.708 1.234 2.971 3.444 2.971 7.385 0 3.682-.576 5.553-2.228 7.464Zm-2.73-10.808c-.316-.936-.966-1.433-2.006-1.433-1.021 0-2.024.477-2.786 1.313v8.32c.558.498 1.468.996 2.303.996 2.061 0 2.879-1.513 2.879-5.414 0-1.633-.112-2.946-.39-3.782ZM102.58 100.441c.409.876 1.281 1.632 2.247 2.07L107 99.784c-1.411-1.154-1.541-1.95-1.504-3.821l.093-5.753c.037-1.85-.056-2.388-.279-3.085-.613-1.91-2.47-2.986-5.144-2.986-1.467 0-2.804.299-4.364.996-1.115.517-1.746.835-2.582 1.413l1.783 3.204c1.727-1.234 3.287-1.93 4.624-1.93 1.542 0 1.876.637 1.876 2.547v.697c-.334-.04-.613-.04-.929-.04-5.088 0-7.67 1.871-7.67 5.892 0 3.424 1.932 5.354 5.498 5.354 1.318 0 2.432-.338 3.212-.935.316-.219.65-.558.966-.896Zm-5.2-3.682c0-2.03 1.003-2.608 3.9-2.608h.186l-.056 3.683c-.631.736-1.411 1.174-2.191 1.174-1.059 0-1.839-.916-1.839-2.25Z" fill="#268ECD"/><path fill="#D3DBE5" d="M360 0h99v28h-99z"/><path d="M380.943 10.518c-.466-.23-.915-.427-1.364-.624.449-.098.898-.197 1.348-.328 3.129-.885 5.119-2.263 4.637-3.1-.465-.82-3.113-.902-6.098-.18-.433.098-.85.213-1.252.344a9.75 9.75 0 0 0 .594-.984c1.268-2.263 1.493-4.198.674-4.576-.818-.36-2.519.902-3.948 3.035-.208.311-.417.64-.593.967a16.929 16.929 0 0 0-.337-1.066c-.867-2.41-2.231-4.067-3.146-3.92-.93.148-1.187 2.132-.497 4.675.112.377.225.738.353 1.099a15.665 15.665 0 0 0-1.172-.624c-2.888-1.41-5.713-1.951-6.435-1.23-.754.755 1.011 2.624 4.076 4.199.434.23.867.426 1.3.623-.497.099-1.027.197-1.572.328-4.061.984-7.543 2.756-7.511 3.953.032 1.246 3.868 1.23 8.233.016a28.888 28.888 0 0 0 1.653-.524c-.337.442-.674.902-1.011 1.41-2.664 3.97-4.189 8.348-2.937 9.12 1.268.786 4.574-2.642 6.965-6.922.305-.541.577-1.066.802-1.575.112.541.241 1.1.401 1.673 1.236 4.543 3.531 8.3 4.911 7.709 1.332-.574.979-4.937-.53-9.152a22.381 22.381 0 0 0-.61-1.525c.45.278.915.54 1.413.787 3.675 1.902 7.045 2.526 7.366 1.378.353-1.067-2.295-3.313-5.713-4.986Z" fill="#53B8E7"/><path d="M375.31 5.133c-.16.261-.321.522-.465.782a4.415 4.415 0 0 0-.289-.847c-.321-.928-.738-1.71-1.156-2.28.482-1.758 1.3-2.865 2.038-2.784.771.082 1.316 1.45 1.365 3.355a9.49 9.49 0 0 0-1.493 1.774ZM371.988 6.566a9.7 9.7 0 0 1-.289-.879c-.24-.847-.353-1.628-.353-2.28-1.685-1.498-3.354-2.328-4.076-1.954-.722.359-.385 1.808.819 3.534.866.195 1.909.553 2.968 1.075.321.162.642.325.931.504ZM369.607 8.56c.235.11.466.218.697.319l-.241.05c-.311.065-.632.133-.963.21-1.38.342-2.664.798-3.643 1.27-2.937-.505-4.878-1.449-4.509-2.312.369-.863 2.888-1.352 5.921-1.254.594.521 1.413 1.059 2.408 1.563l.33.154ZM369.742 12.135c.434-.114.851-.244 1.252-.374-.257.325-.498.667-.754 1.042-.851 1.286-1.509 2.589-1.91 3.696-3.145 2.084-6.066 3.143-6.644 2.166-.577-.993 1.509-3.55 4.494-5.895 1.027-.065 2.262-.277 3.562-.635ZM378.439 6.86c-.337.08-.674.179-.995.276l.081-.122c.138-.208.283-.428.417-.66.481-.862.802-1.677.931-2.328 1.797-1.01 3.386-1.384 3.947-.912.594.505-.08 1.873-1.668 3.355-.787.016-1.734.146-2.713.39ZM373.914 13.291c-.177.375-.385.75-.61 1.14-.69 1.189-1.46 2.28-2.214 3.11-.337 3.973.24 7.393 1.572 7.458 1.268.065 2.552-2.996 3.113-6.725-.593-.977-1.155-2.312-1.556-3.761-.129-.424-.225-.83-.305-1.222ZM386.993 10.425c-.128-.814-2.07-1.644-4.638-2.1-.674.407-1.653.814-2.824 1.14-.298.082-.608.153-.91.222l-.166.038.266.114c.26.11.531.225.794.358 1.059.522 1.99 1.092 2.728 1.661 2.872.033 4.894-.553 4.75-1.433ZM377.557 13.47a15.257 15.257 0 0 0-.45-1.14c.337.212.691.408 1.092.603 1.267.651 2.503 1.107 3.482 1.319 2.054 2.524 3.242 4.999 2.552 5.813-.739.88-3.29-.57-5.842-3.143-.128-1.042-.417-2.247-.834-3.452Z" fill="#268ECD"/><path d="M382.242 11.876c-.738-.572-1.685-1.144-2.728-1.666-.353-.18-.706-.343-1.059-.474.353-.065.706-.163 1.075-.261 1.171-.327 2.15-.735 2.824-1.143.786-.474 1.172-.964.979-1.323-.209-.392-1.043-.571-2.182-.539-.787.033-1.718.164-2.713.392-.353.082-.674.18-.995.278.177-.245.337-.523.498-.784.497-.865.802-1.682.931-2.335.144-.751.048-1.29-.305-1.437-.385-.18-1.043.13-1.733.767-.498.441-1.011 1.062-1.493 1.78a6.711 6.711 0 0 0-.465.784c-.08-.277-.161-.571-.257-.865-.321-.931-.738-1.715-1.155-2.287-.482-.653-.995-1.028-1.397-.947-.433.082-.674.686-.69 1.584 0 .637.113 1.421.353 2.287.081.31.177.604.289.881a12.546 12.546 0 0 0-.93-.49 13.789 13.789 0 0 0-2.969-1.077c-1.059-.229-1.862-.196-2.151.114-.321.36.048 1.029.899 1.764.594.506 1.412 1.061 2.407 1.567.337.18.69.327 1.027.474-.385.065-.786.163-1.203.261-1.38.327-2.648.784-3.643 1.258-1.204.587-1.958 1.208-1.91 1.698.048.555 1.091.767 2.616.67 1.027-.066 2.263-.278 3.563-.638.433-.114.85-.245 1.251-.392-.24.327-.497.67-.738 1.046-.85 1.273-1.508 2.596-1.91 3.706-.497 1.372-.561 2.45-.048 2.744.562.326 1.653-.392 2.809-1.698.754-.85 1.524-1.927 2.214-3.12.225-.391.433-.783.61-1.143.08.392.177.8.305 1.225.417 1.454.979 2.776 1.557 3.772.722 1.209 1.476 1.911 2.038 1.699.593-.229.77-1.437.577-3.054-.128-1.045-.417-2.237-.834-3.462a15.314 15.314 0 0 0-.45-1.143c.337.196.707.408 1.076.604 1.267.654 2.503 1.094 3.482 1.323 1.172.261 2.006.196 2.167-.261.16-.474-.482-1.29-1.589-2.14Z" fill="#fff"/><path d="M398.053 16.889c-.928.529-1.981.816-3.25.816-3.667 0-5.803-2.496-5.803-6.716 0-2.995 1.176-4.977 2.724-6.02.882-.59 2.182-.969 3.296-.969.882 0 1.842.197 2.569.59.495.257.727.439 1.3.908l-1.687 2.238c-.696-.635-1.455-1.013-2.104-1.013-1.564 0-2.26 1.316-2.26 4.372 0 1.71.232 2.723.681 3.282.371.454.959.742 1.563.742.805 0 1.532-.333 2.399-1.074l.201-.182 1.579 2.057c-.496.515-.743.696-1.208.969Z" fill="#268ECD"/><path fill-rule="evenodd" clip-rule="evenodd" d="M409.66 15.875c-1.021 1.12-2.337 1.8-4.395 1.8-3.621 0-5.974-2.647-5.974-6.732 0-4.084 2.399-6.807 5.974-6.807 1.904 0 3.374.635 4.519 1.952 1.068 1.225 1.532 2.647 1.532 4.75 0 2.238-.526 3.766-1.656 5.037Zm-2.847-8.532c-.341-.439-.882-.68-1.501-.68-.836 0-1.502.514-1.796 1.315-.232.681-.371 1.604-.371 2.905 0 1.498.155 2.617.449 3.283.309.71 1.099 1.074 1.764 1.074 1.501 0 2.151-1.316 2.151-4.402.016-1.77-.216-2.92-.696-3.495Z" fill="#268ECD"/><path d="M420.076 16.48c.232.529.588.967 1.036 1.27l2.461-1.362c-.526-.605-.805-1.497-.805-2.36V4.09l-3.327.68v9.153c-.248.635-1.3 1.24-2.151 1.24-.526 0-1.037-.242-1.223-.605-.17-.348-.278-.968-.278-2.133V4.06l-3.436.635v8.335c0 1.316.077 1.997.279 2.587.448 1.24 2.058 2.103 3.931 2.103 1.408 0 2.661-.424 3.513-1.24Z" fill="#268ECD"/><path fill-rule="evenodd" clip-rule="evenodd" d="M434.762 16.208c-.913.938-2.105 1.467-3.559 1.467-1.037 0-2.028-.257-2.786-.68.046.302.046.68.046 1.073v4.07l-3.358.862V7.948c0-1.71-.031-2.178-.201-3.282l3.095-.53c.124.454.201.817.232 1.225.604-.71 1.919-1.225 3.281-1.225.929 0 1.904.303 2.631.787 1.424.938 2.476 2.617 2.476 5.612 0 2.799-.479 4.22-1.857 5.673Zm-2.275-8.214c-.263-.711-.805-1.09-1.671-1.09-.851 0-1.687.364-2.322.999v6.323c.465.378 1.223.756 1.919.756 1.718 0 2.399-1.15 2.399-4.114 0-1.24-.093-2.239-.325-2.874ZM445.317 16.495c.34.666 1.068 1.24 1.872 1.573L449 15.997c-1.176-.877-1.284-1.482-1.254-2.904l.078-4.372c.031-1.407-.047-1.816-.232-2.345-.511-1.452-2.059-2.27-4.287-2.27-1.223 0-2.337.228-3.637.757-.929.394-1.455.636-2.151 1.074l1.486 2.436c1.439-.938 2.739-1.468 3.853-1.468 1.285 0 1.563.485 1.563 1.937v.53c-.278-.031-.511-.031-.774-.031-4.24 0-6.391 1.422-6.391 4.478 0 2.602 1.609 4.069 4.581 4.069 1.098 0 2.027-.257 2.677-.711.263-.166.542-.424.805-.68Zm-4.333-2.798c0-1.543.835-1.982 3.249-1.982h.155l-.046 2.799c-.526.56-1.176.892-1.826.892-.883 0-1.532-.696-1.532-1.71Z" fill="#268ECD"/><path fill-rule="evenodd" clip-rule="evenodd" d="M259.482 2.113c-.593-.272-1.651.344-2.732 1.548-.16-1.537-.654-2.584-1.312-2.657-.617-.07-1.29.723-1.776 2.054-.743-1.3-1.578-2.073-2.204-1.968-.67.11-.991 1.211-.86 2.806-1.413-1.14-2.713-1.716-3.328-1.384-.61.314-.464 1.438.32 2.86-1.855-.614-3.379-.729-3.883-.206-.542.564.218 1.728 1.827 2.946-2.411.066-4.273.547-4.586 1.309-.315.766 1.055 1.595 3.29 2.147-2.492.982-4.261 2.176-4.238 3.065.024.948 2.081 1.194 4.892.764-2.268 2.09-3.696 4.138-3.206 5.014.491.864 2.674.199 5.249-1.35-1.362 2.902-1.897 5.418-.997 5.994.953.616 3.06-1.248 5.063-4.104-.07 3.359.517 5.99 1.661 6.048 1.058.056 2.126-2.15 2.778-5.134 1.188 2.745 2.608 4.543 3.577 4.112 1.015-.455 1.051-3.197.344-6.416 2.202 2.058 4.227 3.105 4.872 2.307.57-.7-.142-2.58-1.566-4.692 2.159.72 3.771.755 3.989-.052.265-.834-1.167-2.363-3.347-3.81 2.292-.11 3.81-.675 3.684-1.472-.107-.706-1.477-1.424-3.419-1.918 1.515-.77 2.315-1.612 1.99-2.199-.341-.626-1.859-.838-3.823-.61 1.157-1.295 1.593-2.422 1.079-2.876-.472-.413-1.67-.203-3.109.498.401-1.352.325-2.358-.229-2.624Zm.032 9.505c1.043.544 1.99 1.138 2.728 1.732 1.107.884 1.749 1.733 1.589 2.225-.161.476-.995.544-2.167.272-.979-.238-2.215-.696-3.482-1.376a33.1 33.1 0 0 1-1.076-.628c.161.374.305.764.45 1.189.417 1.273.706 2.513.834 3.6.193 1.681.016 2.938-.577 3.176-.562.22-1.316-.51-2.038-1.766-.578-1.036-1.14-2.412-1.557-3.923a14.74 14.74 0 0 1-.305-1.274c-.177.374-.385.781-.61 1.189-.69 1.24-1.46 2.36-2.214 3.244-1.156 1.358-2.247 2.106-2.809 1.766-.513-.306-.449-1.427.048-2.853.402-1.155 1.06-2.53 1.91-3.855.219-.356.451-.683.673-.995l.065-.092c-.401.152-.818.288-1.251.407-1.3.374-2.536.595-3.563.662-1.525.102-2.568-.118-2.616-.696-.048-.51.706-1.155 1.91-1.766a18.219 18.219 0 0 1 3.643-1.308l.144-.035c.366-.09.719-.176 1.059-.236l-.152-.069a11.76 11.76 0 0 1-.875-.424c-.995-.526-1.813-1.104-2.407-1.63-.851-.764-1.22-1.46-.899-1.834.289-.323 1.092-.357 2.151-.12.866.204 1.909.578 2.969 1.122.321.152.641.34.93.51a7.753 7.753 0 0 1-.289-.918c-.24-.9-.353-1.715-.353-2.378.016-.934.257-1.562.69-1.647.402-.085.915.306 1.397.985.417.594.834 1.41 1.155 2.378.075.237.14.474.203.703l.054.197c.128-.272.289-.544.465-.815.482-.748.995-1.393 1.493-1.852.69-.662 1.348-.985 1.733-.798.353.153.449.714.305 1.495-.129.679-.434 1.528-.931 2.428l-.104.179c-.127.216-.255.437-.393.636.32-.101.641-.203.994-.288.995-.238 1.926-.374 2.713-.408 1.139-.034 1.973.153 2.182.56.193.374-.193.884-.979 1.376-.674.425-1.653.85-2.824 1.189l-.128.035c-.323.09-.635.177-.947.237a9.84 9.84 0 0 1 1.059.492Z" fill="#fff"/><path d="M280.959 19.602c-1.022.64-2.179.989-3.575.989-4.035 0-6.384-3.022-6.384-8.13 0-3.627 1.294-6.025 2.996-7.289.97-.714 2.4-1.172 3.626-1.172.97 0 2.026.238 2.826.714.545.311.8.531 1.43 1.099l-1.856 2.71c-.766-.769-1.6-1.227-2.315-1.227-1.719 0-2.485 1.593-2.485 5.292 0 2.07.255 3.297.749 3.974.408.55 1.055.897 1.719.897.885 0 1.686-.402 2.639-1.3l.221-.22 1.737 2.49c-.545.623-.818.843-1.328 1.173Z" fill="#fff"/><path fill-rule="evenodd" clip-rule="evenodd" d="M293.726 18.375c-1.123 1.355-2.57 2.18-4.834 2.18-3.984 0-6.571-3.206-6.571-8.15 0-4.944 2.638-8.24 6.571-8.24 2.094 0 3.711.769 4.971 2.362 1.174 1.483 1.685 3.205 1.685 5.75 0 2.71-.579 4.56-1.822 6.098Zm-3.132-10.328c-.374-.531-.97-.824-1.651-.824-.92 0-1.652.623-1.975 1.593-.255.824-.409 1.941-.409 3.516 0 1.813.171 3.168.494 3.974.341.86 1.209 1.3 1.941 1.3 1.651 0 2.366-1.593 2.366-5.329.017-2.143-.238-3.534-.766-4.23Z" fill="#fff"/><path d="M305.183 19.106c.255.641.647 1.172 1.141 1.539l2.706-1.648c-.578-.733-.885-1.813-.885-2.857V4.109l-3.66.824v11.079c-.272.769-1.43 1.501-2.366 1.501-.579 0-1.141-.293-1.345-.732-.187-.421-.306-1.172-.306-2.582V4.072l-3.78.77v10.09c0 1.592.086 2.416.307 3.13.494 1.502 2.264 2.546 4.324 2.546 1.549 0 2.928-.513 3.864-1.502Z" fill="#fff"/><path fill-rule="evenodd" clip-rule="evenodd" d="M321.338 18.778c-1.004 1.135-2.315 1.776-3.915 1.776-1.141 0-2.23-.311-3.064-.824.051.366.051.824.051 1.3v4.926L310.716 27V8.78c0-2.07-.034-2.637-.222-3.974l3.405-.641c.136.55.221.989.255 1.483.664-.86 2.111-1.483 3.609-1.483a5.06 5.06 0 0 1 2.894.952c1.567 1.135 2.724 3.168 2.724 6.794 0 3.388-.527 5.109-2.043 6.867Zm-2.502-9.944c-.289-.86-.885-1.318-1.839-1.318-.936 0-1.855.44-2.553 1.209v7.654c.511.458 1.345.916 2.111.916 1.889 0 2.638-1.392 2.638-4.981 0-1.502-.102-2.71-.357-3.48ZM332.948 19.126c.375.805 1.175 1.501 2.06 1.904L337 18.521c-1.294-1.062-1.413-1.794-1.379-3.515l.085-5.293c.034-1.703-.051-2.197-.255-2.838-.562-1.758-2.264-2.747-4.716-2.747-1.344 0-2.57.275-4 .916-1.022.476-1.6.769-2.366 1.3l1.634 2.948c1.583-1.135 3.013-1.776 4.239-1.776 1.413 0 1.719.586 1.719 2.344v.64c-.306-.036-.562-.036-.851-.036-4.665 0-7.031 1.721-7.031 5.42 0 3.15 1.771 4.927 5.039 4.927 1.209 0 2.23-.312 2.945-.861.29-.202.596-.513.885-.824Zm-4.766-3.388c0-1.868.919-2.399 3.575-2.399h.17l-.051 3.388c-.579.677-1.294 1.08-2.009 1.08-.97 0-1.685-.842-1.685-2.069Z" fill="#fff"/><path fill="#fff" d="M120 0h99v28h-99z"/><path d="M141.943 11.938c-.466-.239-.915-.443-1.364-.648.449-.102.898-.205 1.348-.341 3.129-.921 5.119-2.354 4.637-3.224-.465-.853-3.113-.938-6.098-.188-.433.103-.85.222-1.252.359.209-.324.418-.666.594-1.024 1.268-2.354 1.493-4.367.674-4.759-.818-.375-2.519.938-3.948 3.156-.208.324-.417.665-.593 1.006a18.125 18.125 0 0 0-.337-1.109c-.867-2.507-2.231-4.23-3.146-4.076-.93.153-1.187 2.217-.497 4.861.112.392.225.768.353 1.143a15.474 15.474 0 0 0-1.172-.648c-2.888-1.467-5.713-2.03-6.435-1.28-.754.785 1.011 2.73 4.076 4.367.434.239.867.444 1.3.648-.497.103-1.027.205-1.572.342-4.061 1.023-7.543 2.865-7.511 4.11.032 1.297 3.868 1.28 8.233.017a28.13 28.13 0 0 0 1.653-.546c-.337.461-.674.939-1.011 1.467-2.664 4.128-4.189 8.683-2.937 9.484 1.268.82 4.574-2.746 6.965-7.198a19.49 19.49 0 0 0 .802-1.637c.112.563.241 1.143.401 1.74 1.236 4.724 3.531 8.63 4.911 8.017 1.332-.598.979-5.135-.53-9.519a23.856 23.856 0 0 0-.61-1.586c.45.29.915.563 1.413.819 3.675 1.978 7.045 2.627 7.366 1.433.353-1.11-2.295-3.446-5.713-5.186Z" fill="#53B8E7"/><path d="M136.31 6.339c-.16.27-.321.542-.465.813a4.719 4.719 0 0 0-.289-.881c-.321-.965-.738-1.778-1.156-2.37.482-1.83 1.3-2.981 2.038-2.897.771.085 1.316 1.508 1.365 3.489a9.783 9.783 0 0 0-1.493 1.846ZM132.988 7.829c-.112-.305-.208-.61-.289-.914-.24-.881-.353-1.694-.353-2.371-1.685-1.558-3.354-2.422-4.076-2.032-.722.372-.385 1.88.819 3.674.866.204 1.909.576 2.968 1.118.321.17.642.339.931.525ZM130.607 9.902c.235.115.466.227.697.332l-.241.052c-.311.068-.632.138-.963.219-1.38.355-2.664.83-3.643 1.32-2.937-.524-4.878-1.507-4.509-2.404.369-.898 2.888-1.406 5.921-1.304.594.542 1.413 1.1 2.408 1.626l.33.16ZM130.742 13.62c.434-.118.851-.253 1.252-.389-.257.339-.498.694-.754 1.084-.851 1.338-1.509 2.693-1.91 3.844-3.145 2.168-6.066 3.268-6.644 2.252-.577-1.033 1.509-3.691 4.494-6.13 1.027-.068 2.262-.288 3.562-.66ZM139.439 8.134c-.337.085-.674.186-.995.288l.081-.127c.138-.217.283-.446.417-.686.481-.898.802-1.744.931-2.422 1.797-1.05 3.386-1.44 3.947-.948.594.525-.08 1.947-1.668 3.488-.787.017-1.734.153-2.713.407ZM134.914 14.823c-.177.39-.385.779-.61 1.185-.69 1.237-1.46 2.371-2.214 3.235-.337 4.132.24 7.688 1.572 7.756 1.268.068 2.552-3.116 3.113-6.994-.593-1.016-1.155-2.405-1.556-3.912-.129-.44-.225-.864-.305-1.27ZM147.993 11.842c-.128-.846-2.07-1.71-4.638-2.184-.674.423-1.653.847-2.824 1.185-.298.086-.608.16-.91.232l-.166.04.266.117c.26.115.531.235.794.373 1.059.542 1.99 1.135 2.728 1.728 2.872.034 4.894-.576 4.75-1.49ZM138.557 15.01a16.244 16.244 0 0 0-.45-1.186c.337.22.691.423 1.092.626 1.267.678 2.503 1.152 3.482 1.372 2.054 2.625 3.242 5.199 2.552 6.046-.739.914-3.29-.593-5.842-3.269-.128-1.083-.417-2.337-.834-3.59Z" fill="#268ECD"/><path d="M143.242 13.35c-.738-.594-1.685-1.188-2.728-1.732a9.84 9.84 0 0 0-1.059-.492c.353-.068.706-.17 1.075-.272 1.171-.34 2.15-.764 2.824-1.189.786-.492 1.172-1.002.979-1.375-.209-.408-1.043-.595-2.182-.56-.787.033-1.718.169-2.713.407-.353.085-.674.187-.995.288.177-.254.338-.543.498-.815.497-.9.802-1.749.931-2.428.144-.782.048-1.342-.305-1.495-.385-.187-1.043.136-1.733.798-.498.459-1.011 1.104-1.493 1.852a7.047 7.047 0 0 0-.465.815c-.08-.289-.161-.595-.257-.9-.321-.968-.738-1.784-1.155-2.378-.482-.68-.995-1.07-1.397-.985-.433.085-.674.713-.69 1.647 0 .663.113 1.478.353 2.378.081.323.177.628.289.917-.289-.17-.609-.357-.93-.51-1.06-.543-2.103-.917-2.969-1.12-1.059-.238-1.862-.204-2.151.119-.321.373.048 1.07.899 1.834.594.526 1.412 1.104 2.407 1.63.337.187.69.34 1.027.493-.385.068-.786.17-1.203.271-1.38.34-2.648.816-3.643 1.308-1.204.611-1.958 1.257-1.91 1.766.048.578 1.091.798 2.616.697 1.027-.068 2.263-.29 3.563-.663.433-.119.85-.255 1.251-.407-.24.34-.497.696-.738 1.086-.85 1.325-1.508 2.7-1.91 3.856-.497 1.426-.561 2.547-.048 2.853.562.34 1.653-.408 2.809-1.766.754-.883 1.524-2.004 2.214-3.244.225-.408.433-.815.61-1.189.08.408.177.832.305 1.274.417 1.511.979 2.887 1.557 3.923.722 1.256 1.476 1.987 2.038 1.766.593-.238.77-1.494.577-3.176-.128-1.087-.417-2.327-.834-3.6a16.325 16.325 0 0 0-.45-1.189c.337.204.707.425 1.076.628 1.267.68 2.503 1.138 3.482 1.376 1.172.272 2.006.204 2.167-.272.16-.492-.482-1.341-1.589-2.224Z" fill="#fff"/><path d="M161.959 19.602c-1.022.64-2.179.989-3.575.989-4.035 0-6.384-3.022-6.384-8.13 0-3.627 1.294-6.025 2.996-7.289.97-.714 2.4-1.172 3.626-1.172.97 0 2.026.238 2.826.714.545.311.8.531 1.43 1.099l-1.856 2.71c-.766-.769-1.6-1.227-2.315-1.227-1.719 0-2.485 1.593-2.485 5.292 0 2.07.255 3.297.749 3.974.408.55 1.055.897 1.719.897.885 0 1.686-.402 2.639-1.3l.221-.22 1.737 2.49c-.545.623-.818.843-1.328 1.173Z" fill="#268ECD"/><path fill-rule="evenodd" clip-rule="evenodd" d="M174.726 18.375c-1.123 1.355-2.57 2.18-4.834 2.18-3.984 0-6.571-3.206-6.571-8.15 0-4.944 2.638-8.24 6.571-8.24 2.094 0 3.711.769 4.971 2.362 1.174 1.483 1.685 3.205 1.685 5.75 0 2.71-.579 4.56-1.822 6.098Zm-3.132-10.328c-.374-.531-.97-.824-1.651-.824-.92 0-1.652.623-1.975 1.593-.255.824-.409 1.941-.409 3.516 0 1.813.171 3.168.494 3.974.341.86 1.209 1.3 1.941 1.3 1.651 0 2.366-1.593 2.366-5.329.017-2.143-.238-3.534-.766-4.23Z" fill="#268ECD"/><path d="M186.183 19.106c.255.641.647 1.172 1.141 1.539l2.706-1.648c-.578-.733-.885-1.813-.885-2.857V4.109l-3.66.824v11.079c-.272.769-1.43 1.501-2.366 1.501-.579 0-1.141-.293-1.345-.732-.187-.421-.306-1.172-.306-2.582V4.072l-3.78.77v10.09c0 1.592.086 2.416.307 3.13.494 1.502 2.264 2.546 4.324 2.546 1.549 0 2.928-.513 3.864-1.502Z" fill="#268ECD"/><path fill-rule="evenodd" clip-rule="evenodd" d="M202.338 18.778c-1.004 1.135-2.315 1.776-3.915 1.776-1.141 0-2.23-.311-3.064-.824.051.366.051.824.051 1.3v4.926L191.716 27V8.78c0-2.07-.034-2.637-.222-3.974l3.405-.641c.136.55.221.989.255 1.483.664-.86 2.111-1.483 3.609-1.483a5.06 5.06 0 0 1 2.894.952c1.567 1.135 2.724 3.168 2.724 6.794 0 3.388-.527 5.109-2.043 6.867Zm-2.502-9.944c-.289-.86-.885-1.318-1.839-1.318-.936 0-1.855.44-2.553 1.209v7.654c.511.458 1.345.916 2.111.916 1.889 0 2.638-1.392 2.638-4.981 0-1.502-.102-2.71-.357-3.48ZM213.948 19.126c.375.805 1.175 1.501 2.06 1.904L218 18.521c-1.294-1.062-1.413-1.794-1.379-3.515l.085-5.293c.034-1.703-.051-2.197-.255-2.838-.562-1.758-2.264-2.747-4.716-2.747-1.344 0-2.57.275-4 .916-1.022.476-1.6.769-2.366 1.3l1.634 2.948c1.583-1.135 3.013-1.776 4.239-1.776 1.413 0 1.719.586 1.719 2.344v.64c-.306-.036-.562-.036-.851-.036-4.665 0-7.031 1.721-7.031 5.42 0 3.15 1.771 4.927 5.039 4.927 1.209 0 2.23-.312 2.945-.861.29-.202.596-.513.885-.824Zm-4.766-3.388c0-1.868.919-2.399 3.575-2.399h.17l-.051 3.388c-.579.677-1.294 1.08-2.009 1.08-.97 0-1.685-.842-1.685-2.069Z" fill="#268ECD"/><path d="M20.943 11.938a31.767 31.767 0 0 0-1.365-.648c.45-.102.9-.205 1.349-.341 3.129-.921 5.119-2.354 4.637-3.224-.465-.853-3.113-.938-6.098-.188-.433.103-.85.222-1.252.359.21-.324.418-.666.594-1.024 1.268-2.354 1.493-4.367.674-4.759-.818-.375-2.52.938-3.947 3.156-.21.324-.418.665-.594 1.006a17.384 17.384 0 0 0-.337-1.109c-.867-2.507-2.23-4.23-3.146-4.076-.93.153-1.187 2.217-.497 4.861.112.392.224.768.353 1.143-.37-.222-.754-.444-1.172-.648-2.888-1.467-5.713-2.03-6.435-1.28-.754.785 1.011 2.73 4.076 4.367.434.239.867.444 1.3.648-.497.103-1.027.205-1.572.342-4.06 1.023-7.543 2.865-7.51 4.11.031 1.297 3.867 1.28 8.232.017.577-.17 1.14-.358 1.653-.546-.337.461-.674.939-1.011 1.467-2.664 4.128-4.189 8.683-2.937 9.484 1.268.82 4.574-2.746 6.965-7.198.304-.563.577-1.109.802-1.637.112.563.24 1.143.401 1.74 1.236 4.724 3.53 8.63 4.91 8.017 1.333-.598.98-5.135-.529-9.519a24.423 24.423 0 0 0-.61-1.586c.45.29.915.563 1.413.819 3.675 1.978 7.045 2.627 7.366 1.433.353-1.11-2.295-3.446-5.713-5.186Z" fill="#53B8E7"/><path d="M15.31 6.339c-.16.27-.32.542-.465.813a4.71 4.71 0 0 0-.29-.881c-.32-.965-.737-1.778-1.155-2.37.482-1.83 1.3-2.981 2.038-2.897.77.085 1.316 1.508 1.365 3.489a9.778 9.778 0 0 0-1.493 1.846ZM11.988 7.829c-.112-.305-.208-.61-.289-.914-.24-.881-.353-1.694-.353-2.371C9.661 2.986 7.992 2.122 7.27 2.512c-.722.372-.385 1.88.819 3.674.866.204 1.91.576 2.968 1.118.321.17.642.339.931.525ZM9.607 9.902c.235.115.466.227.697.332l-.241.052c-.311.068-.632.138-.963.219-1.38.355-2.664.83-3.643 1.32C2.52 11.302.58 10.319.947 9.422c.37-.898 2.89-1.406 5.922-1.304.594.542 1.413 1.1 2.408 1.626l.33.16ZM9.742 13.62c.433-.118.85-.253 1.252-.389-.257.339-.498.694-.754 1.084-.85 1.338-1.509 2.693-1.91 3.844-3.145 2.168-6.066 3.268-6.644 2.252-.577-1.033 1.509-3.691 4.494-6.13 1.027-.068 2.262-.288 3.562-.66ZM18.44 8.134c-.338.085-.675.186-.995.288l.08-.127c.138-.217.283-.446.417-.686.481-.898.802-1.744.93-2.422 1.798-1.05 3.387-1.44 3.948-.948.594.525-.08 1.947-1.669 3.488-.786.017-1.733.153-2.712.407ZM13.914 14.823c-.177.39-.385.779-.61 1.185-.69 1.237-1.46 2.371-2.215 3.235-.337 4.132.241 7.688 1.573 7.756 1.268.068 2.552-3.116 3.113-6.994-.593-1.016-1.155-2.405-1.556-3.912-.128-.44-.225-.864-.305-1.27ZM26.993 11.842c-.128-.846-2.07-1.71-4.638-2.184-.674.423-1.653.847-2.824 1.185-.298.086-.608.16-.91.232l-.165.04.265.117c.26.115.531.235.794.373 1.059.542 1.99 1.135 2.728 1.728 2.872.034 4.894-.576 4.75-1.49ZM17.557 15.01a16.249 16.249 0 0 0-.45-1.186c.338.22.69.423 1.092.626 1.267.678 2.503 1.152 3.482 1.372 2.054 2.625 3.242 5.199 2.552 6.046-.739.914-3.29-.593-5.842-3.269-.128-1.083-.417-2.337-.834-3.59Z" fill="#268ECD"/><path d="M22.242 13.35c-.738-.594-1.685-1.188-2.728-1.732a9.843 9.843 0 0 0-1.06-.492c.354-.068.707-.17 1.076-.272 1.171-.34 2.15-.764 2.824-1.189.787-.492 1.172-1.002.979-1.375-.209-.408-1.043-.595-2.182-.56-.787.033-1.718.169-2.712.407-.354.085-.674.187-.995.288.176-.254.337-.543.497-.815.498-.9.802-1.749.93-2.428.145-.782.049-1.342-.304-1.495-.385-.187-1.043.136-1.733.798-.498.459-1.011 1.104-1.493 1.852a7.022 7.022 0 0 0-.465.815c-.08-.289-.16-.595-.257-.9-.32-.968-.738-1.784-1.155-2.378-.482-.68-.995-1.07-1.396-.985-.434.085-.675.713-.69 1.647 0 .663.112 1.478.352 2.378.08.323.177.628.29.917-.29-.17-.61-.357-.931-.51-1.06-.543-2.103-.917-2.97-1.12-1.058-.238-1.86-.204-2.15.119-.32.373.048 1.07.899 1.834.594.526 1.412 1.104 2.407 1.63.337.187.69.34 1.027.493-.385.068-.786.17-1.203.271-1.38.34-2.648.816-3.643 1.308-1.204.611-1.958 1.257-1.91 1.766.048.578 1.091.798 2.616.697 1.027-.068 2.263-.29 3.563-.663.433-.119.85-.255 1.251-.407-.24.34-.497.696-.738 1.086-.85 1.325-1.508 2.7-1.91 3.856-.497 1.426-.561 2.547-.048 2.853.562.34 1.653-.408 2.809-1.766.754-.883 1.524-2.004 2.214-3.244.225-.408.433-.815.61-1.189.08.408.176.832.305 1.274.417 1.511.979 2.887 1.556 3.923.723 1.256 1.477 1.987 2.039 1.766.593-.238.77-1.494.577-3.176-.128-1.087-.417-2.327-.834-3.6a16.283 16.283 0 0 0-.45-1.189c.337.204.707.425 1.076.628 1.268.68 2.503 1.138 3.482 1.376 1.172.272 2.006.204 2.166-.272.161-.492-.48-1.341-1.588-2.224Z" fill="#fff"/><path d="M40.959 19.602c-1.022.64-2.18.989-3.575.989-4.035 0-6.384-3.022-6.384-8.13 0-3.627 1.294-6.025 2.996-7.289.97-.714 2.4-1.172 3.626-1.172.97 0 2.026.238 2.826.714.545.311.8.531 1.43 1.099l-1.855 2.71c-.767-.769-1.6-1.227-2.316-1.227-1.72 0-2.485 1.593-2.485 5.292 0 2.07.255 3.297.749 3.974.408.55 1.055.897 1.72.897.884 0 1.685-.402 2.638-1.3l.221-.22 1.737 2.49c-.545.623-.818.843-1.328 1.173Z" fill="#268ECD"/><path fill-rule="evenodd" clip-rule="evenodd" d="M53.726 18.375c-1.123 1.355-2.57 2.18-4.834 2.18-3.984 0-6.571-3.206-6.571-8.15 0-4.944 2.638-8.24 6.57-8.24 2.095 0 3.712.769 4.971 2.362 1.175 1.483 1.686 3.205 1.686 5.75 0 2.71-.579 4.56-1.822 6.098ZM50.594 8.047c-.375-.531-.97-.824-1.651-.824-.92 0-1.651.623-1.975 1.593-.255.824-.409 1.941-.409 3.516 0 1.813.17 3.168.494 3.974.34.86 1.209 1.3 1.94 1.3 1.652 0 2.367-1.593 2.367-5.329.017-2.143-.238-3.534-.766-4.23Z" fill="#268ECD"/><path d="M65.183 19.106c.255.641.647 1.172 1.14 1.539l2.707-1.648c-.578-.733-.885-1.813-.885-2.857V4.109l-3.66.824v11.079c-.272.769-1.43 1.501-2.366 1.501-.579 0-1.14-.293-1.345-.732-.187-.421-.306-1.172-.306-2.582V4.072l-3.78.77v10.09c0 1.592.085 2.416.307 3.13.494 1.502 2.264 2.546 4.324 2.546 1.549 0 2.928-.513 3.864-1.502Z" fill="#268ECD"/><path fill-rule="evenodd" clip-rule="evenodd" d="M81.338 18.778c-1.004 1.135-2.315 1.776-3.915 1.776-1.14 0-2.23-.311-3.064-.824.05.366.05.824.05 1.3v4.926L70.717 27V8.78c0-2.07-.034-2.637-.222-3.974l3.405-.641c.136.55.221.989.255 1.483.664-.86 2.111-1.483 3.61-1.483 1.02 0 2.093.366 2.894.952 1.566 1.135 2.723 3.168 2.723 6.794 0 3.388-.528 5.109-2.043 6.867Zm-2.502-9.944c-.29-.86-.885-1.318-1.839-1.318-.936 0-1.855.44-2.553 1.209v7.654c.51.458 1.345.916 2.11.916 1.89 0 2.64-1.392 2.64-4.981 0-1.502-.103-2.71-.358-3.48ZM92.948 19.126c.375.805 1.175 1.501 2.06 1.904L97 18.521c-1.294-1.062-1.413-1.794-1.379-3.515l.085-5.293c.034-1.703-.05-2.197-.255-2.838-.562-1.758-2.264-2.747-4.716-2.747-1.344 0-2.57.275-4 .916-1.022.476-1.6.769-2.366 1.3l1.634 2.948c1.583-1.135 3.013-1.776 4.239-1.776 1.413 0 1.72.586 1.72 2.344v.64c-.307-.036-.563-.036-.852-.036-4.665 0-7.03 1.721-7.03 5.42 0 3.15 1.77 4.927 5.038 4.927 1.209 0 2.23-.312 2.945-.861.29-.202.596-.513.885-.824Zm-4.766-3.388c0-1.868.92-2.399 3.575-2.399h.17l-.051 3.388c-.579.677-1.294 1.08-2.009 1.08-.97 0-1.685-.842-1.685-2.069Z" fill="#268ECD"/></svg>