<?xml version="1.0" encoding="UTF-8"?>
<svg width="62px" height="2636px" viewBox="0 0 62 2636" version="1.1" xmlns="http://www.w3.org/2000/svg" xmlns:xlink="http://www.w3.org/1999/xlink">
    <!-- Generator: Sketch 56 (81588) - https://sketch.com -->
    <title>sprite_headers</title>
    <desc>Created with Sketch.</desc>
    <defs>
        <polygon id="path-1" points="0 0 8 0 8 12 0 12"></polygon>
        <polygon id="path-3" points="0 0 10 0 10 15 0 15"></polygon>
    </defs>
    <g id="sprite_headers" stroke="none" stroke-width="1" fill="none" fill-rule="evenodd">
        <g id="Group-z" transform="translate(13.000000, 1890.000000)">
            <g id="zzz" transform="translate(4.000000, 0.000000)" stroke="#F27921" stroke-width="0.5">
                <path d="M17,9.2 L16.4,12.6 L2.2,12.6 L1.6,9.2 L1.79412041e-13,9.2 L1.79412041e-13,14.6 L18.6,14.6 L18.6,9.2 L17,9.2 Z M14,6.2 C14,6.2 14.9,6.1 14.4,6.6 L10,11 C10,11 9.7,11.3 9.5,11 L5.2,6.6 C5.2,6.6 4.7,6.2 5.7,6.2 L7.8,6.2 L7.8,0.8 C7.9,1.13686838e-13 8.7,1.13686838e-13 8.7,1.13686838e-13 L11,1.13686838e-13 C11.9,1.13686838e-13 11.9,0.9 11.9,0.9 L11.9,6.3 L14,6.2 Z" id="Shape"></path>
            </g>
            <g id="zzz" transform="translate(0.000000, 94.000000)">
                <path d="M12.2,0.7 C13,0.7 13.7,1.4 13.7,2.2 L13.7,9.9 L23.6,16.1 L23.6,18.8 L13.7,15.4 L13.7,20.6 L15.7,22.6 L15.7,24.7 L12.2,23.5 L8.7,24.7 L8.7,22.5 L10.6,20.6 L10.6,15.3 L0.7,18.7 L0.7,16 L10.6,9.7 L10.6,2.1 C10.7,1.4 11.4,0.7 12.2,0.7 Z" id="Path" stroke="#F27921" stroke-width="0.5"></path>
                <path d="M19.3,5.9 C19.2,5.7 19.1,5.5 18.9,5.4 C18.8,5.2 18.6,5.1 18.4,5 C18.2,4.9 18,4.8 17.8,4.7 L17.2,4.5 C17,4.4 16.9,4.3 16.7,4.2 C16.6,4.1 16.4,4 16.4,3.9 C16.3,3.8 16.3,3.6 16.3,3.5 C16.3,3.4 16.3,3.3 16.4,3.2 C16.4,3.1 16.5,3 16.6,3 C16.7,2.9 16.8,2.9 16.9,2.8 C17,2.8 17.2,2.7 17.3,2.7 C17.5,2.7 17.7,2.7 17.9,2.8 C18.1,2.9 18.2,2.9 18.3,3 C18.4,3.1 18.5,3.1 18.6,3.2 C18.7,3.3 18.7,3.3 18.8,3.3 L18.9,3.3 C18.9,3.3 18.9,3.2 19,3.2 C19,3.1 19,3.1 19,3 L19,2.7 L19,2.5 L19,2.3 L19,2.2 C19,2.2 19,2.1 18.9,2.1 C18.8,2.1 18.8,2 18.7,2 C18.6,1.9 18.5,1.9 18.3,1.9 C18.2,1.9 18,1.8 17.8,1.8 L17.7,1.8 L17.7,0.9 L16.8,0.9 L16.8,1.8 C16.7,1.8 16.5,1.8 16.3,1.9 C16,2 15.8,2.1 15.5,2.3 C15.3,2.5 15.1,2.7 15,2.9 C14.9,3.2 14.8,3.5 14.8,3.8 C14.8,4.1 14.8,4.4 14.9,4.6 C15,4.8 15.1,5 15.2,5.2 C15.3,5.4 15.5,5.5 15.7,5.6 C15.9,5.7 16.1,5.8 16.3,5.9 L16.9,6.1 C17.1,6.2 17.2,6.3 17.4,6.4 C17.6,6.5 17.7,6.6 17.7,6.7 C17.8,6.8 17.8,7 17.8,7.1 C17.8,7.2 17.8,7.4 17.7,7.5 C17.7,7.6 17.6,7.7 17.5,7.8 C17.4,7.9 17.3,7.9 17.1,8 C17,8 16.8,8.1 16.6,8.1 C16.3,8.1 16.1,8.1 15.9,8 C15.7,7.9 15.5,7.9 15.4,7.8 C15.3,7.7 15.1,7.7 15,7.6 C14.9,7.5 14.8,7.5 14.8,7.5 L14.7,7.5 L14.6,7.6 C14.6,7.7 14.6,7.7 14.6,7.8 L14.6,8.1 C14.6,8.3 14.6,8.4 14.6,8.5 C14.6,8.6 14.7,8.7 14.7,8.7 C14.7,8.7 14.8,8.8 14.9,8.9 C15,9 15.1,9 15.3,9.1 C15.5,9.2 15.7,9.2 15.9,9.2 C16.1,9.2 16.3,9.3 16.6,9.3 L16.6,9.3 L16.6,10.1 L17.5,10.1 L17.5,9.1 L17.6,9.1 C17.9,9 18.2,8.9 18.4,8.7 C18.6,8.5 18.8,8.3 19,8 C19.1,7.7 19.2,7.4 19.2,7 C19.5,6.4 19.4,6.1 19.3,5.9 Z" id="Path" fill="#F27921" fill-rule="nonzero"></path>
            </g>
            <g id="zzz" transform="translate(2.000000, 198.000000)">
                <rect id="Rectangle" fill="#F7BB85" fill-rule="nonzero" x="0" y="11.4" width="2" height="1.9"></rect>
                <rect id="Rectangle" fill="#F7BB85" fill-rule="nonzero" x="0" y="6.4" width="2" height="1.9"></rect>
                <rect id="Rectangle" fill="#F7BB85" fill-rule="nonzero" x="0" y="17.4" width="2" height="1.9"></rect>
                <rect id="Rectangle" fill="#F7BB85" fill-rule="nonzero" x="3.9" y="17.4" width="10" height="1.9"></rect>
                <path d="M17.9,12.4 L23.1,17.6 L21.4,19.3 L16.2,14.1 C17,13.6 17.5,13 17.9,12.4 Z" id="Path" stroke="#EF780B"></path>
                <polygon id="Path" fill="#EF780B" fill-rule="nonzero" points="13.9 13.3 6 13.3 4.6 11.4 13.9 11.4"></polygon>
                <rect id="Rectangle" fill="#EF780B" fill-rule="nonzero" x="3.8" y="6.4" width="10.1" height="1.9"></rect>
                <polygon id="Path" fill="#F7BB85" fill-rule="nonzero" points="6 13.3 3.9 13.3 3.9 11.4 4.6 11.4"></polygon>
                <circle id="Oval" stroke="#EF780B" cx="11.6" cy="7.8" r="7.8"></circle>
            </g>
            <g id="zzz" transform="translate(2.000000, 245.000000)">
                <path d="M9.23705556e-14,14.5 L1.9,14.5 L1.9,6.5 C1.3,6.5 0.7,6.4 9.23705556e-14,6.5 L9.23705556e-14,14.5 Z M18.3,8.7 C17.8,9.3 17.2,10 16.5,10.1 C14.6,10.7 10.6,10.8 10.4,10.8 C10,10.8 9.1,10.7 9.1,10.2 C9.1,10 9.6,9.6 9.8,9.6 C11.1,9.5 16.1,9.2 16.1,8.2 C16.1,7.4 15,7.5 14.5,7.5 C14.3,7.5 11.7,7.7 11.5,7.7 C9.6,7.7 8.7,6 6.7,6 C5.6,6 3.3,6.7 2.6,7.8 C2.7,7.9 2.7,8 2.6,11.9 C2.7,12.9 4.3,12.6 5,12.9 C7.5,13.5 12.2,14.6 12.5,14.6 C13.7,14.6 17.4,12.9 17.8,12.4 C19.6,10.4 22.3,5.9 22.3,5.7 L22.3,4.9 C22.2,4.9 22.2,4.8 21.8,4.8 C21,4.7 18.9,7.9 18.3,8.7 Z" id="Shape" stroke="#EF780B" stroke-width="0.5"></path>
                <path d="M9.6,2.65213178 C9.6,4.22079942 10.7776784,5.39847782 12.2474211,5.30426355 C13.7218744,5.30426355 14.8995528,4.12658514 14.8995528,2.65213178 C14.8995528,1.18238912 13.7218744,-2.26929586e-13 12.2474211,-2.26929586e-13 C10.7776784,-2.26929586e-13 9.6,1.17767841 9.6,2.65213178 Z" id="Path-122" fill="#EF780B"></path>
            </g>
            <g id="zzz" transform="translate(4.000000, 606.000000)" fill-rule="nonzero">
                <path d="M6.9,3.3 C5.2,4.1 3.6,5.5 3.2,7.4 L3.2,11.1 C2.7,12 0.8,13.2 0.8,13.6 C0.8,14.1 2.9,14.3 3.2,15 C3.4,15.2 3.4,15.6 3.4,15.8 C3.6,16 3.9,15.7 4,16.2 C4.1,16.6 3.3,16.6 3.3,17 C3.3,17.5 3.5,18.4 3.5,18.8 C3.7,19 4,19.1 4.2,19.3 L7.5,19.3 C8.4,20.7 8,19.9 8.2,21.3 L14.5,21.3 L14.5,20.8 C14.5,20.3 14.3,18.9 14.7,18.4 C15.2,17.2 15.8,16 16.4,14.8 C17.5,13.5 18.1,11.8 18.1,9.9 C18.1,5.7 14.9,2.3 10.9,2.3 C9.6,2.1 8,2.5 6.9,3.3 Z" id="Path" stroke="#FA7A15" stroke-width="0.5" fill="#FFFFFF" stroke-linecap="round" stroke-linejoin="round"></path>
                <g id="Group" transform="translate(7.000000, 0.000000)">
                    <path d="M14.5,6.2 L14.5,6.2 C14.1,6.2 13.8,6.1 13.7,5.9 L13.3,4.9 C13.1,4.6 13.2,4.2 13.4,3.9 L13.9,3.4 C14.1,3.2 14.1,2.7 13.9,2.5 L13,1.6 C12.8,1.4 12.3,1.4 12.1,1.6 L11.6,2.1 C11.4,2.3 10.9,2.4 10.6,2.2 L9.7,1.8 C9.3,1.7 9.1,1.4 9.1,1 L9.1,0.8 C9.1,0.4 8.8,0.2 8.5,0.2 L6.8,0.2 C6.4,0.2 6.2,0.5 6.2,0.8 L6.2,1 C6.2,1.4 5.9,1.7 5.6,1.8 L5,2.2 C4.7,2.3 4.3,2.3 4,2.1 L3.5,1.6 C3.3,1.4 2.9,1.4 2.6,1.6 L1.7,2.5 C1.5,2.7 1.5,3.2 1.7,3.4 L2.2,3.9 C2.4,4.1 2.5,4.6 2.3,4.9 L1.9,5.6 C1.8,6 1.5,6.2 1.1,6.2 L0.7,6.2 C0.3,6.2 0.1,6.5 0.1,6.8 L0.1,8.5 C0.1,8.9 0.4,9.2 0.7,9.2 L1.1,9.2 C1.5,9.2 1.8,9.5 1.9,9.8 L2.3,10.6 C2.4,10.9 2.4,11.3 2.2,11.6 L1.7,12.1 C1.5,12.3 1.5,12.7 1.7,13 L2.6,13.9 C2.8,14.1 3.3,14.1 3.5,13.9 L4,13.4 C4.2,13.2 4.7,13.1 5,13.3 L5.6,13.7 C6,13.8 6.2,14.1 6.2,14.5 L6.2,14.6 C6.2,15 6.5,15.3 6.8,15.3 L8.5,15.3 C8.9,15.3 9.1,15 9.1,14.6 L9.1,14.5 C9.1,14.1 9.4,13.8 9.7,13.7 L10.6,13.3 C10.9,13.1 11.3,13.2 11.6,13.4 L12.1,13.9 C12.3,14.1 12.7,14.1 13,13.9 L13.9,13 C14.1,12.8 14.1,12.4 13.9,12.1 L13.4,11.6 C13.2,11.4 13.1,10.9 13.3,10.6 L13.7,9.7 C13.8,9.3 14.1,9.1 14.5,9.1 L14.5,9.1 C14.9,9.1 15.1,8.8 15.1,8.4 L15.1,6.8 C15.2,6.5 14.9,6.2 14.5,6.2 Z" id="Path" fill="#EF7922"></path>
                    <path d="M7.8,4.3 C9.7,4.3 11.3,5.9 11.3,7.8 C11.3,9.7 9.7,11.3 7.8,11.3 C5.9,11.3 4.3,9.7 4.3,7.8 C4.3,5.9 5.9,4.3 7.8,4.3 Z" id="Path" fill="#FFFFFF"></path>
                </g>
            </g>
            <g id="zzz" transform="translate(5.000000, 653.000000)">
                <path d="M19,19 C19,19.6 19,20.6 19,21.6 C19,22.6 18.4,23.7 17.4,23.7 C17.3,23.7 5,23.7 3.5,23.7 C1.5,23.7 0,22.2 0,20.2 C0,18.2 0,11.8 0,9.9 C0,8 0.8,7.8 2.4,7.5 C4,7.2 15.3,4.9 15.8,4.8 C16.3,4.7 17,5.1 17,6.1 C17,6.8 17,8 17,9.6" id="Path" stroke="#F27921" stroke-linecap="round"></path>
                <path d="M4.3,2.27373675e-13 L14.8,2.27373675e-13 L12.7,10.5 L10,6.9 C10,6.9 6.9,8.9 4.6,12.6 C2.9,9.8 4.6,4.3 6.6,2.9 L4.3,2.27373675e-13 Z" id="Path" fill="#FFFFFF" fill-rule="nonzero"></path>
                <path d="M6.6,0.8 L13.4,0.8 L12.1,7.7 L10.4,5.5 C10.4,5.5 7.2,7 5.3,10.4 C4.7,8.1 6.2,4.6 8.4,3 C7.6,2.1 6.6,0.8 6.6,0.8 Z" id="Path" fill="#F17922" fill-rule="nonzero"></path>
                <path d="M19,20.8 C19,19.9 19,14.1 19,13.3 C19,12.5 18.5,11.8 17.5,11.8 C16.5,11.8 6,11.8 3.2,11.8 C0.4,11.8 0,10.6 0,9.9" id="Path" stroke="#F27921" stroke-linecap="round"></path>
                <circle id="Oval" fill="#F27921" fill-rule="nonzero" cx="15" cy="17.9" r="1.7"></circle>
            </g>
        </g>
        <g id="Group" transform="translate(15.000000, 2592.000000)">
            <path d="M13.5282728,20.4616795 L16.0796225,18.1641071 C16.2914037,17.9729443 16.6142614,17.9535764 16.8006963,18.1187125 C16.98482,18.2902008 16.9661925,18.5739137 16.7553267,18.7645653 L14.8317277,20.4968145 C16.2232204,20.4524339 17.5562385,20.0902988 18.7407874,19.4287255 C22.0878158,17.5594022 23.7215584,13.5933968 22.8054273,9.55948781 C22.7464995,9.29604799 22.9025371,9.05274635 23.1555937,9.01627636 C23.4099533,8.98021847 23.6615926,9.16452375 23.7234088,9.42749015 C24.7300314,13.8645046 22.9325693,18.2274174 19.2509965,20.2835845 C18.1430804,20.9023582 16.9175102,21.2827451 15.6350686,21.4130511 L16.9432449,22.1448147 C17.1659332,22.2684458 17.2107734,22.5501164 17.03904,22.7695253 C16.8673066,22.9889342 16.5464765,23.0648683 16.3228819,22.9397189 L13.58159,21.4064491 C13.4467057,21.3756517 13.3294536,21.2880927 13.2556329,21.1722057 C13.2533005,21.1685977 13.2510329,21.1649488 13.2488307,21.161259 C13.2171128,21.1081155 13.1986725,21.0465442 13.1966815,20.9818595 C13.190443,20.8466645 13.2545237,20.7086372 13.3686663,20.6054102 L13.5282728,20.4616795 C13.3233499,20.4943658 13.1722524,20.6678222 13.1724619,20.89162 C13.1717177,20.9877799 13.1998584,21.0792056 13.2473078,21.1587074 C13.2500176,21.1632477 13.2527931,21.1677476 13.2556329,21.1722057 Z M21.5068373,5.26008048 C21.2603473,5.3673364 20.9664161,5.30783745 20.8867592,5.09948143 L20.8131312,4.955933 C20.7779056,4.88278317 20.7422425,4.80890052 20.6998176,4.73781728 C18.2885957,0.697798015 12.2730308,-0.326693697 7.29115157,2.45569759 C6.75899219,2.75290986 6.24453493,3.09592953 5.7188104,3.50484443 C5.49492789,3.6787378 5.18219568,3.67752343 5.01715268,3.5039321 C4.99951409,3.48447062 4.98324512,3.46326711 4.97012402,3.44128261 C4.86690465,3.26833783 4.92774781,3.02916807 5.12580878,2.87458154 C5.70046589,2.42856678 6.26650871,2.05087391 6.85378138,1.72288074 C12.2029899,-1.2646648 18.6361374,-0.262588702 21.4071218,3.92133491 L21.3415526,3.04102493 C21.3198382,2.75355147 21.5121495,2.56538314 21.769586,2.62090406 C22.0290747,2.67658138 22.255073,2.95677609 22.2757728,3.24090839 L22.55581,6.9923461 C22.5677231,7.14851925 22.5151979,7.28206372 22.415071,7.35882667 C22.3143609,7.43461266 22.1747358,7.44355511 22.0350608,7.38348696 L18.7408382,5.96678539 C18.6124393,5.91084041 18.501809,5.80589324 18.4271744,5.68084238 C18.3525397,5.55579153 18.3139008,5.410637 18.3280154,5.27509786 C18.358297,5.00417598 18.5904325,4.87452776 18.8481164,4.98462021 L21.5736804,6.15749271 L21.5068373,5.26008048 Z M3.26220128,6.85396371 C3.29634455,6.79512291 3.33118383,6.73659102 3.36671929,6.67837861 C3.49111843,6.47380007 3.76471715,6.42311838 3.97721381,6.56506704 C4.05307625,6.61573123 4.11110086,6.68476295 4.14846694,6.7619353 C4.17422394,6.79552297 4.19194446,6.83421989 4.20048861,6.87623432 L4.68198452,9.47960153 C4.71957162,9.68395215 4.53821521,9.91809167 4.27769955,10.0038912 C4.01504967,10.0900418 3.77669447,9.99109398 3.73533936,9.79221112 L3.49380092,8.48466321 C2.48872874,11.0354249 2.7533179,14.0170266 4.27492908,16.5664969 C5.4058559,18.4613728 7.14834415,19.9412887 9.17908567,20.7325746 C9.41463077,20.8254818 9.54651728,21.0869167 9.47404464,21.3178113 C9.40129358,21.5499251 9.15141558,21.6639516 8.91634666,21.5718422 C6.679994,20.700717 4.76459905,19.0726983 3.52034145,16.9879359 C1.81572446,14.131838 1.54492615,10.781348 2.72331041,7.94284483 L0.637805894,8.98287674 C0.398493578,9.10223908 0.137269544,9.06315017 0.0386584502,8.89792658 C0.0345182898,8.89098971 0.0307545076,8.88468347 0.0274932675,8.87725572 C-0.0605665557,8.69436757 0.0699534332,8.44573786 0.31843133,8.32209735 L3.26220128,6.85396371 Z" id="Combined-Shape" stroke="#F27921" stroke-width="0.583150046" fill="#F27921"></path>
            <circle id="Oval" fill="#FFFFFF" cx="19" cy="16" r="9"></circle>
            <g id="Group-3" transform="translate(7.000000, 5.000000)">
                <mask id="mask-2" fill="white">
                    <use xlink:href="#path-1"></use>
                </mask>
                <g id="Clip-2"></g>
                <path d="M2.47860569,6.50354115 L6.79845643,6.50354115 C6.95125188,7.33508715 6.67817065,7.58597973 6.01309124,7.56140483 C4.88517679,7.51968465 3.7552091,7.54978414 2.61411968,7.54978414 C2.93750535,10.3122695 4.94129875,11.2830733 7.72190217,10.1448173 C7.89916542,11.6210257 7.85022981,11.696846 6.57721957,11.9144005 C3.96002003,12.3617018 2.06059977,11.0443729 1.26770603,8.23464276 C1.20884642,8.02585137 1.1352719,7.82201306 1.06340842,7.60045796 C0.763977247,7.56997747 0.48319636,7.541402 0.161863936,7.50882598 C-0.0116350398,6.79863044 0.237491695,6.44886676 0.921563596,6.4635355 L0.921563596,5.53864298 C0.663368374,5.48206357 0.420230262,5.42834169 0,5.3361382 C0.157244141,5.00523432 0.304735381,4.46249101 0.430838681,4.46839661 C1.0918116,4.50021062 1.12671672,3.98985284 1.26924596,3.51111856 C2.03065666,0.954376548 4.55220933,-0.517640854 6.97281093,0.167979779 C8.13443277,0.497359627 8.18798817,0.621377141 7.73764369,1.94080156 C5.04601411,0.703293471 2.97480592,1.63637762 2.53832082,4.37886015 L7.20516952,4.37886015 C7.32049329,5.21135867 7.05562503,5.47653898 6.39037452,5.44891603 C5.30934244,5.40357629 4.2257438,5.43081823 3.143514,5.43862886 C2.31246417,5.44453446 2.31246417,5.45215458 2.47860569,6.50354115" id="Fill-1" fill="#F27921" mask="url(#mask-2)"></path>
            </g>
            <g id="S" transform="translate(16.000000, 8.000000)">
                <mask id="mask-4" fill="white">
                    <use xlink:href="#path-3"></use>
                </mask>
                <g id="Clip-2"></g>
                <path d="M4.33057643,2.67704338 C3.81815163,2.70791017 3.33687727,2.78745153 2.89298345,2.97265231 C2.40703653,3.17566085 2.09397457,3.48314162 1.9693728,3.89628181 C1.84165598,4.3248554 1.86969138,4.7522418 2.03478873,5.1725051 C2.12200997,5.38857267 2.2715321,5.57852218 2.48647016,5.73641771 C3.00356753,6.11394237 3.66707198,6.26827634 4.33057643,6.4475412 L4.33057643,2.67704338 Z M5.53142603,12.0510518 C6.05942606,12.0237466 6.5609482,11.9596386 7.03599247,11.8053046 C7.64498364,11.6070448 8.06395711,11.273446 8.25708986,10.7878876 C8.41907217,10.3830577 8.45489518,9.9675431 8.37546155,9.55084135 C8.30070048,9.16025767 8.05928454,8.83496913 7.65744382,8.58566039 C7.04066503,8.20101263 6.30239952,8.04786584 5.53142603,7.92796021 L5.53142603,12.0510518 Z M5.52363842,1.15384615 C5.52363842,1.38297275 5.52986851,1.13132922 5.52052338,1.34977116 C5.51740834,1.44237155 5.54855878,1.47086398 5.6762756,1.47917427 C6.44257651,1.52191291 7.18239955,1.65012883 7.85213409,1.95286086 C8.84116068,2.39805503 9.36448813,3.07593735 9.52647044,3.92833579 C9.56696602,4.13965462 9.57475363,4.35572219 9.59811646,4.57535132 L8.01255888,4.57535132 C8.00321374,4.44238666 8.00477127,4.32248103 7.986081,4.2025754 C7.85524914,3.3774822 7.31323142,2.9275393 6.23542606,2.751836 C6.00802782,2.71503328 5.77751454,2.69366396 5.52363842,2.66279716 L5.52363842,2.80763367 C5.52363842,4.05299016 5.5220809,5.29834665 5.52519595,6.54251595 C5.52519595,6.74196294 5.48314285,6.69803712 5.7323464,6.73365265 C6.45659421,6.8369377 7.16370929,6.9817742 7.82254117,7.24058041 C8.90346157,7.66321808 9.65107222,8.29836176 9.8956032,9.22199126 C10.0996386,9.98891242 10.0061873,10.7451489 9.60123151,11.4693314 C9.30062972,12.007126 8.80378015,12.4202662 8.14494826,12.7194367 C7.73531993,12.9070118 7.29454115,13.0423508 6.82884202,13.1147691 C6.44413404,13.1741283 6.05319597,13.2049951 5.66693047,13.2477337 C5.62643489,13.2512953 5.58593931,13.2536697 5.52986851,13.2584184 L5.52986851,13.8461538 L4.33992156,13.8461538 L4.33992156,13.2596056 C3.96144367,13.210931 3.60009852,13.1753155 3.24498347,13.1159563 C2.55032857,13.0019866 1.90707191,12.7930421 1.3588241,12.4392611 C0.622116105,11.9608258 0.243638214,11.3351796 0.0863284731,10.6204945 C0.0115674081,10.2809598 -0.0117954246,9.93905067 0.00533731941,9.58289533 C0.528664774,9.59357999 1.04108957,9.60426465 1.5768772,9.6161365 L1.5768772,9.72891902 C1.57531968,10.0815128 1.61114269,10.4293578 1.74820465,10.7688926 C1.94445244,11.2556382 2.35096573,11.5939858 2.96307195,11.7922456 C3.3945056,11.9323334 3.84930207,11.9988157 4.33057643,12.0356184 C4.33213395,11.994067 4.33680652,11.9572642 4.33680652,11.9204615 C4.33680652,10.5540122 4.335249,9.18756291 4.33992156,7.82111361 C4.33992156,7.73326196 4.29631094,7.70476953 4.19818704,7.6762771 C3.61411622,7.51007128 3.01914275,7.36048604 2.4537622,7.16103905 C1.65786836,6.88086352 1.02395683,6.44635401 0.679744426,5.81714625 C0.207815204,4.95762471 0.165762105,4.07673385 0.614328494,3.20652764 C1.01772674,2.42417309 1.81362058,1.94811212 2.84158522,1.68574436 C3.07832859,1.62519795 3.3244171,1.58008494 3.56894808,1.54328223 C3.81347906,1.50647951 4.06424014,1.48867174 4.33057643,1.46017932 L4.33057643,1.15384615 L5.52363842,1.15384615 Z" id="Fill-1" fill="#F27921" mask="url(#mask-4)"></path>
            </g>
        </g>
        <g id="icon/header/event-items-and-lots" transform="translate(15.000000, 1431.000000)" fill="#F27921">
            <g id="Rectangle">
                <rect fill-rule="nonzero" x="0.4" y="9.3" width="1.3" height="1.4"></rect>
                <rect fill-rule="nonzero" x="0.4" y="5.1" width="1.3" height="1.4"></rect>
                <rect fill-rule="nonzero" x="0.4" y="0.9" width="1.3" height="1.4"></rect>
                <rect fill-rule="nonzero" x="4.3" y="9.4" width="14.1" height="1.4"></rect>
                <rect fill-rule="nonzero" x="4.3" y="5.1" width="14.1" height="1.4"></rect>
                <rect fill-rule="nonzero" x="4.3" y="0.9" width="14.1" height="1.4"></rect>
            </g>
        </g>
        <g id="icon/header/event-type" transform="translate(15.000000, 643.000000)" stroke="#F27921">
            <g>
                <path d="M21.4,9.4 L20.4,9.4 C19.9,9.4 19.4,9 19.3,8.6 L18.7,7.2 C18.5,6.8 18.6,6.2 18.9,5.8 L19.6,5.1 C19.9,4.8 19.9,4.2 19.6,3.9 L18.4,2.7 C18.1,2.4 17.5,2.4 17.2,2.7 L16.5,3.4 C16.2,3.7 15.5,3.8 15.1,3.6 L13.7,3 C13.2,2.9 12.9,2.4 12.9,1.9 L12.9,0.9 C12.9,0.4 12.5,0 12,0 L10.3,0 C9.8,0 9.4,0.4 9.4,0.9 L9.4,1.9 C9.4,2.4 9,2.9 8.6,3 L7.2,3.6 C6.8,3.8 6.2,3.7 5.8,3.4 L5.1,2.7 C4.8,2.4 4.2,2.4 3.9,2.7 L2.7,3.9 C2.4,4.2 2.4,4.8 2.7,5.1 L3.4,5.8 C3.7,6.1 3.8,6.8 3.6,7.2 L3,8.6 C2.9,9.1 2.4,9.4 1.9,9.4 L0.9,9.4 C0.4,9.4 -3.62376795e-13,9.8 -3.62376795e-13,10.3 L-3.62376795e-13,12 C-3.62376795e-13,12.5 0.4,12.9 0.9,12.9 L1.9,12.9 C2.4,12.9 2.9,13.3 3,13.7 L3.6,15.1 C3.8,15.5 3.7,16.1 3.4,16.5 L2.7,17.2 C2.4,17.5 2.4,18.1 2.7,18.4 L3.9,19.6 C4.2,19.9 4.8,19.9 5.1,19.6 L5.8,18.9 C6.1,18.6 6.8,18.5 7.2,18.7 L8.6,19.3 C9.1,19.4 9.4,19.9 9.4,20.4 L9.4,21.4 C9.4,21.9 9.8,22.3 10.3,22.3 L12,22.3 C12.5,22.3 12.9,21.9 12.9,21.4 L12.9,20.4 C12.9,19.9 13.3,19.4 13.7,19.3 L15.1,18.7 C15.5,18.5 16.1,18.6 16.5,18.9 L17.2,19.6 C17.5,19.9 18.1,19.9 18.4,19.6 L19.6,18.4 C19.9,18.1 19.9,17.5 19.6,17.2 L18.9,16.5 C18.6,16.2 18.5,15.5 18.7,15.1 L19.3,13.7 C19.4,13.2 19.9,12.9 20.4,12.9 L21.4,12.9 C21.9,12.9 22.3,12.5 22.3,12 L22.3,10.3 C22.3,9.8 21.9,9.4 21.4,9.4 Z" id="Path" stroke-width="0.5"></path>
                <circle id="Oval" cx="11.1" cy="11.3" r="4.9"></circle>
            </g>
        </g>
        <g id="icon/header/message" transform="translate(15.000000, 23.000000)">
            <g id="Path">
                <path d="M1.9,11 C0.8,9.8 8.8817842e-16,8.2 8.8817842e-16,6.4 C8.8817842e-16,2.8 2.9,0 6.4,0 C8.2,0 9.8,0.8 11,1.9 C10.9,1.9 1.9,11 1.9,11 Z" fill="#F27921" fill-rule="nonzero"></path>
                <path d="M8.2,12.6 C6.6,13.1 4.7,12.8 3.3,11.9 C3.4,12 12,3.3 11.9,3.3 C12.8,4.8 13,6.6 12.5,8.3 C12.5,8.2 8.2,12.5 8.2,12.6 Z" fill="#F27921" fill-rule="nonzero"></path>
                <path d="M21.5,20.4 L20.4,21.4 L18.9,20 C18.9,20 17,20.3 16.5,19.7 L9.2,13.6 L13.7,9.1 C13.7,9.1 19.7,16.4 19.7,16.5 C20.2,17 20,18.8 20,18.8 L21.5,20.4 Z" stroke="#F27921" stroke-width="0.5"></path>
            </g>
        </g>
        <g id="icon/header/clipboard" transform="translate(18.000000, 115.000000)">
            <g>
                <path d="M17,4.4 L17,5 L17,20.3 C17,20.3 17.1,22 15.3,22 L2.3,22 C0.6,22 0.5,20.2 0.5,20.2 L0.5,5 C0.5,3.3 2.2,3.4 2.2,3.4 L5,3.4 L15.3,3.4 L16,3.4 C16.5522847,3.4 17,3.84771525 17,4.4 Z" id="Path" stroke="#F27921" stroke-width="0.5"></path>
                <rect id="Rectangle" fill="#FFFFFF" x="5.5" y="3" width="7" height="2"></rect>
                <path d="M9,2.6 C8.5,2.6 8.1,3 8.1,3.5 C8.1,4 8.5,4.4 9,4.4 C9.5,4.4 9.9,4 9.9,3.5 C9.9,3 9.4,2.6 9,2.6 Z" id="Path" stroke="#F27921" stroke-width="0.5"></path>
                <path d="M14.1,5.3 C14.6,5.3 15,5.7 15,6.2 L15,7.9 L2.9,7.9 L2.9,6.2 C2.9,5.7 3.3,5.3 3.8,5.3 L6.4,5.3 C6.4,5.3 6.4,4.1 6.4,2.7 C6.4,1.2 7.5,0 9,0 C10.5,0 11.6,1.3 11.6,2.7 C11.6,4.2 11.6,5.3 11.6,5.3 L14.1,5.3 Z" id="Path" stroke="#F27921" stroke-width="0.5"></path>
                <path d="M11.8,10.4 L7.1,15 L5.7,13.6 C5.4,13.3 4.9,13.3 4.6,13.6 L3.8,14.4 C3.5,14.7 3.5,15.2 3.8,15.5 L5.7,17.4 L6.6,18.2 C6.9,18.5 7.4,18.5 7.7,18.2 L8.5,17.4 L13.8,12.3 C14.1,12 14.1,11.5 13.8,11.2 L13,10.4 C12.6,10.1 12.1,10.1 11.8,10.4 Z" id="Path" fill="#F27921" fill-rule="nonzero"></path>
            </g>
        </g>
        <g id="icon/header/cart" transform="translate(15.000000, 300.000000)">
            <g>
                <rect id="Rectangle" fill="#F27921" fill-rule="nonzero" x="11.7" y="4.6" width="4.6" height="3"></rect>
                <rect id="Rectangle" fill="#F27921" fill-rule="nonzero" x="11.7" y="0" width="4.6" height="3"></rect>
                <rect id="Rectangle" fill="#F27921" fill-rule="nonzero" x="18.6" y="4.6" width="4.6" height="3"></rect>
                <g id="Group" transform="translate(0.000000, 0.600000)">
                    <path d="M20.4,20.1 C18.9,20.1 17.7,18.9 17.7,17.3 C17.7,15.8 18.9,14.5 20.4,14.5 C21.9,14.5 23.1,15.7 23.1,17.3 C23.2,18.8 21.9,20.1 20.4,20.1 L20.4,20.1 L20.4,20.1 Z" id="Path" fill="#F27921" fill-rule="nonzero"></path>
                    <path d="M11.2,20.1 C9.8,20.1 8.6,19 8.6,17.6 C8.6,16.2 9.8,15.1 11.2,15.1 C12.6,15.1 13.8,16.2 13.8,17.6 C13.8,19 12.7,20.1 11.2,20.1 L11.2,20.1 L11.2,20.1 Z" id="Path" fill="#F27921" fill-rule="nonzero"></path>
                    <polygon id="Path" stroke="#F27921" stroke-width="0.5" points="23.1 12.6 8.6 12.6 4.5 3.1 0.3 3.1 0.3 0.1 6.6 0.1 11.2 9.5 23.1 9.5"></polygon>
                </g>
            </g>
        </g>
        <g id="icon/header/recentOrders" transform="translate(15.000000, 70.000000)">
            <g id="Path">
                <path d="M20.5,20.1 C19,20.1 17.8,18.9 17.8,17.3 C17.8,15.8 19,14.5 20.5,14.5 C22,14.5 23.2,15.7 23.2,17.3 C23.2,18.8 22,20.1 20.5,20.1 L20.5,20.1 L20.5,20.1 Z" fill="#F27921" fill-rule="nonzero"></path>
                <path d="M11.3,20.1 C9.9,20.1 8.7,19 8.7,17.6 C8.7,16.2 9.9,15.1 11.3,15.1 C12.7,15.1 13.9,16.2 13.9,17.6 C13.9,19 12.7,20.1 11.3,20.1 L11.3,20.1 L11.3,20.1 Z" fill="#F27921" fill-rule="nonzero"></path>
                <polygon stroke="#F27921" stroke-width="0.5" points="23.2 12.6 8.7 12.6 4.5 3.1 0.4 3.1 0.4 0.1 6.7 0.1 11.2 9.5 23.2 9.5"></polygon>
            </g>
        </g>
        <g id="icon/header/lines" transform="translate(16.000000, 331.000000)" fill="#FFFFFF" stroke="#F27921">
            <g id="Rectangle">
                <rect stroke-width="0.5" fill-rule="nonzero" x="0" y="3.4" width="22.5" height="1.9"></rect>
                <rect stroke-width="0.5" fill-rule="nonzero" x="0" y="6.7" width="22.5" height="1.9"></rect>
                <rect stroke-width="0.5" fill-rule="nonzero" x="0" y="10.1" width="22.5" height="1.9"></rect>
                <rect stroke-width="0.5" fill-rule="nonzero" x="0" y="-1.13242749e-14" width="22.5" height="1.9"></rect>
            </g>
        </g>
        <g id="icon/header/info" transform="translate(16.000000, 1609.000000)">
            <g>
                <path d="M12.4,4.6 C11.7,4.6 11.1,5.1 11.1,5.9 C11.1,6.7 11.7,7.2 12.4,7.2 C13.1,7.2 13.7,6.7 13.7,5.9 C13.7,5.1 13.1,4.6 12.4,4.6 Z" id="Path" fill="#F27921" fill-rule="nonzero"></path>
                <path d="M8.3,10.2 C8.3,10.4 8.3,10.7 8.3,10.9 L9.4,9.6 C9.6,9.4 9.9,9.2 10,9.2 C10.1,9.2 10.2,9.4 10.2,9.6 L8.4,15.7 C8.2,16.4 8.6,17.1 9.6,17.3 C11,17.3 11.9,16.3 12.7,15.1 C12.7,14.9 12.8,14.6 12.7,14.3 L11.6,15.6 C11.4,15.8 11.1,16 11,16 C10.9,16 10.8,15.8 10.8,15.7 L12.6,9.6 C12.8,8.8 12.3,8.1 11.5,8 C10.5,8 9.2,9 8.3,10.2 Z" id="Path" fill="#F27921" fill-rule="nonzero"></path>
                <circle id="Oval" stroke="#F27921" stroke-width="0.5" cx="11" cy="11" r="11"></circle>
            </g>
        </g>
        <g id="icon/header/attachments" transform="translate(15.000000, 1747.000000)" stroke="#F27921">
            <g id="Path">
                <path d="M16.7992168,8.53263619 C16.7992168,8.53263619 17.6992168,7.83263619 16.9992168,7.13263619 C16.2992168,6.43263619 15.5992168,7.33263619 15.5992168,7.33263619 L10.1992168,12.7326362 C10.1992168,12.7326362 8.5992168,14.8326362 7.2992168,13.5326362 C6.0992168,12.2326362 8.0992168,10.6326362 8.0992168,10.6326362 L15.5992168,3.13263619 C15.5992168,3.13263619 17.6992168,0.832636195 19.6992168,2.83263619 C21.6992168,4.83263619 19.3992168,6.93263619 19.3992168,6.93263619 L9.1992168,17.1326362 C9.1992168,17.1326362 5.8992168,20.9326362 2.8992168,17.8326362 C-0.100783197,14.8326362 3.6992168,11.5326362 3.6992168,11.5326362 L11.4992168,3.73263619 C11.4992168,3.73263619 12.3992168,3.03263619 11.6992168,2.33263619 C11.0992168,1.73263619 10.2992168,2.53263619 10.2992168,2.53263619 L1.3992168,11.4326362 C1.3992168,11.4326362 -2.0007832,15.1326362 1.7992168,18.8326362 C5.4992168,22.5326362 9.1992168,19.2326362 9.1992168,19.2326362 L21.3992168,7.03263619 C21.3992168,7.03263619 23.8992168,4.33263619 20.8992168,1.43263619 C17.9992168,-1.46736381 15.2992168,0.932636195 15.2992168,0.932636195 L6.2992168,9.93263619 C6.2992168,9.93263619 3.5992168,12.1326362 6.0992168,14.5326362 C8.4992168,16.9326362 10.6992168,14.2326362 10.6992168,14.2326362 L16.7992168,8.53263619 Z" stroke-width="0.5"></path>
            </g>
        </g>
        <g id="icon/header/invoicing" transform="translate(15.000000, 1339.000000)">
            <g id="Path">
                <path d="M11.2,15.2 L22,15.2 C22.5,15.2 22.8,15.6 22.8,16 C22.8,16.5 22.4,16.8 22,16.8 L9.2,16.8 C10,16.4 10.6,15.8 11.2,15.2 Z" fill="#F27921" fill-rule="nonzero"></path>
                <path d="M12,11 C12,7.8 9.4,5.1 6.1,5.1 C2.8,5.1 0.2,7.7 0.2,11 C0.2,14.2 2.8,16.9 6.1,16.9 C9.4,16.9 12,14.2 12,11 Z" stroke="#F27921"></path>
                <path d="M22,1.8 L8.6,1.8 C8.1,1.8 7.8,1.4 7.8,1 C7.8,0.5 8.2,0.2 8.6,0.2 L22,0.2 C22.5,0.2 22.8,0.6 22.8,1 C22.8,1.4 22.4,1.8 22,1.8 Z" fill="#F27921" fill-rule="nonzero"></path>
                <path d="M22,6.8 L11.2,6.8 C10.7,6.1 10,5.6 9.2,5.1 L22,5.1 C22.5,5.1 22.8,5.5 22.8,5.9 C22.8,6.4 22.4,6.8 22,6.8 Z" fill="#F27921" fill-rule="nonzero"></path>
                <path d="M22,11.8 L12.6,11.8 C12.6,11.5 12.7,11.2 12.7,11 C12.7,10.7 12.7,10.4 12.6,10.2 L22,10.2 C22.5,10.2 22.8,10.6 22.8,11 C22.8,11.4 22.4,11.8 22,11.8 Z" fill="#F27921" fill-rule="nonzero"></path>
            </g>
        </g>
        <g id="icon/header/alerts" transform="translate(16.000000, 1655.000000)">
            <g id="Path">
                <path d="M19.1,15.7 C17.9,15.7 17.9,14.9 17.9,14.4 C17.9,9.5 16.4,5.3 13.4,3.8 C13.1,2.3 12,0.4 10.7,0.4 C9.4,0.4 8.3,2.3 8,3.8 C5,5.3 3.5,9.5 3.5,14.4 C3.5,14.8 3.5,15.7 2.3,15.7 L0.9,15.7 L0.9,18.5 L20.4,18.5 L20.4,15.7 L19.1,15.7 Z" stroke="#F27921" stroke-width="0.5"></path>
                <path d="M10.8,22.7 C12.3,22.7 13.6,21.5 13.6,19.9 L8,19.9 C8,21.4 9.2,22.7 10.8,22.7 Z" stroke="#FCE4D3" stroke-width="0.5" fill="#F27921" fill-rule="nonzero"></path>
            </g>
        </g>
        <g id="icon/header/pricing-and-terms" transform="translate(14.000000, 505.000000)">
            <g>
                <g id="Group" transform="translate(5.000000, 0.000000)" stroke="#F27921" stroke-width="0.5">
                    <path d="M17.1,6.5 L17.1,5.9 L17.1,20.8 C17.1,20.8 17.2,22.5 15.4,22.5 L2.6,22.5 C0.9,22.5 0.8,20.8 0.8,20.8 L0.8,1.9 C0.8,0.3 2.5,0.3 2.5,0.3 L11,0.3 L12.5,0.3" id="Path"></path>
                    <polygon id="Path" fill="#FCE4D3" fill-rule="nonzero" points="16.7 5.6 12.8 5.6 12.8 0.7 14.8 3.2"></polygon>
                </g>
                <path d="M12.6,19.1 C13,19.1 13.4,19.2 13.7,19 C14.5,18.6 14.7,17.3 15.6,16.8 C16,16.6 16.5,16.6 16.8,16.9 C17.2,17.2 17.4,17.7 17.6,18.2 C17.9,18.8 18.2,19.4 18.8,19.4 C19.1,19.4 19.4,19.2 19.4,18.9" id="Path" stroke="#F27921" stroke-width="0.5"></path>
                <path d="M12.7,18 L10,16.7 L11.8,15.1 L12.7,18 Z M3.4,9.2 L5.2,7.6 L11.4,14.6 L9.6,16.2 L3.4,9.2 L3.4,9.2 Z M3.8,5.4 C3.7,5.3 3.7,5.2 3.8,5.1 C3.9,5 4,5 4.1,5.1 L8.1,9.7 C8.2,9.8 8.2,9.9 8.1,10 C8,10.1 7.9,10.1 7.8,10 L5.2,7 L2.7,9.2 L1.8,8.1 L4.2,6 L3.8,5.4 Z M2.5,4.7 L3.6,5.9 L1.8,7.5 L0.7,6.3 C0.3,5.8 0.3,5.1 0.8,4.6 C1.3,4.1 2.1,4.2 2.5,4.7 Z" id="Shape" fill="#F27921" fill-rule="nonzero"></path>
            </g>
        </g>
        <g id="icon/header/documents" transform="translate(19.000000, 598.000000)" stroke="#F27921">
            <g id="Path">
                <path d="M14.6,21.9 L4.8,21.9 C4.8,21.9 3.1,21.8 3.1,20.3 L3.1,19.5 L12.9,19.5 C12.9,19.5 14.7,19.4 14.7,17.9 L14.7,7 L14.7,7 C14.7,7 16.4,7 16.4,8.6 L16.4,20.3 C16.3,20.3 16.3,21.9 14.6,21.9 Z" stroke-width="0.5" fill="#FFFFFF" fill-rule="nonzero"></path>
                <path d="M14.7,5.8 L14.7,5.3 L14.7,18.2 C14.7,18.2 14.8,19.7 13.2,19.7 L2.2,19.7 C0.7,19.7 0.7,18.2 0.7,18.2 L0.7,1.9 C0.7,0.5 2.2,0.5 2.2,0.5 L9.5,0.5 L10.8,0.5" stroke-width="0.5" fill="#FFFFFF" fill-rule="nonzero"></path>
                <polygon stroke-width="0.5" fill="#FCE4D3" fill-rule="nonzero" points="14.4 5 11 5 11 0.8 12.8 2.9"></polygon>
                <path d="M2.9,13.5 L11,13.5" stroke-width="0.5"></path>
                <path d="M2.9,6.9 L7.7,6.9" stroke-width="0.5"></path>
                <path d="M2.9,10.3 L11.4,10.3" stroke-width="0.5"></path>
                <path d="M2.8,16.6 L11,16.6" stroke-width="0.5"></path>
                <path d="M2.9,3.7 L7.7,3.7" stroke-width="0.5"></path>
            </g>
        </g>
        <g id="icon/header/with-status" transform="translate(15.000000, 458.000000)">
            <g>
                <circle id="Oval" stroke="#F27921" stroke-width="0.5" fill="#FFFFFF" fill-rule="nonzero" cx="11.7" cy="12.1" r="11.3"></circle>
                <path d="M10.7,17.2 C10.5,17.4 10.3,17.4 10.1,17.2 L10,17.1 L9.9,17 L9.3,16.4 L9.3,16.4 L6.5,13.6 C6.3,13.4 6.3,13.2 6.5,13 L7.4,12.1 C7.6,11.9 7.8,11.9 8,12.1 L10.5,14.6 L15.7,9.4 C15.9,9.2 16.1,9.2 16.3,9.4 L17.2,10.3 C17.4,10.5 17.4,10.7 17.2,10.9 L10.7,17.2 Z" id="Path" fill="#F27921" fill-rule="nonzero"></path>
            </g>
        </g>
        <g id="icon/header/credit_card" transform="translate(14.000000, 420.000000)">
            <g id="Path">
                <path d="M21.2,0.1 L3.2,0.1 C1.8,0.1 0.8,1.2 0.8,2.5 L0.8,3.3 L23.7,3.3 L23.7,2.5 C23.7,1.2 22.6,0.1 21.2,0.1 Z" stroke="#F27921" stroke-width="0.5" fill="#FFFFFF" fill-rule="nonzero"></path>
                <path d="M0.8,5.4 L0.8,11.9 C0.8,13.3 1.9,14.3 3.2,14.3 L21.2,14.3 C22.6,14.3 23.6,13.2 23.6,11.9 L23.6,5.4 L0.8,5.4 Z" stroke="#F27921" stroke-width="0.5" fill="#FFFFFF" fill-rule="nonzero"></path>
                <path d="M12.5,9.6 L3.1,9.6 C2.8,9.6 2.5,9.3 2.5,9 C2.5,8.7 2.8,8.4 3.1,8.4 L12.5,8.4 C12.8,8.4 13.1,8.7 13.1,9 C13.1,9.3 12.9,9.6 12.5,9.6 Z" stroke="#FFFFFF" stroke-width="0.25" fill="#F27921" fill-rule="nonzero"></path>
                <path d="M12.5,12.3 L9,12.3 C8.7,12.3 8.4,12 8.4,11.7 C8.4,11.4 8.7,11.1 9,11.1 L12.5,11.1 C12.8,11.1 13.1,11.4 13.1,11.7 C13.1,12 12.9,12.3 12.5,12.3 Z" stroke="#FFFFFF" stroke-width="0.25" fill="#F27921" fill-rule="nonzero"></path>
                <path d="M6.7,12.3 L3.2,12.3 C2.9,12.3 2.6,12 2.6,11.7 C2.6,11.4 2.9,11.1 3.2,11.1 L6.7,11.1 C7,11.1 7.3,11.4 7.3,11.7 C7.2,12 7,12.3 6.7,12.3 Z" stroke="#FFFFFF" stroke-width="0.25" fill="#F27921" fill-rule="nonzero"></path>
            </g>
        </g>
        <g id="icon/header/items" transform="translate(16.000000, 1707.000000)" fill="#F27921">
            <g id="Rectangle">
                <rect fill-rule="nonzero" x="0" y="11.3" width="1.6" height="1.7"></rect>
                <rect fill-rule="nonzero" x="0" y="6.1" width="1.6" height="1.7"></rect>
                <rect fill-rule="nonzero" x="0" y="0.9" width="1.6" height="1.7"></rect>
                <rect fill-rule="nonzero" x="4.7" y="11.3" width="17.4" height="1.7"></rect>
                <rect fill-rule="nonzero" x="4.7" y="6.1" width="17.4" height="1.7"></rect>
                <rect fill-rule="nonzero" x="4.7" y="1" width="17.4" height="1.7"></rect>
            </g>
        </g>
        <g id="icon/header/buyOnline" transform="translate(15.000000, 161.000000)">
            <g id="Path">
                <path d="M7.4,7.4 C7.2,7.6 7,7.6 6.8,7.4 L0.3,0.9 C0.1,0.7 0.1,0.5 0.3,0.3 C0.5,0.1 0.7,0.1 0.9,0.3 L7.4,6.8 C7.6,7 7.6,7.2 7.4,7.4 Z" fill="#F27921" fill-rule="nonzero"></path>
                <path d="M21.9,14.2 L14.2,21.9 C13.5,22.6 12.5,22.6 11.8,21.9 L2.3,12.4 L-2.52242671e-13,5.2 L1.8,3.5 L5.1,6.8 C5,7.4 5.2,8.1 5.7,8.6 C6.5,9.4 7.8,9.4 8.7,8.6 C9.5,7.8 9.5,6.4 8.7,5.6 C8.2,5.1 7.6,4.9 6.9,5 L3.6,1.7 L5.3,1.42108547e-14 L12.6,2.3 L22.1,11.8 C22.6,12.5 22.6,13.6 21.9,14.2 Z" stroke="#F27921" stroke-width="0.5"></path>
            </g>
        </g>
        <g id="icon/header/reportHeader" transform="translate(16.000000, 253.000000)" fill="#F27921">
            <g>
                <path d="M19.4,10.9 L9.9,10.9 L9.9,1.7 C4.6,1.7 0.4,6 0.4,11.2 C0.4,16.4 4.7,20.7 9.9,20.7 C15.1,20.7 19.4,16.4 19.4,11.2 C19.4,10.2 19.4,10.9 19.4,10.9 Z M20,11.2 C20,16.7 15.5,21.2 10,21.2 C4.5,21.2 9.23705556e-14,16.7 9.23705556e-14,11.2 C9.23705556e-14,5.7 4.5,1.2 10,1.2 C10.3,1.2 10.5,1.2 10.8,1.2 L10.8,10.1 L20,10.1 C19.9,10.5 20,10.9 20,11.2 Z M11.5,9.3 C11.5,9.3 11.6,-2.84217094e-14 11.5,-2.84217094e-14 C16.8,-2.84217094e-14 20.8,3.9 20.8,9.3 C20.7,9.4 11.5,9.3 11.5,9.3 Z" fill-rule="nonzero"></path>
            </g>
        </g>
        <g id="icon/header/address" transform="translate(19.000000, 367.000000)" stroke="#F27921">
            <g id="Path">
                <path d="M0.5,8.5 C0.5,10.4 2.8,14.4 2.8,14.4 L8.2,23.4 L13.3,14.4 C13.3,14.4 15.9,10.4 15.9,8.5 C15.9,4.3 12.4,0.8 8.2,0.8 C4,0.8 0.5,4.2 0.5,8.5 Z" stroke-width="0.5"></path>
                <path d="M3.7,7.9 C3.7,5.4 5.7,3.4 8.2,3.4 C10.7,3.4 12.7,5.4 12.7,7.9 C12.7,10.4 10.7,12.4 8.2,12.4 C5.7,12.4 3.7,10.4 3.7,7.9 Z"></path>
            </g>
        </g>
        <g id="icon/header/event-timeline" transform="translate(15.000000, 965.000000)">
            <g>
                <path d="M5.4,4.6 C4.6,4.6 3.9,3.9 3.9,3.1 L3.9,1.5 C3.9,0.7 4.6,-5.68434189e-14 5.4,-5.68434189e-14 C6.2,-5.68434189e-14 6.9,0.7 6.9,1.5 L6.9,3.1 C7,3.9 6.3,4.6 5.4,4.6 Z" id="Path" stroke="#EF7922" stroke-width="0.5"></path>
                <path d="M14.8,4.6 C14,4.6 13.3,3.9 13.3,3.1 L13.3,1.5 C13.3,0.7 14,-5.68434189e-14 14.8,-5.68434189e-14 C15.6,-5.68434189e-14 16.3,0.7 16.3,1.5 L16.3,3.1 C16.3,3.9 15.6,4.6 14.8,4.6 Z" id="Path" stroke="#EF7922" stroke-width="0.5"></path>
                <rect id="Rectangle" stroke="#EF7922" stroke-width="0.5" x="14.8" y="17" width="2.3" height="2.3"></rect>
                <rect id="Rectangle" stroke="#EF7922" stroke-width="0.5" x="14.8" y="13.1" width="2.3" height="2.3"></rect>
                <rect id="Rectangle" fill="#EF7922" fill-rule="nonzero" x="14.8" y="9.2" width="2.3" height="2.3"></rect>
                <rect id="Rectangle" fill="#EF7922" fill-rule="nonzero" x="10.9" y="17" width="2.3" height="2.3"></rect>
                <rect id="Rectangle" stroke="#EF7922" stroke-width="0.5" x="10.9" y="13.1" width="2.3" height="2.3"></rect>
                <rect id="Rectangle" stroke="#EF7922" stroke-width="0.5" x="10.9" y="9.2" width="2.3" height="2.3"></rect>
                <rect id="Rectangle" stroke="#EF7922" stroke-width="0.5" x="7" y="17" width="2.3" height="2.3"></rect>
                <rect id="Rectangle" fill="#EF7922" fill-rule="nonzero" x="7" y="13.1" width="2.3" height="2.3"></rect>
                <rect id="Rectangle" stroke="#EF7922" stroke-width="0.5" x="7" y="9.2" width="2.3" height="2.3"></rect>
                <rect id="Rectangle" stroke="#EF7922" stroke-width="0.5" x="3.1" y="17" width="2.3" height="2.3"></rect>
                <rect id="Rectangle" stroke="#EF7922" stroke-width="0.5" x="3.1" y="13.1" width="2.3" height="2.3"></rect>
                <rect id="Rectangle" stroke="#EF7922" stroke-width="0.5" x="3.1" y="9.2" width="2.3" height="2.3"></rect>
                <rect id="Rectangle" stroke="#EF7922" stroke-width="0.5" x="1.6" y="7.7" width="17.1" height="13.2"></rect>
                <path d="M18.7,22.5 L1.6,22.5 C0.7,22.5 -3.65929509e-13,21.8 -3.65929509e-13,20.9 L-3.65929509e-13,3.8 C-3.65929509e-13,2.9 0.7,2.2 1.6,2.2 L3.2,2.2 L3.2,3 C3.2,4.3 4.2,5.3 5.5,5.3 C6.8,5.3 7.8,4.3 7.8,3 L7.8,2.2 L12.5,2.2 L12.5,3 C12.5,4.3 13.5,5.3 14.8,5.3 C16.1,5.3 17.1,4.3 17.1,3 L17.1,2.2 L18.7,2.2 C19.6,2.2 20.3,2.9 20.3,3.8 L20.3,20.9 C20.2,21.8 19.5,22.5 18.7,22.5 Z" id="Path" stroke="#EF7922" stroke-width="0.5"></path>
            </g>
        </g>
        <g id="icon/header/history" transform="translate(16.000000, 1840.000000)" stroke="#F27921">
            <g>
                <path d="M11.1,1.1 C5.2,1.1 0.3,5.9 0.3,11.9 C0.3,17.9 5.1,22.7 11.1,22.7 C17.1,22.7 21.9,17.8 21.9,11.9 C21.9,6 17.1,1.1 11.1,1.1 Z M11.1,23 C5,23 0,18 0,11.9 C0,5.8 5,0.8 11.1,0.8 C17.2,0.8 22.2,5.8 22.2,11.9 C22.2,18 17.2,23 11.1,23 Z" id="Shape" stroke-width="0.5" fill="#FCE4D3" fill-rule="nonzero"></path>
                <path d="M11.2,6.5 L11.2,13.5" id="Path" stroke-width="2" stroke-linecap="round"></path>
                <path d="M17.2,13 L11.7,13" id="Path" stroke-width="2" stroke-linecap="round"></path>
            </g>
        </g>
        <g id="icon/header/documents" transform="translate(15.000000, 1378.000000)" stroke="#F27921">
            <g>
                <path d="M15.3,22.9 L5.1,22.9 C5.1,22.9 3.3,22.8 3.3,21.2 L3.3,20.3 L13.4,20.3 C13.4,20.3 15.3,20.2 15.3,18.7 L15.3,7.4 L15.3,7.4 C15.3,7.4 17.1,7.4 17.1,9 L17.1,21.1 C17.1,21.3 17.1,22.9 15.3,22.9 Z" id="Path" stroke-width="0.5" fill="#FFFFFF" fill-rule="nonzero"></path>
                <g id="Group" fill-rule="nonzero" stroke-width="0.5">
                    <path d="M15.4,6.2 L15.4,5.7 L15.4,19.1 C15.4,19.1 15.5,20.6 13.9,20.6 L2.5,20.6 C1,20.6 0.9,19.1 0.9,19.1 L0.9,2.1 C0.9,0.6 2.4,0.7 2.4,0.7 L10,0.7 L11.4,0.7" id="Path" fill="#FFFFFF"></path>
                    <polygon id="Path" fill="#FCE4D3" points="15.1 5.4 11.6 5.4 11.6 1.1 13.4 3.3"></polygon>
                </g>
                <path d="M3.2,14.2 L11.6,14.2" id="Path" stroke-width="0.5"></path>
                <path d="M3.2,7.4 L8.2,7.4" id="Path" stroke-width="0.5"></path>
                <path d="M3.2,10.9 L12,10.9" id="Path" stroke-width="0.5"></path>
                <path d="M3.1,17.5 L11.6,17.5" id="Path" stroke-width="0.5"></path>
                <path d="M3.2,4.1 L8.2,4.1" id="Path" stroke-width="0.5"></path>
            </g>
        </g>
        <g id="icon/header/requisitions" transform="translate(16.000000, 1473.000000)">
            <g id="Path">
                <path d="M20,20 C18.5,20 17.3,18.8 17.3,17.2 C17.3,15.7 18.5,14.4 20,14.4 C21.5,14.4 22.7,15.6 22.7,17.2 C22.8,18.8 21.5,20 20,20 L20,20 L20,20 Z" fill="#F27921" fill-rule="nonzero"></path>
                <path d="M10.9,20 C9.5,20 8.3,18.9 8.3,17.5 C8.3,16.1 9.5,15 10.9,15 C12.3,15 13.5,16.1 13.5,17.5 C13.4,18.9 12.3,20 10.9,20 L10.9,20 L10.9,20 Z" fill="#F27921" fill-rule="nonzero"></path>
                <polygon stroke="#F27921" stroke-width="0.5" points="22.7 12.5 8.2 12.5 4.1 3 -8.8817842e-14 3 -8.8817842e-14 0 6.3 0 10.8 9.5 22.7 9.5"></polygon>
            </g>
        </g>
        <g id="icon/header/terms-and-conditions" transform="translate(15.000000, 1517.000000)">
            <g>
                <g id="Group" transform="translate(5.000000, 0.000000)" stroke="#F27921" stroke-width="0.5">
                    <path d="M17.2,6.9 L17.2,6.3 L17.2,21.2 C17.2,21.2 17.3,22.9 15.5,22.9 L2.7,22.9 C1,22.9 0.9,21.2 0.9,21.2 L0.9,2.3 C0.9,0.7 2.6,0.7 2.6,0.7 L11.1,0.7 L12.6,0.7" id="Path"></path>
                    <polygon id="Path" fill="#FCE4D3" fill-rule="nonzero" points="16.8 6 12.9 6 12.9 1.1 14.9 3.6"></polygon>
                </g>
                <path d="M12.7,19.5 C13.1,19.5 13.5,19.6 13.8,19.4 C14.6,19 14.8,17.7 15.7,17.2 C16.1,17 16.6,17 16.9,17.3 C17.3,17.6 17.5,18.1 17.7,18.6 C18,19.2 18.3,19.8 18.9,19.8 C19.2,19.8 19.5,19.6 19.5,19.3" id="Path" stroke="#F27921" stroke-width="0.5"></path>
                <path d="M12.8,18.4 L10.1,17.1 L11.9,15.5 L12.8,18.4 Z M3.5,9.6 L5.3,8 L11.5,15 L9.7,16.6 L3.5,9.6 L3.5,9.6 Z M3.9,5.8 C3.8,5.7 3.8,5.6 3.9,5.5 C4,5.4 4.1,5.4 4.2,5.5 L8.2,10.1 C8.3,10.2 8.3,10.3 8.2,10.4 C8.1,10.5 8,10.5 7.9,10.4 L5.3,7.4 L2.8,9.6 L1.9,8.5 L4.4,6.3 L3.9,5.8 Z M2.6,5.1 L3.7,6.3 L1.9,7.9 L0.8,6.7 C0.4,6.2 0.4,5.5 0.9,5 C1.4,4.6 2.2,4.6 2.6,5.1 Z" id="Shape" fill="#F27921" fill-rule="nonzero"></path>
            </g>
        </g>
        <g id="icon/header/event-questionnaires" transform="translate(17.000000, 1794.000000)">
            <g id="Group">
                <g stroke="#F27921" stroke-width="0.5">
                    <path d="M16.9,6.4 L16.9,5.8 L16.9,21.2 C16.9,21.2 17,23 15.2,23 L2,23 C0.2,23 0.2,21.2 0.2,21.2 L0.2,1.7 C0.2,2.27359798e-13 2,0.1 2,0.1 L10.8,0.1 L12.4,0.1" id="Path"></path>
                    <polygon id="Path" fill="#FCE4D3" fill-rule="nonzero" points="16.6 5.4 12.6 5.4 12.5 0.4 14.6 3"></polygon>
                </g>
                <g transform="translate(3.000000, 9.000000)" fill="#F27921" fill-rule="nonzero">
                    <rect id="Rectangle" x="0.2" y="8.5" width="1" height="1"></rect>
                    <rect id="Rectangle" x="0.2" y="4.6" width="1" height="1"></rect>
                    <rect id="Rectangle" x="0.2" y="0.7" width="1" height="1"></rect>
                    <rect id="Rectangle" x="2.7" y="8.5" width="9.3" height="1"></rect>
                    <rect id="Rectangle" x="2.7" y="4.6" width="9.3" height="1"></rect>
                    <rect id="Rectangle" x="2.7" y="0.7" width="9.3" height="1"></rect>
                </g>
            </g>
        </g>
        <g id="icon/header/compare" transform="translate(15.000000, 1566.000000)">
            <g>
                <g id="Group">
                    <g transform="translate(0.000000, 2.000000)" id="Path" stroke="#F27921">
                        <path d="M23.3,12.2 L17.8,8.5 L17.8,10.8 L13.9,10.8 L11.5,7.8 L9.7,10 L12.2,13 C12.5,13.3 12.9,13.5 13.3,13.5 L17.9,13.5 L17.9,15.8 L23.3,12.2 Z"></path>
                        <path d="M0.3,3.5 L4.2,3.5 L6.6,6.5 L8.4,4.3 L5.9,1.3 C5.6,1 5.2,0.8 4.8,0.8 L0.2,0.8"></path>
                    </g>
                    <path d="M0.3,15.6 L4.9,15.6 C5.3,15.6 5.7,15.4 6,15.1 L13.9,5.5 L17.8,5.5 L17.8,7.8 L23.3,4.1 L17.8,0.4 L17.8,2.7 L13.2,2.7 C12.8,2.7 12.4,2.9 12.1,3.2 L4.2,12.8 L0.3,12.8" id="Path" fill="#F27921" fill-rule="nonzero"></path>
                </g>
                <path d="M0.7,2.4 L0.7,5.9" id="Path" stroke="#F27921"></path>
            </g>
        </g>
        <g id="icon/header/approval-" transform="translate(15.000000, 209.000000)">
            <g>
                <g id="Group" transform="translate(0.000000, 14.000000)">
                    <path d="M0.2,3 L20.2,3" id="Path" stroke="#F27921"></path>
                    <polygon id="Path" fill="#F27921" fill-rule="nonzero" points="19.2 5.5 23.5 3 19.2 0.5"></polygon>
                </g>
                <path d="M18.7,1.1 L8.4,11.2 L5.3,8.2 C4.6,7.5 3.5,7.5 2.9,8.2 L1.1,10 C0.4,10.7 0.4,11.7 1.1,12.4 L5.3,16.5 L7.2,18.3 C7.9,19 9,19 9.6,18.3 L11.4,16.5 L23,5.2 C23.7,4.5 23.7,3.5 23,2.8 L21.2,1 C20.5,0.4 19.4,0.4 18.7,1.1 Z" id="Path" stroke="#F27921" stroke-width="0.5" fill="#FFFFFF" fill-rule="nonzero"></path>
            </g>
        </g>
        <g id="icon/header/contract-details" transform="translate(15.000000, 552.000000)" stroke="#F27921">
            <g>
                <g id="Group" stroke-width="0.5">
                    <path d="M16.1,5.9 L16.1,5.4 L16.1,19.3 C16.1,19.3 16.2,20.9 14.5,20.9 L2.6,20.9 C1,20.9 0.9,19.3 0.9,19.3 L0.9,1.6 C0.9,0.1 2.5,0.1 2.5,0.1 L10.5,0.1 L11.9,0.1" id="Path"></path>
                    <polygon id="Path" fill="#FCE4D3" fill-rule="nonzero" points="15.8 5.1 12.1 5.1 12.1 0.5 14 2.9"></polygon>
                </g>
                <path d="M3,13.2 L8.5,13.2" id="Path" stroke-width="0.5"></path>
                <path d="M3,6.5 L7.8,6.5" id="Path" stroke-width="0.5"></path>
                <path d="M3,9.4 L8.9,9.4" id="Path" stroke-width="0.5"></path>
                <path d="M8.8,10.4 L13.7,10.4" id="Path" stroke-width="2"></path>
                <path d="M8.8,14.6 L13.7,14.6" id="Path" stroke-width="2"></path>
                <path d="M2.9,16.1 L9.5,16.1" id="Path" stroke-width="0.5"></path>
                <path d="M13.8,18.3 C10.8,18.3 8.3,15.8 8.3,12.8 C8.3,9.8 10.8,7.3 13.8,7.3 C16.8,7.3 19.3,9.8 19.3,12.8 C19.3,15.8 16.8,18.3 13.8,18.3 Z M22.6,19.8 L19,16.2 L18.9,16.1 C19.5,15.2 19.9,14 19.9,12.8 C19.9,9.5 17.2,6.8 13.9,6.8 C10.6,6.8 7.9,9.5 7.9,12.8 C7.9,16.1 10.6,18.8 13.9,18.8 C15.1,18.8 16.2,18.4 17.2,17.8 L17.3,17.9 L20.9,21.5 C21.1,21.7 21.5,21.9 21.8,21.9 C22.1,21.9 22.4,21.8 22.7,21.5 C23.1,21.1 23.1,20.3 22.6,19.8 Z" id="Shape" stroke-width="0.5"></path>
            </g>
        </g>
        <g id="icon/header/financials" transform="translate(15.000000, 690.000000)" stroke="#F27921">
            <g>
                <g id="Group" stroke-width="0.5">
                    <path d="M15.9,5.8 L15.9,5.3 L15.9,19.2 C15.9,19.2 16,20.8 14.3,20.8 L2.3,20.8 C0.7,20.8 0.6,19.2 0.6,19.2 L0.6,1.5 C0.6,-1.13686838e-13 2.2,-1.13686838e-13 2.2,-1.13686838e-13 L10.2,-1.13686838e-13 L11.6,-1.13686838e-13" id="Path"></path>
                    <polygon id="Path" fill="#FCE4D3" fill-rule="nonzero" points="15.6 4.9 11.9 4.9 11.9 0.4 13.8 2.7"></polygon>
                </g>
                <path d="M2.8,12.8 L8.2,12.8" id="Path" stroke-width="0.5"></path>
                <path d="M2.8,6.5 L7.6,6.5" id="Path" stroke-width="0.5"></path>
                <path d="M2.8,9.6 L8.7,9.6" id="Path" stroke-width="0.5"></path>
                <path d="M8.6,10.2 L13.5,10.2" id="Path" stroke-width="2"></path>
                <path d="M8.6,14.5 L13.5,14.5" id="Path" stroke-width="2"></path>
                <path d="M2.6,15.9 L9.2,15.9" id="Path" stroke-width="0.5"></path>
                <path d="M13.6,18.1 C10.6,18.1 8.1,15.6 8.1,12.6 C8.1,9.6 10.6,7.1 13.6,7.1 C16.6,7.1 19.1,9.6 19.1,12.6 C19.1,15.7 16.6,18.1 13.6,18.1 Z M22.4,19.7 L18.8,16.1 L18.7,16 C19.3,15.1 19.7,13.9 19.7,12.7 C19.7,9.4 17,6.7 13.7,6.7 C10.4,6.7 7.7,9.4 7.7,12.7 C7.7,16 10.4,18.7 13.7,18.7 C14.9,18.7 16,18.3 17,17.7 L17.1,17.8 L20.7,21.4 C20.9,21.6 21.3,21.8 21.6,21.8 C21.9,21.8 22.2,21.7 22.5,21.4 C22.9,20.9 22.9,20.1 22.4,19.7 Z" id="Shape" stroke-width="0.5"></path>
                <path d="M2.8,3.3 L7.6,3.3" id="Path" stroke-width="0.5"></path>
            </g>
        </g>
        <g id="icon/header/score-weights" transform="translate(15.000000, 736.000000)">
            <g>
                <path d="M7,9.7 C7,12.8 5.4,14.3 3.5,14.3 C1.7,14.3 0.1,12.8 0.1,9.9 C0.1,7 1.7,5.3 3.7,5.3 C5.7,5.3 7,6.9 7,9.7 Z M1.6,9.8 C1.6,11.7 2.3,13.1 3.5,13.1 C4.8,13.1 5.4,11.7 5.4,9.8 C5.4,8 4.9,6.5 3.5,6.5 C2.3,6.5 1.6,8 1.6,9.8 Z M3.4,20.5 L12,5.3 L13.3,5.3 L4.7,20.5 L3.4,20.5 Z M16.6,15.8 C16.6,18.9 15,20.4 13.1,20.4 C11.3,20.4 9.7,18.9 9.7,16 C9.7,13 11.3,11.4 13.3,11.4 C15.3,11.4 16.6,13 16.6,15.8 Z M11.2,15.9 C11.2,17.8 11.9,19.2 13.1,19.2 C14.4,19.2 15,17.8 15,15.9 C15,14.1 14.5,12.6 13.1,12.6 C11.9,12.6 11.2,14.1 11.2,15.9 Z" id="Shape" stroke="#F27921" stroke-width="0.5"></path>
                <path d="M15.5,4.8 C15.5,4.8 14.8,4.9 15.2,4.5 L18.6,1.1 C18.6,1.1 18.8,0.8 19,1.1 L22.4,4.5 C22.4,4.5 22.8,4.8 22.1,4.8 L20.5,4.8 L20.5,9 C20.5,9.6 19.8,9.6 19.8,9.6 L18.1,9.6 C17.4,9.6 17.4,8.9 17.4,8.9 L17.4,4.8 L15.5,4.8 Z" id="Path" fill="#F27921" fill-rule="nonzero"></path>
            </g>
        </g>
        <g id="icon/header/content-groups" transform="translate(15.000000, 782.000000)">
            <g transform="translate(0.000000, 0.000000)">
                <path d="M9.6,18.4096382 L9.6,18.4096382 C9.3,18.5096382 9.2,18.5096382 9.2,18.5096382 C9.1,18.5096382 9,18.4096382 8.9,18.4096382 L8.4,18.2096382 L7.9,18.0096382 L7.3,17.8096382 L6.8,17.6096382 L6.3,17.4096382 L6.3,16.6096382 C6.3,16.6096382 6.3,16.5096382 6.3,16.4096382 L6.4,16.2096382 L6.5,15.9096382 C6.6,15.7096382 6.7,15.4096382 6.8,15.1096382 C6.9,14.8096382 6.9,14.5096382 6.9,14.2096382 C6.9,13.8096382 6.9,13.4096382 6.8,13.1096382 C6.7,12.8096382 6.6,12.6096382 6.4,12.4096382 C6.2,12.2096382 6.1,12.1096382 5.8,12.0096382 C5.6,11.9096382 5.4,11.9096382 5.1,11.9096382 C4.9,11.9096382 4.6,11.9096382 4.4,12.0096382 C4.2,12.1096382 4,12.2096382 3.9,12.4096382 C3.7,12.6096382 3.6,12.8096382 3.5,13.1096382 C3.4,13.4096382 3.4,13.8096382 3.4,14.2096382 C3.4,14.5096382 3.4,14.8096382 3.5,15.1096382 C3.6,15.4096382 3.7,15.6096382 3.8,15.9096382 C3.8,16.0096382 3.9,16.1096382 3.9,16.2096382 L4,16.4096382 L4,16.6096382 L4,17.3096382 L3.5,17.5096382 L2.9,17.7096382 L2.3,17.9096382 L1.7,18.1096382 C1.5,18.2096382 1.4,18.2096382 1.2,18.3096382 C1.1,18.4096382 0.9,18.4096382 0.9,18.4096382 C0.7,18.5096382 0.6,18.6096382 0.5,18.7096382 C0.4,18.8096382 0.3,19.0096382 0.2,19.1096382 C0.1,19.3096382 0.1,19.4096382 -2.70894418e-13,19.6096382 L-2.70894418e-13,21.8096382 L7,21.8096382" id="Path" fill="#F27921" fill-rule="nonzero"></path>
                <path d="M14.3,21.9096382 L18,17.4096382 L18,15.1096382 C16.3,17.3096382 14.3,17.6096382 14.3,17.6096382 C14.3,17.6096382 12.3,17.3096382 10.6,15.0096382 L10.6,17.3096382 L14.3,21.9096382 Z" id="Path" stroke="#EF7922" stroke-width="0.5" fill="#FFFFFF" fill-rule="nonzero"></path>
                <ellipse id="Oval" stroke="#EF7922" stroke-width="0.5" fill="#FFFFFF" fill-rule="nonzero" transform="translate(8.699310, 10.387318) rotate(-12.005516) translate(-8.699310, -10.387318) " cx="8.69931" cy="10.3873182" rx="1" ry="1.79994925"></ellipse>
                <ellipse id="Oval" stroke="#EF7922" stroke-width="0.5" fill="#FFFFFF" fill-rule="nonzero" transform="translate(20.109710, 10.367558) rotate(-78.001279) translate(-20.109710, -10.367558) " cx="20.10971" cy="10.3675582" rx="1.80008788" ry="1"></ellipse>
                <path d="M14.3,1.40963816 C7.4,1.40963816 8.4,8.00963816 8.4,8.00963816 C8.8,16.9096382 14.3,17.8096382 14.3,17.8096382 C14.3,17.8096382 19.8,17.0096382 20.2,8.00963816 C20.2,7.90963816 21.2,1.40963816 14.3,1.40963816 Z" id="Path" stroke="#EF7922" stroke-width="0.5" fill="#FFFFFF" fill-rule="nonzero"></path>
                <path d="M19.1,3.30963816 C19.6,2.80963816 18.7,2.20963816 18.7,2.20963816 C17.9,2.00963816 18.4,2.20963816 18.4,2.20963816 L18.4,1.90963816 L18.2,2.00963816 C18.1,1.60963816 17.7,1.10963816 17.7,1.10963816 C17,0.90963816 17.7,1.10963816 17,1.10963816 C16.8,0.60963816 16.3,0.30963816 16.3,0.30963816 C15.8,0.20963816 15.4,-0.19036184 14.3,0.10963816 C13.3,0.10963816 13.2,0.30963816 13.2,0.30963816 C11.1,0.90963816 11.1,0.80963816 10,1.60963816 C9.2,2.10963816 8.9,2.60963816 8.9,2.60963816 C8.5,3.10963816 8.4,3.90963816 8.5,5.20963816 C8.2,6.60963816 8.4,7.70963816 8.4,7.70963816 C8.4,8.30963816 8.5,8.80963816 8.5,9.30963816 L9.5,9.30963816 C8.6,6.00963816 10.2,4.00963816 10.2,4.00963816 C11.1,5.40963816 14.3,5.40963816 14.3,5.40963816 C14.3,5.40963816 17.4,5.40963816 18.4,4.00963816 C18.4,4.00963816 20,6.10963816 19.1,9.30963816 L20.1,9.30963816 C20.2,8.80963816 20.2,8.30963816 20.3,7.70963816 C20.2,7.90963816 20.6,5.20963816 19.1,3.30963816 L19.1,3.30963816 Z" id="Path" fill="#EF7922" fill-rule="nonzero"></path>
                <path d="M19.7,8.80963816 C17.1,8.40963816 16.1,8.60963816 16.1,8.60963816 C14.8,9.00963816 14.3,8.90963816 14.3,8.90963816 C14.3,8.90963816 13.8,9.00963816 12.5,8.60963816 C12.5,8.60963816 11.5,8.30963816 8.9,8.70963816 L8.9,8.70963816 L8.3,8.80963816 C8.3,8.90963816 8.3,9.00963816 8.3,9.00963816 C8.3,9.10963816 8.3,9.20963816 8.3,9.30963816 L8.8,9.40963816 C8.8,9.40963816 9.1,9.50963816 9.1,9.70963816 C9.1,10.3096382 9.2,11.1096382 9.6,11.5096382 C10.3,12.3096382 11.7,12.2096382 12.6,11.8096382 C12.6,11.8096382 13.5,11.3096382 13.8,10.0096382 C13.8,10.0096382 13.9,9.60963816 14.2,9.60963816 C14.6,9.60963816 14.6,10.0096382 14.6,10.0096382 C14.9,11.3096382 15.8,11.8096382 15.8,11.8096382 C16.6,12.2096382 18.1,12.3096382 18.8,11.5096382 C19.2,11.0096382 19.3,10.2096382 19.3,9.70963816 C19.3,9.50963816 19.6,9.40963816 19.6,9.40963816 L20.1,9.30963816 C20.1,9.20963816 20.1,9.10963816 20.1,8.90963816 C20.1,8.90963816 20.1,8.80963816 20.1,8.60963816 L19.7,8.80963816 Z M12.9,11.3096382 C12.9,11.3096382 12.5,11.8096382 11.6,12.0096382 C11.6,12.0096382 10.4,12.2096382 9.9,11.4096382 C9.9,11.4096382 9.4,10.5096382 9.8,9.30963816 C9.8,9.30963816 9.9,8.90963816 11.6,8.80963816 C11.6,8.80963816 13.3,8.80963816 13.4,9.60963816 C13.4,9.60963816 13.5,10.4096382 12.9,11.3096382 Z M18.6,11.3096382 C18.1,12.1096382 16.9,11.9096382 16.9,11.9096382 C15.9,11.8096382 15.6,11.2096382 15.6,11.2096382 C15,10.3096382 15.1,9.50963816 15.1,9.50963816 C15.2,8.80963816 16.9,8.70963816 16.9,8.70963816 C18.6,8.70963816 18.7,9.20963816 18.7,9.20963816 C19.1,10.4096382 18.6,11.3096382 18.6,11.3096382 Z" id="Shape" fill="#EF7922" fill-rule="nonzero"></path>
                <path d="M10.6,17.3096382 L6.9,21.7096382" id="Path" stroke="#F27921" stroke-width="0.5"></path>
                <path d="M18,17.3096382 L23,22.0096382" id="Path" stroke="#F27921" stroke-width="0.5"></path>
            </g>
        </g>
        <g id="icon/header/supplier" transform="translate(14.000000, 827.000000)">
            <g>
                <path d="M7.49953677,22.9096382 L11.2995368,17.8096382 L11.2995368,15.5096382 C9.59953677,17.8096382 7.49953677,18.1096382 7.49953677,18.1096382 C7.49953677,18.1096382 5.39953677,17.8096382 3.69953677,15.5096382 L3.69953677,17.9096382 L7.49953677,22.9096382 Z" id="Path" stroke="#EF7922" stroke-width="0.5" fill="#FFFFFF" fill-rule="nonzero"></path>
                <ellipse id="Oval" stroke="#EF7922" stroke-width="0.5" fill="#FFFFFF" fill-rule="nonzero" transform="translate(1.800027, 10.737728) rotate(-12.104361) translate(-1.800027, -10.737728) " cx="1.80002677" cy="10.7377282" rx="1" ry="1.80006024"></ellipse>
                <ellipse id="Oval" stroke="#EF7922" stroke-width="0.5" fill="#FFFFFF" fill-rule="nonzero" transform="translate(13.386957, 10.795878) rotate(-77.901241) translate(-13.386957, -10.795878) " cx="13.3869568" cy="10.7958782" rx="1.8000225" ry="1"></ellipse>
                <path d="M7.49953677,1.40963816 C0.499536772,1.40963816 1.49953677,8.20963816 1.49953677,8.20963816 C1.89953677,17.4096382 7.49953677,18.2096382 7.49953677,18.2096382 C7.49953677,18.2096382 13.0995368,17.3096382 13.4995368,8.20963816 C13.4995368,8.10963816 14.5995368,1.40963816 7.49953677,1.40963816 Z" id="Path" stroke="#EF7922" stroke-width="0.5" fill="#FFFFFF" fill-rule="nonzero"></path>
                <path d="M12.3995368,3.30963816 C12.9995368,2.80963816 11.9995368,2.20963816 11.9995368,2.20963816 C11.0995368,2.00963816 11.6995368,2.20963816 11.6995368,2.20963816 L11.6995368,1.90963816 L11.4995368,2.00963816 C11.3995368,1.60963816 10.9995368,1.10963816 10.9995368,1.10963816 C10.2995368,0.90963816 10.9995368,1.10963816 10.2995368,1.10963816 C10.0995368,0.60963816 9.59953677,0.30963816 9.59953677,0.30963816 C8.99953677,0.20963816 8.69953677,-0.19036184 7.59953677,0.10963816 C6.59953677,0.10963816 6.49953677,0.30963816 6.49953677,0.30963816 C4.29953677,0.90963816 4.29953677,0.80963816 3.19953677,1.60963816 C2.39953677,2.10963816 2.09953677,2.60963816 2.09953677,2.60963816 C1.69953677,3.10963816 1.59953677,4.00963816 1.69953677,5.30963816 C1.39953677,6.70963816 1.59953677,7.90963816 1.59953677,7.90963816 C1.59953677,8.50963816 1.69953677,9.00963816 1.69953677,9.50963816 L2.69953677,9.50963816 C1.79953677,6.20963816 3.39953677,4.00963816 3.39953677,4.00963816 C4.39953677,5.40963816 7.59953677,5.40963816 7.59953677,5.40963816 C7.59953677,5.40963816 10.7995368,5.40963816 11.7995368,4.00963816 C11.7995368,4.00963816 13.3995368,6.10963816 12.4995368,9.50963816 L13.4995368,9.50963816 C13.5995368,9.00963816 13.5995368,8.50963816 13.6995368,7.90963816 C13.4995368,8.10963816 13.8995368,5.30963816 12.3995368,3.30963816 L12.3995368,3.30963816 Z" id="Path" fill="#EF7922" fill-rule="nonzero"></path>
                <path d="M12.9995368,9.00963816 C10.3995368,8.60963816 9.29953677,8.80963816 9.29953677,8.80963816 C7.99953677,9.20963816 7.49953677,9.10963816 7.49953677,9.10963816 C7.49953677,9.10963816 6.99953677,9.20963816 5.69953677,8.80963816 C5.69953677,8.80963816 4.69953677,8.50963816 2.09953677,8.90963816 L2.09953677,8.90963816 L1.49953677,9.00963816 C1.49953677,9.10963816 1.49953677,9.20963816 1.49953677,9.20963816 C1.49953677,9.30963816 1.49953677,9.40963816 1.49953677,9.50963816 L1.99953677,9.60963816 C1.99953677,9.60963816 2.29953677,9.70963816 2.29953677,9.90963816 C2.29953677,10.5096382 2.39953677,11.3096382 2.79953677,11.8096382 C3.49953677,12.6096382 4.99953677,12.5096382 5.79953677,12.1096382 C5.79953677,12.1096382 6.69953677,11.6096382 6.99953677,10.3096382 C6.99953677,10.3096382 7.09953677,9.80963816 7.39953677,9.80963816 C7.79953677,9.80963816 7.79953677,10.3096382 7.79953677,10.3096382 C8.09953677,11.7096382 8.99953677,12.1096382 8.99953677,12.1096382 C9.79953677,12.5096382 11.2995368,12.6096382 11.9995368,11.8096382 C12.3995368,11.3096382 12.4995368,10.5096382 12.4995368,9.90963816 C12.4995368,9.70963816 12.7995368,9.60963816 12.7995368,9.60963816 L13.2995368,9.50963816 C13.2995368,9.40963816 13.2995368,9.30963816 13.2995368,9.10963816 C13.2995368,9.10963816 13.2995368,9.00963816 13.2995368,8.80963816 L12.9995368,9.00963816 Z M6.09953677,11.5096382 C6.09953677,11.5096382 5.69953677,12.1096382 4.69953677,12.2096382 C4.69953677,12.2096382 3.49953677,12.4096382 2.99953677,11.6096382 C2.99953677,11.6096382 2.49953677,10.6096382 2.89953677,9.50963816 C2.89953677,9.50963816 2.99953677,9.10963816 4.69953677,9.00963816 C4.69953677,9.00963816 6.39953677,9.00963816 6.49953677,9.80963816 C6.59953677,9.80963816 6.79953677,10.6096382 6.09953677,11.5096382 Z M11.8995368,11.6096382 C11.3995368,12.4096382 10.1995368,12.2096382 10.1995368,12.2096382 C9.19953677,12.1096382 8.79953677,11.5096382 8.79953677,11.5096382 C8.19953677,10.6096382 8.29953677,9.80963816 8.29953677,9.80963816 C8.39953677,9.10963816 10.0995368,9.00963816 10.0995368,9.00963816 C11.7995368,9.00963816 11.8995368,9.50963816 11.8995368,9.50963816 C12.4995368,10.6096382 11.8995368,11.6096382 11.8995368,11.6096382 Z" id="Shape" fill="#EF7922" fill-rule="nonzero"></path>
            </g>
        </g>
        <g id="icon/header/cxml" transform="translate(15.000000, 873.000000)">
            <g>
                <path d="M17.3,6.8 L17.3,6.2 L17.3,21.4 C17.3,21.4 17.4,23.1 15.6,23.1 L2.6,23.1 C0.9,23.1 0.8,21.3 0.8,21.3 L0.8,2 C0.8,0.3 2.5,0.4 2.5,0.4 L11.2,0.4 L12.8,0.4" id="Path" stroke="#F27921" stroke-width="0.5"></path>
                <g id="Group" transform="translate(2.000000, 10.000000)" fill="#F27921" fill-rule="nonzero">
                    <polygon id="Path" points="5.3 6.4 7.8 0 8.4 0 5.9 6.4"></polygon>
                    <polygon id="Path" points="9.6 5.1 12.8 3.2 12.8 3.2 9.7 1.2 9.7 0.4 13.4 2.9 13.4 3.6 9.6 6"></polygon>
                    <polygon id="Path" points="4.3 6 0.7 3.5 0.7 2.8 4.5 0.5 4.5 1.3 1.3 3.1 1.3 3.1 4.4 5.2"></polygon>
                </g>
                <polygon id="Path" stroke="#F27921" stroke-width="0.5" fill="#FCE4D3" fill-rule="nonzero" points="17 5.8 13 5.8 12.9 0.9 15 3.4"></polygon>
            </g>
        </g>
        <g id="icon/header/po-transmission" transform="translate(16.000000, 919.000000)" stroke="#F27921">
            <g>
                <path d="M21.4,9.4 L20.4,9.4 C19.9,9.4 19.4,9 19.3,8.6 L18.7,7.2 C18.5,6.8 18.6,6.2 18.9,5.8 L19.6,5.1 C19.9,4.8 19.9,4.2 19.6,3.9 L18.4,2.7 C18.1,2.4 17.5,2.4 17.2,2.7 L16.5,3.4 C16.2,3.7 15.5,3.8 15.1,3.6 L13.7,3 C13.2,2.9 12.9,2.4 12.9,1.9 L12.9,0.9 C12.9,0.4 12.5,0 12,0 L10.3,0 C9.8,0 9.4,0.4 9.4,0.9 L9.4,1.9 C9.4,2.4 9,2.9 8.6,3 L7.2,3.6 C6.8,3.8 6.2,3.7 5.8,3.4 L5.1,2.7 C4.8,2.4 4.2,2.4 3.9,2.7 L2.7,3.9 C2.4,4.2 2.4,4.8 2.7,5.1 L3.4,5.8 C3.7,6.1 3.8,6.8 3.6,7.2 L3,8.6 C2.9,9.1 2.4,9.4 1.9,9.4 L0.9,9.4 C0.4,9.4 -3.62376795e-13,9.8 -3.62376795e-13,10.3 L-3.62376795e-13,12 C-3.62376795e-13,12.5 0.4,12.9 0.9,12.9 L1.9,12.9 C2.4,12.9 2.9,13.3 3,13.7 L3.6,15.1 C3.8,15.5 3.7,16.1 3.4,16.5 L2.7,17.2 C2.4,17.5 2.4,18.1 2.7,18.4 L3.9,19.6 C4.2,19.9 4.8,19.9 5.1,19.6 L5.8,18.9 C6.1,18.6 6.8,18.5 7.2,18.7 L8.6,19.3 C9.1,19.4 9.4,19.9 9.4,20.4 L9.4,21.4 C9.4,21.9 9.8,22.3 10.3,22.3 L12,22.3 C12.5,22.3 12.9,21.9 12.9,21.4 L12.9,20.4 C12.9,19.9 13.3,19.4 13.7,19.3 L15.1,18.7 C15.5,18.5 16.1,18.6 16.5,18.9 L17.2,19.6 C17.5,19.9 18.1,19.9 18.4,19.6 L19.6,18.4 C19.9,18.1 19.9,17.5 19.6,17.2 L18.9,16.5 C18.6,16.2 18.5,15.5 18.7,15.1 L19.3,13.7 C19.4,13.2 19.9,12.9 20.4,12.9 L21.4,12.9 C21.9,12.9 22.3,12.5 22.3,12 L22.3,10.3 C22.3,9.8 21.9,9.4 21.4,9.4 Z" id="Path" stroke-width="0.5"></path>
                <circle id="Oval" cx="11.1" cy="11.3" r="4.9"></circle>
            </g>
        </g>
        <g id="icon/header/additional-settings" transform="translate(16.000000, 1014.000000)">
            <g id="Shape">
                <path d="M11,8.1 C11,9.8 9.6,11.2 7.9,11.2 C6.2,11.2 4.8,9.8 4.8,8.1 C4.8,6.4 6.2,5 7.9,5 C9.7,5 11,6.4 11,8.1 Z M15.4,6.8 L14.7,6.8 C14.4,6.8 14,6.5 13.9,6.2 L13.5,5.2 C13.3,4.9 13.4,4.5 13.6,4.2 L14.1,3.7 C14.3,3.5 14.3,3.1 14.1,2.8 L13.2,1.9 C13,1.7 12.6,1.7 12.3,1.9 L11.8,2.4 C11.6,2.6 11.1,2.7 10.8,2.5 L9.8,2.1 C9.5,2 9.2,1.6 9.2,1.3 L9.2,0.6 C9.2,0.3 8.9,0 8.6,0 L7.4,0 C7.1,0 6.8,0.3 6.8,0.6 L6.8,1.3 C6.8,1.6 6.5,2 6.2,2.1 L5.2,2.5 C4.9,2.7 4.5,2.6 4.2,2.4 L3.7,1.9 C3.5,1.7 3.1,1.7 2.8,1.9 L1.9,2.8 C1.7,3 1.7,3.4 1.9,3.7 L2.4,4.2 C2.6,4.4 2.7,4.9 2.5,5.2 L2.1,6.2 C2,6.5 1.6,6.8 1.3,6.8 L0.6,6.8 C0.3,6.8 1.77635684e-15,7.1 1.77635684e-15,7.4 L1.77635684e-15,8.6 C1.77635684e-15,8.9 0.3,9.2 0.6,9.2 L1.3,9.2 C1.6,9.2 2,9.5 2.1,9.8 L2.5,10.8 C2.7,11.1 2.6,11.5 2.4,11.8 L1.9,12.3 C1.7,12.5 1.7,12.9 1.9,13.2 L2.8,14.1 C3,14.3 3.4,14.3 3.7,14.1 L4.2,13.6 C4.4,13.4 4.9,13.3 5.2,13.5 L6.2,13.9 C6.5,14 6.8,14.4 6.8,14.7 L6.8,15.4 C6.8,15.7 7.1,16 7.4,16 L8.6,16 C8.9,16 9.2,15.7 9.2,15.4 L9.2,14.7 C9.2,14.4 9.5,14 9.8,13.9 L10.8,13.5 C11.1,13.3 11.5,13.4 11.8,13.6 L12.3,14.1 C12.5,14.3 12.9,14.3 13.2,14.1 L14.1,13.2 C14.3,13 14.3,12.6 14.1,12.3 L13.6,11.8 C13.4,11.6 13.3,11.1 13.5,10.8 L13.9,9.8 C14,9.5 14.4,9.2 14.7,9.2 L15.4,9.2 C15.7,9.2 16,8.9 16,8.6 L16,7.4 C16,7.1 15.7,6.8 15.4,6.8 Z" stroke="#F27921" stroke-width="0.5"></path>
                <path d="M20.2,15.3 C20.2,16.2 19.4,17 18.5,17 C17.6,17 16.8,16.2 16.8,15.3 C16.8,14.4 17.6,13.6 18.5,13.6 C19.4,13.5 20.2,14.3 20.2,15.3 Z M22.6,14.6 L22.2,14.6 C22,14.6 21.8,14.5 21.8,14.3 L21.6,13.7 C21.5,13.5 21.5,13.3 21.7,13.2 L22,12.9 C22.1,12.8 22.1,12.6 22,12.4 L21.5,11.9 C21.4,11.8 21.2,11.8 21,11.9 L20.7,12.2 C20.6,12.3 20.3,12.4 20.2,12.3 L19.6,12.1 C19.4,12 19.3,11.8 19.3,11.7 L19.3,11.3 C19.3,11.1 19.1,11 19,11 L18.1,11 C17.9,11 17.8,11.2 17.8,11.3 L17.8,11.7 C17.8,11.9 17.7,12.1 17.5,12.1 L16.9,12.3 C16.7,12.4 16.5,12.4 16.4,12.2 L16.1,11.9 C16,11.8 15.8,11.8 15.6,11.9 L15.1,12.4 C15,12.5 15,12.8 15.1,12.9 L15.4,13.2 C15.5,13.3 15.6,13.6 15.5,13.7 L15.3,14.3 C15.2,14.5 15,14.6 14.9,14.6 L14.5,14.6 C14.3,14.6 14.2,14.8 14.2,14.9 L14.2,15.6 C14.2,15.8 14.4,15.9 14.5,15.9 L14.9,15.9 C15.1,15.9 15.3,16 15.3,16.2 L15.5,16.8 C15.6,17 15.6,17.2 15.4,17.3 L15.1,17.6 C15,17.7 15,17.9 15.1,18.1 L15.6,18.6 C15.7,18.7 15.9,18.7 16.1,18.6 L16.4,18.3 C16.5,18.2 16.8,18.1 16.9,18.2 L17.5,18.4 C17.7,18.5 17.8,18.7 17.8,18.8 L17.8,19.2 C17.8,19.4 18,19.5 18.1,19.5 L18.8,19.5 C19,19.5 19.1,19.3 19.1,19.2 L19.1,18.8 C19.1,18.6 19.2,18.4 19.4,18.4 L20,18.2 C20.2,18.1 20.4,18.1 20.5,18.3 L20.8,18.6 C20.9,18.7 21.1,18.7 21.3,18.6 L21.8,18.1 C21.9,18 21.9,17.8 21.8,17.6 L21.5,17.3 C21.4,17.2 21.3,16.9 21.4,16.8 L21.6,16.2 C21.7,16 21.9,15.9 22,15.9 L22.4,15.9 C22.6,15.9 22.7,15.7 22.7,15.6 L22.7,14.9 C22.9,14.7 22.8,14.6 22.6,14.6 Z" fill="#F27921" fill-rule="nonzero"></path>
            </g>
        </g>
        <g id="icon/header/competitive-chart" transform="translate(15.000000, 1056.000000)" stroke="#F27921">
            <g>
                <path d="M2.7,23 C2.3,23.4 1.7,23.4 1.3,23 L0.6,22.3 C0.2,21.9 0.2,21.3 0.6,20.9 L9.6,11.9 C10,11.5 10.6,11.5 11,11.9 L11.7,12.6 C12.1,13 12.1,13.6 11.7,14 L2.7,23 Z" id="Path" stroke-width="0.5"></path>
                <polygon id="Path" stroke-width="0.5" points="14.2 3.3 8 9.5 14.2 15.7 20.4 9.5"></polygon>
                <path d="M22.4,10.2 C22,9.8 21.4,9.8 21,10.2 L14.8,16.4 C14.4,16.8 14.4,17.4 14.8,17.8 C15.2,18.2 15.8,18.2 16.2,17.8 L22.4,11.6 C22.8,11.2 22.8,10.6 22.4,10.2 Z" id="Path" stroke-width="0.5"></path>
                <path d="M13.5,1.2 C13.1,0.8 12.5,0.8 12.1,1.2 L5.9,7.4 C5.5,7.8 5.5,8.4 5.9,8.8 C6.3,9.2 6.9,9.2 7.3,8.8 L13.5,2.6 C13.9,2.2 13.9,1.6 13.5,1.2 Z" id="Path" stroke-width="0.5"></path>
                <polygon id="Path" stroke-width="0.5" points="13.5 2.6 7.3 8.8 8 9.5 14.2 3.3"></polygon>
                <rect id="Rectangle" stroke-width="0.5" transform="translate(17.690370, 12.986230) rotate(-45.000000) translate(-17.690370, -12.986230) " x="13.2904122" y="12.4862348" width="8.79991561" height="1"></rect>
            </g>
        </g>
        <g id="icon/header/invoice-inbox" transform="translate(16.000000, 1104.000000)">
            <g>
                <polygon id="Path" points="20.5 13.2 4.7 13.5 1.1 9 1.1 6.1 1.1 1.3 1.1 0 21.4 0 21.4 1.3 21.4 6.1 21.4 8.3"></polygon>
                <polygon id="Path" stroke="#F27921" stroke-width="0.5" fill="#FFFFFF" fill-rule="nonzero" points="21.2 21.6 1.2 21.6 11.2 12"></polygon>
                <polygon id="Path" fill="#F27921" fill-rule="nonzero" points="20.9 0.4 1.5 0.4 1.5 8.1 1.1 8.1 1.1 1.3 1.1 0 21.4 0 21.4 1.3 21.4 7.4 20.8 7.7"></polygon>
                <rect id="Rectangle" fill="#F27921" fill-rule="nonzero" x="4.4" y="3.4" width="4.1" height="1"></rect>
                <rect id="Rectangle" fill="#F27921" fill-rule="nonzero" x="4.4" y="5.4" width="4.1" height="1"></rect>
                <rect id="Rectangle" fill="#F27921" fill-rule="nonzero" x="9.2" y="3.4" width="4.1" height="1"></rect>
                <rect id="Rectangle" fill="#F27921" fill-rule="nonzero" x="9.2" y="5.4" width="4.1" height="1"></rect>
                <rect id="Rectangle" fill="#F27921" fill-rule="nonzero" x="13.9" y="3.4" width="4.1" height="1"></rect>
                <rect id="Rectangle" fill="#F27921" fill-rule="nonzero" x="13.9" y="5.4" width="4.1" height="1"></rect>
                <polyline id="Path" stroke="#F27921" stroke-width="0.5" fill="#FFFFFF" fill-rule="nonzero" points="0.4 6.7 9 13.6 0.4 21.6 0.4 6.7"></polyline>
                <polygon id="Path" stroke="#F27921" stroke-width="0.5" fill="#FFFFFF" fill-rule="nonzero" points="13.4 13.6 22 6.7 22 14.7 22 21.6"></polygon>
            </g>
        </g>
        <g id="icon/header/responses" transform="translate(15.000000, 1149.000000)">
            <g id="Path">
                <path d="M20.1,18.1 L16.5,18.1 L7.7,23.6 L7.7,18.1 L4.8,18.1 C3.8,18.1 3,17.3 3,16.4 L3,6.6 C3,5.6 3.8,4.8 4.8,4.8 L20.1,4.8 C21.1,4.8 21.8,5.6 21.8,6.6 L21.8,16.4 C21.8,17.3 21.1,18.1 20.1,18.1 Z" stroke="#F27921" stroke-width="0.5"></path>
                <path d="M7.9,0.2 L0.1,6.2 L7.9,12.7 L7.9,8.7 C13.7,8.2 17,10.3 17,10.3 C15,5.6 10.4,4.4 7.9,4.1 L7.9,0.2 Z" stroke="#FFFFFF" stroke-width="0.5" fill="#F27921" fill-rule="nonzero"></path>
            </g>
        </g>
        <g id="icon/header/toDos" transform="translate(15.000000, 1195.000000)">
            <g>
                <path d="M17.3,4.99398663 L17.3,5.4 L17.3,20.9 C17.3,20.9 17.4,22.6 15.6,22.6 L2.6,22.6 C0.9,22.6 0.8,20.8 0.8,20.8 L0.8,5.5 C0.8,3.8 2.5,3.9 2.5,3.9 L5.3,3.9 L15.6,3.98974635 L16.3060314,3.99400482 C16.8559522,3.9973217 17.3,4.44405585 17.3,4.99398663 Z" id="Path" stroke="#F27921" stroke-width="0.5"></path>
                <rect id="Rectangle" fill="#FFFFFF" x="5.8" y="3" width="7" height="2"></rect>
                <path d="M9.2,3.3 C8.7,3.3 8.3,3.7 8.3,4.2 C8.3,4.7 8.7,5.1 9.2,5.1 C9.7,5.1 10.1,4.7 10.1,4.2 C10.1,3.7 9.7,3.3 9.2,3.3 Z" id="Path" stroke="#F27921" stroke-width="0.5"></path>
                <path d="M14.4,6 C14.9,6 15.3,6.4 15.3,6.9 L15.3,8.6 L3.2,8.6 L3.2,6.9 C3.2,6.4 3.6,6 4.1,6 L6.7,6 C6.7,6 6.7,4.8 6.7,3.4 C6.7,1.9 7.8,0.7 9.3,0.7 C10.8,0.7 11.9,2 11.9,3.4 C11.9,4.9 11.9,6 11.9,6 L14.4,6 Z" id="Path" stroke="#F27921" stroke-width="0.5"></path>
                <rect id="Rectangle" fill="#F27921" fill-rule="nonzero" x="3.4" y="16.7" width="1" height="1"></rect>
                <rect id="Rectangle" fill="#F27921" fill-rule="nonzero" x="3.4" y="14.6" width="1" height="1"></rect>
                <rect id="Rectangle" fill="#F27921" fill-rule="nonzero" x="3.4" y="12.5" width="1" height="1"></rect>
                <rect id="Rectangle" fill="#F27921" fill-rule="nonzero" x="5.8" y="16.8" width="8.8" height="1"></rect>
                <rect id="Rectangle" fill="#F27921" fill-rule="nonzero" x="5.8" y="14.7" width="8.8" height="1"></rect>
                <rect id="Rectangle" fill="#F27921" fill-rule="nonzero" x="5.8" y="12.6" width="8.8" height="1"></rect>
            </g>
        </g>
        <g id="icon/header/contracts" transform="translate(13.000000, 1240.000000)">
            <g>
                <g id="Group" fill-rule="nonzero">
                    <g transform="translate(8.000000, 0.000000)" id="Path" stroke="#F27921" stroke-width="0.5">
                        <path d="M17.1,7.2 L17.1,6.6 L17.1,22 C17.1,22 17.2,23.8 15.4,23.8 L2.2,23.8 C0.4,23.8 0.4,22 0.4,22 L0.4,2.4 C0.4,0.7 2.2,0.8 2.2,0.8 L11,0.8 L12.6,0.8" fill="#FFFFFF"></path>
                        <polygon fill="#FCE4D3" points="16.8 6.2 12.8 6.2 12.7 1.2 14.9 3.8"></polygon>
                    </g>
                    <path d="M13.4,19.1 L10.6,17.7 L12.4,16.1 L13.4,19.1 Z M3.8,10 L5.6,8.4 L12,15.7 L10.2,17.3 L3.8,10 L3.8,10 Z M4.2,6.1 C4.1,6 4.1,5.8 4.2,5.8 C4.3,5.7 4.5,5.7 4.5,5.8 L8.7,10.5 C8.8,10.6 8.8,10.8 8.7,10.8 C8.6,10.9 8.4,10.9 8.4,10.8 L5.7,7.7 L3.2,10 L2.2,8.9 L4.7,6.6 L4.2,6.1 Z M2.9,5.3 L4,6.6 L2.2,8.2 L1.1,6.9 C0.7,6.4 0.7,5.6 1.2,5.2 C1.7,4.8 2.5,4.8 2.9,5.3 Z" id="Shape" fill="#F27921"></path>
                </g>
                <path d="M13.7,15.6 L21.7,15.6" id="Path" stroke="#F27921" stroke-width="0.5"></path>
                <path d="M13.7,9 L18.5,9" id="Path" stroke="#F27921" stroke-width="0.5"></path>
                <path d="M13.7,12.4 L22.1,12.4" id="Path" stroke="#F27921" stroke-width="0.5"></path>
                <path d="M13.5,18.7 L21.7,18.7" id="Path" stroke="#F27921" stroke-width="0.5"></path>
                <path d="M13.7,5.8 L18.5,5.8" id="Path" stroke="#F27921" stroke-width="0.5"></path>
            </g>
        </g>
        <g id="icon/header/supplier-details" transform="translate(15.000000, 1287.000000)" stroke="#F27921">
            <g>
                <g id="Group" stroke-width="0.5">
                    <path d="M16.1,6.6 L16.1,6.1 L16.1,20 C16.1,20 16.2,21.6 14.5,21.6 L2.6,21.6 C1,21.6 0.9,20 0.9,20 L0.9,2.3 C0.9,0.8 2.5,0.8 2.5,0.8 L10.5,0.8 L11.9,0.8" id="Path"></path>
                    <polygon id="Path" fill="#FCE4D3" fill-rule="nonzero" points="15.8 5.7 12.2 5.7 12.1 1.2 14 3.5"></polygon>
                </g>
                <path d="M3,13.6 L8.5,13.6" id="Path" stroke-width="0.5"></path>
                <path d="M3,7.3 L7.8,7.3" id="Path" stroke-width="0.5"></path>
                <path d="M3,10.5 L8.9,10.5" id="Path" stroke-width="0.5"></path>
                <path d="M8.8,11.1 L13.7,11.1" id="Path" stroke-width="2"></path>
                <path d="M8.8,15.3 L13.7,15.3" id="Path" stroke-width="2"></path>
                <path d="M2.9,16.8 L9.5,16.8" id="Path" stroke-width="0.5"></path>
                <path d="M13.8,19 C10.8,19 8.3,16.5 8.3,13.5 C8.3,10.5 10.8,8 13.8,8 C16.8,8 19.3,10.5 19.3,13.5 C19.3,16.5 16.9,19 13.8,19 Z M22.6,20.5 L19,16.9 L18.9,16.8 C19.5,15.9 19.9,14.7 19.9,13.5 C19.9,10.2 17.2,7.5 13.9,7.5 C10.6,7.5 7.9,10.2 7.9,13.5 C7.9,16.8 10.6,19.5 13.9,19.5 C15.1,19.5 16.2,19.1 17.2,18.5 L17.3,18.6 L20.9,22.2 C21.1,22.4 21.5,22.6 21.8,22.6 C22.1,22.6 22.4,22.5 22.7,22.2 C23.1,21.8 23.1,21 22.6,20.5 Z" id="Shape" stroke-width="0.5"></path>
                <path d="M3,4.1 L7.8,4.1" id="Path" stroke-width="0.5"></path>
            </g>
        </g>
        <g id="icon/header/chat" transform="translate(15.000000, 1932.000000)" stroke="#F27921">
            <g id="Path">
                <path d="M22.3,17.4 L13.8,17.4 L6.1,24.5 L6.1,17.4 L2.3,17.4 C1,17.4 -2.71782596e-13,16.4 -2.71782596e-13,15.1 L-2.71782596e-13,2.3 C-2.71782596e-13,1 1,1.13686838e-13 2.3,1.13686838e-13 L22.3,1.13686838e-13 C23.6,1.13686838e-13 24.6,1 24.6,2.3 L24.6,15.1 C24.6,16.4 23.6,17.4 22.3,17.4 Z" stroke-width="0.5"></path>
            </g>
        </g>
        <g id="icon/header/performance-management" transform="translate(16.000000, 2037.000000)">
            <g>
                <rect id="Rectangle" stroke="#F27921" stroke-width="0.5" x="10.6" y="0" width="1.6" height="2.5"></rect>
                <path d="M10.6,10.8 C10.6,9 9.1,7.5 7.3,7.5 C5.5,7.5 4,9 4,10.8 C4,12.6 5.5,14.1 7.3,14.1 L7.3,10.8 L10.6,10.8 L10.6,10.8 Z" id="Path" fill="#F27921" fill-rule="nonzero"></path>
                <path d="M11.4,11.6 L8.1,11.6 L8.1,14.9 C10,14.9 11.4,13.4 11.4,11.6 Z" id="Path" fill="#F27921" fill-rule="nonzero"></path>
                <rect id="Rectangle" fill="#F27921" fill-rule="nonzero" x="13.1" y="7.5" width="5.7" height="1.6"></rect>
                <rect id="Rectangle" fill="#F27921" fill-rule="nonzero" x="13.1" y="10" width="5.7" height="1.6"></rect>
                <rect id="Rectangle" fill="#F27921" fill-rule="nonzero" x="13.1" y="12.4" width="5.7" height="1.6"></rect>
                <path d="M14.6,21.3 L12.1,18.2 L12.1,18.2 L12,18.1 L11.9,18 L11.9,18 L11.8,18 C11.7,18 11.7,18 11.6,18 C11.5,18 11.5,18 11.4,18 C11.3,18 11.3,18 11.2,18 C11.1,18 11.1,18 11,18 L10.9,18 L10.9,18 L10.8,18.1 L10.7,18.2 L10.7,18.2 L8.2,21.3 C8,21.6 8.1,22 8.5,22.2 C8.6,22.3 8.8,22.3 8.9,22.3 C9.2,22.3 9.4,22.2 9.6,22 L11.4,19.8 L13.2,22 C13.4,22.2 13.6,22.3 13.9,22.3 C14,22.3 14.2,22.3 14.3,22.2 C14.7,22 14.8,21.6 14.6,21.3 Z" id="Path" stroke="#F27921" stroke-width="0.5"></path>
                <path d="M20.4,16.5 L2.4,16.5 L2.4,5 L20.4,5 L20.4,16.5 Z M22.9,2.6 L-1.81188398e-13,2.6 L-1.81188398e-13,5.1 L0.8,5.1 L0.8,18.2 L22.1,18.2 L22.1,5.1 L22.9,5.1 L22.9,2.6 L22.9,2.6 Z" id="Shape" stroke="#F27921" stroke-width="0.5"></path>
            </g>
        </g>
        <g id="icon/header/benchmark-efficiency" transform="translate(16.000000, 2178.000000)">
            <g>
                <path d="M12.0050505,6.18385519 L12.0050505,11.3954996 C12.0050505,11.5937686 12.2171717,11.787317 12.4242424,11.787317 L15.5808081,11.787317 C15.7929293,11.787317 16,11.5937686 16,11.3954996 C16,11.1972305 16,10.805413 15.7878788,10.805413 L13.0505051,10.805413 L13.0505051,6.18385519 C13.0505051,5.98558611 12.8383838,5.78731703 12.6313131,5.78731703 C12.3181818,5.78731703 12,5.98558611 12,6.18385519 L12.0050505,6.18385519 Z" id="Path-124-path" fill="#EF780B" fill-rule="nonzero"></path>
                <path d="M6.2,2.4 C8,0.3 10.2,0 12.6,0 C18.1,0 22.5,4.5 22.5,10.1 C22.5,15.7 18.1,20.2 12.6,20.2 C8,20.2 4.2,16.9 3.1,12.6 L3.1,12.5 L0,12.5 L4.5,9.3 L9.8,12.5 L5.8,12.5 L5.8,12.6 C6.9,15.3 9.5,17.4 12.5,17.4 C16.5,17.4 19.7,14.1 19.7,10 C19.7,5.9 16.5,2.6 12.5,2.6 C10.8,2.6 9.2,3.2 8,4.2 C8.1,4.3 6.1,2.5 6.2,2.4 Z" id="Path" stroke="#EF780B" stroke-width="0.5"></path>
            </g>
        </g>
        <g id="icon/header/benchmark-usage" transform="translate(14.000000, 2224.000000)">
            <g>
                <path d="M13.1,5 C17.4,5 20.9,8.4 21.3,12.6 L24.4,12.6 C24,6.8 19.1,2 13.2,2 C7.3,2 2.4,6.8 2,12.6 L5,12.6 C5.3,8.4 8.8,5 13.1,5 Z" id="Path" stroke="#EF780B" stroke-width="0.5"></path>
                <path d="M12.2,13.3916171 C12.2,13.8815313 12.6899142,14.3714455 13.1798284,14.3714455 C13.3776784,14.3714455 13.7686676,14.1783063 13.8675926,13.9804563 C14.7532068,11.9171637 15.7330352,9.85858186 16.3218744,7.8 C15.440971,8.48305348 12.2,12.5107136 12.2,13.3916171 Z" id="Path-128-path" fill="#EF780B" fill-rule="nonzero"></path>
            </g>
        </g>
        <g id="icon/header/pending-recommendations" transform="translate(19.000000, 2267.000000)">
            <g>
                <path d="M7.47828677,22.9096382 L11.2782868,17.8096382 L11.2782868,15.5096382 C9.57828677,17.8096382 7.47828677,18.1096382 7.47828677,18.1096382 C7.47828677,18.1096382 5.37828677,17.8096382 3.67828677,15.5096382 L3.67828677,17.9096382 L7.47828677,22.9096382 Z" id="Path" stroke="#EF7922" stroke-width="0.5" fill="#FFFFFF" fill-rule="nonzero"></path>
                <ellipse id="Oval" stroke="#EF7922" stroke-width="0.5" fill="#FFFFFF" fill-rule="nonzero" transform="translate(1.800027, 11.288128) rotate(-12.104361) translate(-1.800027, -11.288128) " cx="1.80002677" cy="11.2881282" rx="1" ry="1.80006024"></ellipse>
                <ellipse id="Oval" stroke="#EF7922" stroke-width="0.5" fill="#FFFFFF" fill-rule="nonzero" transform="translate(13.496107, 10.664178) rotate(-77.901241) translate(-13.496107, -10.664178) " cx="13.4961068" cy="10.6641782" rx="1.8000225" ry="1"></ellipse>
                <path d="M7.47828677,1.40963816 C0.478286772,1.40963816 1.47828677,8.20963816 1.47828677,8.20963816 C1.87828677,17.4096382 7.47828677,18.2096382 7.47828677,18.2096382 C7.47828677,18.2096382 13.0782868,17.3096382 13.4782868,8.20963816 C13.4782868,8.10963816 14.5782868,1.40963816 7.47828677,1.40963816 Z" id="Path" stroke="#EF7922" stroke-width="0.5" fill="#FFFFFF" fill-rule="nonzero"></path>
                <path d="M12.3782868,3.30963816 C12.9782868,2.80963816 11.9782868,2.20963816 11.9782868,2.20963816 C11.0782868,2.00963816 11.6782868,2.20963816 11.6782868,2.20963816 L11.6782868,1.90963816 L11.4782868,2.00963816 C11.3782868,1.60963816 10.9782868,1.10963816 10.9782868,1.10963816 C10.2782868,0.90963816 10.9782868,1.10963816 10.2782868,1.10963816 C10.0782868,0.60963816 9.57828677,0.30963816 9.57828677,0.30963816 C8.97828677,0.20963816 8.67828677,-0.19036184 7.57828677,0.10963816 C6.57828677,0.10963816 6.47828677,0.30963816 6.47828677,0.30963816 C4.27828677,0.90963816 4.27828677,0.80963816 3.17828677,1.60963816 C2.37828677,2.10963816 2.07828677,2.60963816 2.07828677,2.60963816 C1.67828677,3.10963816 1.57828677,4.00963816 1.67828677,5.30963816 C1.37828677,6.70963816 1.57828677,7.90963816 1.57828677,7.90963816 C1.57828677,8.50963816 1.67828677,9.00963816 1.67828677,9.50963816 L2.67828677,9.50963816 C1.77828677,6.20963816 3.37828677,4.00963816 3.37828677,4.00963816 C4.37828677,5.40963816 7.57828677,5.40963816 7.57828677,5.40963816 C7.57828677,5.40963816 10.7782868,5.40963816 11.7782868,4.00963816 C11.7782868,4.00963816 13.3782868,6.10963816 12.4782868,9.50963816 L13.4782868,9.50963816 C13.5782868,9.00963816 13.5782868,8.50963816 13.6782868,7.90963816 C13.4782868,8.10963816 13.8782868,5.30963816 12.3782868,3.30963816 L12.3782868,3.30963816 Z" id="Path" fill="#EF7922" fill-rule="nonzero"></path>
                <g id="Group" transform="translate(6.478287, 9.209638)" stroke="#F27921" stroke-width="0.5">
                    <path d="M11.8,4.9 L11.3,4.9 C11,4.9 10.8,4.7 10.7,4.5 L10.4,3.8 C10.3,3.6 10.3,3.3 10.5,3.1 L10.9,2.7 C11.1,2.5 11.1,2.2 10.9,2.1 L10.3,1.5 C10.1,1.3 9.8,1.3 9.7,1.5 L9.3,1.9 C9.1,2.1 8.8,2.1 8.6,2 L7.9,1.7 C7.6,1.6 7.5,1.4 7.5,1.1 L7.5,0.6 C7.5,0.3 7.3,0.1 7,0.1 L6,0.1 C5.7,0.1 5.5,0.3 5.5,0.6 L5.5,1.1 C5.5,1.4 5.3,1.6 5.1,1.7 L4.4,2 C4.2,2.1 3.9,2.1 3.7,1.9 L3.3,1.5 C3.1,1.3 2.8,1.3 2.7,1.5 L2.1,2.1 C1.9,2.3 1.9,2.6 2.1,2.7 L2.5,3.1 C2.7,3.3 2.7,3.6 2.6,3.8 L2.3,4.5 C2.2,4.8 2,4.9 1.7,4.9 L1.2,4.9 C0.9,4.9 0.7,5.1 0.7,5.4 L0.7,6.3 C0.7,6.6 0.9,6.8 1.2,6.8 L1.7,6.8 C2,6.8 2.2,7 2.3,7.2 L2.6,7.9 C2.7,8.1 2.7,8.4 2.5,8.6 L2.1,9 C1.9,9.2 1.9,9.5 2.1,9.6 L2.7,10.2 C2.9,10.4 3.2,10.4 3.3,10.2 L3.7,9.8 C3.9,9.6 4.2,9.6 4.4,9.7 L5.1,10 C5.4,10.1 5.5,10.3 5.5,10.6 L5.5,11.1 C5.5,11.4 5.7,11.6 6,11.6 L6.9,11.6 C7.2,11.6 7.4,11.4 7.4,11.1 L7.4,10.6 C7.4,10.3 7.6,10.1 7.8,10 L8.5,9.7 C8.7,9.6 9,9.6 9.2,9.8 L9.6,10.2 C9.8,10.4 10.1,10.4 10.2,10.2 L10.8,9.6 C11,9.4 11,9.1 10.8,9 L10.4,8.6 C10.2,8.4 10.2,8.1 10.3,7.9 L10.6,7.2 C10.7,6.9 10.9,6.8 11.2,6.8 L11.7,6.8 C12,6.8 12.2,6.6 12.2,6.3 L12.2,5.4 C12.3,5.1 12.1,4.9 11.8,4.9 Z" id="Path" fill="#FFFFFF" fill-rule="nonzero"></path>
                    <circle id="Oval" cx="6.4" cy="5.9" r="2.6"></circle>
                </g>
            </g>
        </g>
        <g id="icon/header/completed-recommendations" transform="translate(19.000000, 2320.000000)">
            <g>
                <path d="M7.47828677,22.9096382 L11.2782868,17.8096382 L11.2782868,15.5096382 C9.57828677,17.8096382 7.47828677,18.1096382 7.47828677,18.1096382 C7.47828677,18.1096382 5.37828677,17.8096382 3.67828677,15.5096382 L3.67828677,17.9096382 L7.47828677,22.9096382 Z" id="Path" stroke="#EF7922" stroke-width="0.5" fill="#FFFFFF" fill-rule="nonzero"></path>
                <ellipse id="Oval" stroke="#EF7922" stroke-width="0.5" fill="#FFFFFF" fill-rule="nonzero" transform="translate(1.800027, 11.289928) rotate(-12.104361) translate(-1.800027, -11.289928) " cx="1.80002677" cy="11.2899282" rx="1" ry="1.80006024"></ellipse>
                <path d="M7.47828677,1.40963816 C0.478286772,1.40963816 1.47828677,8.20963816 1.47828677,8.20963816 C1.87828677,17.4096382 7.47828677,18.2096382 7.47828677,18.2096382 C7.47828677,18.2096382 13.0782868,17.3096382 13.4782868,8.20963816 C13.4782868,8.10963816 14.5782868,1.40963816 7.47828677,1.40963816 Z" id="Path" stroke="#EF7922" stroke-width="0.5" fill="#FFFFFF" fill-rule="nonzero"></path>
                <path d="M12.3782868,3.30963816 C12.9782868,2.80963816 11.9782868,2.20963816 11.9782868,2.20963816 C11.0782868,2.00963816 11.6782868,2.20963816 11.6782868,2.20963816 L11.6782868,1.90963816 L11.4782868,2.00963816 C11.3782868,1.60963816 10.9782868,1.10963816 10.9782868,1.10963816 C10.2782868,0.90963816 10.9782868,1.10963816 10.2782868,1.10963816 C10.0782868,0.60963816 9.57828677,0.30963816 9.57828677,0.30963816 C8.97828677,0.20963816 8.67828677,-0.19036184 7.57828677,0.10963816 C6.57828677,0.10963816 6.47828677,0.30963816 6.47828677,0.30963816 C4.27828677,0.90963816 4.27828677,0.80963816 3.17828677,1.60963816 C2.37828677,2.10963816 2.07828677,2.60963816 2.07828677,2.60963816 C1.67828677,3.10963816 1.57828677,4.00963816 1.67828677,5.30963816 C1.37828677,6.70963816 1.57828677,7.90963816 1.57828677,7.90963816 C1.57828677,8.50963816 1.67828677,9.00963816 1.67828677,9.50963816 L2.67828677,9.50963816 C1.77828677,6.20963816 3.37828677,4.00963816 3.37828677,4.00963816 C4.37828677,5.40963816 7.57828677,5.40963816 7.57828677,5.40963816 C7.57828677,5.40963816 10.7782868,5.40963816 11.7782868,4.00963816 C11.7782868,4.00963816 13.3782868,6.10963816 12.4782868,9.50963816 L13.4782868,9.50963816 C13.5782868,9.00963816 13.5782868,8.50963816 13.6782868,7.90963816 C13.4782868,8.10963816 13.8782868,5.30963816 12.3782868,3.30963816 L12.3782868,3.30963816 Z" id="Path" fill="#EF7922" fill-rule="nonzero"></path>
                <path d="M10.9782868,16.6096382 C10.7782868,16.8096382 10.5782868,16.8096382 10.3782868,16.6096382 L10.2782868,16.5096382 L10.1782868,16.4096382 L9.57828677,15.8096382 L9.57828677,15.8096382 L6.77828677,13.0096382 C6.57828677,12.8096382 6.57828677,12.6096382 6.77828677,12.4096382 L7.67828677,11.5096382 C7.87828677,11.3096382 8.07828677,11.3096382 8.27828677,11.5096382 L10.7782868,14.0096382 L15.9782868,8.80963816 C16.1782868,8.60963816 16.3782868,8.60963816 16.5782868,8.80963816 L17.4782868,9.70963816 C17.6782868,9.90963816 17.6782868,10.1096382 17.4782868,10.3096382 L10.9782868,16.6096382 Z" id="Path" stroke="#F27921" stroke-width="0.5" fill="#FFFFFF" fill-rule="nonzero"></path>
            </g>
        </g>
        <g id="icon/header/supplier-rating" transform="translate(16.000000, 2367.000000)">
            <g id="Path">
                <polygon stroke="#EF7922" stroke-width="0.3" fill="#FFFFFF" fill-rule="nonzero" points="5.6 0 6.9 3.9 11.1 4 7.8 6.5 9 10.5 5.6 8.1 2.1 10.5 3.3 6.5 1.81188398e-13 4 4.2 3.9"></polygon>
                <polygon fill="#EF7922" fill-rule="nonzero" points="13.2 2.3 13.8 4 15.6 4 14.2 5.1 14.7 6.7 13.2 5.7 11.8 6.7 12.3 5.1 10.9 4 12.7 4"></polygon>
                <polygon fill="#EF7922" fill-rule="nonzero" points="18.2 2.3 18.8 4 20.6 4 19.2 5.1 19.7 6.7 18.2 5.7 16.8 6.7 17.3 5.1 15.9 4 17.7 4"></polygon>
            </g>
        </g>
        <g id="icon/header/services" transform="translate(16.000000, 2400.000000)">
            <g>
                <g id="SvOFcj.tif" transform="translate(0.000000, 13.000000)" stroke="#EF7922" stroke-width="0.5">
                    <path d="M22.7,0.8 C22.6,1.3 22.6,1.9 22.5,2.4 C22.4,2.8 22.1,3 21.7,3 C21.5,3 21.3,3 21.1,3 C20.7,3 20.3,3.2 20.2,3.6 C20,4.1 19.8,4.6 19.6,5.1 C19.5,5.5 19.5,5.8 19.8,6.1 C19.9,6.3 20.1,6.4 20.3,6.6 C20.6,6.9 20.6,7.4 20.3,7.7 C19.7,8.3 19.1,8.9 18.5,9.5 C18.2,9.8 17.7,9.8 17.4,9.5 C17.3,9.4 17.1,9.2 17,9.1 C16.7,8.8 16.3,8.7 15.8,8.9 C15.4,9.1 14.9,9.3 14.5,9.4 C14,9.6 13.8,9.9 13.8,10.4 C13.8,10.6 13.8,10.8 13.8,11 C13.8,11.4 13.5,11.7 13.1,11.8 C12.2,11.9 11.3,11.9 10.4,11.8 C9.9,11.7 9.6,11.4 9.6,10.9 L9.6,10.8 C9.7,9.8 9.3,9.6 8.6,9.3 C8.3,9.2 8,9 7.6,8.9 C7.2,8.7 6.8,8.8 6.5,9.1 C6.3,9.2 6.2,9.4 6.1,9.5 C5.8,9.8 5.3,9.8 5,9.5 C4.4,8.9 3.8,8.3 3.2,7.7 C2.9,7.4 2.9,6.9 3.2,6.6 C3.3,6.5 3.5,6.3 3.6,6.2 C3.9,5.9 4,5.5 3.8,5 C3.6,4.6 3.4,4.1 3.2,3.7 C3,3.3 2.7,3 2.2,3 C2,3 1.8,3 1.6,3 C1.1,3 0.8,2.7 0.7,2.2 C0.6,1.7 0.6,1.2 0.6,0.7 C2.4,0.7 4.1,0.7 5.8,0.7 C5.8,2.7 6.6,4.3 8.2,5.5 C9.4,6.4 10.7,6.7 12.1,6.6 C15.1,6.4 17.5,3.8 17.4,0.7 C19.2,0.8 20.9,0.8 22.7,0.8 Z" id="Path"></path>
                </g>
                <g id="m3PwW1.tif" fill="#EF7922" fill-rule="nonzero">
                    <path d="M7.5,1.7 C7.7,3 8,4.3 8.2,5.6 C8.2,5.8 8.3,5.9 8.3,6.1 C8.4,6.5 8.7,6.7 9.1,6.7 C9.5,6.6 9.7,6.3 9.6,5.8 C9.4,4.4 9.1,3 8.9,1.6 C8.7,0.7 9.1,0.2 10,0.1 C11.1,3.46944695e-18 12.3,3.46944695e-18 13.4,0.1 C13.7,0.1 14,0.4 14.3,0.5 C14.6,0.7 14.6,1 14.6,1.3 C14.3,2.8 14.1,4.2 13.8,5.7 C13.7,6.3 13.9,6.6 14.3,6.7 C14.7,6.8 15.1,6.5 15.2,5.9 C15.5,4.5 15.7,3.2 15.9,1.8 C18.4,2.5 20.6,6 21,10 C21.1,10 21.2,10 21.3,10 C22.1,10.1 22.7,10.6 22.6,11.4 C22.6,12.2 22,12.7 21.1,12.7 C18.1,12.7 15,12.7 12,12.7 C8.7,12.7 5.3,12.7 2,12.7 C1.1,12.7 0.5,12.1 0.5,11.3 C0.5,10.6 1,10.1 1.8,10 C1.9,10 2,10 2.2,10 C2.5,6.3 4.2,3.5 7.5,1.7 Z" id="Path"></path>
                </g>
            </g>
        </g>
        <g id="icon/header/timesheet" transform="translate(19.000000, 2447.000000)">
            <g>
                <g id="Group">
                    <path d="M3.7,16.5 C3.7,12 7.4,8.3 11.9,8.3 C13.6,8.3 15.2,8.8 16.5,9.7 L16.5,7.1 L16.5,7.1 L12,7.1 L12.2,1.3 L11.9,0.9 L10.4,0.9 L1.9,0.9 C1.9,0.9 0.2,0.9 0.2,2.5 L0.2,21.4 C0.2,21.4 0.3,23.1 2,23.1 L7.1,23.1 C5,21.6 3.7,19.2 3.7,16.5 Z" id="Path" stroke="#F27921" stroke-width="0.5" fill="#FFFFFF" fill-rule="nonzero"></path>
                    <path d="M11.9,0.9 L16.5,7.1" id="Path" stroke="#F27921" stroke-width="0.5"></path>
                    <polygon id="Path" fill="#FCE4D3" fill-rule="nonzero" points="16.1 6.9 12.3 6.9 12.3 1.9 14.3 4.5"></polygon>
                </g>
                <circle id="Oval" fill="#F27921" fill-rule="nonzero" cx="11.9" cy="16.5" r="8.5"></circle>
                <g id="Group" transform="translate(11.000000, 18.000000)" stroke="#FFFFFF" stroke-linecap="round" stroke-width="0.5">
                    <path d="M6.1,1.1 L0.5,1.1" id="Path"></path>
                </g>
                <path d="M11.4,11.9 L11.4,19.1" id="Path" stroke="#FFFFFF" stroke-width="0.5" stroke-linecap="round"></path>
            </g>
        </g>
    </g>
</svg>