<?xml version="1.0" encoding="UTF-8"?>
<svg width="1022px" height="182px" viewBox="0 0 1022 182" version="1.1" xmlns="http://www.w3.org/2000/svg" xmlns:xlink="http://www.w3.org/1999/xlink">
    <!-- Generator: Sketch 61 (89581) - https://sketch.com -->
    <title>sprite_analytics_display</title>
    <desc>Created with Sketch.</desc>
    <defs>
        <path d="M0.5,30.5 C0.5,13.93 13.93,0.5 30.5,0.5 C47.07,0.5 60.5,13.93 60.5,30.5 C60.5,47.07 47.07,60.5 30.5,60.5 C13.93,60.5 0.5,47.07 0.5,30.5 L0.5,30.5 Z" id="path-1"></path>
        <path d="M0.900001526,30.0999985 C0.900001526,13.5299985 14.3300015,0.0999984741 30.9000015,0.0999984741 C47.4690015,0.0999984741 60.9000015,13.5299985 60.9000015,30.0999985 C60.9000015,46.6699985 47.4690015,60.0999985 30.9000015,60.0999985 C14.3300015,60.0999985 0.900001526,46.6699985 0.900001526,30.0999985 L0.900001526,30.0999985 Z" id="path-3"></path>
        <polygon id="path-5" points="0 60 60 60 60 0 0 0"></polygon>
        <polygon id="path-7" points="0 60 60 60 60 0 0 0"></polygon>
        <polygon id="path-9" points="0 60 60 60 60 0 0 0"></polygon>
        <polygon id="path-11" points="0 60 60 60 60 0 0 0"></polygon>
        <polygon id="path-13" points="0 60 60 60 60 0 0 0"></polygon>
        <polygon id="path-15" points="0 60 60 60 60 0 0 0"></polygon>
        <polygon id="path-17" points="0 60 60 60 60 0 0 0"></polygon>
        <polygon id="path-19" points="0 60 60 60 60 0 0 0"></polygon>
        <polygon id="path-21" points="0 60 60 60 60 0 0 0"></polygon>
        <polygon id="path-23" points="0 60 60 60 60 0 0 0"></polygon>
        <path d="M30.1000061,0.0999984741 C46.6690061,0.0999984741 60.1000061,13.5299985 60.1000061,30.0999985 C60.1000061,46.6699985 46.6690061,60.0999985 30.1000061,60.0999985 C13.5300061,60.0999985 0.100006104,46.6699985 0.100006104,30.0999985 C0.100006104,13.5299985 13.5300061,0.0999984741 30.1000061,0.0999984741 Z" id="path-25"></path>
        <path d="M0,29.5 C0,13.1766667 13.1766667,0 29.5,0 C45.8233333,0 59,13.1766667 59,29.5 C59,45.8233333 45.8233333,59 29.5,59 C13.1766667,59 0,45.8233333 0,29.5 L0,29.5 Z" id="path-27"></path>
        <path d="M0.100006104,30.0999985 C0.100006104,13.5299985 13.5300061,0.0999984741 30.1000061,0.0999984741 C46.6700061,0.0999984741 60.1000061,13.5299985 60.1000061,30.0999985 C60.1000061,46.6699985 46.6700061,60.0999985 30.1000061,60.0999985 C13.5300061,60.0999985 0.100006104,46.6699985 0.100006104,30.0999985 L0.100006104,30.0999985 Z" id="path-29"></path>
        <path d="M30,60 C46.568542,60 60,46.5685425 60,30 C60,13.4314575 46.568542,0 30,0 C13.431458,0 0,13.4314575 0,30 C0,46.5685425 13.431458,60 30,60 Z" id="path-31"></path>
        <path d="M0.0999755859,30.1 C0.0999755859,13.53 13.5299756,0.100000001 30.0999756,0.100000001 C46.6699756,0.100000001 60.0999756,13.53 60.0999756,30.1 C60.0999756,46.67 46.6699756,60.1 30.0999756,60.1 C13.5299756,60.1 0.0999755859,46.67 0.0999755859,30.1 L0.0999755859,30.1 Z" id="path-33"></path>
        <path d="M30.5,0.100000001 C47.07,0.100000001 60.5,13.53 60.5,30.1 C60.5,46.67 47.07,60.1 30.5,60.1 C13.93,60.1 0.5,46.67 0.5,30.1 C0.5,13.53 13.93,0.100000001 30.5,0.100000001 Z" id="path-35"></path>
        <path d="M0.5,30.1 C0.5,13.53 13.93,0.100000001 30.5,0.100000001 C47.07,0.100000001 60.5,13.53 60.5,30.1 C60.5,46.67 47.07,60.1 30.5,60.1 C13.93,60.1 0.5,46.67 0.5,30.1 L0.5,30.1 Z" id="path-37"></path>
        <path d="M0.0999755859,30.1 C0.0999755859,13.53 13.5299756,0.100000001 30.0999756,0.100000001 C46.6699756,0.100000001 60.0999756,13.53 60.0999756,30.1 C60.0999756,46.67 46.6699756,60.1 30.0999756,60.1 C13.5299756,60.1 0.0999755859,46.67 0.0999755859,30.1 L0.0999755859,30.1 Z" id="path-39"></path>
        <circle id="path-41" cx="29.1" cy="29.1" r="29"></circle>
        <path d="M0.0999755859,30.1 C0.0999755859,13.53 13.5299756,0.100000001 30.0999756,0.100000001 C46.6699756,0.100000001 60.0999756,13.53 60.0999756,30.1 C60.0999756,46.67 46.6699756,60.1 30.0999756,60.1 C13.5299756,60.1 0.0999755859,46.67 0.0999755859,30.1 L0.0999755859,30.1 Z" id="path-43"></path>
        <path d="M0.0999755859,30.1 C0.0999755859,13.53 13.5299756,0.100000001 30.0999756,0.100000001 C46.6699756,0.100000001 60.0999756,13.53 60.0999756,30.1 C60.0999756,46.67 46.6699756,60.1 30.0999756,60.1 C13.5299756,60.1 0.0999755859,46.67 0.0999755859,30.1 L0.0999755859,30.1 Z" id="path-45"></path>
        <path d="M0.0999755859,30.1 C0.0999755859,13.53 13.5299756,0.100000001 30.0999756,0.100000001 C46.6699756,0.100000001 60.0999756,13.53 60.0999756,30.1 C60.0999756,46.67 46.6699756,60.1 30.0999756,60.1 C13.5299756,60.1 0.0999755859,46.67 0.0999755859,30.1 L0.0999755859,30.1 Z" id="path-47"></path>
        <path d="M0.0999755859,30.1 C0.0999755859,13.53 13.5299756,0.100000001 30.0999756,0.100000001 C46.6699756,0.100000001 60.0999756,13.53 60.0999756,30.1 C60.0999756,46.67 46.6699756,60.1 30.0999756,60.1 C13.5299756,60.1 0.0999755859,46.67 0.0999755859,30.1 L0.0999755859,30.1 Z" id="path-49"></path>
        <path d="M30.2,0.099998 C46.77,0.099998 60.2,13.529998 60.2,30.099998 C60.2,46.669998 46.77,60.099998 30.2,60.099998 C13.63,60.099998 0.200000003,46.669998 0.200000003,30.099998 C0.200000003,13.529998 13.63,0.099998 30.2,0.099998 Z" id="path-51"></path>
        <path d="M30.2,0.099998 C46.77,0.099998 60.2,13.529998 60.2,30.099998 C60.2,46.669998 46.77,60.099998 30.2,60.099998 C13.63,60.099998 0.200000003,46.669998 0.200000003,30.099998 C0.200000003,13.529998 13.63,0.099998 30.2,0.099998 Z" id="path-53"></path>
    </defs>
    <g id="sprite_analytics_display" stroke="none" stroke-width="1" fill="none" fill-rule="evenodd">
        <g id="Group-z" transform="translate(241.000000, 1.000000)">
            <g id="zzz">
                <path d="M0.5,30.5 C0.5,13.93 13.93,0.5 30.5,0.5 C47.07,0.5 60.5,13.93 60.5,30.5 C60.5,47.07 47.07,60.5 30.5,60.5 C13.93,60.5 0.5,47.07 0.5,30.5" id="Fill-1" fill="#FFFFFF"></path>
                <g id="Stroke-3">
                    <g id="path-11-Clipped">
                        <g>
                            <mask id="mask-2" fill="white">
                                <use xlink:href="#path-1"></use>
                            </mask>
                            <g id="path-29"></g>
                            <path d="M0.5,30.5 C0.5,13.93 13.93,0.5 30.5,0.5 C47.07,0.5 60.5,13.93 60.5,30.5 C60.5,47.07 47.07,60.5 30.5,60.5 C13.93,60.5 0.5,47.07 0.5,30.5 L0.5,30.5 Z" id="path-11" stroke="#F27921" stroke-width="2" mask="url(#mask-2)"></path>
                        </g>
                    </g>
                </g>
                <path d="M36.065,19.31 C36.065,20.13 35.235,20.13 34.675,22.04 C34.115,23.41 34.675,26.42 34.675,26.97 C34.675,27.79 30.775,30.52 30.775,31.34 C30.775,31.89 31.615,32.44 32.165,32.99 C31.895,33.26 31.055,33.53 31.055,34.35 C31.055,34.9 31.615,35.17 31.615,35.72 C31.895,37.36 32.165,39.28 32.725,40.92 C34.675,36.82 37.185,32.16 36.345,28.06 C38.855,29.7 42.475,29.7 45.265,31.07 C48.605,32.71 47.775,37.09 49.165,40.37 C42.475,43.11 36.625,43.93 30.215,43.93 C25.205,43.93 19.635,43.11 14.895,41.47 C13.785,40.92 11.835,40.65 11.835,40.1 C11.835,39.28 12.385,37.64 12.385,36.54 C12.945,35.17 13.225,33.53 13.785,32.44 C14.055,31.34 15.735,31.07 16.845,30.8 C18.795,29.98 22.415,29.43 24.645,28.06 C24.365,28.61 24.365,29.43 24.365,30.25 C24.365,34.9 25.205,34.9 27.715,40.92 C28.545,40.37 28.545,39.28 28.545,38.73 C28.825,37.36 29.665,34.9 29.665,34.35 C29.665,33.53 28.825,33.53 28.825,32.99 C28.825,32.16 29.945,31.89 29.945,31.07 C29.945,30.52 27.715,28.88 26.315,27.79 C26.035,25.05 26.315,23.68 24.925,20.67 C24.645,20.4 24.645,19.85 24.645,19.31 L24.645,18.49 C24.925,17.94 24.925,15.75 24.925,15.75 C24.925,13.29 26.875,10.28 30.215,10.28 C35.795,10.28 36.065,16.57 36.065,19.31" id="Fill-5" fill="#F27921"></path>
                <polygon id="Fill-7" fill="#F27921" points="30.3052 30.6699 32.6852 32.6699 31.1752 34.1599 33.0652 40.9899 27.9352 40.9899 29.5952 34.3099 27.9352 32.6699"></polygon>
                <polygon id="Fill-9" fill="#F27921" points="21.1099 36.6201 21.1099 47.6101 14.0599 48.6101 14.0599 50.7201 46.9399 50.7201 46.9399 48.6101 40.2899 47.6101 40.2899 36.6201"></polygon>
            </g>
            <g id="zzz" transform="translate(247.000000, 131.000000)">
                <path d="M20.42,5.7 C20.42,2.55 22.98,1.24344979e-14 26.12,1.24344979e-14 C29.27,1.24344979e-14 31.83,2.55 31.83,5.7 C31.83,8.85 29.27,11.4 26.12,11.4 C22.98,11.4 20.42,8.85 20.42,5.7" id="Fill-77" fill="#E3712B"></path>
                <path d="M38.25,19.58 C37.25,20.83 36,22.33 34.5,22.58 C30.5,23.83 22.25,24.08 21.75,24.08 C21,24.08 19,23.83 19,22.83 C19,22.33 20,21.58 20.5,21.58 C23.25,21.33 33.75,20.83 33.75,18.58 C33.75,16.83 31.5,17.08 30.5,17.08 C30,17.08 24.75,17.58 24.25,17.58 C20.25,17.58 18.5,14.08 14.25,14.08 C12,14.08 7.25,15.58 5.75,17.83 C6,18.08 6,18.33 5.75,26.33 C6,28.33 9.25,27.83 10.75,28.33 C16,29.58 25.75,31.83 26.5,31.83 C29,31.83 36.75,28.33 37.5,27.33 C41.25,23.08 47,13.83 47,13.33 L47,11.58 C46.75,11.58 46.75,11.33 46,11.33 C43.75,11.33 39.5,17.83 38.25,19.58 L38.25,19.58 Z M0,31.64 L4,31.64 L4,14.83 C2.75,14.83 1.5,14.58 0,14.83 L0,31.64 L0,31.64 Z" id="Stroke-78" stroke="#E5712A" stroke-linecap="round" stroke-linejoin="round"></path>
            </g>
            <g id="zzz" transform="translate(365.000000, 126.000000)">
                <path d="M27.1,21.82 L32.63,21.82 C33.07,21.82 33.05,22.59 33.05,23.03 C33.05,23.47 32.7,23.82 32.26,23.82 L25.89,23.82 C25.45,23.82 25.1,23.47 25.1,23.03 L25.1,11.88 C25.1,11.44 25.82,11.09 26.26,11.09 C26.69,11.09 27.1,11.44 27.1,11.88 L27.1,21.82" id="Fill-74" fill="#E5722A"></path>
                <path d="M13.01,5.09 C16.85,0.71 21.33,0 26.47,0 C37.92,0 47.2,9.52 47.2,21.26 C47.2,32.99 37.92,42.51 26.47,42.51 C16.9,42.51 8.84,35.61 6.46,26.57 C6.43,26.49 6.43,26.4 6.41,26.32 L-3.55271368e-15,26.32 L9.53,19.53 L20.62,26.32 L12.17,26.32 L12.27,26.6 C14.49,32.36 19.97,36.68 26.37,36.68 C34.74,36.68 41.52,29.73 41.52,21.15 C41.52,12.58 34.74,5.62 26.37,5.62 C22.79,5.62 19.51,6.89 16.92,9.02 C16.92,9.02 12.81,5.32 13.01,5.09 L13.01,5.09 Z" id="Stroke-75" stroke="#E5712A" stroke-linecap="round" stroke-linejoin="round"></path>
            </g>
            <g id="zzz" transform="translate(481.000000, 131.000000)">
                <path d="M28.86,7.95 C39.82,7.95 48.84,16.79 49.98,27.42 L58,27.42 C56.9,12.4 44.34,1.24344979e-14 29,1.24344979e-14 C13.66,1.24344979e-14 1.1,12.4 0,27.42 L7.74,27.42 C8.88,16.79 17.9,7.95 28.86,7.95 Z" id="Path" stroke="#F27921" fill="#FFFFFF"></path>
                <path d="M28.56,29.88 C28.34,30.33 27.24,31 26.81,31 C25.49,31 24.17,29.66 24.17,28.54 C24.17,26.3 32.73,15.78 34.93,13.77 C33.39,19.14 30.98,24.51 28.56,29.88" id="Fill-76" fill="#F27921"></path>
            </g>
        </g>
        <g id="icon/dashboard/industry/all-industries" transform="translate(1.000000, 1.000000)" fill="#F27921">
            <g id="icon/industry/all-industries">
                <path d="M30,60 C13.4333333,60 0,46.5666667 0,30 C0,13.4333333 13.4333333,-2.13162821e-14 30,-2.13162821e-14 C46.5666667,-2.13162821e-14 60,13.4333333 60,30 C60,46.5666667 46.5666667,60 30,60 L30,60 Z M20.2333333,56.2 C18.7333333,53.5333333 16.9666667,49.4 15.8333333,43.4666667 L5.53333333,43.4666667 C8.73333333,49.3 13.9333333,53.8333333 20.2333333,56.2 L20.2333333,56.2 Z M4.53333333,41.4 L15.4666667,41.4 C15,38.3666667 14.6666667,34.9666667 14.6,31.0333333 L2.03333333,31.0333333 C2.16666667,34.7333333 3.1,38.2 4.53333333,41.4 L4.53333333,41.4 Z M2.06666667,28.9666667 L14.6,28.9666667 C14.6333333,25.0666667 14.9666667,21.6333333 15.4666667,18.6 L4.46666667,18.6 C3.03333333,21.7666667 2.2,25.2666667 2.06666667,28.9666667 L2.06666667,28.9666667 Z M5.5,16.5333333 L15.8,16.5333333 C16.9666667,10.6666667 18.7,6.5 20.1666667,3.83333333 C13.9,6.2 8.7,10.7333333 5.5,16.5333333 L5.5,16.5333333 Z M29.1,2.03333333 C26.9,2.13333333 24.7666667,2.46666667 22.7333333,3.03333333 C21.1666667,5.63333333 19.1333333,10 17.8666667,16.5333333 L29.1,16.5333333 L29.1,2.03333333 Z M29.1,18.6 L17.5333333,18.6 C17.0333333,21.6333333 16.7333333,25.0666667 16.6666667,28.9666667 L29.1,28.9666667 L29.1,18.6 Z M29.1,31.0333333 L16.6666667,31.0333333 C16.7333333,34.9666667 17.0666667,38.3666667 17.5666667,41.4 L29.1,41.4 L29.1,31.0333333 Z M29.1,43.4666667 L17.9333333,43.4666667 C19.2,50.0333333 21.2333333,54.4333333 22.8,57 C24.8,57.5333333 26.9333333,57.8666667 29.1,57.9666667 L29.1,43.4666667 Z M57.9,31.0333333 L45.6666667,31.0333333 C45.6,34.9666667 45.2666667,38.3666667 44.7666667,41.4 L55.4333333,41.4 C56.8666667,38.2 57.7666667,34.7333333 57.9,31.0333333 L57.9,31.0333333 Z M54.4333333,43.4666667 L44.4333333,43.4666667 C43.3,49.3333333 41.5333333,53.4666667 40.0666667,56.1 C46.2333333,53.7333333 51.3,49.2 54.4333333,43.4666667 L54.4333333,43.4666667 Z M31.1666667,57.9 C33.3333333,57.8 35.4666667,57.5 37.5,56.9666667 C39.0666667,54.4 41.0666667,50 42.3333333,43.4666667 L31.1666667,43.4666667 L31.1666667,57.9 Z M31.1666667,41.4 L42.7,41.4 C43.2,38.3666667 43.5333333,34.9666667 43.5666667,31.0333333 L31.1666667,31.0333333 L31.1666667,41.4 Z M31.1666667,28.9666667 L43.6,28.9666667 C43.5333333,25.0666667 43.2,21.6333333 42.7333333,18.6 L31.1666667,18.6 L31.1666667,28.9666667 Z M31.1666667,2.03333333 L31.1666667,16.5333333 L42.4,16.5333333 C41.1333333,10.0333333 39.1333333,5.66666667 37.5666667,3.06666667 C35.5,2.5 33.3666667,2.13333333 31.1666667,2.03333333 L31.1666667,2.03333333 Z M40.1333333,3.93333333 C41.6,6.6 43.3333333,10.7 44.4666667,16.5333333 L54.4666667,16.5333333 C51.3,10.8333333 46.2666667,6.3 40.1333333,3.93333333 L40.1333333,3.93333333 Z M44.8,18.6 C45.3,21.6333333 45.6,25.0666667 45.6666667,28.9666667 L57.9333333,28.9666667 C57.8,25.2666667 56.9333333,21.7666667 55.5,18.6 L44.8,18.6 Z" id="Fill-1"></path>
            </g>
        </g>
        <g id="icon/dashboard/industry/public-sector" transform="translate(120.000000, 121.000000)">
            <g id="icon/industry/public-sector">
                <path d="M0.5,30.5 C0.5,13.93 13.93,0.5 30.5,0.5 C47.069,0.5 60.5,13.93 60.5,30.5 C60.5,47.07 47.069,60.5 30.5,60.5 C13.93,60.5 0.5,47.07 0.5,30.5 L0.5,30.5 Z" id="Fill-1" fill="#FFFFFF"></path>
                <g id="Stroke-3">
                    <g id="path-1-Clipped">
                        <g>
                            <mask id="mask-4" fill="white">
                                <use xlink:href="#path-3"></use>
                            </mask>
                            <g id="path-1"></g>
                            <path d="M0.900001526,30.0999985 C0.900001526,13.5299985 14.3300015,0.0999984741 30.9000015,0.0999984741 C47.4690015,0.0999984741 60.9000015,13.5299985 60.9000015,30.0999985 C60.9000015,46.6699985 47.4690015,60.0999985 30.9000015,60.0999985 C14.3300015,60.0999985 0.900001526,46.6699985 0.900001526,30.0999985 L0.900001526,30.0999985 Z" id="path-1" stroke="#F27921" stroke-width="2" mask="url(#mask-4)"></path>
                        </g>
                    </g>
                </g>
                <g id="Fill-5-Clipped">
                    <g>
                        <mask id="mask-6" fill="white">
                            <use xlink:href="#path-5"></use>
                        </mask>
                        <g id="path-3"></g>
                        <polygon id="Fill-5" fill="#F27921" mask="url(#mask-6)" points="13.5 26.5 20.5 26.5 20.5 25.5 13.5 25.5"></polygon>
                    </g>
                </g>
                <g id="Fill-7-Clipped">
                    <g>
                        <mask id="mask-8" fill="white">
                            <use xlink:href="#path-7"></use>
                        </mask>
                        <g id="path-5"></g>
                        <polygon id="Fill-7" fill="#F27921" mask="url(#mask-8)" points="40.5 26.5 47.5 26.5 47.5 25.5 40.5 25.5"></polygon>
                    </g>
                </g>
                <g id="Fill-8-Clipped">
                    <g>
                        <mask id="mask-10" fill="white">
                            <use xlink:href="#path-9"></use>
                        </mask>
                        <g id="path-7"></g>
                        <polygon id="Fill-8" fill="#F27921" mask="url(#mask-10)" points="26.5 26.5 33.5 26.5 33.5 25.5 26.5 25.5"></polygon>
                    </g>
                </g>
                <g id="Fill-9-Clipped">
                    <g>
                        <mask id="mask-12" fill="white">
                            <use xlink:href="#path-11"></use>
                        </mask>
                        <g id="path-9"></g>
                        <polygon id="Fill-9" fill="#F27921" mask="url(#mask-12)" points="14.5 37.5 19.5 37.5 19.5 26.5 14.5 26.5"></polygon>
                    </g>
                </g>
                <g id="Fill-10-Clipped">
                    <g>
                        <mask id="mask-14" fill="white">
                            <use xlink:href="#path-13"></use>
                        </mask>
                        <g id="path-11"></g>
                        <polygon id="Fill-10" fill="#F27921" mask="url(#mask-14)" points="27.5 37.5 32.5 37.5 32.5 26.5 27.5 26.5"></polygon>
                    </g>
                </g>
                <g id="Fill-11-Clipped">
                    <g>
                        <mask id="mask-16" fill="white">
                            <use xlink:href="#path-15"></use>
                        </mask>
                        <g id="path-13"></g>
                        <polygon id="Fill-11" fill="#F27921" mask="url(#mask-16)" points="41.5 37.5 46.5 37.5 46.5 26.5 41.5 26.5"></polygon>
                    </g>
                </g>
                <g id="Fill-12-Clipped">
                    <g>
                        <mask id="mask-18" fill="white">
                            <use xlink:href="#path-17"></use>
                        </mask>
                        <g id="path-15"></g>
                        <path d="M28.2295,20.3701 C28.2295,19.1901 29.1895,18.2301 30.3705,18.2301 C31.5405,18.2301 32.4995,19.1901 32.4995,20.3701 C32.4995,21.5401 31.5405,22.5001 30.3705,22.5001 C29.1895,22.5001 28.2295,21.5401 28.2295,20.3701 L28.2295,20.3701 Z M30.3705,12.6301 L11.4295,24.5001 L49.2995,24.5001 L30.3705,12.6301 Z" id="Fill-12" fill="#F27921" fill-rule="nonzero" mask="url(#mask-18)"></path>
                    </g>
                </g>
                <g id="Fill-13-Clipped">
                    <g>
                        <mask id="mask-20" fill="white">
                            <use xlink:href="#path-19"></use>
                        </mask>
                        <g id="path-17"></g>
                        <polygon id="Fill-13" fill="#F27921" mask="url(#mask-20)" points="9.5 46.5 51.5 46.5 51.5 44.5 9.5 44.5"></polygon>
                    </g>
                </g>
                <g id="Fill-14-Clipped">
                    <g>
                        <mask id="mask-22" fill="white">
                            <use xlink:href="#path-21"></use>
                        </mask>
                        <g id="path-19"></g>
                        <polygon id="Fill-14" fill="#F27921" mask="url(#mask-22)" points="11.5 43.5 49.5 43.5 49.5 41.5 11.5 41.5"></polygon>
                    </g>
                </g>
                <g id="Fill-15-Clipped">
                    <g>
                        <mask id="mask-24" fill="white">
                            <use xlink:href="#path-23"></use>
                        </mask>
                        <g id="path-21"></g>
                        <polygon id="Fill-15" fill="#F27921" mask="url(#mask-24)" points="13.5 40.5 47.5 40.5 47.5 38.5 13.5 38.5"></polygon>
                    </g>
                </g>
            </g>
        </g>
        <g id="icon/dashboard/industry/oil-gas" transform="translate(241.000000, 121.000000)">
            <g id="icon/industry/oil-gas">
                <path d="M0.5,30.5 C0.5,13.93 13.93,0.5 30.5,0.5 C47.069,0.5 60.5,13.93 60.5,30.5 C60.5,47.07 47.069,60.5 30.5,60.5 C13.93,60.5 0.5,47.07 0.5,30.5" id="Fill-1" fill="#FFFFFF"></path>
                <g id="Stroke-3">
                    <g id="path-5-Clipped">
                        <g>
                            <mask id="mask-26" fill="white">
                                <use xlink:href="#path-25"></use>
                            </mask>
                            <g id="path-23"></g>
                            <path d="M30.1000061,0.0999984741 C46.6690061,0.0999984741 60.1000061,13.5299985 60.1000061,30.0999985 C60.1000061,46.6699985 46.6690061,60.0999985 30.1000061,60.0999985 C13.5300061,60.0999985 0.100006104,46.6699985 0.100006104,30.0999985 C0.100006104,13.5299985 13.5300061,0.0999984741 30.1000061,0.0999984741 Z" id="path-5" stroke="#F27921" stroke-width="2" mask="url(#mask-26)"></path>
                        </g>
                    </g>
                </g>
                <g id="NEW-TRANSIT-ICON" transform="translate(1.000000, 1.000000)">
                    <g id="Stroke-3_12_">
                        <g id="path-5-Clipped_1_">
                            <mask id="mask-28" fill="white">
                                <use xlink:href="#path-27"></use>
                            </mask>
                            <g id="Mask"></g>
                            <g id="Group" mask="url(#mask-28)">
                                <g transform="translate(-6.000000, 10.000000)">
                                    <path d="M42.1,18 C42.4,19.2 42.6,19.8 42.8,19.7 C42.8,19.7 43.3,19.6 43.2,17.4 C43.2,17 43,13.6 43.1,13 C43.2,12.4 43.4,12 43.8,11.7 C44.5,11.1 45.9,11.1 45.9,11.1 L45.9,12.6 C45.9,12.6 45.9,12.9 45.9,12.6 C45.9,12.4 45.1,12.4 44.7,12.9 C44.2,13.5 44.5,15.5 44.5,17.6 C44.5,19.7 44.5,20.3 43.9,21.1 C43.6,21.5 42.7,21.6 42,21.2 C41,20.7 40.2,15.9 40.2,15.9 C40,16 39.8,15 39.8,15 C39.5,14.7 39.1,14.8 38.8,14.8 C38.5,14.7 38.2,14.4 38,14.1 C36.8,12.2 36.7,12.1 36.5,11.7 C36.4,11.5 36.2,10.5 36.1,9.9 C35.4,10 34.6,10.2 33.9,10.3 L33.3,9.3 C37.9,8.9 36.5,7.6 38.2,10.4 L40.9,14.2 C41,14.3 41.9,16.8 42.1,18 Z M57.7,3.6 L57.7,8.2 L48.2,8.2 L48.2,3.1 L56.7,3.1 C57.1,3.2 57.4,3.3 57.7,3.6 Z M58.8,0.2 C59.1,0.2 59.8,0.3 59.8,0.8 L59.8,23.5 C60.2,23.5 60.6,23.2 60.9,23.3 C61.8,23.7 60.8,24.6 61.1,25.6 L44.5,25.6 L44.5,23.9 C45,23.1 45.2,23.6 46,23.6 L46,0.7 C46.1,0.4 46.5,0.2 46.8,0.2 L58.8,0.2 Z M57.7,3.6 L57.7,8.2 L48.2,8.2 L48.2,3.1 L56.7,3.1 C57.1,3.2 57.4,3.3 57.7,3.6 Z" id="Shape" fill="#F27921" fill-rule="nonzero"></path>
                                    <g id="Group" stroke-width="1" fill="none" fill-rule="evenodd" transform="translate(0.000000, 7.000000)">
                                        <path d="M38.9,29 L9.2,29 C4.2,29 0.1,24.9 0.1,19.9 L0.1,19.9 C0.1,14.9 6.6,12.7 9.2,11.8 C9.2,11.8 16.2,9.6 23.2,9.6 C32.2,9.6 38.9,11.8 38.9,11.8 C44.6,13.4 48,14.8 48,19.9 L48,19.9 C48,24.9 43.9,29 38.9,29 Z" id="Path" fill="#F27921"></path>
                                        <path d="M12.1,35 L9.5,35 C8.3,35 7.3,34 7.3,32.8 L7.3,28.1 C7.3,26.9 8.3,25.9 9.5,25.9 L12.1,25.9 C13.3,25.9 14.3,26.9 14.3,28.1 L14.3,32.8 C14.3,34 13.3,35 12.1,35 Z" id="Path" fill="#F27921"></path>
                                        <path d="M36.4,35 L39,35 C40.2,35 41.2,34 41.2,32.8 L41.2,28.1 C41.2,26.9 40.2,25.9 39,25.9 L36.4,25.9 C35.2,25.9 34.2,26.9 34.2,28.1 L34.2,32.8 C34.2,34 35.2,35 36.4,35 Z" id="Path" fill="#F27921"></path>
                                        <path d="M40.6,14.2 C41.1,15.6 40.5,11.9 40.3,10.3 L40.3,10.3 C39.4,4.5 35.6,-2.84217094e-14 30,-2.84217094e-14 L24.2,-2.84217094e-14 L24.2,-2.84217094e-14 L18.4,-2.84217094e-14 C12.7,-2.84217094e-14 9,4.6 8.1,10.3 L8.1,10.3 C8,11 7.9,12 7.7,12.9 C7.5,14.1 7.5,14.9 7.7,14.1 C7.7,14.1 13.2,12.3 17.5,11.9 C21.8,11.5 22.5,11.4 24.7,11.5 C26.9,11.6 30.1,11.6 34,12.4 C37.9,13.2 40.6,14.2 40.6,14.2 Z" id="Path" stroke="#F27921" stroke-width="3" fill="#FFFFFF"></path>
                                        <circle id="Oval" fill="#FFFFFF" cx="8.1" cy="20.4" r="4.3"></circle>
                                        <circle id="Oval" fill="#FFFFFF" cx="39.9" cy="20.4" r="4.3"></circle>
                                    </g>
                                    <path d="M57.8,3.6 L57.8,8.2 L48.3,8.2 L48.3,3.1 L56.8,3.1 C57.2,3.2 57.5,3.3 57.8,3.6 Z" id="Path" fill="#FFFFFF" fill-rule="evenodd"></path>
                                </g>
                            </g>
                        </g>
                    </g>
                </g>
            </g>
        </g>
        <g id="icon/dashboard/industry/mfg-mining" transform="translate(361.000000, 121.000000)">
            <g id="icon/industry/mfg-mining">
                <path d="M0.5,30.5 C0.5,13.93 13.93,0.5 30.5,0.5 C47.07,0.5 60.5,13.93 60.5,30.5 C60.5,47.07 47.07,60.5 30.5,60.5 C13.93,60.5 0.5,47.07 0.5,30.5" id="Fill-1" fill="#FFFFFF"></path>
                <g id="Stroke-3">
                    <g id="path-7-Clipped">
                        <g>
                            <mask id="mask-30" fill="white">
                                <use xlink:href="#path-29"></use>
                            </mask>
                            <g id="path-25"></g>
                            <path d="M0.100006104,30.0999985 C0.100006104,13.5299985 13.5300061,0.0999984741 30.1000061,0.0999984741 C46.6700061,0.0999984741 60.1000061,13.5299985 60.1000061,30.0999985 C60.1000061,46.6699985 46.6700061,60.0999985 30.1000061,60.0999985 C13.5300061,60.0999985 0.100006104,46.6699985 0.100006104,30.0999985 L0.100006104,30.0999985 Z" id="path-7" stroke="#F27921" stroke-width="2" mask="url(#mask-30)"></path>
                        </g>
                    </g>
                </g>
                <path d="M26.9199,17.9301 C25.3199,18.8901 23.4099,20.1601 21.6599,21.6001 L30.0999,29.8801 L37.9099,22.3901 L33.6099,17.9301 L37.1099,14.4301 L41.5699,18.7301 L42.0499,18.2501 C42.5299,18.5701 43.1599,19.2101 43.7999,19.8401 L43.3199,20.3201 C46.1899,23.0301 46.9899,26.6901 48.7399,29.5601 C45.5499,27.8101 41.7299,26.6901 39.8199,24.1501 L32.1699,31.7901 L44.4399,44.0601 C43.7999,45.0101 42.9999,45.8101 42.2099,46.4501 L30.0999,34.0201 L17.8399,46.2901 C17.1999,46.1301 15.6099,44.5301 15.7699,44.0601 L27.8699,31.9501 L19.9099,23.5101 C18.3099,24.7801 17.0399,27.1701 16.2399,28.7601 C14.9699,27.8101 13.5399,26.5301 12.2599,25.4201 C14.0099,21.2801 19.5899,15.8601 23.4099,14.1101 L26.9199,17.9301 Z" id="Fill-5" fill="#F27921"></path>
            </g>
        </g>
        <g id="icon/dashboard/industry/education" transform="translate(121.000000, 1.000000)">
            <g id="icon/industry/education">
                <g id="path-9-Clipped">
                    <g>
                        <mask id="mask-32" fill="white">
                            <use xlink:href="#path-31"></use>
                        </mask>
                        <g id="path-27"></g>
                        <path d="M30,60 C46.568542,60 60,46.5685425 60,30 C60,13.4314575 46.568542,0 30,0 C13.431458,0 0,13.4314575 0,30 C0,46.5685425 13.431458,60 30,60 Z" id="path-9" stroke="#F27921" stroke-width="2" fill="#FFFFFF" mask="url(#mask-32)"></path>
                    </g>
                </g>
                <path d="M55.625454,39.2 C55.625454,39.2 37.658182,35.8 30.785454,39.2 C30.785454,39.2 35.4,35.3 55.625454,37.8 L55.625454,39.2 L55.625454,39.2 Z" id="Shape" fill="#F27921"></path>
                <path d="M54.152727,35.5 C54.152727,35.5 36.774545,34.3 30.294545,38.6 C30.294545,38.6 35.203636,33.5 53.465454,34.3 L54.152727,35.5 L54.152727,35.5 Z" id="Shape" fill="#F27921"></path>
                <path d="M52.778182,32.7 C52.778182,32.7 38.738182,30.7 30.294545,38.3 C30.294545,38.3 35.203636,29.3 52.287273,31.3 L52.778182,32.7 L52.778182,32.7 Z" id="Shape" fill="#F27921"></path>
                <path d="M50.127273,28.7 C50.127273,28.7 37.56,27.1 30.098182,38.2 C30.098182,38.2 35.203636,26.9 48.949091,27.3 L50.127273,28.7 L50.127273,28.7 Z" id="Shape" fill="#F27921"></path>
                <path d="M46.003636,25.7 C46.003636,25.7 36.872727,24.7 29.803636,38.3 C29.803636,38.3 33.632727,25 44.432727,24.5 L46.003636,25.7 L46.003636,25.7 Z" id="Shape" fill="#F27921"></path>
                <path d="M32.16,41.8 C31.963636,40.6 31.963636,38.3 33.436364,38.7 L56.901818,43.2 C56.705454,44.4 56.705454,45.3 56.705454,45.9 L34.810909,41.7 C35.498182,44.4 31.276364,45 30.196364,45 C28.92,45 24.894545,44.4 25.778182,41.7 L3.883636,45.9 C3.883636,45.6 3.200195,45.0729492 3.200195,43.2729492 L27.152727,38.3 C28.232727,37.9 28.232727,40.3 28.429091,41.8 L32.16,41.8 Z" id="Shape" fill="#F27921"></path>
                <path d="M4.570909,39.2 C4.570909,39.2 22.047273,35.8 28.821818,39.2 C28.821818,39.2 24.501818,35.3 4.570909,37.8 L4.570909,39.2 L4.570909,39.2 Z" id="Shape" fill="#F27921"></path>
                <path d="M6.141818,35.5 C6.141818,35.5 23.127273,34.3 29.607273,38.6 C29.607273,38.6 24.698182,33.5 6.829091,34.3 L6.141818,35.5 L6.141818,35.5 Z" id="Shape" fill="#F27921"></path>
                <path d="M7.516364,32.7 C7.516364,32.7 21.36,30.7 29.607273,38.3 C29.607273,38.3 24.698182,29.3 7.909091,31.3 L7.516364,32.7 L7.516364,32.7 Z" id="Shape" fill="#F27921"></path>
                <path d="M10.167273,28.7 C10.167273,28.7 22.538182,27.1 29.901818,38.2 C29.901818,38.2 24.894545,26.9 11.345455,27.3 L10.167273,28.7 L10.167273,28.7 Z" id="Shape" fill="#F27921"></path>
                <path d="M14.094546,25.7 C14.094546,25.7 23.029091,24.7 30,38.3 C30,38.3 26.269091,25 15.665455,24.5 L14.094546,25.7 L14.094546,25.7 Z" id="Shape" fill="#F27921"></path>
            </g>
        </g>
        <g id="icon/dashboard/industry/ci-topX" transform="translate(961.000000, 121.000000)">
            <g id="icon/industry/ci-topX">
                <path d="M0.0999755859,30.1 C0.0999755859,13.53 13.5299756,0.100000001 30.0999756,0.100000001 C46.6699756,0.100000001 60.0999756,13.53 60.0999756,30.1 C60.0999756,46.67 46.6699756,60.1 30.0999756,60.1 C13.5299756,60.1 0.0999755859,46.67 0.0999755859,30.1 L0.0999755859,30.1 Z" id="path-23" fill="#FFFFFF"></path>
                <g id="Group" transform="translate(16.000000, 25.000000)" fill="#F27921">
                    <polygon id="Path-2" points="0 5 5.44705767 12 11 12 5.44705767 5"></polygon>
                    <polygon id="Path-3" points="12 12.2282385 23.952069 8 27 12.2282385 15.4037772 17"></polygon>
                    <polygon id="Path-4" points="3 0.907051857 4.74243173 4 15 2.35560572 12.4930187 0"></polygon>
                    <polygon id="Path-5" points="17.5863404 0 15 2.19907728 23.7103167 7 27 3.5"></polygon>
                    <polygon id="Path-6" points="5 13 11.1890091 13 15.1078077 18.1452007 23 14.9226745 23 19.4967993 12.5208641 24 5 15.5726003"></polygon>
                </g>
                <g id="Stroke-3">
                    <g id="path-23-Clipped">
                        <g>
                            <mask id="mask-34" fill="white">
                                <use xlink:href="#path-33"></use>
                            </mask>
                            <g id="path-45"></g>
                            <path d="M0.0999755859,30.1 C0.0999755859,13.53 13.5299756,0.100000001 30.0999756,0.100000001 C46.6699756,0.100000001 60.0999756,13.53 60.0999756,30.1 C60.0999756,46.67 46.6699756,60.1 30.0999756,60.1 C13.5299756,60.1 0.0999755859,46.67 0.0999755859,30.1 L0.0999755859,30.1 Z" id="path-23" stroke="#F27921" stroke-width="2" mask="url(#mask-34)"></path>
                        </g>
                    </g>
                </g>
                <text id="10" fill="#F27921" font-family="OpenSans-Semibold, Open Sans" font-size="13" font-weight="500">
                    <tspan x="23" y="22">10</tspan>
                </text>
            </g>
        </g>
        <g id="icon/dashboard/industry/com-media" transform="translate(361.000000, 1.000000)">
            <g id="icon/industry/com-media">
                <path d="M0.5,30.5 C0.5,13.93 13.93,0.5 30.5,0.5 C47.07,0.5 60.5,13.93 60.5,30.5 C60.5,47.07 47.07,60.5 30.5,60.5 C13.93,60.5 0.5,47.07 0.5,30.5" id="Fill-1" fill="#FFFFFF"></path>
                <g id="Stroke-3">
                    <g id="path-13-Clipped">
                        <g>
                            <mask id="mask-36" fill="white">
                                <use xlink:href="#path-35"></use>
                            </mask>
                            <g id="path-31"></g>
                            <path d="M30.5,0.100000001 C47.07,0.100000001 60.5,13.53 60.5,30.1 C60.5,46.67 47.07,60.1 30.5,60.1 C13.93,60.1 0.5,46.67 0.5,30.1 C0.5,13.53 13.93,0.100000001 30.5,0.100000001 Z" id="path-13" stroke="#FF9949" stroke-width="2" mask="url(#mask-36)"></path>
                        </g>
                    </g>
                </g>
                <path d="M28.9751,40.04 C28.9751,38.64 30.1151,37.51 31.5151,37.51 C32.9251,37.51 34.0651,38.64 34.0651,40.04 C34.0651,41.44 32.9251,42.57 31.5151,42.57 C30.1151,42.57 28.9751,41.44 28.9751,40.04 M29.8951,33.28 C29.8951,32.39 30.6251,31.66 31.5151,31.66 C32.4151,31.66 33.1451,32.39 33.1451,33.28 C33.1451,34.18 32.4151,34.9 31.5151,34.9 C30.6251,34.9 29.8951,34.18 29.8951,33.28 M33.6051,26.1 L33.6051,25.17 C34.6451,24.45 35.4951,23.26 35.4951,21.91 C35.4951,19.72 33.7151,17.95 31.5151,17.95 C29.3251,17.95 27.5451,19.72 27.5451,21.91 C27.5451,23.47 28.4551,24.82 29.7851,25.46 L29.7851,25.61 C29.7851,29.07 20.8451,48.33 17.3651,51.29 C17.8651,51.29 18.3551,51.79 23.8251,51.79 C23.8251,51.29 24.8151,51.29 24.8151,50.8 C23.3251,46.85 28.2951,45.37 31.7651,45.37 C32.7651,45.37 38.7251,46.56 38.7251,49.03 C38.7251,50.02 38.7251,51.01 39.2151,51.5 L45.6751,51.5 C41.7051,47.05 37.5751,38.66 35.5951,33.72 C34.5951,31.25 33.6051,27.59 33.6051,26.1" id="Fill-5" fill="#F27921" fill-rule="nonzero"></path>
                <path d="M28.9751,40.04 C28.9751,38.64 30.1151,37.51 31.5151,37.51 C32.9251,37.51 34.0651,38.64 34.0651,40.04 C34.0651,41.44 32.9251,42.57 31.5151,42.57 C30.1151,42.57 28.9751,41.44 28.9751,40.04 L28.9751,40.04 Z M29.8951,33.28 C29.8951,32.39 30.6251,31.66 31.5151,31.66 C32.4151,31.66 33.1451,32.39 33.1451,33.28 C33.1451,34.18 32.4151,34.9 31.5151,34.9 C30.6251,34.9 29.8951,34.18 29.8951,33.28 L29.8951,33.28 Z M33.6051,26.1 L33.6051,25.17 C34.6451,24.45 35.4951,23.26 35.4951,21.91 C35.4951,19.72 33.7151,17.95 31.5151,17.95 C29.3251,17.95 27.5451,19.72 27.5451,21.91 C27.5451,23.47 28.4551,24.82 29.7851,25.46 L29.7851,25.61 C29.7851,29.07 20.8451,48.33 17.3651,51.29 C17.8651,51.29 18.3551,51.79 23.8251,51.79 C23.8251,51.29 24.8151,51.29 24.8151,50.8 C23.3251,46.85 28.2951,45.37 31.7651,45.37 C32.7651,45.37 38.7251,46.56 38.7251,49.03 C38.7251,50.02 38.7251,51.01 39.2151,51.5 L45.6751,51.5 C41.7051,47.05 37.5751,38.66 35.5951,33.72 C34.5951,31.25 33.6051,27.59 33.6051,26.1 L33.6051,26.1 Z" id="Stroke-7" stroke="#F27921" stroke-linecap="round" stroke-linejoin="round"></path>
                <path d="M22.6049,29.98 C19.8749,28.32 17.5849,25.32 17.5849,21.91 C17.5849,18.49 19.8749,15.49 22.6049,13.83 L22.6049,10.58 C18.2149,12.49 14.6849,16.84 14.6849,21.91 C14.6849,26.97 18.2149,31.32 22.6049,33.23 L22.6049,29.98 Z" id="Fill-9" fill="#F27921"></path>
                <path d="M39.6049,30.01 C42.1749,28.34 43.5949,25.34 43.5949,21.91 C43.5949,18.47 42.1749,15.47 39.6049,13.8 L39.6049,10.54 C43.7349,12.46 46.3149,16.82 46.3149,21.91 C46.3149,26.99 43.7349,31.35 39.6049,33.27 L39.6049,30.01 Z" id="Fill-11" fill="#F27921"></path>
                <path d="M23.6049,24.7099 C23.1349,23.8899 22.3949,22.9299 22.3949,21.9099 C22.3949,20.8799 23.1349,19.9299 23.6049,19.0999 L23.6049,16.3799 C22.0849,17.7399 20.6549,19.7099 20.6549,21.9099 C20.6549,24.0999 22.0849,26.0699 23.6049,27.4299 L23.6049,24.7099 Z" id="Fill-13" fill="#F27921"></path>
                <path d="M38.6049,24.72 C39.0549,23.89 38.9449,22.93 38.9449,21.91 C38.9449,20.88 39.0549,19.92 38.6049,19.09 L38.6049,16.36 C40.0349,17.73 40.5749,19.7 40.5749,21.91 C40.5749,24.11 40.0349,26.09 38.6049,27.45 L38.6049,24.72 Z" id="Fill-15" fill="#F27921"></path>
            </g>
        </g>
        <g id="icon/dashboard/industry/finance-services" transform="translate(481.000000, 1.000000)">
            <g id="icon/industry/finance-services">
                <path d="M0.5,30.5 C0.5,13.93 13.93,0.5 30.5,0.5 C47.07,0.5 60.5,13.93 60.5,30.5 C60.5,47.07 47.07,60.5 30.5,60.5 C13.93,60.5 0.5,47.07 0.5,30.5" id="Fill-1" fill="#FFFFFF"></path>
                <g id="Stroke-3">
                    <g id="path-15-Clipped">
                        <g>
                            <mask id="mask-38" fill="white">
                                <use xlink:href="#path-37"></use>
                            </mask>
                            <g id="path-33"></g>
                            <path d="M0.5,30.1 C0.5,13.53 13.93,0.100000001 30.5,0.100000001 C47.07,0.100000001 60.5,13.53 60.5,30.1 C60.5,46.67 47.07,60.1 30.5,60.1 C13.93,60.1 0.5,46.67 0.5,30.1 L0.5,30.1 Z" id="path-15" stroke="#F27921" stroke-width="2" mask="url(#mask-38)"></path>
                        </g>
                    </g>
                </g>
                <path d="M21.7202,54.5 L21.7202,51.5 C23.4902,51.41 25.0202,50.75 26.1502,49.52 C27.2602,48.3 27.8202,46.75 27.8202,44.91 C27.8202,44.08 27.6802,43.3 27.4102,42.58 C27.1502,41.86 26.7702,41.25 26.2702,40.72 C25.7702,40.2 25.0302,39.77 24.2502,39.39 C23.8302,39.2 22.9902,38.97 21.7202,38.66 L21.7202,32.5 C22.2802,32.61 22.7402,32.83 23.0602,33.14 C23.3902,33.45 23.7102,33.91 23.8202,34.5 L26.8202,34.5 C26.6002,32.92 25.9102,31.69 24.9102,30.78 C24.1102,30.06 23.0502,29.64 21.7202,29.5 L21.7202,28.5 L19.7202,28.5 L19.7202,29.5 C17.9502,29.67 16.6302,30.12 15.7402,30.84 C14.3902,31.92 13.8202,33.33 13.8202,35.08 C13.8202,36.06 14.0302,36.94 14.4602,37.7 C14.8802,38.48 15.3902,39.08 16.1702,39.52 C17.2402,40.11 18.4102,40.62 19.7202,41.05 L19.7202,48.5 C18.6102,48.41 17.6602,47.97 16.8802,47.16 C16.3102,46.59 16.0402,45.72 15.8202,44.5 L12.8202,44.5 C12.9202,46 13.3102,47.27 13.9602,48.3 C14.6202,49.33 15.3002,50.08 16.2102,50.55 C17.1102,51.02 18.2802,51.33 19.7202,51.5 L19.7202,54.5 L21.8202,54.5 L21.7202,54.5 Z M19.7202,38.02 C18.3602,37.58 17.6202,37.14 17.3102,36.7 C16.9802,36.27 16.8202,35.73 16.8202,35.08 C16.8202,34.44 16.9902,33.88 17.5202,33.39 C18.0502,32.92 18.7802,32.62 19.7202,32.5 L19.7202,38.02 Z M21.7202,41.7 C22.6302,42 23.4402,42.41 23.9902,42.91 C24.5402,43.41 24.8202,44.08 24.8202,44.89 C24.8202,45.88 24.4202,46.69 23.8602,47.34 C23.3002,48 22.5802,48.39 21.7202,48.5 L21.7202,41.7 Z" id="Fill-5" fill="#F27921" fill-rule="nonzero"></path>
                <path d="M33.7202,28.5 L33.7202,25.5 L39.7202,25.5 L39.7202,22.5 L33.7202,22.5 L33.7202,20.5 L39.7202,20.5 L39.7202,17.5 L34.8702,17.5 L40.3702,6.5 L37.3702,6.5 L33.2002,14.02 L31.8102,16.55 C31.4502,15.89 31.0302,15.12 30.5602,14.23 L26.3702,6.5 L23.3702,6.5 L28.8702,17.5 L24.7202,17.5 L24.7202,20.5 L30.7202,20.5 L30.7202,22.5 L24.7202,22.5 L24.7202,25.5 L30.7202,25.5 L30.7202,28.5 L33.3702,28.5 L33.7202,28.5 Z" id="Fill-7" fill="#F27921"></path>
                <path d="M47.5806,33.5 L48.1806,30.72 C46.9396,29.91 45.4306,29.5 43.6306,29.5 C41.7606,29.5 40.0406,29.92 38.4796,30.77 C35.9506,32.14 34.3906,34.38 33.7906,37.5 L32.0306,37.5 L31.5906,39.5 L33.6006,39.5 C33.5906,39.72 33.5906,39.92 33.5906,40.12 C33.5906,40.62 33.6006,41.08 33.6406,41.5 L32.0306,41.5 L31.5906,43.5 L33.9306,43.5 C34.1496,44.53 34.4206,45.41 34.7296,46.12 C36.2606,49.72 39.3506,51.5 43.7206,51.5 C45.1706,51.5 46.5006,51.22 47.7206,50.62 L47.7206,47.5 C46.7006,48.17 45.3006,48.5 43.5196,48.5 C42.2406,48.5 40.8996,48.22 39.8106,47.62 C38.2696,46.81 37.3106,45.44 36.8996,43.5 L45.1606,43.5 L45.5806,41.5 L36.6006,41.5 C36.5906,41.34 36.5906,40.89 36.5906,40.11 C36.5906,39.92 36.5906,39.72 36.6006,39.5 L46.1806,39.5 L46.5806,37.5 L36.8206,37.5 C36.9206,36.81 37.2296,36.06 37.7696,35.28 C38.2906,34.53 38.8806,33.95 39.5406,33.53 C40.6306,32.84 41.9796,32.5 43.6006,32.5 C45.0906,32.5 46.4106,32.84 47.5806,33.5" id="Fill-9" fill="#F27921"></path>
            </g>
        </g>
        <g id="icon/dashboard/industry/food-bev" transform="translate(601.000000, 1.000000)">
            <g id="icon/industry/food-bev">
                <path d="M0.5,30.5 C0.5,13.93 13.93,0.5 30.5,0.5 C47.07,0.5 60.5,13.93 60.5,30.5 C60.5,47.07 47.07,60.5 30.5,60.5 C13.93,60.5 0.5,47.07 0.5,30.5" id="Fill-1" fill="#FFFFFF"></path>
                <g id="Stroke-3">
                    <g id="path-17-Clipped">
                        <g>
                            <mask id="mask-40" fill="white">
                                <use xlink:href="#path-39"></use>
                            </mask>
                            <g id="path-35"></g>
                            <path d="M0.0999755859,30.1 C0.0999755859,13.53 13.5299756,0.100000001 30.0999756,0.100000001 C46.6699756,0.100000001 60.0999756,13.53 60.0999756,30.1 C60.0999756,46.67 46.6699756,60.1 30.0999756,60.1 C13.5299756,60.1 0.0999755859,46.67 0.0999755859,30.1 L0.0999755859,30.1 Z" id="path-17" stroke="#FF9949" stroke-width="2" mask="url(#mask-40)"></path>
                        </g>
                    </g>
                </g>
                <g id="NEW-GOODS-ICON" transform="translate(1.000000, 1.000000)">
                    <mask id="mask-42" fill="white">
                        <use xlink:href="#path-41"></use>
                    </mask>
                    <g id="Mask"></g>
                    <g id="Group" mask="url(#mask-42)">
                        <g transform="translate(-8.000000, 0.000000)">
                            <g id="Group" stroke-width="1" fill="none" fill-rule="evenodd" transform="translate(0.000000, 4.000000)">
                                <path d="M52.8,2.8 C52.8,4.1 52.9,5.5 52.8,6.8 L39.2,6.8 C39.6,9.2 40.5,11.8 43,14.2 C38.7,12.8 37.3,8.3 37.3,5.2 C37.3,5 37.4,3.7 37.6,2.8 C37.6,2.8 52.8,2.8 52.8,2.8 Z M54.1,0.4 C54.4,1.8 54.9,3.4 54.9,4.8 C54.9,7.8 54,11.2 51.1,13.9 C49.8,15.1 46,16.9 46,18.4 L46,22.5 C47.3,24.4 49.2,24.3 50.9,25.6 L50.9,26 L39.4,26 C39.4,26 39.3,26 39.3,25.8 C39.3,25.4 39.7,25.5 40.1,25.4 C41.5,24.3 43.1,24.2 44.4,22.7 L44.4,18.4 C43.7,16.3 40.8,15.4 39.3,14 C37.8,12.6 36.7,10.7 36.2,9.1 C36,8.2 35.6,6.5 35.6,6.3 L35.6,3.8 C35.8,2.6 36.1,1.5 36.4,0.4 C36.4,0.4 54.1,0.4 54.1,0.4 Z" id="Shape" fill="#F27921" fill-rule="nonzero"></path>
                                <path d="M37,47.6 C39.2,48.1 44.5,48.2 46.5,47.6 C48.4,47 49.5,46 50,45.3 C50.5,44.6 56.2,37.2 56.2,37.2 C56.2,37.2 57.3,35.5 57.6,36 C57.9,36.6 59,44.1 59,44.1 L60.4,43.7 L60.1,32 C60.1,32 60.4,30.3 60.5,29.9 C60.7,29.1 60.8,27.5 59.9,26.6 C58.8,25.6 56.4,24.1 55.4,23.7 C55,23.5 54.4,23.8 54.2,24.1 C53.9,24.5 54.9,25.6 53.8,29.4 C53.4,30.8 48.7,42.4 46.4,43.1 C44.2,43.7 43,42.3 42.6,42.1 C42.1,41.9 41.6,41.5 41.4,41.5 C40.7,41.7 39.1,43 38,44.3 C37,45.5 36.2,46.5 36.4,47 C36.3,47.3 36.5,47.4 37,47.6 Z" id="Path" fill="#F27921"></path>
                                <g transform="translate(0.000000, 14.000000)">
                                    <path d="M23.8,8.4 L16.9,8.4 C14.7,8.4 12.9,6.7 12.9,4.4 L12.9,4.4 C12.9,2.2 14.6,0.4 16.9,0.4 L23.8,0.4 C26,0.4 27.8,2.1 27.8,4.4 L27.8,4.4 C27.7,6.6 25.9,8.4 23.8,8.4 Z" id="Path" fill="#F27921"></path>
                                    <path d="M34.4,26.6 L5.4,26.6 C2.7,26.6 0.6,24.5 0.6,21.8 L0.6,8.7 C0.6,6 2.7,3.9 5.4,3.9 L34.4,3.9 C37.1,3.9 39.2,6 39.2,8.7 L39.2,21.8 C39.2,24.4 37.1,26.6 34.4,26.6 Z" id="Path" fill="#F27921"></path>
                                    <circle id="Oval" stroke="#FFFFFF" stroke-width="4" cx="20.3" cy="15.3" r="7.4"></circle>
                                    <circle id="Oval" fill="#FFFFFF" cx="33.8" cy="8.7" r="1.7"></circle>
                                </g>
                            </g>
                            <circle id="Oval" fill="none" cx="37.1" cy="29.1" r="29"></circle>
                            <path d="M52.8,6.8 C52.8,8.1 52.9,9.5 52.8,10.8 L39.2,10.8 C39.6,13.2 40.5,15.8 43,18.2 C38.7,16.8 37.3,12.3 37.3,9.2 C37.3,9 37.4,7.7 37.6,6.8 C37.6,6.8 52.8,6.8 52.8,6.8 Z" id="Path" fill="#FFFFFF" fill-rule="evenodd"></path>
                        </g>
                    </g>
                </g>
            </g>
        </g>
        <g id="icon/dashboard/industry/health-life-sci" transform="translate(721.000000, 1.000000)">
            <g id="icon/industry/health-life-sci">
                <path d="M0.5,30.5 C0.5,13.93 13.93,0.5 30.5,0.5 C47.07,0.5 60.5,13.93 60.5,30.5 C60.5,47.07 47.07,60.5 30.5,60.5 C13.93,60.5 0.5,47.07 0.5,30.5" id="Fill-1" fill="#FFFFFF"></path>
                <g id="Stroke-3">
                    <g id="path-19-Clipped">
                        <g>
                            <mask id="mask-44" fill="white">
                                <use xlink:href="#path-43"></use>
                            </mask>
                            <g id="path-37"></g>
                            <path d="M0.0999755859,30.1 C0.0999755859,13.53 13.5299756,0.100000001 30.0999756,0.100000001 C46.6699756,0.100000001 60.0999756,13.53 60.0999756,30.1 C60.0999756,46.67 46.6699756,60.1 30.0999756,60.1 C13.5299756,60.1 0.0999755859,46.67 0.0999755859,30.1 L0.0999755859,30.1 Z" id="path-19" stroke="#FF9949" stroke-width="2" mask="url(#mask-44)"></path>
                        </g>
                    </g>
                </g>
                <path d="M40.1289,7.7099 L37.5489,12.0699 C38.4089,12.7699 38.4089,13.1099 38.4089,13.7199 C38.4089,14.8599 37.3689,15.8099 36.7699,17.0299 C37.1989,17.2999 38.2389,17.4699 38.8389,17.8199 C39.5289,18.1699 40.8189,19.2999 41.0789,20.1699 C41.5089,21.2199 41.6799,21.6499 41.6799,22.6999 C41.6799,23.9199 41.2489,24.4399 41.2489,24.9599 C41.2489,25.1399 41.9399,26.0099 42.1989,26.6199 C43.2299,28.5399 43.7489,30.8199 43.7489,32.7399 C43.7489,37.0099 41.4189,42.1499 35.9089,44.4999 L44.2699,44.4999 C46.2489,45.1099 45.9889,46.2399 45.9889,47.4599 C45.9889,48.3299 46.1589,49.6299 44.8689,50.2399 C44.6989,50.3299 44.4399,50.4999 44.1799,50.4999 L17.8099,50.4999 C16.9489,50.5899 15.9989,49.3699 15.9989,48.8399 L15.9989,46.1599 C15.9089,45.5499 16.9489,44.3299 17.7189,44.4999 L26.7789,44.4999 C24.7989,43.7199 22.2989,41.6799 20.9189,39.4999 L14.9989,39.4999 L14.9989,36.4999 L29.9989,36.4999 L29.9989,39.4999 L27.9299,39.4999 C29.0489,40.1999 30.1399,40.3699 31.2589,40.3699 C35.6489,40.3699 39.0999,36.7299 39.0999,32.5499 C39.0999,31.3299 38.5789,29.5799 37.9799,28.6199 C37.8899,28.4499 37.7989,28.0099 37.5489,28.0099 C37.3689,28.0099 36.4299,28.1899 36.2489,28.1899 C34.7889,28.1899 32.8099,27.4899 31.6899,25.6599 C30.9089,26.7899 30.1399,28.0999 29.3589,29.4099 C29.7889,29.6699 30.3099,30.0199 30.8289,30.3699 L28.7589,33.8499 L19.5389,28.1899 L21.6089,24.6999 C22.1289,24.9599 22.6399,25.2299 23.1589,25.5699 C26.1689,20.6899 29.1899,15.7299 32.1989,10.7599 C32.3789,10.3299 33.3189,10.0599 33.7589,10.0599 C33.9299,10.0599 34.4399,10.2399 34.7889,10.3299 L37.3689,6.0599 C38.2389,6.4899 39.1799,7.0999 40.1289,7.7099" id="Fill-5" fill="#F27921"></path>
            </g>
        </g>
        <g id="icon/dashboard/industry/ci-single" transform="translate(841.000000, 121.000000)">
            <g id="icon/industry/ci-single">
                <path d="M0.0999755859,30.1 C0.0999755859,13.53 13.5299756,0.100000001 30.0999756,0.100000001 C46.6699756,0.100000001 60.0999756,13.53 60.0999756,30.1 C60.0999756,46.67 46.6699756,60.1 30.0999756,60.1 C13.5299756,60.1 0.0999755859,46.67 0.0999755859,30.1 L0.0999755859,30.1 Z" id="path-23" fill="#FFFFFF"></path>
                <g id="Commodities-package" transform="translate(7.000000, 14.000000)" fill="#F27921">
                    <polygon id="Path-2" points="-5.5067062e-14 7 8.811861 17.301504 17.795015 17.301504 8.811861 7"></polygon>
                    <polygon id="Path-3" points="19 16.99877 38.466318 11 43.430478 16.99877 24.543727 23.768658"></polygon>
                    <polygon id="Path-4" points="6 1.460472 8.716103 6.440523 24.705601 3.792833 20.797718 -1.42108547e-14"></polygon>
                    <polygon id="Path-5" points="29.192421 1.77635684e-15 25 3.347838 39.119298 10.65668 44.451827 5.32834"></polygon>
                    <polygon id="Path-6" points="8 18 18.034354 18 24.387974 25.916597 37.18373 20.958299 37.18373 27.996217 20.193715 34.925009 8 21.958299"></polygon>
                </g>
                <g id="Stroke-3">
                    <g id="path-23-Clipped">
                        <g>
                            <mask id="mask-46" fill="white">
                                <use xlink:href="#path-45"></use>
                            </mask>
                            <g id="path-47"></g>
                            <path d="M0.0999755859,30.1 C0.0999755859,13.53 13.5299756,0.100000001 30.0999756,0.100000001 C46.6699756,0.100000001 60.0999756,13.53 60.0999756,30.1 C60.0999756,46.67 46.6699756,60.1 30.0999756,60.1 C13.5299756,60.1 0.0999755859,46.67 0.0999755859,30.1 L0.0999755859,30.1 Z" id="path-23" stroke="#F27921" stroke-width="2" mask="url(#mask-46)"></path>
                        </g>
                    </g>
                </g>
            </g>
        </g>
        <g id="icon/dashboard/industry/high-tech" transform="translate(841.000000, 1.000000)">
            <g id="icon/industry/high-tech">
                <path d="M26.09,59.74 L26.09,35.96 C25.98,33.29 22.53,30.41 20.29,30.41 L15.39,30.41 C14.43,28.17 12.51,27 10.8,27 C8.03,27 6,28.88 6,31.33 C6,34.21 8.56,36.36 10.8,36.36 C12.72,36.36 15.07,34.86 15.49,32.41 L19.57,32.41 C21.28,32.3 23.09,34.44 23.09,35.5 L23.09,59.05 L26.09,59.74 Z" id="Fill-5" fill="#F27921"></path>
                <path d="M36.048096,0.96972656 L36,13.84 C36,16.94 38.87,19.71 41.32,19.71 L46.02,19.71 C46.87,22.06 48.79,23.02 50.5,23.02 C53.27,23.02 55.4,20.5 55.4,18.15 C55.4,15.27 52.74,13.87 50.5,13.87 C48.36,13.87 46.66,14.94 45.91,17.71 L40.99,17.71 C40.03,17.6 38,15.79 38,14.72 L37.897217,1.57861328 L36.048096,0.96972656 Z" id="Fill-7" fill="#F27921"></path>
                <path d="M37.954346,58.7617188 L38,38.06 C38,37.21 39.83,35.31 41,35.31 L45.91,35.31 C46.12,37.76 48.9,39.26 50.5,39.26 C53.27,39.26 55.4,36.35 55.4,34.11 C55.4,31.23 52.74,29 50.5,29 C48.79,29 46.87,29.96 46.02,32.31 L42.08,32.31 C38.88,32.1 36,35.4 36,38.07 L36,59.31 L37.954346,58.7617188 Z" id="Fill-9" fill="#F27921"></path>
                <path d="M33.848877,60 L33.88,19.9 C33.67,17.13 30.22,14.41 28.19,14.41 L23.28,14.41 C22.32,12.17 20.4,11 18.7,11 C16.03,11 14,12.99 14,15.44 C14,18.11 16.03,20.36 18.7,20.36 C20.62,20.36 22.96,18.86 23.39,16.41 L28.15,16.41 C30.17,16.41 31.88,18.44 31.88,20.04 L31.900635,60 L33.848877,60 Z" id="Fill-11" fill="#F27921"></path>
                <g id="Stroke-3">
                    <g id="path-23-Clipped">
                        <g>
                            <mask id="mask-48" fill="white">
                                <use xlink:href="#path-47"></use>
                            </mask>
                            <g id="path-41"></g>
                            <path d="M0.0999755859,30.1 C0.0999755859,13.53 13.5299756,0.100000001 30.0999756,0.100000001 C46.6699756,0.100000001 60.0999756,13.53 60.0999756,30.1 C60.0999756,46.67 46.6699756,60.1 30.0999756,60.1 C13.5299756,60.1 0.0999755859,46.67 0.0999755859,30.1 L0.0999755859,30.1 Z" id="path-23" stroke="#F27921" stroke-width="2" mask="url(#mask-48)"></path>
                        </g>
                    </g>
                </g>
            </g>
        </g>
        <g id="icon/dashboard/industry/travel-hospitality" transform="translate(961.000000, 1.000000)">
            <g id="icon/industry/travel-hospitality">
                <path d="M0.0999755859,30.1 C0.0999755859,13.53 13.5299756,0.100000001 30.0999756,0.100000001 C46.6699756,0.100000001 60.0999756,13.53 60.0999756,30.1 C60.0999756,46.67 46.6699756,60.1 30.0999756,60.1 C13.5299756,60.1 0.0999755859,46.67 0.0999755859,30.1 L0.0999755859,30.1 Z" id="path-23" fill="#FFFFFF"></path>
                <path d="M46.1753,11.5898 C46.1753,10.2798 44.3453,10.2798 42.7853,10.2798 C38.8643,10.2798 22.4353,19.1498 20.6053,20.1998 L14.6053,18.1098 C14.3453,18.1098 13.8243,18.3698 13.5653,18.3698 C14.3453,19.9298 17.7343,24.1098 19.8243,24.1098 C22.9553,24.1098 26.6053,22.0198 30.7853,21.2398 L29.7343,33.2398 C30.5253,32.9798 31.8243,32.4598 32.0853,31.9298 C34.4353,27.2398 35.4753,22.2798 37.3053,17.8498 C37.5653,16.7998 46.1753,14.7198 46.1753,11.5898 L46.1753,11.5898 Z M30.5253,13.4098 L23.4753,11.0698 C22.4353,11.3298 21.3953,11.8498 20.6053,12.3698 L25.8243,15.7598 L30.5253,13.4098 Z M47.4353,31.4598 C47.1753,31.1998 46.4353,31.1498 45.9153,31.1498 C45.1353,31.1498 45.6943,31.6698 45.4353,31.9298 L45.4353,43.4998 L15.4353,43.4998 L15.4353,50.4998 L17.4353,50.4998 L17.4353,45.4998 L45.4353,45.4998 L45.4353,50.4998 L47.4353,50.4998 L47.4353,31.4598 Z M40.8453,33.2798 C39.9553,33.3898 39.5453,33.8098 39.4253,34.6898 C39.3153,34.9698 39.2653,35.2698 39.2653,35.5898 C39.2653,36.9598 40.3753,38.0698 41.7343,38.0698 C43.1053,38.0698 44.2153,36.9598 44.2153,35.5898 C44.2153,34.2198 43.1053,33.1098 41.7343,33.1098 C41.4253,33.1098 41.1253,33.1698 40.8453,33.2798 L40.8453,33.2798 Z M38.4353,34.4998 L33.7853,34.4998 C28.0453,35.2798 21.9553,35.8498 16.4753,36.3698 C16.2153,36.6298 15.6943,36.8898 15.4353,37.1498 L15.4353,40.4998 L43.4353,40.4998 C43.4353,40.4998 43.9153,39.2398 38.4353,39.2398 L38.4353,34.4998 Z" id="Fill-5" fill="#F27921" fill-rule="nonzero"></path>
                <g id="Stroke-3">
                    <g id="path-23-Clipped">
                        <g>
                            <mask id="mask-50" fill="white">
                                <use xlink:href="#path-49"></use>
                            </mask>
                            <g id="path-43"></g>
                            <path d="M0.0999755859,30.1 C0.0999755859,13.53 13.5299756,0.100000001 30.0999756,0.100000001 C46.6699756,0.100000001 60.0999756,13.53 60.0999756,30.1 C60.0999756,46.67 46.6699756,60.1 30.0999756,60.1 C13.5299756,60.1 0.0999755859,46.67 0.0999755859,30.1 L0.0999755859,30.1 Z" id="path-23" stroke="#F27921" stroke-width="2" mask="url(#mask-50)"></path>
                        </g>
                    </g>
                </g>
            </g>
        </g>
        <g id="icon/dashboard/industry/retail" transform="translate(1.000000, 121.000000)">
            <g id="icon/industry/retail">
                <mask id="mask-52" fill="white">
                    <use xlink:href="#path-51"></use>
                </mask>
                <use id="path-39" fill="#FFFFFF" xlink:href="#path-51"></use>
                <path d="M36.0768,20.842455 L40.6752,20.842455 L42,44 L18,44 L19.3248,20.842455 L23.9232,20.842455 C23.952,20.509566 23.9808,20.152554 24.0336,19.824488 C24.8592,16.456996 27.5616,15 29.9856,15 C32.8224,15 35.7984,16.929795 36.0768,20.842455 L36.0768,20.842455 Z M33.624,19.872733 C33.6768,20.036766 33.9264,20.427549 33.9264,20.731492 L33.9264,20.842455 L26.0736,20.842455 L26.0736,20.731492 C26.376,18.333722 28.248,17.446016 29.9856,17.446016 C31.3104,17.446016 32.9088,18.106971 33.624,19.872733 L33.624,19.872733 Z" id="Fill-13" fill="#F27921" fill-rule="nonzero" mask="url(#mask-52)"></path>
                <g id="path-25-Clipped" mask="url(#mask-52)">
                    <g>
                        <mask id="mask-54" fill="white">
                            <use xlink:href="#path-53"></use>
                        </mask>
                        <g id="path-39"></g>
                        <path d="M0.200000003,30.099998 C0.200000003,13.529998 13.63,0.099998 30.2,0.099998 C46.77,0.099998 60.2,13.529998 60.2,30.099998 C60.2,46.669998 46.77,60.099998 30.2,60.099998 C13.63,60.099998 0.200000003,46.669998 0.200000003,30.099998 L0.200000003,30.099998 Z" id="path-25" stroke="#F27921" stroke-width="1.96" mask="url(#mask-54)"></path>
                    </g>
                </g>
                <path d="M33.9264,20.731492 L33.9264,20.842455 L26.0736,20.842455 L26.0736,20.731492 C26.376,18.333722 28.248,17.446016 29.9856,17.446016 C31.3104,17.446016 32.9088,18.106971 33.624,19.872733 C33.6768,20.036766 33.9264,20.427549 33.9264,20.731492 Z" id="Fill-13-path" fill="#FFFFFF" mask="url(#mask-52)"></path>
            </g>
        </g>
    </g>
</svg>