<?xml version="1.0" encoding="UTF-8"?>
<svg width="1024px" height="1630px" viewBox="0 0 1024 1630" version="1.1" xmlns="http://www.w3.org/2000/svg" xmlns:xlink="http://www.w3.org/1999/xlink">
    <!-- Generator: Sketch 55.2 (78181) - https://sketchapp.com -->
    <title>sprite_avatar</title>
    <desc>Created with Sketch.</desc>
    <defs>
        <circle id="path-1" cx="200" cy="200" r="200"></circle>
        <circle id="path-3" cx="100" cy="100" r="100"></circle>
        <circle id="path-5" cx="64" cy="64" r="64"></circle>
        <circle id="path-7" cx="20" cy="20" r="20"></circle>
    </defs>
    <g id="sprite_avatar" stroke="none" stroke-width="1" fill="none" fill-rule="evenodd">
        <g id="icon/avatar/user/400x400">
            <rect id="Rectangle" x="0" y="0" width="400" height="400"></rect>
            <path d="M48.6355544,400 C53.1920237,365.245814 58.0431455,339.97209 63.1889199,324.17883 C65.8318812,321.214123 69.2504095,317.375435 74.5625132,315.618587 C86.1875239,311.7739 113.477677,304.273524 156.432973,293.117458 L157.12296,267.837635 C150.415441,259.969605 146.076414,254.156496 144.105878,250.398305 C138.28112,239.289378 138.062548,236.809589 135.932958,228.591508 C135.932958,228.591508 127.77812,228.591508 122.680756,223.99405 C117.768516,218.760993 116.188726,215.44599 114.745017,207.839653 C113.301308,200.233317 114.511781,191.844794 116.820208,185.191738 C120.708705,177.056192 125.864769,178.95651 125.864769,178.95651 C125.864769,173.287613 121.16477,136.530042 122.680756,116.994185 C124.039835,105.619998 139.778025,96.1614408 149.587275,90.3898031 C150.041855,90.1223337 142.574976,90.6490356 143.030832,90.3898031 C155.155299,83.4949717 159.034339,81.4012226 168.520658,79.3606237 C180.867562,76.7046855 193.086261,79.6296499 195.925315,79.3606237 C197.393428,79.2215067 191.339246,75.4783388 191.911298,75.4783388 C197.901154,75.4783388 213.601739,72.2312511 222.073075,75.1283853 C229.83429,77.51944 235.176261,83.9434544 245.041017,96.0321015 C252.342059,94.5794691 259.796799,94.5794691 266.740116,100.092642 C269.673128,103.636356 273.679667,109.485543 273.962296,116.994185 C273.984137,117.574438 268.99947,114.550701 269.196079,115.144202 C269.895109,117.254358 274.959261,122.325943 276.095026,126.043913 C278.380884,133.526755 277.154043,153.269801 273.679667,178.95651 C271.679667,178.95651 279.493388,178.95651 281.860666,185.191738 C284.202262,192.164621 284.553128,196.950614 284.553128,202.907502 C284.553128,208.86439 282.408142,218.674402 274.679667,223.99405 C269.44817,228.591508 264.307847,228.591508 264.307847,228.591508 C260.468736,238.367193 261.097138,238.963545 254.711723,250.398305 C250.45478,258.021479 246.49734,263.834589 242.839403,267.837635 L242.839403,293.117458 C286.736459,304.033777 313.954236,311.534153 324.492735,315.618587 C328.181922,317.048416 332.202478,320.908643 335.778994,324.17883 C341.791211,349.047518 347.078127,374.321241 351.639742,400" id="Line" fill="#AAAAAA" fill-rule="evenodd"></path>
        </g>
        <g id="icon/avatar/user/200x200" transform="translate(410.000000, 0.000000)">
            <rect id="Rectangle" x="0" y="0" width="200" height="200"></rect>
            <path d="M24.3177772,200 C26.5960118,182.622907 29.0215728,169.986045 31.59446,162.089415 C32.9159406,160.607062 34.6252047,158.687718 37.2812566,157.809294 C43.0937619,155.88695 56.7388386,152.136762 78.2164865,146.558729 L78.5614799,133.918817 C75.2077207,129.984803 73.038207,127.078248 72.0529388,125.199153 C69.14056,119.644689 69.0312742,118.404795 67.9664791,114.295754 C67.9664791,114.295754 63.88906,114.295754 61.3403779,111.997025 C58.8842578,109.380496 58.0943628,107.722995 57.3725085,103.919827 C56.6506542,100.116658 57.2558904,95.9223969 58.410104,92.5958688 C60.3543526,88.528096 62.9323843,89.4782551 62.9323843,89.4782551 C62.9323843,86.6438063 60.5823851,68.2650209 61.3403779,58.4970925 C62.0199175,52.8099988 69.8890125,48.0807204 74.7936373,45.1949016 C75.0209277,45.0611668 71.2874878,45.3245178 71.5154162,45.1949016 C77.5776495,41.7474859 79.5171697,40.7006113 84.2603292,39.6803119 C90.4337809,38.3523427 96.5431307,39.8148249 97.9626574,39.6803119 C98.6967138,39.6107533 95.6696231,37.7391694 95.955649,37.7391694 C98.950577,37.7391694 106.800869,36.1156256 111.036538,37.5641927 C114.917145,38.75972 117.588131,41.9717272 122.520509,48.0160507 C126.17103,47.2897346 129.8984,47.2897346 133.370058,50.0463212 C134.836564,51.8181781 136.839833,54.7427713 136.981148,58.4970925 C136.992069,58.7872192 134.499735,57.2753504 134.59804,57.5721008 C134.947555,58.627179 137.47963,61.1629713 138.047513,63.0219565 C139.190442,66.7633773 138.577021,76.6349003 136.839833,89.4782551 C135.839833,89.4782551 139.746694,89.4782551 140.930333,92.5958688 C142.101131,96.0823103 142.276564,98.4753068 142.276564,101.453751 C142.276564,104.432195 141.204071,109.337201 137.339833,111.997025 C134.724085,114.295754 132.153924,114.295754 132.153924,114.295754 C130.234368,119.183596 130.548569,119.481772 127.355862,125.199153 C125.22739,129.01074 123.24867,131.917294 121.419701,133.918817 L121.419701,146.558729 C143.368229,152.016888 156.977118,155.767077 162.246367,157.809294 C164.090961,158.524208 166.101239,160.454321 167.889497,162.089415 C170.895605,174.523759 173.539063,187.16062 175.819871,200" id="Line" fill="#AAAAAA" fill-rule="evenodd"></path>
        </g>
        <g id="icon/avatar/user/128x128" transform="translate(620.000000, 0.000000)">
            <rect id="Rectangle" x="0" y="0" width="128" height="128"></rect>
            <path d="M15.5633774,128 C17.0214476,116.87866 18.5738066,108.791069 20.2204544,103.737226 C21.066202,102.788519 22.160131,101.560139 23.8600042,100.997948 C27.5800076,99.7676481 36.3128567,97.3675277 50.0585514,93.7975867 L50.2793471,85.7080431 C48.1329413,83.1902737 46.7444525,81.3300786 46.1138808,80.1274577 C44.2499584,76.572601 44.1800155,75.7790685 43.4985466,73.1492825 C43.4985466,73.1492825 40.8889984,73.1492825 39.2578419,71.6780959 C37.685925,70.0035177 37.1803922,68.9427167 36.7184054,66.508689 C36.2564187,64.0746614 36.6437699,61.390334 37.3824666,59.261356 C38.6267857,56.6579814 40.2767259,57.2660833 40.2767259,57.2660833 C40.2767259,55.4520361 38.7727265,43.6896134 39.2578419,37.4381392 C39.6927472,33.7983992 44.728968,30.771661 47.8679279,28.924737 C48.0133937,28.8391468 45.6239922,29.0076914 45.7698663,28.924737 C49.6496957,26.718391 50.8909886,26.0483912 53.9266107,25.3953996 C57.8776198,24.5454993 61.7876037,25.481488 62.6961007,25.3953996 C63.1658968,25.3508821 61.2285588,24.1530684 61.4116154,24.1530684 C63.3283693,24.1530684 68.3525564,23.1140004 71.0633774,24.0410833 C73.5469728,24.8062208 75.2564036,26.8619054 78.4131255,30.7302725 C80.749459,30.2654301 83.1349758,30.2654301 85.356837,32.0296456 C86.2954009,33.163634 87.5774934,35.0353736 87.6679348,37.4381392 C87.6749239,37.6238203 86.0798305,36.6562242 86.1427453,36.8461445 C86.366435,37.5213946 87.9869635,39.1443016 88.3504083,40.3340521 C89.0818828,42.7285615 88.6892937,49.0463362 87.5774934,57.2660833 C86.9374934,57.2660833 89.4378842,57.2660833 90.195413,59.261356 C90.9447238,61.4926786 91.057001,63.0241963 91.057001,64.9304006 C91.057001,66.8366048 90.3706056,69.9758086 87.8974934,71.6780959 C86.2234143,73.1492825 84.5785112,73.1492825 84.5785112,73.1492825 C83.3499955,76.2775016 83.5510843,76.4683343 81.5077515,80.1274577 C80.1455296,82.5668733 78.8791488,84.4270684 77.7086089,85.7080431 L77.7086089,93.7975867 C91.7556669,97.2908086 100.465356,99.690929 103.837675,100.997948 C105.018215,101.455493 106.304793,102.690766 107.449278,103.737226 C109.373187,111.695206 111.065001,119.782797 112.524717,128" id="Line" fill="#AAAAAA" fill-rule="evenodd"></path>
        </g>
        <g id="icon/avatar/user/40x40" transform="translate(758.000000, 0.000000)">
            <rect id="Rectangle" x="0" y="0" width="40" height="40"></rect>
            <path d="M4.86355544,40 C5.31920237,36.5245814 5.80431455,33.997209 6.31889199,32.417883 C6.58318812,32.1214123 6.92504095,31.7375435 7.45625132,31.5618587 C8.61875239,31.17739 11.3477677,30.4273524 15.6432973,29.3117458 L15.712296,26.7837635 C15.0415441,25.9969605 14.6076414,25.4156496 14.4105878,25.0398305 C13.828112,23.9289378 13.8062548,23.6809589 13.5932958,22.8591508 C13.5932958,22.8591508 12.777812,22.8591508 12.2680756,22.399405 C11.7768516,21.8760993 11.6188726,21.544599 11.4745017,20.7839653 C11.3301308,20.0233317 11.4511781,19.1844794 11.6820208,18.5191738 C12.0708705,17.7056192 12.5864769,17.895651 12.5864769,17.895651 C12.5864769,17.3287613 12.116477,13.6530042 12.2680756,11.6994185 C12.4039835,10.5619998 13.9778025,9.61614408 14.9587275,9.03898031 C15.0041855,9.01223337 14.2574976,9.06490356 14.3030832,9.03898031 C15.5155299,8.34949717 15.9034339,8.14012226 16.8520658,7.93606237 C18.0867562,7.67046855 19.3086261,7.96296499 19.5925315,7.93606237 C19.7393428,7.92215067 19.1339246,7.54783388 19.1911298,7.54783388 C19.7901154,7.54783388 21.3601739,7.22312511 22.2073075,7.51283853 C22.983429,7.751944 23.5176261,8.39434544 24.5041017,9.60321015 C25.2342059,9.45794691 25.9796799,9.45794691 26.6740116,10.0092642 C26.9673128,10.3636356 27.3679667,10.9485543 27.3962296,11.6994185 C27.3984137,11.7574438 26.899947,11.4550701 26.9196079,11.5144202 C26.9895109,11.7254358 27.4959261,12.2325943 27.6095026,12.6043913 C27.8380884,13.3526755 27.7154043,15.3269801 27.3679667,17.895651 C27.1679667,17.895651 27.9493388,17.895651 28.1860666,18.5191738 C28.4202262,19.2164621 28.4553128,19.6950614 28.4553128,20.2907502 C28.4553128,20.886439 28.2408142,21.8674402 27.4679667,22.399405 C26.944817,22.8591508 26.4307847,22.8591508 26.4307847,22.8591508 C26.0468736,23.8367193 26.1097138,23.8963545 25.4711723,25.0398305 C25.045478,25.8021479 24.649734,26.3834589 24.2839403,26.7837635 L24.2839403,29.3117458 C28.6736459,30.4033777 31.3954236,31.1534153 32.4492735,31.5618587 C32.8181922,31.7048416 33.2202478,32.0908643 33.5778994,32.417883 C34.1791211,34.9047518 34.7078127,37.4321241 35.1639742,40" id="Line" fill="#AAAAAA" fill-rule="evenodd"></path>
        </g>
        <g id="icon/avatar/group/400x400" transform="translate(0.000000, 410.000000)">
            <rect id="Rectangle" x="0" y="0" width="400" height="400"></rect>
            <path d="M-2.84217094e-14,400 L-2.84217094e-14,319.915052 L51.0178554,305.492772 L51.459623,289.289465 C47.1650997,284.246388 44.3870149,280.520428 43.1253687,278.111586 C39.3960375,270.991229 39.2560959,269.401788 37.8926148,264.134343 C37.8926148,264.134343 32.6714375,264.134343 29.4078236,261.187565 C26.2627364,257.833395 25.2512676,255.708617 24.3269257,250.833274 C23.4025838,245.957931 24.177595,240.58124 25.6555775,236.31691 C28.145208,231.102366 31.4464042,232.32039 31.4464042,232.32039 C31.4464042,228.686865 28.437206,205.126803 29.4078236,192.605137 C30.277981,185.31476 40.3544388,179.252222 46.6348616,175.552844 C46.9259092,175.381407 42.1452008,175.719001 42.4370654,175.552844 C50.199818,171.133546 52.6833937,169.791541 58.7570586,168.483602 C66.6622275,166.781257 74.4853131,168.656037 76.3030317,168.483602 C77.2429985,168.394434 73.3667776,165.995221 73.7330367,165.995221 C77.568073,165.995221 87.6204537,163.913974 93.0442707,165.770915 C98.0134286,167.303481 101.433653,171.421005 107.749614,179.169321 C112.424145,178.238244 117.19708,178.238244 121.642575,181.771957 C123.520451,184.043329 126.085658,187.792412 126.266613,192.605137 C126.280597,192.977056 123.089138,191.038967 123.215018,191.419376 C123.662576,192.771897 126.904925,196.022571 127.632104,198.405634 C129.095637,203.201822 128.310145,215.856286 126.085658,232.32039 C124.805148,232.32039 129.807923,232.32039 131.323585,236.31691 C132.822804,240.786235 133.047448,243.853856 133.047448,247.671972 C133.047448,251.490087 131.67411,257.777894 126.725913,261.187565 C123.37642,264.134343 120.085302,264.134343 120.085302,264.134343 C117.627291,270.400147 118.029629,270.782384 113.941334,278.111586 C111.215804,282.99772 108.682033,286.72368 106.34002,289.289465 L106.34002,305.492772 C134.445337,312.489674 151.87166,317.297101 158.618988,319.915052 C160.98101,320.831512 163.555191,323.305756 165.845074,325.401809 C169.694427,341.341595 174.272573,366.207659 179.579512,400 L-2.84217094e-14,400 Z" id="Line" fill="#AAAAAA" fill-rule="evenodd"></path>
            <path d="M230.28661,400 C233.01284,361.057357 236.023259,336.524627 239.317868,326.401809 C241.010037,324.501556 243.198768,322.041118 246.59987,320.915052 C254.042843,318.450769 271.515505,313.643342 299.017855,306.492772 L299.459623,290.289465 C295.1651,285.246388 292.387015,281.520428 291.125369,279.111586 C287.396038,271.991229 287.256096,270.401788 285.892615,265.134343 C285.892615,265.134343 280.671437,265.134343 277.407824,262.187565 C274.262736,258.833395 273.251268,256.708617 272.326926,251.833274 C271.402584,246.957931 272.177595,241.58124 273.655577,237.31691 C276.145208,232.102366 279.446404,233.32039 279.446404,233.32039 C279.446404,229.686865 276.437206,206.126803 277.407824,193.605137 C278.277981,186.31476 288.354439,180.252222 294.634862,176.552844 C294.925909,176.381407 290.145201,176.719001 290.437065,176.552844 C298.199818,172.133546 300.683394,170.791541 306.757059,169.483602 C314.662227,167.781257 322.485313,169.656037 324.303032,169.483602 C325.242999,169.394434 321.366778,166.995221 321.733037,166.995221 C325.568073,166.995221 335.620454,164.913974 341.044271,166.770915 C346.013429,168.303481 349.433653,172.421005 355.749614,180.169321 C360.424145,179.238244 365.19708,179.238244 369.642575,182.771957 C371.520451,185.043329 374.085658,188.792412 374.266613,193.605137 C374.280597,193.977056 371.089138,192.038967 371.215018,192.419376 C371.662576,193.771897 374.904925,197.022571 375.632104,199.405634 C377.095637,204.201822 376.310145,216.856286 374.085658,233.32039 C372.805148,233.32039 377.807923,233.32039 379.323585,237.31691 C380.822804,241.786235 381.047448,244.853856 381.047448,248.671972 C381.047448,252.490087 379.67411,258.777894 374.725913,262.187565 C371.37642,265.134343 368.085302,265.134343 368.085302,265.134343 C365.627291,271.400147 366.029629,271.782384 361.941334,279.111586 C359.215804,283.99772 356.682033,287.72368 354.34002,290.289465 L354.34002,306.492772 L400,320.915052 L400,400 L230.28661,400 Z" id="Line" fill="#AAAAAA" fill-rule="evenodd"></path>
            <path d="M96.9229362,400 C106.558282,333.724024 113.023259,295.524627 116.317868,285.401809 C118.010037,283.501556 120.198768,281.041118 123.59987,279.915052 C131.042843,277.450769 148.515505,272.643342 176.017855,265.492772 L176.459623,249.289465 C172.1651,244.246388 169.387015,240.520428 168.125369,238.111586 C164.396038,230.991229 164.256096,229.401788 162.892615,224.134343 C162.892615,224.134343 157.671437,224.134343 154.407824,221.187565 C151.262736,217.833395 150.251268,215.708617 149.326926,210.833274 C148.402584,205.957931 149.177595,200.58124 150.655577,196.31691 C153.145208,191.102366 156.446404,192.32039 156.446404,192.32039 C156.446404,188.686865 153.437206,165.126803 154.407824,152.605137 C155.277981,145.31476 165.354439,139.252222 171.634862,135.552844 C171.925909,135.381407 167.145201,135.719001 167.437065,135.552844 C175.199818,131.133546 177.683394,129.791541 183.757059,128.483602 C191.662227,126.781257 199.485313,128.656037 201.303032,128.483602 C202.242999,128.394434 198.366778,125.995221 198.733037,125.995221 C202.568073,125.995221 212.620454,123.913974 218.044271,125.770915 C223.013429,127.303481 226.433653,131.421005 232.749614,139.169321 C237.424145,138.238244 242.19708,138.238244 246.642575,141.771957 C248.520451,144.043329 251.085658,147.792412 251.266613,152.605137 C251.280597,152.977056 248.089138,151.038967 248.215018,151.419376 C248.662576,152.771897 251.904925,156.022571 252.632104,158.405634 C254.095637,163.201822 253.310145,175.856286 251.085658,192.32039 C249.805148,192.32039 254.807923,192.32039 256.323585,196.31691 C257.822804,200.786235 258.047448,203.853856 258.047448,207.671972 C258.047448,211.490087 256.67411,217.777894 251.725913,221.187565 C248.37642,224.134343 245.085302,224.134343 245.085302,224.134343 C242.627291,230.400147 243.029629,230.782384 238.941334,238.111586 C236.215804,242.99772 233.682033,246.72368 231.34002,249.289465 L231.34002,265.492772 C259.445337,272.489674 276.87166,277.297101 283.618988,279.915052 C285.98101,280.831512 288.555191,283.305756 290.845074,285.401809 C294.694427,301.341595 301.523016,339.540992 311.330842,400 L96.9229362,400 Z" id="Line" fill="#AAAAAA" fill-rule="evenodd"></path>
        </g>
        <g id="icon/avatar/group/200x200" transform="translate(410.000000, 410.000000)">
            <rect id="Rectangle" x="0" y="0" width="200" height="200"></rect>
            <path d="M-1.70530257e-13,200 L-1.70530257e-13,159.957526 L25.5089277,152.746386 L25.7298115,144.644732 C23.5825498,142.123194 22.1935075,140.260214 21.5626844,139.055793 C19.6980188,135.495615 19.628048,134.700894 18.9463074,132.067171 C18.9463074,132.067171 16.3357187,132.067171 14.7039118,130.593782 C13.1313682,128.916697 12.6256338,127.854308 12.1634629,125.416637 C11.7012919,122.978966 12.0887975,120.29062 12.8277887,118.158455 C14.072604,115.551183 15.7232021,116.160195 15.7232021,116.160195 C15.7232021,114.343432 14.218603,102.563401 14.7039118,96.3025687 C15.1389905,92.6573801 20.1772194,89.6261109 23.3174308,87.776422 C23.4629546,87.6907037 21.0726004,87.8595006 21.2185327,87.776422 C25.099909,85.5667731 26.3416969,84.8957704 29.3785293,84.2418012 C33.3311137,83.3906287 37.2426566,84.3280185 38.1515159,84.2418012 C38.6214993,84.1972171 36.6833888,82.9976103 36.8665184,82.9976103 C38.7840365,82.9976103 43.8102269,81.9569868 46.5221353,82.8854575 C49.0067143,83.6517404 50.7168267,85.7105024 53.8748072,89.5846604 C56.2120723,89.1191221 58.5985402,89.1191221 60.8212873,90.8859786 C61.7602255,92.0216646 63.0428291,93.8962062 63.1333065,96.3025687 C63.1402985,96.4885278 61.5445691,95.5194833 61.607509,95.7096878 C61.8312878,96.3859487 63.4524625,98.0112853 63.8160522,99.2028168 C64.5478183,101.600911 64.1550727,107.928143 63.0428291,116.160195 C62.4025739,116.160195 64.9039617,116.160195 65.6617926,118.158455 C66.4114021,120.393118 66.5237241,121.926928 66.5237241,123.835986 C66.5237241,125.745044 65.8370549,128.888947 63.3629567,130.593782 C61.6882101,132.067171 60.0426511,132.067171 60.0426511,132.067171 C58.8136457,135.200073 59.0148147,135.391192 56.9706671,139.055793 C55.6079021,141.49886 54.3410163,143.36184 53.1700098,144.644732 L53.1700098,152.746386 C67.2226685,156.244837 75.9358299,158.648551 79.309494,159.957526 C80.4905048,160.415756 81.7775956,161.652878 82.922537,162.700904 C84.8472134,170.670797 87.1362864,183.103829 89.7897559,200 L-1.70530257e-13,200 Z" id="Line" fill="#AAAAAA" fill-rule="evenodd"></path>
            <path d="M114.800006,200 C116.391987,180.528678 118.011629,168.262313 119.658934,163.200904 C120.505019,162.250778 121.599384,161.020559 123.299935,160.457526 C127.021421,159.225384 135.757752,156.821671 149.508928,153.246386 L149.729812,145.144732 C147.58255,142.623194 146.193507,140.760214 145.562684,139.555793 C143.698019,135.995615 143.628048,135.200894 142.946307,132.567171 C142.946307,132.567171 140.335719,132.567171 138.703912,131.093782 C137.131368,129.416697 136.625634,128.354308 136.163463,125.916637 C135.701292,123.478966 136.088798,120.79062 136.827789,118.658455 C138.072604,116.051183 139.723202,116.660195 139.723202,116.660195 C139.723202,114.843432 138.218603,103.063401 138.703912,96.8025687 C139.138991,93.1573801 144.177219,90.1261109 147.317431,88.276422 C147.462955,88.1907037 145.0726,88.3595006 145.218533,88.276422 C149.099909,86.0667731 150.341697,85.3957704 153.378529,84.7418012 C157.331114,83.8906287 161.242657,84.8280185 162.151516,84.7418012 C162.621499,84.6972171 160.683389,83.4976103 160.866518,83.4976103 C162.784037,83.4976103 167.810227,82.4569868 170.522135,83.3854575 C173.006714,84.1517404 174.716827,86.2105024 177.874807,90.0846604 C180.212072,89.6191221 182.59854,89.6191221 184.821287,91.3859786 C185.760225,92.5216646 187.042829,94.3962062 187.133307,96.8025687 C187.140298,96.9885278 185.544569,96.0194833 185.607509,96.2096878 C185.831288,96.8859487 187.452462,98.5112853 187.816052,99.7028168 C188.547818,102.100911 188.155073,108.428143 187.042829,116.660195 C186.402574,116.660195 188.903962,116.660195 189.661793,118.658455 C190.411402,120.893118 190.523724,122.426928 190.523724,124.335986 C190.523724,126.245044 189.837055,129.388947 187.362957,131.093782 C185.68821,132.567171 184.042651,132.567171 184.042651,132.567171 C182.813646,135.700073 183.014815,135.891192 180.970667,139.555793 C179.607902,141.99886 178.341016,143.86184 177.17001,145.144732 L177.17001,153.246386 L200,160.457526 L200,200 L114.800006,200 Z" id="Line" fill="#AAAAAA" fill-rule="evenodd"></path>
            <path d="M48.4614681,200 C53.2791409,166.862012 56.5116295,147.762313 58.1589338,142.700904 C59.0050186,141.750778 60.0993838,140.520559 61.7999348,139.957526 C65.5214214,138.725384 74.2577524,136.321671 88.0089277,132.746386 L88.2298115,124.644732 C86.0825498,122.123194 84.6935075,120.260214 84.0626844,119.055793 C82.1980188,115.495615 82.128048,114.700894 81.4463074,112.067171 C81.4463074,112.067171 78.8357187,112.067171 77.2039118,110.593782 C75.6313682,108.916697 75.1256338,107.854308 74.6634629,105.416637 C74.2012919,102.978966 74.5887975,100.29062 75.3277887,98.1584548 C76.572604,95.5511829 78.2232021,96.1601951 78.2232021,96.1601951 C78.2232021,94.3434323 76.718603,82.5634013 77.2039118,76.3025687 C77.6389905,72.6573801 82.6772194,69.6261109 85.8174308,67.776422 C85.9629546,67.6907037 83.5726004,67.8595006 83.7185327,67.776422 C87.599909,65.5667731 88.8416969,64.8957704 91.8785293,64.2418012 C95.8311137,63.3906287 99.7426566,64.3280185 100.651516,64.2418012 C101.121499,64.1972171 99.1833888,62.9976103 99.3665184,62.9976103 C101.284037,62.9976103 106.310227,61.9569868 109.022135,62.8854575 C111.506714,63.6517404 113.216827,65.7105024 116.374807,69.5846604 C118.712072,69.1191221 121.09854,69.1191221 123.321287,70.8859786 C124.260225,72.0216646 125.542829,73.8962062 125.633307,76.3025687 C125.640298,76.4885278 124.044569,75.5194833 124.107509,75.7096878 C124.331288,76.3859487 125.952462,78.0112853 126.316052,79.2028168 C127.047818,81.6009108 126.655073,87.9281431 125.542829,96.1601951 C124.902574,96.1601951 127.403962,96.1601951 128.161793,98.1584548 C128.911402,100.393118 129.023724,101.926928 129.023724,103.835986 C129.023724,105.745044 128.337055,108.888947 125.862957,110.593782 C124.18821,112.067171 122.542651,112.067171 122.542651,112.067171 C121.313646,115.200073 121.514815,115.391192 119.470667,119.055793 C118.107902,121.49886 116.841016,123.36184 115.67001,124.644732 L115.67001,132.746386 C129.722668,136.244837 138.43583,138.648551 141.809494,139.957526 C142.990505,140.415756 144.277596,141.652878 145.422537,142.700904 C147.347213,150.670797 150.761508,169.770496 155.665421,200 L48.4614681,200 Z" id="Line" fill="#AAAAAA" fill-rule="evenodd"></path>
        </g>
        <g id="icon/avatar/group/128x128" transform="translate(620.000000, 410.000000)">
            <rect id="Rectangle" x="0" y="0" width="128" height="128"></rect>
            <path d="M-1.10134124e-13,128 L-1.10134124e-13,102.372817 L16.3257137,97.757687 L16.4670794,92.5726287 C15.0928319,90.9588441 14.2038448,89.766537 13.800118,88.9957074 C12.606732,86.7171933 12.5619507,86.2085723 12.1256367,84.5229897 C12.1256367,84.5229897 10.45486,84.5229897 9.41050354,83.5800208 C8.40407565,82.5066863 8.08040565,81.8267574 7.78461623,80.2666477 C7.48882681,78.706538 7.73683041,76.9859967 8.2097848,75.621411 C9.00646656,73.9527571 10.0628494,74.3425249 10.0628494,74.3425249 C10.0628494,73.1797967 9.09990592,65.6405768 9.41050354,61.633644 C9.68895393,59.3007233 12.9134204,57.360711 14.9231557,56.1769101 C15.016291,56.1220503 13.4864642,56.2300804 13.5798609,56.1769101 C16.0639418,54.7627348 16.858686,54.3332931 18.8022588,53.9147528 C21.3319128,53.3700024 23.8353002,53.9699318 24.4169702,53.9147528 C24.7177595,53.886219 23.4773688,53.1184706 23.5945718,53.1184706 C24.8217834,53.1184706 28.0385452,52.4524715 29.7741666,53.0466928 C31.3642972,53.5371139 32.4587691,54.8547215 34.4798766,57.3341826 C35.9757263,57.0362382 37.5030657,57.0362382 38.9256239,58.1670263 C39.5265443,58.8938654 40.3474106,60.093572 40.4053162,61.633644 C40.409791,61.7526578 39.3885242,61.1324693 39.4288057,61.2542002 C39.5720242,61.6870072 40.609576,62.7272226 40.8422734,63.4898028 C41.3106037,65.0245829 41.0592465,69.0740116 40.3474106,74.3425249 C39.9376473,74.3425249 41.5385355,74.3425249 42.0235472,75.621411 C42.5032973,77.0515953 42.5751834,78.0332339 42.5751834,79.2550309 C42.5751834,80.4768279 42.1357152,82.488926 40.5522923,83.5800208 C39.4804545,84.5229897 38.4272967,84.5229897 38.4272967,84.5229897 C37.6407332,86.528047 37.7694814,86.6503627 36.461227,88.9957074 C35.5890573,90.5592706 34.7782504,91.7515776 34.0288062,92.5726287 L34.0288062,97.757687 C43.0225078,99.9966958 48.5989311,101.535072 50.7580762,102.372817 C51.5139231,102.666084 52.3376612,103.457842 53.0704237,104.128579 C54.3022166,109.22931 55.7672233,117.186451 57.4654438,128 L-1.10134124e-13,128 Z" id="Line" fill="#AAAAAA" fill-rule="evenodd"></path>
            <path d="M73.4701146,128 C74.4902419,115.538354 75.5274428,107.68788 76.5817176,104.448579 C77.1232119,103.840498 77.8236057,103.053158 78.9119583,102.692817 C81.2937097,101.904246 86.8849615,100.365869 95.6857137,98.077687 L95.8270794,92.8926287 C94.4528319,91.2788441 93.5638448,90.086537 93.160118,89.3157074 C91.966732,87.0371933 91.9219507,86.5285723 91.4856367,84.8429897 C91.4856367,84.8429897 89.81486,84.8429897 88.7705035,83.9000208 C87.7640757,82.8266863 87.4404056,82.1467574 87.1446162,80.5866477 C86.8488268,79.026538 87.0968304,77.3059967 87.5697848,75.941411 C88.3664666,74.2727571 89.4228494,74.6625249 89.4228494,74.6625249 C89.4228494,73.4997967 88.4599059,65.9605768 88.7705035,61.953644 C89.0489539,59.6207233 92.2734204,57.680711 94.2831557,56.4969101 C94.376291,56.4420503 92.8464642,56.5500804 92.9398609,56.4969101 C95.4239418,55.0827348 96.218686,54.6532931 98.1622588,54.2347528 C100.691913,53.6900024 103.1953,54.2899318 103.77697,54.2347528 C104.07776,54.206219 102.837369,53.4384706 102.954572,53.4384706 C104.181783,53.4384706 107.398545,52.7724715 109.134167,53.3666928 C110.724297,53.8571139 111.818769,55.1747215 113.839877,57.6541826 C115.335726,57.3562382 116.863066,57.3562382 118.285624,58.4870263 C118.886544,59.2138654 119.707411,60.413572 119.765316,61.953644 C119.769791,62.0726578 118.748524,61.4524693 118.788806,61.5742002 C118.932024,62.0070072 119.969576,63.0472226 120.202273,63.8098028 C120.670604,65.3445829 120.419247,69.3940116 119.707411,74.6625249 C119.297647,74.6625249 120.898535,74.6625249 121.383547,75.941411 C121.863297,77.3715953 121.935183,78.3532339 121.935183,79.5750309 C121.935183,80.7968279 121.495715,82.808926 119.912292,83.9000208 C118.840454,84.8429897 117.787297,84.8429897 117.787297,84.8429897 C117.000733,86.848047 117.129481,86.9703627 115.821227,89.3157074 C114.949057,90.8792706 114.13825,92.0715776 113.388806,92.8926287 L113.388806,98.077687 C120.970457,100.316696 125.840855,101.855072 128,102.692817 C128.503898,102.888328 128.503898,111.324056 128,128 L73.4701146,128 Z" id="Line" fill="#AAAAAA" fill-rule="evenodd"></path>
            <path d="M31.0153396,128 C34.0986502,106.791688 36.1674428,94.5678805 37.2217176,91.3285788 C37.7632119,90.720498 38.4636057,89.9331578 39.5519583,89.5728167 C41.9337097,88.784246 47.5249615,87.2458695 56.3257137,84.957687 L56.4670794,79.7726287 C55.0928319,78.1588441 54.2038448,76.966537 53.800118,76.1957074 C52.606732,73.9171933 52.5619507,73.4085723 52.1256367,71.7229897 C52.1256367,71.7229897 50.45486,71.7229897 49.4105035,70.7800208 C48.4040757,69.7066863 48.0804056,69.0267574 47.7846162,67.4666477 C47.4888268,65.906538 47.7368304,64.1859967 48.2097848,62.821411 C49.0064666,61.1527571 50.0628494,61.5425249 50.0628494,61.5425249 C50.0628494,60.3797967 49.0999059,52.8405768 49.4105035,48.833644 C49.6889539,46.5007233 52.9134204,44.560711 54.9231557,43.3769101 C55.016291,43.3220503 53.4864642,43.4300804 53.5798609,43.3769101 C56.0639418,41.9627348 56.858686,41.5332931 58.8022588,41.1147528 C61.3319128,40.5700024 63.8353002,41.1699318 64.4169702,41.1147528 C64.7177595,41.086219 63.4773688,40.3184706 63.5945718,40.3184706 C64.8217834,40.3184706 68.0385452,39.6524715 69.7741666,40.2466928 C71.3642972,40.7371139 72.4587691,42.0547215 74.4798766,44.5341826 C75.9757263,44.2362382 77.5030657,44.2362382 78.9256239,45.3670263 C79.5265443,46.0938654 80.3474106,47.293572 80.4053162,48.833644 C80.409791,48.9526578 79.3885242,48.3324693 79.4288057,48.4542002 C79.5720242,48.8870072 80.609576,49.9272226 80.8422734,50.6898028 C81.3106037,52.2245829 81.0592465,56.2740116 80.3474106,61.5425249 C79.9376473,61.5425249 81.5385355,61.5425249 82.0235472,62.821411 C82.5032973,64.2515953 82.5751834,65.2332339 82.5751834,66.4550309 C82.5751834,67.6768279 82.1357152,69.688926 80.5522923,70.7800208 C79.4804545,71.7229897 78.4272967,71.7229897 78.4272967,71.7229897 C77.6407332,73.728047 77.7694814,73.8503627 76.461227,76.1957074 C75.5890573,77.7592706 74.7782504,78.9515776 74.0288062,79.7726287 L74.0288062,84.957687 C83.0225078,87.1966958 88.5989311,88.7350723 90.7580762,89.5728167 C91.5139231,89.8660839 92.3376612,90.6578418 93.0704237,91.3285788 C94.3022166,96.4293104 96.4873652,108.653117 99.6258694,128 L31.0153396,128 Z" id="Line" fill="#AAAAAA" fill-rule="evenodd"></path>
        </g>
        <g id="icon/avatar/group/40x40" transform="translate(758.000000, 410.000000)">
            <rect id="Rectangle" x="0" y="0" width="40" height="40"></rect>
            <path d="M-1.58095759e-13,40 L-1.58095759e-13,31.9915052 L5.10178554,30.5492772 L5.1459623,28.9289465 C4.71650997,28.4246388 4.43870149,28.0520428 4.31253687,27.8111586 C3.93960375,27.0991229 3.92560959,26.9401788 3.78926148,26.4134343 C3.78926148,26.4134343 3.26714375,26.4134343 2.94078236,26.1187565 C2.62627364,25.7833395 2.52512676,25.5708617 2.43269257,25.0833274 C2.34025838,24.5957931 2.4177595,24.058124 2.56555775,23.631691 C2.8145208,23.1102366 3.14464042,23.232039 3.14464042,23.232039 C3.14464042,22.8686865 2.8437206,20.5126803 2.94078236,19.2605137 C3.0277981,18.531476 4.03544388,17.9252222 4.66348616,17.5552844 C4.69259092,17.5381407 4.21452008,17.5719001 4.24370654,17.5552844 C5.0199818,17.1133546 5.26833937,16.9791541 5.87570586,16.8483602 C6.66622275,16.6781257 7.44853131,16.8656037 7.63030317,16.8483602 C7.72429985,16.8394434 7.33667776,16.5995221 7.37330367,16.5995221 C7.7568073,16.5995221 8.76204537,16.3913974 9.30442707,16.5770915 C9.80134286,16.7303481 10.1433653,17.1421005 10.7749614,17.9169321 C11.2424145,17.8238244 11.719708,17.8238244 12.1642575,18.1771957 C12.3520451,18.4043329 12.6085658,18.7792412 12.6266613,19.2605137 C12.6280597,19.2977056 12.3089138,19.1038967 12.3215018,19.1419376 C12.3662576,19.2771897 12.6904925,19.6022571 12.7632104,19.8405634 C12.9095637,20.3201822 12.8310145,21.5856286 12.6085658,23.232039 C12.4805148,23.232039 12.9807923,23.232039 13.1323585,23.631691 C13.2822804,24.0786235 13.3047448,24.3853856 13.3047448,24.7671972 C13.3047448,25.1490087 13.167411,25.7777894 12.6725913,26.1187565 C12.337642,26.4134343 12.0085302,26.4134343 12.0085302,26.4134343 C11.7627291,27.0400147 11.8029629,27.0782384 11.3941334,27.8111586 C11.1215804,28.299772 10.8682033,28.672368 10.634002,28.9289465 L10.634002,30.5492772 C13.4445337,31.2489674 15.187166,31.7297101 15.8618988,31.9915052 C16.098101,32.0831512 16.3555191,32.3305756 16.5845074,32.5401809 C16.9694427,34.1341595 17.4272573,36.6207659 17.9579512,40 L-1.58095759e-13,40 Z" id="Line" fill="#AAAAAA" fill-rule="evenodd"></path>
            <path d="M22.9915813,40 C23.2889241,36.1057357 23.6023259,33.6524627 23.9317868,32.6401809 C24.1010037,32.4501556 24.3198768,32.2041118 24.659987,32.0915052 C25.4042843,31.8450769 27.1515505,31.3643342 29.9017855,30.6492772 L29.9459623,29.0289465 C29.51651,28.5246388 29.2387015,28.1520428 29.1125369,27.9111586 C28.7396038,27.1991229 28.7256096,27.0401788 28.5892615,26.5134343 C28.5892615,26.5134343 28.0671437,26.5134343 27.7407824,26.2187565 C27.4262736,25.8833395 27.3251268,25.6708617 27.2326926,25.1833274 C27.1402584,24.6957931 27.2177595,24.158124 27.3655577,23.731691 C27.6145208,23.2102366 27.9446404,23.332039 27.9446404,23.332039 C27.9446404,22.9686865 27.6437206,20.6126803 27.7407824,19.3605137 C27.8277981,18.631476 28.8354439,18.0252222 29.4634862,17.6552844 C29.4925909,17.6381407 29.0145201,17.6719001 29.0437065,17.6552844 C29.8199818,17.2133546 30.0683394,17.0791541 30.6757059,16.9483602 C31.4662227,16.7781257 32.2485313,16.9656037 32.4303032,16.9483602 C32.5242999,16.9394434 32.1366778,16.6995221 32.1733037,16.6995221 C32.5568073,16.6995221 33.5620454,16.4913974 34.1044271,16.6770915 C34.6013429,16.8303481 34.9433653,17.2421005 35.5749614,18.0169321 C36.0424145,17.9238244 36.519708,17.9238244 36.9642575,18.2771957 C37.1520451,18.5043329 37.4085658,18.8792412 37.4266613,19.3605137 C37.4280597,19.3977056 37.1089138,19.2038967 37.1215018,19.2419376 C37.1662576,19.3771897 37.4904925,19.7022571 37.5632104,19.9405634 C37.7095637,20.4201822 37.6310145,21.6856286 37.4085658,23.332039 C37.2805148,23.332039 37.7807923,23.332039 37.9323585,23.731691 C38.0822804,24.1786235 38.1047448,24.4853856 38.1047448,24.8671972 C38.1047448,25.2490087 37.967411,25.8777894 37.4725913,26.2187565 C37.137642,26.5134343 36.8085302,26.5134343 36.8085302,26.5134343 C36.5627291,27.1400147 36.6029629,27.1782384 36.1941334,27.9111586 C35.9215804,28.399772 35.6682033,28.772368 35.434002,29.0289465 L35.434002,30.6492772 L40,32.0915052 L40,40 L22.9915813,40 Z" id="Line" fill="#AAAAAA" fill-rule="evenodd"></path>
            <path d="M9.69229362,40 C10.6558282,33.3724024 11.3023259,29.5524627 11.6317868,28.5401809 C11.8010037,28.3501556 12.0198768,28.1041118 12.359987,27.9915052 C13.1042843,27.7450769 14.8515505,27.2643342 17.6017855,26.5492772 L17.6459623,24.9289465 C17.21651,24.4246388 16.9387015,24.0520428 16.8125369,23.8111586 C16.4396038,23.0991229 16.4256096,22.9401788 16.2892615,22.4134343 C16.2892615,22.4134343 15.7671437,22.4134343 15.4407824,22.1187565 C15.1262736,21.7833395 15.0251268,21.5708617 14.9326926,21.0833274 C14.8402584,20.5957931 14.9177595,20.058124 15.0655577,19.631691 C15.3145208,19.1102366 15.6446404,19.232039 15.6446404,19.232039 C15.6446404,18.8686865 15.3437206,16.5126803 15.4407824,15.2605137 C15.5277981,14.531476 16.5354439,13.9252222 17.1634862,13.5552844 C17.1925909,13.5381407 16.7145201,13.5719001 16.7437065,13.5552844 C17.5199818,13.1133546 17.7683394,12.9791541 18.3757059,12.8483602 C19.1662227,12.6781257 19.9485313,12.8656037 20.1303032,12.8483602 C20.2242999,12.8394434 19.8366778,12.5995221 19.8733037,12.5995221 C20.2568073,12.5995221 21.2620454,12.3913974 21.8044271,12.5770915 C22.3013429,12.7303481 22.6433653,13.1421005 23.2749614,13.9169321 C23.7424145,13.8238244 24.219708,13.8238244 24.6642575,14.1771957 C24.8520451,14.4043329 25.1085658,14.7792412 25.1266613,15.2605137 C25.1280597,15.2977056 24.8089138,15.1038967 24.8215018,15.1419376 C24.8662576,15.2771897 25.1904925,15.6022571 25.2632104,15.8405634 C25.4095637,16.3201822 25.3310145,17.5856286 25.1085658,19.232039 C24.9805148,19.232039 25.4807923,19.232039 25.6323585,19.631691 C25.7822804,20.0786235 25.8047448,20.3853856 25.8047448,20.7671972 C25.8047448,21.1490087 25.667411,21.7777894 25.1725913,22.1187565 C24.837642,22.4134343 24.5085302,22.4134343 24.5085302,22.4134343 C24.2627291,23.0400147 24.3029629,23.0782384 23.8941334,23.8111586 C23.6215804,24.299772 23.3682033,24.672368 23.134002,24.9289465 L23.134002,26.5492772 C25.9445337,27.2489674 27.687166,27.7297101 28.3618988,27.9915052 C28.598101,28.0831512 28.8555191,28.3305756 29.0845074,28.5401809 C29.4694427,30.1341595 30.1523016,33.9540992 31.1330842,40 L9.69229362,40 Z" id="Line" fill="#AAAAAA" fill-rule="evenodd"></path>
        </g>
        <g id="icon/avatar/circle/400x400" transform="translate(0.000000, 820.000000)">
            <g id="Line">
                <mask id="mask-2" fill="white">
                    <use xlink:href="#path-1"></use>
                </mask>
                <circle stroke="#DFDFDF" stroke-width="6" cx="200" cy="200" r="197"></circle>
                <path d="M39.4557682,400 C50.3750586,351.96206 58.4075911,320.046459 63.5533655,304.253199 C66.1963268,301.288492 69.614855,297.449804 74.9269588,295.692956 C86.5519694,291.848269 113.842123,284.347893 156.797419,273.191827 L157.487405,247.912004 C150.779887,240.043974 146.44086,234.230865 144.470323,230.472674 C138.645566,219.363747 138.426994,216.883958 136.297404,208.665877 C136.297404,208.665877 128.142566,208.665877 123.045201,204.068419 C118.132961,198.835362 116.553171,195.520359 115.109463,187.914022 C113.665754,180.307686 114.876226,171.919163 117.184654,165.266107 C121.073151,157.130561 126.229214,159.030879 126.229214,159.030879 C126.229214,153.361982 121.529216,116.604411 123.045201,97.0685539 C124.40428,85.6943666 140.142471,76.2358097 149.95172,70.4641721 C150.406301,70.1967026 142.939421,70.7234046 143.395278,70.4641721 C155.519745,63.5693407 159.398785,61.4755916 168.885104,59.4349927 C181.232007,56.7790544 193.450707,59.7040188 196.28976,59.4349927 C197.757873,59.2958756 191.703692,55.5527078 192.275744,55.5527078 C198.2656,55.5527078 213.966184,52.3056201 222.437521,55.2027543 C230.198735,57.5938089 235.540707,64.0178233 245.405463,76.1064704 C252.706505,74.6538381 260.161245,74.6538381 267.104561,80.1670114 C270.037574,83.7107252 274.044112,89.5599115 274.326742,97.0685539 C274.348583,97.6488074 269.363916,94.6250697 269.560525,95.2185706 C270.259555,97.3287269 275.323706,102.400312 276.459472,106.118282 C278.745329,113.601124 277.518488,133.344169 274.044112,159.030879 C272.044112,159.030879 279.857834,159.030879 282.225111,165.266107 C284.566707,172.23899 284.917574,177.024983 284.917574,182.981871 C284.917574,188.938759 282.772588,198.748771 275.044112,204.068419 C269.812615,208.665877 264.672293,208.665877 264.672293,208.665877 C260.833181,218.441562 261.461584,219.037914 255.076169,230.472674 C250.819226,238.095848 246.861785,243.908958 243.203848,247.912004 L243.203848,273.191827 C287.100905,284.108146 314.318682,291.608522 324.85718,295.692956 C328.546368,297.122785 332.566924,300.983012 336.143439,304.253199 C339.433935,320.806633 346.254572,352.722233 356.605349,400 L39.4557682,400 Z" fill="#AAAAAA" mask="url(#mask-2)"></path>
            </g>
        </g>
        <g id="icon/avatar/circle/200x200" transform="translate(410.000000, 820.000000)">
            <g id="Line">
                <mask id="mask-4" fill="white">
                    <use xlink:href="#path-3"></use>
                </mask>
                <circle stroke="#DFDFDF" stroke-width="3" cx="100" cy="100" r="98.5"></circle>
                <path d="M19.7278841,200 C25.1875293,175.98103 29.2037955,160.02323 31.7766827,152.1266 C33.0981634,150.644246 34.8074275,148.724902 37.4634794,147.846478 C43.2759847,145.924135 56.9210613,142.173946 78.3987093,136.595914 L78.7437027,123.956002 C75.3899435,120.021987 73.2204298,117.115432 72.2351616,115.236337 C69.3227828,109.681874 69.213497,108.441979 68.1487019,104.332938 C68.1487019,104.332938 64.0712828,104.332938 61.5226007,102.034209 C59.0664806,99.4176808 58.2765856,97.7601793 57.5547313,93.9570111 C56.832877,90.1538429 57.4381132,85.9595814 58.5923268,82.6330533 C60.5365754,78.5652805 63.1146071,79.5154396 63.1146071,79.5154396 C63.1146071,76.6809908 60.7646079,58.3022053 61.5226007,48.5342769 C62.2021402,42.8471833 70.0712353,38.1179049 74.9758601,35.2320861 C75.2031505,35.0983513 71.4697105,35.3617023 71.6976389,35.2320861 C77.7598723,31.7846704 79.6993925,30.7377958 84.442552,29.7174963 C90.6160037,28.3895272 96.7253535,29.8520094 98.1448802,29.7174963 C98.8789366,29.6479378 95.8518459,27.7763539 96.1378718,27.7763539 C99.1327998,27.7763539 106.983092,26.1528101 111.21876,27.6013771 C115.099368,28.7969045 117.770353,32.0089117 122.702731,38.0532352 C126.353252,37.326919 130.080622,37.326919 133.552281,40.0835057 C135.018787,41.8553626 137.022056,44.7799557 137.163371,48.5342769 C137.174291,48.8244037 134.681958,47.3125349 134.780262,47.6092853 C135.129777,48.6643635 137.661853,51.2001558 138.229736,53.0591409 C139.372665,56.8005618 138.759244,66.6720847 137.022056,79.5154396 C136.022056,79.5154396 139.928917,79.5154396 141.112556,82.6330533 C142.283354,86.1194948 142.458787,88.5124913 142.458787,91.4909354 C142.458787,94.4693795 141.386294,99.3743855 137.522056,102.034209 C134.906308,104.332938 132.336146,104.332938 132.336146,104.332938 C130.416591,109.220781 130.730792,109.518957 127.538084,115.236337 C125.409613,119.047924 123.430893,121.954479 121.601924,123.956002 L121.601924,136.595914 C143.550452,142.054073 157.159341,145.804261 162.42859,147.846478 C164.273184,148.561392 166.283462,150.491506 168.07172,152.1266 C169.716968,160.403316 173.127286,176.361116 178.302674,200 L19.7278841,200 Z" fill="#AAAAAA" mask="url(#mask-4)"></path>
            </g>
        </g>
        <g id="icon/avatar/circle/128x128" transform="translate(620.000000, 820.000000)">
            <g id="Line">
                <mask id="mask-6" fill="white">
                    <use xlink:href="#path-5"></use>
                </mask>
                <circle stroke="#DFDFDF" stroke-width="2" cx="64" cy="64" r="63"></circle>
                <path d="M12.6258458,128 C16.1200188,112.627859 18.6904291,102.414867 20.337077,97.3610237 C21.1828246,96.4123176 22.2767536,95.1839374 23.9766268,94.621746 C27.6966302,93.3914461 36.4294793,90.9913257 50.1751739,87.4213848 L50.3959697,79.3318411 C48.2495639,76.8140718 46.8610751,74.9538767 46.2305034,73.7512558 C44.366581,70.1963991 44.2966381,69.4028666 43.6151692,66.7730806 C43.6151692,66.7730806 41.005621,66.7730806 39.3744644,65.301894 C37.8025476,63.6273157 37.2970148,62.5665148 36.835028,60.1324871 C36.3730413,57.6984594 36.7603924,55.0141321 37.4990891,52.8851541 C38.7434083,50.2817795 40.3933485,50.8898814 40.3933485,50.8898814 C40.3933485,49.0758341 38.8893491,37.3134114 39.3744644,31.0619372 C39.8093698,27.4221973 44.8455906,24.3954591 47.9845505,22.5485351 C48.1300163,22.4629448 45.7406147,22.6314895 45.8864889,22.5485351 C49.7663183,20.342189 51.0076112,19.6721893 54.0432333,19.0191977 C57.9942424,18.1692974 61.9042263,19.105286 62.8127233,19.0191977 C63.2825194,18.9746802 61.3451814,17.7768665 61.528238,17.7768665 C63.4449919,17.7768665 68.469179,16.7377984 71.1800066,17.6648814 C73.6635953,18.4300189 75.3730262,20.4857035 78.5297481,24.3540705 C80.8660816,23.8892282 83.2515984,23.8892282 85.4734596,25.6534436 C86.4120235,26.7874321 87.6941159,28.6591717 87.7845573,31.0619372 C87.7915465,31.2476184 86.1964531,30.2800223 86.2593679,30.4699426 C86.4830575,31.1451926 88.1035861,32.7680997 88.4670309,33.9578502 C89.1985054,36.3523596 88.8059163,42.6701342 87.6941159,50.8898814 C87.0541159,50.8898814 89.5545067,50.8898814 90.3120356,52.8851541 C91.0613464,55.1164767 91.1736236,56.6479944 91.1736236,58.5541986 C91.1736236,60.4604029 90.4872281,63.5996067 88.0141159,65.301894 C86.3400369,66.7730806 84.6951337,66.7730806 84.6951337,66.7730806 C83.4666181,69.9012997 83.6677069,70.0921324 81.6243741,73.7512558 C80.2621522,76.1906714 78.9957713,78.0508665 77.8252315,79.3318411 L77.8252315,87.4213848 C91.8722894,90.9146066 100.581978,93.3147271 103.954298,94.621746 C105.134838,95.0792911 106.421416,96.3145637 107.565901,97.3610237 C108.618859,102.658122 110.801463,112.871115 114.113712,128 L12.6258458,128 Z" fill="#AAAAAA" mask="url(#mask-6)"></path>
            </g>
        </g>
        <g id="icon/avatar/circle/40x40" transform="translate(758.000000, 820.000000)">
            <g id="Line">
                <mask id="mask-8" fill="white">
                    <use xlink:href="#path-7"></use>
                </mask>
                <circle stroke="#DFDFDF" cx="20" cy="20" r="19.5"></circle>
                <path d="M3.94557682,40 C5.03750586,35.196206 5.84075911,32.0046459 6.35533655,30.4253199 C6.61963268,30.1288492 6.9614855,29.7449804 7.49269588,29.5692956 C8.65519694,29.1848269 11.3842123,28.4347893 15.6797419,27.3191827 L15.7487405,24.7912004 C15.0779887,24.0043974 14.644086,23.4230865 14.4470323,23.0472674 C13.8645566,21.9363747 13.8426994,21.6883958 13.6297404,20.8665877 C13.6297404,20.8665877 12.8142566,20.8665877 12.3045201,20.4068419 C11.8132961,19.8835362 11.6553171,19.5520359 11.5109463,18.7914022 C11.3665754,18.0307686 11.4876226,17.1919163 11.7184654,16.5266107 C12.1073151,15.7130561 12.6229214,15.9030879 12.6229214,15.9030879 C12.6229214,15.3361982 12.1529216,11.6604411 12.3045201,9.70685539 C12.440428,8.56943666 14.0142471,7.62358097 14.995172,7.04641721 C15.0406301,7.01967026 14.2939421,7.07234046 14.3395278,7.04641721 C15.5519745,6.35693407 15.9398785,6.14755916 16.8885104,5.94349927 C18.1232007,5.67790544 19.3450707,5.97040188 19.628976,5.94349927 C19.7757873,5.92958756 19.1703692,5.55527078 19.2275744,5.55527078 C19.82656,5.55527078 21.3966184,5.23056201 22.2437521,5.52027543 C23.0198735,5.75938089 23.5540707,6.40178233 24.5405463,7.61064704 C25.2706505,7.46538381 26.0161245,7.46538381 26.7104561,8.01670114 C27.0037574,8.37107252 27.4044112,8.95599115 27.4326742,9.70685539 C27.4348583,9.76488074 26.9363916,9.46250697 26.9560525,9.52185706 C27.0259555,9.73287269 27.5323706,10.2400312 27.6459472,10.6118282 C27.8745329,11.3601124 27.7518488,13.3344169 27.4044112,15.9030879 C27.2044112,15.9030879 27.9857834,15.9030879 28.2225111,16.5266107 C28.4566707,17.223899 28.4917574,17.7024983 28.4917574,18.2981871 C28.4917574,18.8938759 28.2772588,19.8748771 27.5044112,20.4068419 C26.9812615,20.8665877 26.4672293,20.8665877 26.4672293,20.8665877 C26.0833181,21.8441562 26.1461584,21.9037914 25.5076169,23.0472674 C25.0819226,23.8095848 24.6861785,24.3908958 24.3203848,24.7912004 L24.3203848,27.3191827 C28.7100905,28.4108146 31.4318682,29.1608522 32.485718,29.5692956 C32.8546368,29.7122785 33.2566924,30.0983012 33.6143439,30.4253199 C33.9433935,32.0806633 34.6254572,35.2722233 35.6605349,40 L3.94557682,40 Z" fill="#AAAAAA" mask="url(#mask-8)"></path>
            </g>
        </g>
        <g id="icon/avatar/remote/400x400" transform="translate(0.000000, 1230.000000)">
            <rect id="Rectangle" x="0" y="0" width="400" height="400"></rect>
            <path d="M127,253 L164.875962,253 L164.875962,234.792098 L145,234.792098 C136.715729,234.792098 130,228.076369 130,219.792098 L130,182.397158 C121.771699,179.809362 116.654039,177.095742 114.64702,174.256298 C111.636491,169.997132 110.502454,166.269806 110.502454,156.931534 C110.502454,147.593262 111.626881,142.887811 114.64702,138.23986 C116.660445,135.141226 121.778105,132.137866 130,129.229782 L130,109.855991 C130,101.57172 136.715729,94.8559914 145,94.8559914 L193.968526,94.8559914 L194,73.1681084 L200,73.1681084 L205.970977,73.1681084 L205.970977,94.8559914 L255,94.8559914 C263.284271,94.8559914 270,101.57172 270,109.855991 L270,129.229782 C277.691816,131.503398 282.683188,134.506757 284.974117,138.23986 C287.265046,141.972963 288.279073,148.203521 288.016197,156.931534 C287.142537,165.239504 285.623623,171.014426 283.459458,174.256298 C281.295292,177.498171 276.808806,180.211791 270,182.397158 L270,219.792098 C270,228.076369 263.284271,234.792098 255,234.792098 L234.889116,234.792098 L234.889116,253 L272,253 C280.284271,253 287,259.715729 287,268 L287,271.082255 L305.469124,271.082255 C305.469124,259.027418 313.392888,253 329.240416,253 C360,253 359.513502,275.842789 359.513502,280 C359.513502,282.151711 359.513502,322.151711 359.513502,400 L306.245828,400 L305.469124,339.985795 L287,339.985795 L287,400 L112,400 L112,339.985795 L94.2804175,339.985795 L94.2804175,400 L40,400 C40,324.21661 40,284.21661 40,280 C40,273.675085 46.4409988,253 73.846613,253 C87.4691494,253 94.2804175,259.027418 94.2804175,271.082255 L112,271.082255 L112,268 C112,259.715729 118.715729,253 127,253 Z M160.5,386 C167.403559,386 173,380.403559 173,373.5 C173,366.596441 167.403559,361 160.5,361 C153.596441,361 148,366.596441 148,373.5 C148,380.403559 153.596441,386 160.5,386 Z M200.5,386 C207.403559,386 213,380.403559 213,373.5 C213,366.596441 207.403559,361 200.5,361 C193.596441,361 188,366.596441 188,373.5 C188,380.403559 193.596441,386 200.5,386 Z M240.5,386 C247.403559,386 253,380.403559 253,373.5 C253,366.596441 247.403559,361 240.5,361 C233.596441,361 228,366.596441 228,373.5 C228,380.403559 233.596441,386 240.5,386 Z M200,289 C170.841734,289 153.23978,303.936623 147.194136,333.809869 C147.114855,334.201618 147.074917,334.600309 147.074917,335 C147.074917,338.313705 149.761206,340.999993 153.074911,341 L182.084965,341 C183.493674,335.281164 186.040988,330.583376 189.726907,326.906637 C192.899934,323.741512 198.324299,322.665779 206,323.679439 C212.03833,317.775903 216.238152,313.767702 218.599467,311.654834 C221.351316,309.896075 225.916972,310.033302 228,311.654834 C230.083028,313.276366 232.617074,316.584343 230.70174,321.075843 C227.299694,325.856794 222.880635,330.967369 217.444564,336.407567 L217.444564,341 L246.925083,341 C247.324774,341 247.723465,340.960062 248.115215,340.880781 C251.363078,340.22349 253.463152,337.057736 252.805864,333.809872 C246.760221,303.936624 229.158266,289 200,289 Z M164.5,165 C174.164983,165 182,157.164983 182,147.5 C182,137.835017 174.164983,130 164.5,130 C154.835017,130 147,137.835017 147,147.5 C147,157.164983 154.835017,165 164.5,165 Z M235.5,165 C245.164983,165 253,157.164983 253,147.5 C253,137.835017 245.164983,130 235.5,130 C225.835017,130 218,137.835017 218,147.5 C218,157.164983 225.835017,165 235.5,165 Z M165,184 L165,200 L235,200 L235,184 L165,184 Z" id="Rectangle-2" fill="#AAAAAA" fill-rule="evenodd"></path>
            <g id="Group" stroke-width="1" fill-rule="evenodd" transform="translate(165.000000, 184.000000)"></g>
        </g>
        <g id="icon/avatar/remote/200x200" transform="translate(410.000000, 1220.000000)">
            <rect id="Rectangle" x="0" y="0" width="200" height="200"></rect>
            <path d="M65.0411275,126.5 L82.4379808,126.5 L82.4379808,117.396049 L80,117.396049 C71.7157288,117.396049 65,110.68032 65,102.396049 L65,91.198579 C60.8858495,89.9046811 58.3270195,88.5478711 57.3235099,87.128149 C55.8182455,84.9985659 55.2512272,83.1349028 55.2512272,78.4657669 C55.2512272,73.7966309 55.8134407,71.4439056 57.3235099,69.1199299 C58.3302227,67.5706128 60.8890527,66.0689332 65,64.614891 L65,62.4279957 C65,54.1437245 71.7157288,47.4279957 80,47.4279957 L96.9842632,47.4279957 L97,36.5840542 L100,36.5840542 L102.985489,36.5840542 L102.985489,47.4279957 L120,47.4279957 C128.284271,47.4279957 135,54.1437245 135,62.4279957 L135,64.614891 C138.845908,65.7516989 141.341594,67.2533785 142.487058,69.1199299 C143.632523,70.9864813 144.139536,74.1017603 144.008099,78.4657669 C143.571268,82.6197521 142.811812,85.5072128 141.729729,87.128149 C140.647646,88.7490853 138.404403,90.1058953 135,91.198579 L135,102.396049 C135,110.68032 128.284271,117.396049 120,117.396049 L117.444558,117.396049 L117.444558,126.5 L134.458873,126.5 C139.452149,126.5 143.5,130.547851 143.5,135.541127 L152.734562,135.541127 C152.734562,129.513709 156.696444,126.5 164.620208,126.5 C180,126.5 179.756751,137.921395 179.756751,140 C179.756751,141.075855 179.756751,161.075855 179.756751,200 L153.122914,200 L152.734562,169.992898 L143.5,169.992898 L143.5,200 L56,200 L56,169.992898 L47.1402088,169.992898 L47.1402088,200 L20,200 C20,162.108305 20,142.108305 20,140 C20,136.837542 23.2204994,126.5 36.9233065,126.5 C43.7345747,126.5 47.1402088,129.513709 47.1402088,135.541127 L56,135.541127 C56,130.547851 60.0478506,126.5 65.0411275,126.5 Z M80.25,193 C83.7017797,193 86.5,190.20178 86.5,186.75 C86.5,183.29822 83.7017797,180.5 80.25,180.5 C76.7982203,180.5 74,183.29822 74,186.75 C74,190.20178 76.7982203,193 80.25,193 Z M100.25,193 C103.70178,193 106.5,190.20178 106.5,186.75 C106.5,183.29822 103.70178,180.5 100.25,180.5 C96.7982203,180.5 94,183.29822 94,186.75 C94,190.20178 96.7982203,193 100.25,193 Z M120.25,193 C123.70178,193 126.5,190.20178 126.5,186.75 C126.5,183.29822 123.70178,180.5 120.25,180.5 C116.79822,180.5 114,183.29822 114,186.75 C114,190.20178 116.79822,193 120.25,193 Z M100,144.5 C86.8483788,144.5 78.398777,150.577397 74.6511948,162.732192 C74.4746308,163.304854 74.3848543,163.900736 74.3848543,164.5 C74.3848543,167.813706 77.0711441,170.499996 80.3848504,170.5 L91.0424826,170.5 C91.746837,167.640582 93.020494,165.291688 94.8634535,163.453319 C96.4499672,161.870756 99.1621494,161.33289 103,161.83972 C106.019165,158.887952 108.119076,156.883851 109.299733,155.827417 C110.675658,154.948037 112.958486,155.016651 114,155.827417 C115.041514,156.638183 116.308537,158.292171 115.35087,160.537922 C113.649847,162.928397 111.440317,165.483684 108.722282,168.203783 L108.722282,170.5 L119.615146,170.5 C120.21441,170.5 120.810292,170.410223 121.382955,170.233659 C124.549567,169.257325 126.325138,165.898804 125.348805,162.732191 C121.601223,150.577397 113.151621,144.5 100,144.5 Z M82.25,82.5 C87.0824916,82.5 91,78.5824916 91,73.75 C91,68.9175084 87.0824916,65 82.25,65 C77.4175084,65 73.5,68.9175084 73.5,73.75 C73.5,78.5824916 77.4175084,82.5 82.25,82.5 Z M117.75,82.5 C122.582492,82.5 126.5,78.5824916 126.5,73.75 C126.5,68.9175084 122.582492,65 117.75,65 C112.917508,65 109,68.9175084 109,73.75 C109,78.5824916 112.917508,82.5 117.75,82.5 Z M82.5,92 L82.5,100 L117.5,100 L117.5,92 L82.5,92 Z" id="Rectangle-2" fill="#AAAAAA" fill-rule="evenodd"></path>
            <g id="Group" stroke-width="1" fill-rule="evenodd" transform="translate(82.500000, 92.000000)"></g>
        </g>
        <g id="icon/avatar/remote/128x128" transform="translate(620.000000, 1220.000000)">
            <rect id="Rectangle" x="0" y="0" width="128" height="128"></rect>
            <path d="M41.6263216,80.96 L52.7603077,80.96 L52.7603077,75.1334712 C46.5966399,75.1334712 41.6,70.1368313 41.6,63.9731635 L41.6,58.3670906 C38.9669437,57.5389959 37.3292925,56.6706375 36.6870463,55.7620154 C35.7236771,54.3990822 35.3607854,53.2063378 35.3607854,50.2180908 C35.3607854,47.2298438 35.7206021,45.7240996 36.6870463,44.2367551 C37.3313425,43.2451922 38.9689937,42.2841172 41.6,41.3535302 C41.6,35.2786117 46.5246945,30.3539173 52.599613,30.3539173 L62.0699285,30.3539173 L62.08,23.4137947 L64,23.4137947 L65.9107127,23.4137947 L65.9107127,30.3539173 L75.400387,30.3539173 C81.4753055,30.3539173 86.4,35.2786117 86.4,41.3535302 C88.861381,42.0810873 90.4586201,43.0421622 91.1917174,44.2367551 C91.9248147,45.431348 92.2493033,47.4251266 92.1651832,50.2180908 C91.8856117,52.8766413 91.3995595,54.7246162 90.7070265,55.7620154 C90.0144934,56.7994146 88.5788179,57.667773 86.4,58.3670906 L86.4,63.8979884 C86.4,70.1031742 81.369703,75.1334712 75.1645172,75.1334712 L75.1645172,80.96 L86.0536784,80.96 C89.2493756,80.96 91.84,83.5506244 91.84,86.7463216 L97.7501196,86.7463216 C97.7501196,82.8887739 100.285724,80.96 105.356933,80.96 C115.2,80.96 115.044321,88.2696926 115.044321,89.6 C115.044321,90.2885475 115.044321,103.088547 115.044321,128 L97.9986649,128 L97.7501196,108.795454 L91.84,108.795454 L91.84,128 L35.84,128 L35.84,108.795454 L30.1697336,108.795454 L30.1697336,128 L12.8,128 C12.8,103.749315 12.8,90.9493152 12.8,89.6 C12.8,87.5760271 14.8611196,80.96 23.6309162,80.96 C27.9901278,80.96 30.1697336,82.8887739 30.1697336,86.7463216 L35.84,86.7463216 C35.84,83.5506244 38.4306244,80.96 41.6263216,80.96 Z M51.36,123.52 C53.569139,123.52 55.36,121.729139 55.36,119.52 C55.36,117.310861 53.569139,115.52 51.36,115.52 C49.150861,115.52 47.36,117.310861 47.36,119.52 C47.36,121.729139 49.150861,123.52 51.36,123.52 Z M64.16,123.52 C66.369139,123.52 68.16,121.729139 68.16,119.52 C68.16,117.310861 66.369139,115.52 64.16,115.52 C61.950861,115.52 60.16,117.310861 60.16,119.52 C60.16,121.729139 61.950861,123.52 64.16,123.52 Z M76.96,123.52 C79.169139,123.52 80.96,121.729139 80.96,119.52 C80.96,117.310861 79.169139,115.52 76.96,115.52 C74.750861,115.52 72.96,117.310861 72.96,119.52 C72.96,121.729139 74.750861,123.52 76.96,123.52 Z M64,92.48 C57.1522194,92.48 52.2962379,95.0544161 49.4320556,100.203248 C48.9358251,101.095303 48.6753903,102.099213 48.6753903,103.12 C48.6753903,106.433708 51.3616816,109.12 54.6753898,109.12 L58.2671889,109.12 C58.7179757,107.289972 59.5331161,105.78668 60.7126102,104.610124 C61.727979,103.597284 63.4637756,103.253049 65.92,103.577421 C67.8522655,101.688289 69.1962086,100.405665 69.9518293,99.7295469 C70.8324213,99.166744 72.2934311,99.2106567 72.96,99.7295469 C73.6265689,100.248437 74.4374638,101.30699 73.8245569,102.74427 C72.735902,104.274174 71.3218032,105.909558 69.5822605,107.650421 L69.5822605,109.12 L73.3246082,109.12 C74.3453965,109.12 75.3493073,108.859565 76.241363,108.363333 C79.1371775,106.752454 80.1788235,103.099057 78.5679419,100.203244 C75.7037593,95.0544146 70.8477786,92.48 64,92.48 Z M52.64,52.8 C55.7327946,52.8 58.24,50.2927946 58.24,47.2 C58.24,44.1072054 55.7327946,41.6 52.64,41.6 C49.5472054,41.6 47.04,44.1072054 47.04,47.2 C47.04,50.2927946 49.5472054,52.8 52.64,52.8 Z M75.36,52.8 C78.4527946,52.8 80.96,50.2927946 80.96,47.2 C80.96,44.1072054 78.4527946,41.6 75.36,41.6 C72.2672054,41.6 69.76,44.1072054 69.76,47.2 C69.76,50.2927946 72.2672054,52.8 75.36,52.8 Z M52.8,58.88 L52.8,64 L75.2,64 L75.2,58.88 L52.8,58.88 Z" id="Rectangle-2" fill="#AAAAAA" fill-rule="evenodd"></path>
            <g id="Group" stroke-width="1" fill-rule="evenodd" transform="translate(52.040000, 58.600000)"></g>
        </g>
        <g id="icon/avatar/remote/40x40" transform="translate(758.000000, 1230.000000)">
            <rect id="Rectangle" x="0" y="0" width="40" height="40"></rect>
            <path d="M13.0082255,25.3 L16.4875962,25.3 L16.4875962,23.4792098 C14.56145,23.4792098 13,21.9177598 13,19.9916136 L13,18.2397158 C12.1771699,17.9809362 11.6654039,17.7095742 11.464702,17.4256298 C11.1636491,16.9997132 11.0502454,16.6269806 11.0502454,15.6931534 C11.0502454,14.7593262 11.1626881,14.2887811 11.464702,13.823986 C11.6660445,13.5141226 12.1778105,13.2137866 13,12.9229782 C13,11.0245662 14.538967,9.48559914 16.4373791,9.48559914 L19.3968526,9.48559914 L19.4,7.31681084 L20,7.31681084 L20.5970977,7.31681084 L20.5970977,9.48559914 L23.5626209,9.48559914 C25.461033,9.48559914 27,11.0245662 27,12.9229782 C27.7691816,13.1503398 28.2683188,13.4506757 28.4974117,13.823986 C28.7265046,14.1972963 28.8279073,14.8203521 28.8016197,15.6931534 C28.7142537,16.5239504 28.5623623,17.1014426 28.3459458,17.4256298 C28.1295292,17.7498171 27.6808806,18.0211791 27,18.2397158 L27,19.9681214 C27,21.9072419 25.4280322,23.4792098 23.4889116,23.4792098 L23.4889116,25.3 L26.8917745,25.3 C27.8904299,25.3 28.7,26.1095701 28.7,27.1082255 L30.5469124,27.1082255 C30.5469124,25.9027418 31.3392888,25.3 32.9240416,25.3 C36,25.3 35.9513502,27.5842789 35.9513502,28 C35.9513502,28.2151711 35.9513502,32.2151711 35.9513502,40 L30.6245828,40 L30.5469124,33.9985795 L28.7,33.9985795 L28.7,40 L11.2,40 L11.2,33.9985795 L9.42804175,33.9985795 L9.42804175,40 L4,40 C4,32.421661 4,28.421661 4,28 C4,27.3675085 4.64409988,25.3 7.3846613,25.3 C8.74691494,25.3 9.42804175,25.9027418 9.42804175,27.1082255 L11.2,27.1082255 C11.2,26.1095701 12.0095701,25.3 13.0082255,25.3 Z M16.05,38.6 C16.7403559,38.6 17.3,38.0403559 17.3,37.35 C17.3,36.6596441 16.7403559,36.1 16.05,36.1 C15.3596441,36.1 14.8,36.6596441 14.8,37.35 C14.8,38.0403559 15.3596441,38.6 16.05,38.6 Z M20.05,38.6 C20.7403559,38.6 21.3,38.0403559 21.3,37.35 C21.3,36.6596441 20.7403559,36.1 20.05,36.1 C19.3596441,36.1 18.8,36.6596441 18.8,37.35 C18.8,38.0403559 19.3596441,38.6 20.05,38.6 Z M24.05,38.6 C24.7403559,38.6 25.3,38.0403559 25.3,37.35 C25.3,36.6596441 24.7403559,36.1 24.05,36.1 C23.3596441,36.1 22.8,36.6596441 22.8,37.35 C22.8,38.0403559 23.3596441,38.6 24.05,38.6 Z M20,28.9 C18.7486311,28.9 17.7101087,29.1751058 16.8844329,29.7253174 C16.2199318,30.1681052 15.8207719,30.9137626 15.8207719,31.7122754 C15.8207719,33.0309793 16.8897927,34.1 18.2084965,34.1 C18.3493674,33.5281164 18.6040988,33.0583376 18.9726907,32.6906637 C19.2899934,32.3741512 19.8324299,32.2665779 20.6,32.3679439 C21.203833,31.7775903 21.6238152,31.3767702 21.8599467,31.1654834 C22.1351316,30.9896075 22.5916972,31.0033302 22.8,31.1654834 C23.0083028,31.3276366 23.2617074,31.6584343 23.070174,32.1075843 C22.7299694,32.5856794 22.2880635,33.0967369 21.7444564,33.6407567 L21.7444564,34.1 C22.5690256,34.1 23.3359436,33.6769883 23.7758246,32.9795508 C24.4834147,31.8576571 24.1475553,30.3745675 23.0256405,29.6670108 C22.2149031,29.1556703 21.2063563,28.9 20,28.9 Z M16.45,16.5 C17.4164983,16.5 18.2,15.7164983 18.2,14.75 C18.2,13.7835017 17.4164983,13 16.45,13 C15.4835017,13 14.7,13.7835017 14.7,14.75 C14.7,15.7164983 15.4835017,16.5 16.45,16.5 Z M23.55,16.5 C24.5164983,16.5 25.3,15.7164983 25.3,14.75 C25.3,13.7835017 24.5164983,13 23.55,13 C22.5835017,13 21.8,13.7835017 21.8,14.75 C21.8,15.7164983 22.5835017,16.5 23.55,16.5 Z M16.5,18.4 L16.5,20 L23.5,20 L23.5,18.4 L16.5,18.4 Z" id="Rectangle-2" fill="#AAAAAA" fill-rule="evenodd"></path>
            <g id="Group" stroke-width="1" fill-rule="evenodd" transform="translate(15.700000, 18.000000)"></g>
        </g>
    </g>
</svg>