<?xml version="1.0" encoding="UTF-8"?>
<svg width="1024px" height="2040px" viewBox="0 0 1024 2040" version="1.1" xmlns="http://www.w3.org/2000/svg" xmlns:xlink="http://www.w3.org/1999/xlink">
    <title>sprite_avatar</title>
    <defs>
        <circle id="path-1" cx="200" cy="200" r="200"></circle>
        <circle id="path-3" cx="100" cy="100" r="100"></circle>
        <circle id="path-5" cx="64" cy="64" r="64"></circle>
        <circle id="path-7" cx="20" cy="20" r="20"></circle>
    </defs>
    <g id="sprite_avatar" stroke="none" stroke-width="1" fill="none" fill-rule="evenodd">
        <g id="Group">
            <rect id="Rectangle" x="0" y="0" width="400" height="400"></rect>
            <path d="M48.6355544,400 C53.1920237,365.245814 58.0431455,339.97209 63.1889199,324.17883 C65.8318812,321.214123 69.2504095,317.375435 74.5625132,315.618587 C86.1875239,311.7739 113.477677,304.273524 156.432973,293.117458 L157.12296,267.837635 C150.415441,259.969605 146.076414,254.156496 144.105878,250.398305 C138.28112,239.289378 138.062548,236.809589 135.932958,228.591508 C135.932958,228.591508 127.77812,228.591508 122.680756,223.99405 C117.768516,218.760993 116.188726,215.44599 114.745017,207.839653 C113.301308,200.233317 114.511781,191.844794 116.820208,185.191738 C120.708705,177.056192 125.864769,178.95651 125.864769,178.95651 C125.864769,173.287613 121.16477,136.530042 122.680756,116.994185 C124.039835,105.619998 139.778025,96.1614408 149.587275,90.3898031 C150.041855,90.1223337 142.574976,90.6490356 143.030832,90.3898031 C155.155299,83.4949717 159.034339,81.4012226 168.520658,79.3606237 C180.867562,76.7046855 193.086261,79.6296499 195.925315,79.3606237 C197.393428,79.2215067 191.339246,75.4783388 191.911298,75.4783388 C197.901154,75.4783388 213.601739,72.2312511 222.073075,75.1283853 C229.83429,77.51944 235.176261,83.9434544 245.041017,96.0321015 C252.342059,94.5794691 259.796799,94.5794691 266.740116,100.092642 C269.673128,103.636356 273.679667,109.485543 273.962296,116.994185 C273.984137,117.574438 268.99947,114.550701 269.196079,115.144202 C269.895109,117.254358 274.959261,122.325943 276.095026,126.043913 C278.380884,133.526755 277.154043,153.269801 273.679667,178.95651 C271.679667,178.95651 279.493388,178.95651 281.860666,185.191738 C284.202262,192.164621 284.553128,196.950614 284.553128,202.907502 C284.553128,208.86439 282.408142,218.674402 274.679667,223.99405 C269.44817,228.591508 264.307847,228.591508 264.307847,228.591508 C260.468736,238.367193 261.097138,238.963545 254.711723,250.398305 C250.45478,258.021479 246.49734,263.834589 242.839403,267.837635 L242.839403,293.117458 C286.736459,304.033777 313.954236,311.534153 324.492735,315.618587 C328.181922,317.048416 332.202478,320.908643 335.778994,324.17883 C341.791211,349.047518 347.078127,374.321241 351.639742,400" id="Line" fill="#AAAAAA"></path>
        </g>
        <g id="Group" transform="translate(410.000000, 0.000000)">
            <rect id="Rectangle" x="0" y="0" width="200" height="200"></rect>
            <path d="M24.3177772,200 C26.5960118,182.622907 29.0215728,169.986045 31.59446,162.089415 C32.9159406,160.607062 34.6252047,158.687718 37.2812566,157.809294 C43.0937619,155.88695 56.7388386,152.136762 78.2164865,146.558729 L78.5614799,133.918817 C75.2077207,129.984803 73.038207,127.078248 72.0529388,125.199153 C69.14056,119.644689 69.0312742,118.404795 67.9664791,114.295754 C67.9664791,114.295754 63.88906,114.295754 61.3403779,111.997025 C58.8842578,109.380496 58.0943628,107.722995 57.3725085,103.919827 C56.6506542,100.116658 57.2558904,95.9223969 58.410104,92.5958688 C60.3543526,88.528096 62.9323843,89.4782551 62.9323843,89.4782551 C62.9323843,86.6438063 60.5823851,68.2650209 61.3403779,58.4970925 C62.0199175,52.8099988 69.8890125,48.0807204 74.7936373,45.1949016 C75.0209277,45.0611668 71.2874878,45.3245178 71.5154162,45.1949016 C77.5776495,41.7474859 79.5171697,40.7006113 84.2603292,39.6803119 C90.4337809,38.3523427 96.5431307,39.8148249 97.9626574,39.6803119 C98.6967138,39.6107533 95.6696231,37.7391694 95.955649,37.7391694 C98.950577,37.7391694 106.800869,36.1156256 111.036538,37.5641927 C114.917145,38.75972 117.588131,41.9717272 122.520509,48.0160507 C126.17103,47.2897346 129.8984,47.2897346 133.370058,50.0463212 C134.836564,51.8181781 136.839833,54.7427713 136.981148,58.4970925 C136.992069,58.7872192 134.499735,57.2753504 134.59804,57.5721008 C134.947555,58.627179 137.47963,61.1629713 138.047513,63.0219565 C139.190442,66.7633773 138.577021,76.6349003 136.839833,89.4782551 C135.839833,89.4782551 139.746694,89.4782551 140.930333,92.5958688 C142.101131,96.0823103 142.276564,98.4753068 142.276564,101.453751 C142.276564,104.432195 141.204071,109.337201 137.339833,111.997025 C134.724085,114.295754 132.153924,114.295754 132.153924,114.295754 C130.234368,119.183596 130.548569,119.481772 127.355862,125.199153 C125.22739,129.01074 123.24867,131.917294 121.419701,133.918817 L121.419701,146.558729 C143.368229,152.016888 156.977118,155.767077 162.246367,157.809294 C164.090961,158.524208 166.101239,160.454321 167.889497,162.089415 C170.895605,174.523759 173.539063,187.16062 175.819871,200" id="Line" fill="#AAAAAA"></path>
        </g>
        <g id="Group" transform="translate(620.000000, 0.000000)">
            <rect id="Rectangle" x="0" y="0" width="128" height="128"></rect>
            <path d="M15.5633774,128 C17.0214476,116.87866 18.5738066,108.791069 20.2204544,103.737226 C21.066202,102.788519 22.160131,101.560139 23.8600042,100.997948 C27.5800076,99.7676481 36.3128567,97.3675277 50.0585514,93.7975867 L50.2793471,85.7080431 C48.1329413,83.1902737 46.7444525,81.3300786 46.1138808,80.1274577 C44.2499584,76.572601 44.1800155,75.7790685 43.4985466,73.1492825 C43.4985466,73.1492825 40.8889984,73.1492825 39.2578419,71.6780959 C37.685925,70.0035177 37.1803922,68.9427167 36.7184054,66.508689 C36.2564187,64.0746614 36.6437699,61.390334 37.3824666,59.261356 C38.6267857,56.6579814 40.2767259,57.2660833 40.2767259,57.2660833 C40.2767259,55.4520361 38.7727265,43.6896134 39.2578419,37.4381392 C39.6927472,33.7983992 44.728968,30.771661 47.8679279,28.924737 C48.0133937,28.8391468 45.6239922,29.0076914 45.7698663,28.924737 C49.6496957,26.718391 50.8909886,26.0483912 53.9266107,25.3953996 C57.8776198,24.5454993 61.7876037,25.481488 62.6961007,25.3953996 C63.1658968,25.3508821 61.2285588,24.1530684 61.4116154,24.1530684 C63.3283693,24.1530684 68.3525564,23.1140004 71.0633774,24.0410833 C73.5469728,24.8062208 75.2564036,26.8619054 78.4131255,30.7302725 C80.749459,30.2654301 83.1349758,30.2654301 85.356837,32.0296456 C86.2954009,33.163634 87.5774934,35.0353736 87.6679348,37.4381392 C87.6749239,37.6238203 86.0798305,36.6562242 86.1427453,36.8461445 C86.366435,37.5213946 87.9869635,39.1443016 88.3504083,40.3340521 C89.0818828,42.7285615 88.6892937,49.0463362 87.5774934,57.2660833 C86.9374934,57.2660833 89.4378842,57.2660833 90.195413,59.261356 C90.9447238,61.4926786 91.057001,63.0241963 91.057001,64.9304006 C91.057001,66.8366048 90.3706056,69.9758086 87.8974934,71.6780959 C86.2234143,73.1492825 84.5785112,73.1492825 84.5785112,73.1492825 C83.3499955,76.2775016 83.5510843,76.4683343 81.5077515,80.1274577 C80.1455296,82.5668733 78.8791488,84.4270684 77.7086089,85.7080431 L77.7086089,93.7975867 C91.7556669,97.2908086 100.465356,99.690929 103.837675,100.997948 C105.018215,101.455493 106.304793,102.690766 107.449278,103.737226 C109.373187,111.695206 111.065001,119.782797 112.524717,128" id="Line" fill="#AAAAAA"></path>
        </g>
        <g id="Group" transform="translate(758.000000, 0.000000)">
            <rect id="Rectangle" x="0" y="0" width="40" height="40"></rect>
            <path d="M4.86355544,40 C5.31920237,36.5245814 5.80431455,33.997209 6.31889199,32.417883 C6.58318812,32.1214123 6.92504095,31.7375435 7.45625132,31.5618587 C8.61875239,31.17739 11.3477677,30.4273524 15.6432973,29.3117458 L15.712296,26.7837635 C15.0415441,25.9969605 14.6076414,25.4156496 14.4105878,25.0398305 C13.828112,23.9289378 13.8062548,23.6809589 13.5932958,22.8591508 C13.5932958,22.8591508 12.777812,22.8591508 12.2680756,22.399405 C11.7768516,21.8760993 11.6188726,21.544599 11.4745017,20.7839653 C11.3301308,20.0233317 11.4511781,19.1844794 11.6820208,18.5191738 C12.0708705,17.7056192 12.5864769,17.895651 12.5864769,17.895651 C12.5864769,17.3287613 12.116477,13.6530042 12.2680756,11.6994185 C12.4039835,10.5619998 13.9778025,9.61614408 14.9587275,9.03898031 C15.0041855,9.01223337 14.2574976,9.06490356 14.3030832,9.03898031 C15.5155299,8.34949717 15.9034339,8.14012226 16.8520658,7.93606237 C18.0867562,7.67046855 19.3086261,7.96296499 19.5925315,7.93606237 C19.7393428,7.92215067 19.1339246,7.54783388 19.1911298,7.54783388 C19.7901154,7.54783388 21.3601739,7.22312511 22.2073075,7.51283853 C22.983429,7.751944 23.5176261,8.39434544 24.5041017,9.60321015 C25.2342059,9.45794691 25.9796799,9.45794691 26.6740116,10.0092642 C26.9673128,10.3636356 27.3679667,10.9485543 27.3962296,11.6994185 C27.3984137,11.7574438 26.899947,11.4550701 26.9196079,11.5144202 C26.9895109,11.7254358 27.4959261,12.2325943 27.6095026,12.6043913 C27.8380884,13.3526755 27.7154043,15.3269801 27.3679667,17.895651 C27.1679667,17.895651 27.9493388,17.895651 28.1860666,18.5191738 C28.4202262,19.2164621 28.4553128,19.6950614 28.4553128,20.2907502 C28.4553128,20.886439 28.2408142,21.8674402 27.4679667,22.399405 C26.944817,22.8591508 26.4307847,22.8591508 26.4307847,22.8591508 C26.0468736,23.8367193 26.1097138,23.8963545 25.4711723,25.0398305 C25.045478,25.8021479 24.649734,26.3834589 24.2839403,26.7837635 L24.2839403,29.3117458 C28.6736459,30.4033777 31.3954236,31.1534153 32.4492735,31.5618587 C32.8181922,31.7048416 33.2202478,32.0908643 33.5778994,32.417883 C34.1791211,34.9047518 34.7078127,37.4321241 35.1639742,40" id="Line" fill="#AAAAAA"></path>
        </g>
        <g id="Group" transform="translate(0.000000, 1230.000000)">
            <rect id="Rectangle" x="0" y="0" width="400" height="400"></rect>
            <path d="M205.970977,73.1681084 L205.970977,94.8559914 L255,94.8559914 C263.284271,94.8559914 270,101.57172 270,109.855991 L270,129.229782 C277.691816,131.503398 282.683188,134.506757 284.974117,138.23986 C287.265046,141.972963 288.279073,148.203521 288.016197,156.931534 C287.142537,165.239504 285.623623,171.014426 283.459458,174.256298 C281.295292,177.498171 276.808806,180.211791 270,182.397158 L270,219.792098 C270,228.076369 263.284271,234.792098 255,234.792098 L234.889116,234.792098 L234.889116,253 L272,253 C280.284271,253 287,259.715729 287,268 L287,271.082255 L305.469124,271.082255 C305.469124,259.027418 313.392888,253 329.240416,253 C358.462021,253 359.484037,273.615617 359.513184,279.241468 L359.513502,400 L359.513502,400 L306.245828,400 L305.469124,339.985795 L287,339.985795 L287,400 L112,400 L112,339.985795 L94.2804175,339.985795 L94.2804175,400 L40,400 L40,280 L40,280 C40,273.675085 46.4409988,253 73.846613,253 C87.4691494,253 94.2804175,259.027418 94.2804175,271.082255 L112,271.082255 L112,268 C112,259.715729 118.715729,253 127,253 L164.875962,253 L164.875962,234.792098 L145,234.792098 C136.715729,234.792098 130,228.076369 130,219.792098 L130,182.397158 C121.771699,179.809362 116.654039,177.095742 114.64702,174.256298 C111.636491,169.997132 110.502454,166.269806 110.502454,156.931534 C110.502454,147.593262 111.626881,142.887811 114.64702,138.23986 C116.660445,135.141226 121.778105,132.137866 130,129.229782 L130,109.855991 C130,101.57172 136.715729,94.8559914 145,94.8559914 L193.968526,94.8559914 L194,73.1681084 L205.970977,73.1681084 Z M160.5,361 C153.596441,361 148,366.596441 148,373.5 C148,380.403559 153.596441,386 160.5,386 C167.403559,386 173,380.403559 173,373.5 C173,366.596441 167.403559,361 160.5,361 Z M200.5,361 C193.596441,361 188,366.596441 188,373.5 C188,380.403559 193.596441,386 200.5,386 C207.403559,386 213,380.403559 213,373.5 C213,366.596441 207.403559,361 200.5,361 Z M240.5,361 C233.596441,361 228,366.596441 228,373.5 C228,380.403559 233.596441,386 240.5,386 C247.403559,386 253,380.403559 253,373.5 C253,366.596441 247.403559,361 240.5,361 Z M200,289 C170.841734,289 153.23978,303.936623 147.194136,333.809869 C147.114855,334.201618 147.074917,334.600309 147.074917,335 C147.074917,338.313705 149.761206,340.999993 153.074911,341 L153.074911,341 L182.084965,341 C183.493674,335.281164 186.040988,330.583376 189.726907,326.906637 C192.899934,323.741512 198.324299,322.665779 206,323.679439 C212.03833,317.775903 216.238152,313.767702 218.599467,311.654834 C221.351316,309.896075 225.916972,310.033302 228,311.654834 C230.083028,313.276366 232.617074,316.584343 230.70174,321.075843 C227.299694,325.856794 222.880635,330.967369 217.444564,336.407567 L217.444564,336.407567 L217.444564,341 L246.925083,341 C247.324774,341 247.723465,340.960062 248.115215,340.880781 C251.363078,340.22349 253.463152,337.057736 252.805864,333.809872 C246.760221,303.936624 229.158266,289 200,289 Z M235,184 L165,184 L165,200 L235,200 L235,184 Z M164.5,130 C154.835017,130 147,137.835017 147,147.5 C147,157.164983 154.835017,165 164.5,165 C174.164983,165 182,157.164983 182,147.5 C182,137.835017 174.164983,130 164.5,130 Z M235.5,130 C225.835017,130 218,137.835017 218,147.5 C218,157.164983 225.835017,165 235.5,165 C245.164983,165 253,157.164983 253,147.5 C253,137.835017 245.164983,130 235.5,130 Z" id="Rectangle-2" fill="#AAAAAA"></path>
            <g transform="translate(165.000000, 184.000000)"></g>
        </g>
        <g id="Group" transform="translate(410.000000, 1220.000000)">
            <rect id="Rectangle" x="0" y="0" width="200" height="200"></rect>
            <path d="M102.985489,36.5840542 L102.985489,47.4279957 L120,47.4279957 C128.284271,47.4279957 135,54.1437245 135,62.4279957 L135,64.614891 C138.845908,65.7516989 141.341594,67.2533785 142.487058,69.1199299 C143.632523,70.9864813 144.139536,74.1017603 144.008099,78.4657669 C143.571268,82.6197521 142.811812,85.5072128 141.729729,87.128149 C140.647646,88.7490853 138.404403,90.1058953 135,91.198579 L135,102.396049 C135,110.68032 128.284271,117.396049 120,117.396049 L117.444558,117.396049 L117.444558,126.5 L134.458873,126.5 C139.362984,126.5 143.355132,130.404575 143.496145,135.274553 L143.5,135.541127 L152.734562,135.541127 C152.734562,129.513709 156.696444,126.5 164.620208,126.5 C179.23101,126.5 179.742018,136.807809 179.756592,139.620734 L179.756751,200 L179.756751,200 L153.122914,200 L152.734562,169.992898 L143.5,169.992898 L143.5,200 L56,200 L56,169.992898 L47.1402088,169.992898 L47.1402088,200 L20,200 L20,140 L20,140 C20,136.837542 23.2204994,126.5 36.9233065,126.5 C43.7345747,126.5 47.1402088,129.513709 47.1402088,135.541127 L56,135.541127 C56,130.547851 60.0478506,126.5 65.0411275,126.5 L82.4379808,126.5 L82.4379808,117.396049 L80,117.396049 C71.7157288,117.396049 65,110.68032 65,102.396049 L65,91.198579 C60.8858495,89.9046811 58.3270195,88.5478711 57.3235099,87.128149 C55.8182455,84.9985659 55.2512272,83.1349028 55.2512272,78.4657669 C55.2512272,73.7966309 55.8134407,71.4439056 57.3235099,69.1199299 C58.3302227,67.5706128 60.8890527,66.0689332 65,64.614891 L65,62.4279957 C65,54.1437245 71.7157288,47.4279957 80,47.4279957 L96.9842632,47.4279957 L97,36.5840542 L102.985489,36.5840542 Z M80.25,180.5 C76.7982203,180.5 74,183.29822 74,186.75 C74,190.20178 76.7982203,193 80.25,193 C83.7017797,193 86.5,190.20178 86.5,186.75 C86.5,183.29822 83.7017797,180.5 80.25,180.5 Z M100.25,180.5 C96.7982203,180.5 94,183.29822 94,186.75 C94,190.20178 96.7982203,193 100.25,193 C103.70178,193 106.5,190.20178 106.5,186.75 C106.5,183.29822 103.70178,180.5 100.25,180.5 Z M120.25,180.5 C116.79822,180.5 114,183.29822 114,186.75 C114,190.20178 116.79822,193 120.25,193 C123.70178,193 126.5,190.20178 126.5,186.75 C126.5,183.29822 123.70178,180.5 120.25,180.5 Z M100,144.5 C86.8483788,144.5 78.398777,150.577397 74.6511948,162.732192 C74.4746308,163.304854 74.3848543,163.900736 74.3848543,164.5 C74.3848543,167.813706 77.0711441,170.499996 80.3848504,170.5 L80.3848504,170.5 L91.0424826,170.5 C91.746837,167.640582 93.020494,165.291688 94.8634535,163.453319 C96.4499672,161.870756 99.1621494,161.33289 103,161.83972 C106.019165,158.887952 108.119076,156.883851 109.299733,155.827417 C110.675658,154.948037 112.958486,155.016651 114,155.827417 C115.041514,156.638183 116.308537,158.292171 115.35087,160.537922 C113.649847,162.928397 111.440317,165.483684 108.722282,168.203783 L108.722282,168.203783 L108.722282,170.5 L119.615146,170.5 C120.21441,170.5 120.810292,170.410223 121.382955,170.233659 C124.549567,169.257325 126.325138,165.898804 125.348805,162.732191 C121.601223,150.577397 113.151621,144.5 100,144.5 Z M117.5,92 L82.5,92 L82.5,100 L117.5,100 L117.5,92 Z M82.25,65 C77.4175084,65 73.5,68.9175084 73.5,73.75 C73.5,78.5824916 77.4175084,82.5 82.25,82.5 C87.0824916,82.5 91,78.5824916 91,73.75 C91,68.9175084 87.0824916,65 82.25,65 Z M117.75,65 C112.917508,65 109,68.9175084 109,73.75 C109,78.5824916 112.917508,82.5 117.75,82.5 C122.582492,82.5 126.5,78.5824916 126.5,73.75 C126.5,68.9175084 122.582492,65 117.75,65 Z" id="Rectangle-2" fill="#AAAAAA"></path>
            <g transform="translate(82.500000, 92.000000)"></g>
        </g>
        <g id="Group" transform="translate(620.000000, 1220.000000)">
            <rect id="Rectangle" x="0" y="0" width="128" height="128"></rect>
            <path d="M65.9107127,23.4137947 L65.9107127,30.3539173 L75.400387,30.3539173 C81.3788783,30.3539173 86.2433707,35.123513 86.3962927,41.0651329 L86.4,41.3535302 C88.861381,42.0810873 90.4586201,43.0421622 91.1917174,44.2367551 C91.9248147,45.431348 92.2493033,47.4251266 92.1651832,50.2180908 C91.8856117,52.8766413 91.3995595,54.7246162 90.7070265,55.7620154 C90.0144934,56.7994146 88.5788179,57.667773 86.4,58.3670906 L86.4,63.8979884 C86.4,70.0062182 81.5256717,74.9759876 75.45451,75.1298016 L75.1645172,75.1334712 L75.1645172,80.96 L86.0536784,80.96 C89.175057,80.96 91.7191786,83.4315314 91.8358217,86.5243727 L91.84,86.7463216 L97.7501196,86.7463216 C97.7501196,82.8887739 100.285724,80.96 105.356933,80.96 C114.707847,80.96 115.034892,87.5569975 115.044219,89.3572696 L115.044321,128 L115.044321,128 L97.9986649,128 L97.7501196,108.795454 L91.84,108.795454 L91.84,128 L35.84,128 L35.84,108.795454 L30.1697336,108.795454 L30.1697336,128 L12.8,128 L12.8,89.6 L12.8,89.6 C12.8,87.5760271 14.8611196,80.96 23.6309162,80.96 C27.9901278,80.96 30.1697336,82.8887739 30.1697336,86.7463216 L35.84,86.7463216 C35.84,83.5506244 38.4306244,80.96 41.6263216,80.96 L52.7603077,80.96 L52.7603077,75.1334712 C46.5966399,75.1334712 41.6,70.1368313 41.6,63.9731635 L41.6,58.3670906 C38.9669437,57.5389959 37.3292925,56.6706375 36.6870463,55.7620154 C35.7236771,54.3990822 35.3607854,53.2063378 35.3607854,50.2180908 C35.3607854,47.2298438 35.7206021,45.7240996 36.6870463,44.2367551 C37.3313425,43.2451922 38.9689937,42.2841172 41.6,41.3535302 C41.6,35.2786117 46.5246945,30.3539173 52.599613,30.3539173 L62.0699285,30.3539173 L62.08,23.4137947 L65.9107127,23.4137947 Z M51.36,115.52 C49.150861,115.52 47.36,117.310861 47.36,119.52 C47.36,121.729139 49.150861,123.52 51.36,123.52 C53.569139,123.52 55.36,121.729139 55.36,119.52 C55.36,117.310861 53.569139,115.52 51.36,115.52 Z M64.16,115.52 C61.950861,115.52 60.16,117.310861 60.16,119.52 C60.16,121.729139 61.950861,123.52 64.16,123.52 C66.369139,123.52 68.16,121.729139 68.16,119.52 C68.16,117.310861 66.369139,115.52 64.16,115.52 Z M76.96,115.52 C74.750861,115.52 72.96,117.310861 72.96,119.52 C72.96,121.729139 74.750861,123.52 76.96,123.52 C79.169139,123.52 80.96,121.729139 80.96,119.52 C80.96,117.310861 79.169139,115.52 76.96,115.52 Z M64,92.48 C57.1522194,92.48 52.2962379,95.0544161 49.4320556,100.203248 C48.9358251,101.095303 48.6753903,102.099213 48.6753903,103.12 C48.6753903,106.433708 51.3616816,109.12 54.6753898,109.12 L54.6753898,109.12 L58.2671889,109.12 C58.7179757,107.289972 59.5331161,105.78668 60.7126102,104.610124 C61.727979,103.597284 63.4637756,103.253049 65.92,103.577421 C67.8522655,101.688289 69.1962086,100.405665 69.9518293,99.7295469 C70.8324213,99.166744 72.2934311,99.2106567 72.96,99.7295469 C73.6265689,100.248437 74.4374638,101.30699 73.8245569,102.74427 C72.735902,104.274174 71.3218032,105.909558 69.5822605,107.650421 L69.5822605,107.650421 L69.5822605,109.12 L73.3246082,109.12 C74.3453965,109.12 75.3493073,108.859565 76.241363,108.363333 C79.1371775,106.752454 80.1788235,103.099057 78.5679419,100.203244 C75.7037593,95.0544146 70.8477786,92.48 64,92.48 Z M75.2,58.88 L52.8,58.88 L52.8,64 L75.2,64 L75.2,58.88 Z M52.64,41.6 C49.5472054,41.6 47.04,44.1072054 47.04,47.2 C47.04,50.2927946 49.5472054,52.8 52.64,52.8 C55.7327946,52.8 58.24,50.2927946 58.24,47.2 C58.24,44.1072054 55.7327946,41.6 52.64,41.6 Z M75.36,41.6 C72.2672054,41.6 69.76,44.1072054 69.76,47.2 C69.76,50.2927946 72.2672054,52.8 75.36,52.8 C78.4527946,52.8 80.96,50.2927946 80.96,47.2 C80.96,44.1072054 78.4527946,41.6 75.36,41.6 Z" id="Rectangle-2" fill="#AAAAAA"></path>
            <g transform="translate(52.040000, 58.600000)"></g>
        </g>
        <g id="Group" transform="translate(758.000000, 1230.000000)">
            <rect id="Rectangle" x="0" y="0" width="40" height="40"></rect>
            <path d="M20.5970977,7.31681084 L20.5970977,9.48559914 L23.5626209,9.48559914 C25.3977526,9.48559914 26.8970028,10.9236783 26.9949138,12.7343788 L27,12.9229782 C27.7691816,13.1503398 28.2683188,13.4506757 28.4974117,13.823986 C28.7265046,14.1972963 28.8279073,14.8203521 28.8016197,15.6931534 C28.7142537,16.5239504 28.5623623,17.1014426 28.3459458,17.4256298 C28.1295292,17.7498171 27.6808806,18.0211791 27,18.2397158 L27,19.9681214 C27,21.8426046 25.5310834,23.374004 23.6815552,23.4740145 L23.4889116,23.4792098 L23.4889116,25.3 L26.8917745,25.3 C27.8404971,25.3 28.6185703,26.030637 28.6940058,26.9599229 L28.7,27.1082255 L30.5469124,27.1082255 C30.5469124,25.9027418 31.3392888,25.3 32.9240416,25.3 C35.833732,25.3 35.94748,27.3440042 35.9512755,27.9168628 L35.9513502,40 L35.9513502,40 L30.6245828,40 L30.5469124,33.9985795 L28.7,33.9985795 L28.7,40 L11.2,40 L11.2,33.9985795 L9.42804175,33.9985795 L9.42804175,40 L4,40 L4,28 L4,28 C4,27.3675085 4.64409988,25.3 7.3846613,25.3 C8.74691494,25.3 9.42804175,25.9027418 9.42804175,27.1082255 L11.2,27.1082255 C11.2,26.1095701 12.0095701,25.3 13.0082255,25.3 L16.4875962,25.3 L16.4875962,23.4792098 C14.56145,23.4792098 13,21.9177598 13,19.9916136 L13,18.2397158 C12.1771699,17.9809362 11.6654039,17.7095742 11.464702,17.4256298 C11.1636491,16.9997132 11.0502454,16.6269806 11.0502454,15.6931534 C11.0502454,14.7593262 11.1626881,14.2887811 11.464702,13.823986 C11.6660445,13.5141226 12.1778105,13.2137866 13,12.9229782 C13,11.0245662 14.538967,9.48559914 16.4373791,9.48559914 L19.3968526,9.48559914 L19.4,7.31681084 L20.5970977,7.31681084 Z M16.05,36.1 C15.3596441,36.1 14.8,36.6596441 14.8,37.35 C14.8,38.0403559 15.3596441,38.6 16.05,38.6 C16.7403559,38.6 17.3,38.0403559 17.3,37.35 C17.3,36.6596441 16.7403559,36.1 16.05,36.1 Z M20.05,36.1 C19.3596441,36.1 18.8,36.6596441 18.8,37.35 C18.8,38.0403559 19.3596441,38.6 20.05,38.6 C20.7403559,38.6 21.3,38.0403559 21.3,37.35 C21.3,36.6596441 20.7403559,36.1 20.05,36.1 Z M24.05,36.1 C23.3596441,36.1 22.8,36.6596441 22.8,37.35 C22.8,38.0403559 23.3596441,38.6 24.05,38.6 C24.7403559,38.6 25.3,38.0403559 25.3,37.35 C25.3,36.6596441 24.7403559,36.1 24.05,36.1 Z M20,28.9 C18.7486311,28.9 17.7101087,29.1751058 16.8844329,29.7253174 C16.2199318,30.1681052 15.8207719,30.9137626 15.8207719,31.7122754 C15.8207719,33.0309793 16.8897927,34.1 18.2084965,34.1 C18.3493674,33.5281164 18.6040988,33.0583376 18.9726907,32.6906637 C19.2899934,32.3741512 19.8324299,32.2665779 20.6,32.3679439 C21.203833,31.7775903 21.6238152,31.3767702 21.8599467,31.1654834 C22.1351316,30.9896075 22.5916972,31.0033302 22.8,31.1654834 C23.0083028,31.3276366 23.2617074,31.6584343 23.070174,32.1075843 C22.7299694,32.5856794 22.2880635,33.0967369 21.7444564,33.6407567 L21.7444564,33.6407567 L21.7444564,34.1 L21.9201692,34.0935795 C22.6769168,34.0381696 23.3673636,33.6271713 23.7758246,32.9795508 C24.4834147,31.8576571 24.1475553,30.3745675 23.0256405,29.6670108 C22.2149031,29.1556703 21.2063563,28.9 20,28.9 Z M23.5,18.4 L16.5,18.4 L16.5,20 L23.5,20 L23.5,18.4 Z M16.45,13 C15.4835017,13 14.7,13.7835017 14.7,14.75 C14.7,15.7164983 15.4835017,16.5 16.45,16.5 C17.4164983,16.5 18.2,15.7164983 18.2,14.75 C18.2,13.7835017 17.4164983,13 16.45,13 Z M23.55,13 C22.5835017,13 21.8,13.7835017 21.8,14.75 C21.8,15.7164983 22.5835017,16.5 23.55,16.5 C24.5164983,16.5 25.3,15.7164983 25.3,14.75 C25.3,13.7835017 24.5164983,13 23.55,13 Z" id="Rectangle-2" fill="#AAAAAA"></path>
            <g transform="translate(15.700000, 18.000000)"></g>
        </g>
        <g id="icon/avatar/remote/400x400" transform="translate(-0.000000, 1640.000000)" fill="#AAAAAA">
            <path d="M199.986473,0 C310.44978,0 400,89.5441634 400,200 C400,310.455837 310.44978,400 199.986473,400 C89.5502198,400 0,310.455837 0,200 C0,89.5441634 89.5502198,0 199.986473,0 Z M98.3387453,46.7132901 L96.9845773,47.6234415 C49.1839691,80.0627822 17.1575079,134.313831 15.887393,196.285112 L15.8583343,198.165378 L30.0143146,206.387781 L45.3959124,210.711853 L52.1559363,219.394873 L62.1926525,226.6749 L68.2578273,225.743906 L73.3171779,228.017258 L73.3171779,230.19976 L67.0507592,246.112089 L62.9919069,252.431141 L64.3394306,255.618337 L60.56785,267.902083 L73.5864655,291.630948 L86.8579573,303.471986 L92.7772891,311.871232 L92.3145508,329.073044 L96.6307196,339.152529 L93.839247,350.686325 L94.8453973,351.390016 C101.808123,356.216477 109.111063,360.687304 116.751746,364.800951 L118.284386,365.618917 L122.417594,361.485989 L124.885848,355.568189 L134.367273,352.245863 L141.182979,334.521041 L138.767816,329.663283 L144.503471,321.312973 L155.300506,318.955467 L160.730443,306.320781 L159.286645,289.568403 L168.383306,277.149849 L169.689831,265.693404 L165.786329,263.671584 C163.794321,262.644396 161.790959,261.616779 159.781434,260.588831 L147.687164,254.415561 C143.980244,252.521275 140.28572,250.625561 136.632908,248.727513 L133.901579,247.303526 L128.738344,235.586717 L117.770662,233.197879 L112.131429,217.724443 L97.7708101,219.097056 L85.7345888,210.308042 L73.2083719,221.047717 L72.5554852,223.411178 C71.9263061,223.240763 71.2052621,223.08759 70.4228648,222.940861 L69.4564912,222.767188 L69.4564912,222.767188 L68.9548785,222.681376 L67.0764436,222.369612 L65.7789724,222.150258 L64.7667423,221.969194 L64.7667423,221.969194 L63.7579366,221.774964 C61.581979,221.337935 59.4893979,220.789307 57.8654032,220.006268 L57.4991286,219.82135 L52.5022336,211.284375 L52.5022336,203.001274 L45.271355,203.433708 C45.354645,202.904223 45.4514662,202.351216 45.5590723,201.780373 L45.7878505,200.616593 L46.0283286,199.471777 L46.1567684,198.8829 L46.4214208,197.705153 L46.97931,195.321599 L48.0844457,190.704957 L48.447803,189.128151 L48.7626591,187.67396 L49.0210156,186.334854 L45.30355,186.334854 L40.2183654,192.789704 L34.3636365,195.459037 L26.4495291,190.704876 L25.413526,181.122495 L26.9170356,170.655372 L38.3846674,161.686247 L47.0310945,161.686247 L48.5227235,156.76139 L60.5579257,159.8969 L67.4142879,168.357859 L68.6628254,153.592501 L82.5588439,142.099715 L87.8402193,129.622284 L98.3862547,125.305805 L104.15703,117.156161 L117.438234,114.775984 L122.857856,107.043633 L101.434601,107.043633 L116.762814,97.5985964 L125.893635,97.5985964 L138.136347,93.0789133 L139.255563,89.2910555 L135.540564,85.5763075 L129.642309,83.956689 L131.244136,78.6679933 L127.968502,72.1403984 L118.642939,75.7815623 L120.258958,68.1370677 L111.199837,63.2088637 L103.74454,76.367324 L104.771727,82.0311457 L96.3292051,85.0339873 L90.1630005,97.9086629 L87.293945,85.9116058 L73.5595185,80.2185449 L70.8296114,71.5020447 L89.9044478,60.2806737 L97.6452018,52.982 L98.3387453,46.7132901 Z M293.896345,41.1301421 L279.732529,44.3324059 L270.357421,49.6819697 L270.357421,54.8460708 L257.69818,63.7656925 L261.382544,75.2144278 L269.087966,69.7589441 L274.755617,75.9547657 L279.420245,78.6737725 L282.672251,70.102993 L280.214147,65.6898774 L283.019069,61.8014993 L291.431959,55.3369976 L297.148838,55.3369976 L293.137577,62.2176385 L293.143761,68.0571442 L293.275771,68.0232709 C293.406587,67.9898292 293.548381,67.9554307 293.701838,67.9199259 L294.197877,67.8099433 L294.197877,67.8099433 L294.767986,67.6924256 L295.564442,67.5664892 L296.396376,67.4491617 L297.539082,67.3032749 L301.140834,66.8808612 L305.788944,66.2771137 L293.49715,74.8562758 L292.559567,79.0885082 L281.077334,88.6041566 L268.534699,85.9825955 L268.534699,80.1155693 L265.383258,81.8211308 L267.999058,87.5873903 L259.07503,87.5873903 L256.322809,93.0601868 L250.610308,86.1730094 L250.268411,85.3215347 L249.978094,84.5850292 L249.978094,84.5850292 L249.689017,83.84038 L249.114555,82.3357974 L247.685277,78.5515936 L247.117428,77.078447 C246.536352,75.5904276 245.955944,74.1727091 245.375269,72.9135125 L245.126389,72.3838194 L240.435203,72.3838194 L240.435203,77.6947015 L244.222826,80.9951208 L244.222826,89.0880015 L243.001962,97.3282736 L250.00085,95.777992 L252.877671,92.9013653 L254.028847,98.1065506 C252.43768,98.9394038 251.035314,100.076796 250.111488,101.424074 L249.920956,101.715955 L248.824786,102.26467 L240.545143,103.839496 L245.056487,107.985356 L246.924547,114.153061 L238.778265,114.153061 L224.283698,120.961436 L224.283698,130.840853 L234.289534,130.840853 L238.45456,136.850736 L246.452015,134.336736 L250.185498,125.430315 L256.842193,121.155166 L258.323843,117.650731 L270.24088,115.084612 L276.182407,121.983074 L283.491818,125.652449 L280.339317,131.574245 L283.455145,130.540628 L285.989426,123.348582 L278.154313,111.849915 L283.104288,111.849915 L290.702961,119.448075 L292.141788,129.437739 L297.267709,135.31646 L298.501427,125.93618 L303.311483,123.496959 L304.439916,124.650141 C307.328352,127.666001 309.664829,130.932813 311.89847,134.248357 L312.375697,134.959503 L313.137256,136.103012 L323.829657,137.029271 L331.451862,141.366818 L328.523097,146.624926 L321.463936,151.675041 L311.558603,151.675041 L299.315654,148.37289 L293.160601,149.67387 L287.985156,155.410833 L273.718023,141.144665 L264.618707,138.863509 L251.078043,140.246745 L239.076512,143.483781 L235.040737,148.080074 C229.944073,153.904895 225.044705,159.613882 220.161534,165.796038 L218.940974,167.351776 L211.15553,185.690743 L215.027952,190.060752 L208.264815,200.246174 L214.671998,217.688221 L232.489735,238.209746 L241.529041,230.121064 L245.412447,235.00273 L251.518198,231.213516 C252.997422,231.2255 254.486232,231.184461 255.991722,231.092417 L257.124077,231.013852 L258.958486,233.370272 L268.867385,233.370272 L275.207116,240.220324 L271.875214,251.163393 L278.632207,258.819088 L301.144937,281.779209 C301.483254,282.53395 301.812852,283.286841 302.132933,284.037706 L302.605816,285.162465 L303.387536,287.05686 L303.916314,288.31482 L304.411663,289.467136 C306.749853,294.836952 309.487182,300.072039 313.769066,304.017822 C315.501017,305.597576 317.568741,306.900531 319.776698,307.802439 C320.021832,307.902572 320.269118,307.997934 320.518245,308.088459 C320.441062,308.337694 320.378282,308.587455 320.329197,308.836873 L320.275087,309.147237 L320.275087,309.147237 L320.234091,309.463069 L321.237236,309.605451 C322.909174,309.838117 324.581253,310.043784 326.25343,310.165315 L327.256747,310.22768 L327.928432,310.253097 L329.65609,308.817069 C330.935837,308.511003 332.16744,308.005649 333.310699,307.274601 C335.238691,306.04077 336.670985,304.398769 337.733606,302.498359 L337.928546,302.13904 L344.793843,297.670187 L348.194084,293.884359 L345.910418,285.217395 L345.910418,261.569035 L360.263651,238.147886 L368.690262,217.042658 L368.689439,213.4439 L367.601252,213.524625 L366.545397,213.610372 L365.319484,213.7235 L364.508237,213.808432 L363.79076,213.891802 L362.725503,214.031808 L361.962591,214.144117 L359.724052,214.497179 L359.016555,214.60064 L358.234838,214.705436 L354.624932,215.140611 L366.181721,204.144296 L378.011014,195.629937 L383.894861,188.404648 L383.894861,186.344643 L383.911981,185.548302 C383.933903,185.021825 383.975159,184.514875 384.024886,184.016295 L384.077035,183.520093 L384.219697,182.249291 C384.295486,181.549881 384.360892,180.836499 384.377676,180.074543 C383.041799,178.66587 382.437373,177.358266 382.012526,176.050709 L381.850857,175.527449 L381.540106,174.431191 L381.381409,173.889071 L381.267752,173.529778 L381.267752,173.529778 L381.14173,173.164734 L372.89104,180.501086 L367.612441,175.192682 L359.681131,169.745568 L359.681131,156.120754 L369.459303,165.898265 L378.944573,164.493134 L379.809994,165.325635 L380.187406,165.670197 L380.576909,166.015602 L380.576909,166.015602 L380.975026,166.3618 L382.030123,167.268942 L381.799088,165.983561 C374.170867,124.437522 352.533074,88.1695861 321.784472,61.7007802 L320.849913,60.9016993 L317.50371,65.1997828 L305.496002,54.390156 L311.147325,54.3899244 L310.835813,54.1628687 C309.515132,53.1882783 308.178524,52.147929 306.836198,51.0845136 L305.82854,50.2832941 L302.49042,47.6211343 C300.526821,46.0669053 298.575762,44.5639192 296.676791,43.2576456 L295.967195,42.7772981 L293.896345,41.1301421 Z M137.867886,99.8150179 L139.317984,107.048538 L141.921569,102.995131 L137.867886,99.8150179 Z M237.555961,83.9579085 L233.906641,84.9599854 L235.013583,91.9144483 L239.777823,89.5227672 L237.555961,83.9579085 Z M200.11201,15.8871319 C192.580612,15.8871319 184.620654,16.3139297 177.413969,17.1457723 L176.071831,17.3064841 L153.100292,23.3962012 L148.830652,27.6655524 L164.474432,38.6966845 L164.474432,46.6364682 L158.958206,53.0672735 L167.703031,69.235387 L172.408975,66.4922973 L179.587518,55.0019457 L181.534885,54.4220715 L183.128813,53.9296759 C191.552727,51.280995 199.299304,48.1135917 207.379603,44.6422907 L209.000412,43.9440422 L211.748473,42.7534077 L220.290574,21.6553332 L207.383139,16.6289754 L206.90598,16.4978639 C205.332851,16.0930802 203.777443,15.9582364 202.326047,15.9117518 L201.846219,15.8992804 L200.961357,15.8886092 L200.11201,15.8871319 Z M221.75177,53.1435163 L215.865826,56.3186132 L213.740168,55.6101083 L213.413115,59.116598 L217.643186,61.812264 L224.859964,56.6055742 L221.75177,53.1435163 Z M118.950661,35.6705351 L115.242453,36.8358268 L114.679248,37.1559312 L114.461763,37.2735193 C114.17432,37.4230428 113.894239,37.5425504 113.588106,37.6203678 L113.353099,37.6707314 L110.506794,43.9127747 L108.33012,40.5719183 L106.875654,41.434094 L106.595419,41.5953708 L107.07108,46.6951695 L101.144665,51.6381952 L97.5834435,59.1433009 L102.676364,59.1433009 L106.345426,51.3893537 L107.624184,50.4741249 L108.691764,49.7204522 L110.771259,48.2729666 L113.533783,46.359409 L114.948023,45.3682185 C115.187243,45.1993645 115.428457,45.0284229 115.672017,44.855004 L116.410088,44.3269257 L124.085736,46.8950298 L125.988788,48.215663 L127.20028,49.0415367 L128.425596,49.8679819 L128.425596,49.8679819 L129.660561,50.6945758 L133.394458,53.1795861 L134.638747,54.0109203 C135.466036,54.5652531 136.288127,55.1198516 137.100676,55.6749896 L138.3118,56.5081357 L143.836955,51.3614758 L136.788463,48.4523954 L133.044961,40.9924464 L118.950661,39.5249663 L118.950661,35.6705351 Z M123.259798,54.0588938 L120.641758,56.0968506 L126.740542,59.1351851 L128.457594,59.1351851 L128.457594,57.2731025 L123.259798,54.0588938 Z"></path>
        </g>
        <g id="icon/avatar/remote/200x200" transform="translate(410.000000, 1640.000000)" fill="#AAAAAA">
            <path d="M99.9932364,0 C155.22489,0 200,44.7720817 200,100 C200,155.227918 155.22489,200 99.9932364,200 C44.7751099,200 0,155.227918 0,100 C0,44.7720817 44.7751099,0 99.9932364,0 Z M49.1693726,23.3561448 L48.4922886,23.8117207 C24.5919846,40.0313911 8.57875394,67.1569156 7.94369649,98.1425561 L7.92916717,99.0826891 L15.0071573,103.193891 L22.6979562,105.355926 L26.0779681,109.697437 L31.0963263,113.33745 L34.1289137,112.871953 L36.658589,114.008629 L36.658589,115.09988 L33.5253796,123.056045 L31.4959534,126.21557 L32.1697153,127.809168 L30.283925,133.951041 L36.7932328,145.815474 L43.4289786,151.735993 L46.3886445,155.935616 L46.1572754,164.536522 L48.3153598,169.576265 L46.9196235,175.343162 L47.4226987,175.695008 C50.7648069,178.011709 54.2636861,180.164534 57.9182428,182.152799 L59.1421928,182.809459 L61.2087969,180.742994 L62.4429239,177.784094 L67.1836364,176.122931 L70.5914897,167.260521 L69.3839081,164.831642 L72.2517353,160.656486 L77.6502529,159.477734 L80.3652215,153.16039 L79.6433223,144.784202 L84.191653,138.574924 L84.8449156,132.846702 L82.8931646,131.835792 L80.6436706,130.679864 L80.6436706,130.679864 L73.843582,127.207781 C72.299032,126.418495 70.758786,125.628713 69.2313271,124.838173 L66.9507894,123.651763 L64.3691719,117.793359 L58.8853312,116.598939 L56.0657147,108.862221 L48.8854051,109.548528 L42.8672944,105.154021 L36.6041859,110.523859 L36.2777426,111.705589 C35.8582899,111.591979 35.3571795,111.493695 34.8105732,111.39794 L32.8894862,111.075129 C31.4991729,110.833987 30.0805476,110.533393 29.0274224,110.047793 L28.7495643,109.910675 L26.2511168,105.642188 L26.2511168,101.500637 L22.6356775,101.716854 C22.6877338,101.385926 22.7503613,101.036621 22.820878,100.674493 L22.8939252,100.308297 L23.0783842,99.4414501 L23.2107104,98.8525765 L23.489655,97.6607994 L24.0422229,95.3524784 L24.2239015,94.5640756 L24.3813296,93.8369801 L24.5105078,93.1674271 L22.651775,93.1674271 L20.1091827,96.3948519 L17.1818182,97.7295184 L13.2247645,95.3524378 L12.706763,90.5612476 L13.4585178,85.3276861 L19.1923337,80.8431234 L23.5155472,80.8431234 L24.2613617,78.3806949 L30.2789628,79.9484502 L33.707144,84.1789294 L34.3314127,76.7962507 L41.279422,71.0498577 L43.9201096,64.8111419 L49.1931274,62.6529024 L52.078515,58.5780807 L58.7191171,57.3879922 L61.4289279,53.5218164 L50.7173007,53.5218164 L58.3814072,48.7992982 L62.9468175,48.7992982 L69.0681737,46.5394567 L69.6277814,44.6455278 L67.7702818,42.7881538 L64.8211543,41.9783445 L65.6220681,39.3339967 L63.9842511,36.0701992 L59.3214697,37.8907812 L60.129479,34.0685339 L55.5999185,31.6044318 L51.8722699,38.183662 L52.3858635,41.0155728 L48.1646026,42.5169936 L45.0815003,48.9543314 L43.6469725,42.9558029 L36.7797593,40.1092725 L35.4148057,35.7510224 L44.9522239,30.1403368 L48.8226009,26.491 L49.1693726,23.3561448 Z M146.948173,20.565071 L139.866265,22.1662029 L135.178711,24.8409849 L135.178711,27.4230354 L128.84909,31.8828463 L130.691272,37.6072139 L134.543983,34.8794721 L137.377809,37.9773828 L139.710123,39.3368862 L141.336126,35.0514965 L140.107074,32.8449387 L141.509534,30.9007496 L145.715979,27.6684988 L148.574419,27.6684988 L146.568789,31.1088193 L146.571881,34.0285721 L146.761622,33.9810051 L146.761622,33.9810051 L147.208401,33.8819453 L147.208401,33.8819453 L147.383993,33.8462128 L147.782221,33.7832446 L148.198188,33.7245809 L148.769541,33.6516375 L150.570417,33.4404306 L152.894472,33.1385569 L146.748575,37.4281379 L146.279783,39.5442541 L140.538667,44.3020783 L134.267349,42.9912977 L134.267349,40.0577846 L132.691629,40.9105654 L133.999529,43.7936952 L129.537515,43.7936952 L128.161404,46.5300934 L125.305154,43.0865047 L125.134206,42.6607674 L124.844508,41.92019 L124.557277,41.1678987 L123.842639,39.2757968 L123.558714,38.5392235 C123.282011,37.8306428 123.005611,37.1539447 122.72911,36.5472333 L122.563195,36.1919097 L120.217601,36.1919097 L120.217601,38.8473507 L122.111413,40.4975604 L122.111413,44.5440008 L121.500981,48.6641368 L125.000425,47.888996 L126.438835,46.4506827 L127.014424,49.0532753 C126.247254,49.4548295 125.567862,49.997971 125.106144,50.6402652 L124.960478,50.8579774 L124.412393,51.132335 L120.272571,51.9197479 L122.528244,53.9926778 L123.462274,57.0765303 L119.389132,57.0765303 L112.141849,60.4807179 L112.141849,65.4204263 L117.144767,65.4204263 L119.22728,68.4253679 L123.226008,67.1683678 L125.092749,62.7151577 L128.421096,60.5775832 L129.161921,58.8253654 L135.12044,57.5423059 L138.091203,60.9915372 L141.745909,62.8262244 L140.169659,65.7871225 L141.727572,65.270314 L142.994713,61.6742908 L139.077156,55.9249576 L141.552144,55.9249576 L145.351481,59.7240374 L146.070894,64.7188697 L148.633855,67.6582299 L149.250714,62.9680899 L151.655741,61.7484797 L152.219958,62.3250707 C153.595404,63.7611941 154.720528,65.3111285 155.789315,66.8875308 L156.187848,67.4797517 L156.568628,68.0515059 L161.914829,68.5146355 L165.725931,70.6834088 L164.261549,73.3124628 L160.731968,75.8375204 L155.779302,75.8375204 L149.657827,74.1864449 L146.5803,74.836935 L143.992578,77.7054164 L136.859011,70.5723325 L132.309353,69.4317546 L125.539021,70.1233724 L119.538256,71.7418904 L117.520369,74.0400372 C115.066419,76.8445803 112.703946,79.5954175 110.352092,82.5555245 L109.470487,83.6758878 L105.577765,92.8453713 L107.513976,95.0303758 L104.132408,100.123087 L107.335999,108.844111 L116.244868,119.104873 L120.764521,115.060532 L122.706223,117.501365 L125.759099,115.606758 C126.452485,115.612375 127.150084,115.594692 127.854818,115.554538 L128.562039,115.506926 L129.479243,116.685136 L134.433693,116.685136 L137.603558,120.110162 L135.937607,125.581696 L139.316104,129.409544 L150.572469,140.889605 L150.94555,141.73709 L150.94555,141.73709 L151.302908,142.581232 L151.693768,143.52843 L151.958157,144.15741 C153.183343,147.041252 154.590666,149.895098 156.884533,152.008911 C157.750508,152.798788 158.78437,153.450266 159.888349,153.90122 C160.010916,153.951286 160.134559,153.998967 160.259123,154.04423 C160.220531,154.168847 160.189141,154.293728 160.164599,154.418436 L160.137544,154.573619 L160.137544,154.573619 L160.117046,154.731534 L160.618618,154.802726 C161.37099,154.907425 162.123419,155.00119 162.87589,155.063194 L163.628373,155.11384 L163.964216,155.126548 L164.828045,154.408534 C165.467918,154.255502 166.08372,154.002824 166.65535,153.6373 C167.586482,153.041416 168.286376,152.255125 168.811817,151.345906 L168.964273,151.06952 L172.396921,148.835094 L174.097042,146.94218 L172.955209,142.608698 L172.955209,130.784518 L180.131825,119.073943 L184.345131,108.521329 L184.34472,106.72195 L183.800626,106.762312 L183.272698,106.805186 L182.659742,106.86175 L182.254118,106.904216 L181.89538,106.945901 L181.362751,107.015904 L180.981295,107.072058 L179.862026,107.24859 L179.508278,107.30032 L179.117419,107.352718 L177.312466,107.570305 L183.090861,102.072148 L189.005507,97.8149683 L191.947431,94.2023241 L191.947431,93.1723215 L191.95599,92.7741512 C191.965733,92.5401613 191.983115,92.3138859 192.00432,92.091407 L192.038517,91.7600464 L192.109849,91.1246454 C192.147743,90.7749407 192.180446,90.4182497 192.188838,90.0372714 C191.494924,89.3055441 191.195734,88.6283584 190.981871,87.9490772 L190.925428,87.7637243 L190.690705,86.9445353 L190.633876,86.7648892 L190.633876,86.7648892 L190.570865,86.582367 L186.44552,90.2505429 L183.80622,87.5963411 L179.840566,84.8727838 L179.840566,78.0603772 L184.729651,82.9491323 L189.472287,82.2465671 L189.904997,82.6628175 L190.093703,82.8350983 L190.487513,83.1809001 L191.015062,83.6344711 L190.899544,82.9917807 C187.092772,62.2587282 176.308142,44.1545824 160.980926,30.9268336 L160.424956,30.4508496 L158.751855,32.5998914 L152.748001,27.195078 L155.573663,27.1949622 L155.417906,27.0814343 C154.798837,26.6245951 154.172769,26.1388579 153.543907,25.6418116 L152.91427,25.1416471 L151.24521,23.8105671 C150.324773,23.0820223 149.409847,22.3759963 148.516724,21.7524208 L147.983598,21.388649 L146.948173,20.565071 Z M68.9339432,49.9075089 L69.6589921,53.5242692 L70.9607843,51.4975653 L68.9339432,49.9075089 Z M118.77798,41.9789543 L116.953321,42.4799927 L117.506791,45.9572241 L119.888911,44.7613836 L118.77798,41.9789543 Z M100.056005,7.94356594 C96.3883709,7.94356594 92.5174724,8.14599503 88.9892515,8.54080451 L88.0359157,8.65324203 L76.550146,11.6981006 L74.4153261,13.8327762 L82.237216,19.3483423 L82.237216,23.3182341 L79.4791028,26.5336367 L83.8515155,34.6176935 L86.2044873,33.2461487 L89.7937591,27.5009728 L90.7674426,27.2110357 L91.9598416,26.8394316 C95.8650584,25.5903933 99.4900171,24.1191068 103.243663,22.5124631 L104.500206,21.9720211 L105.874236,21.3767039 L110.145287,10.8276666 L103.69157,8.31448769 L103.333887,8.21928764 C102.619742,8.04747845 101.914721,7.98342511 101.251239,7.95891548 L100.92311,7.94964018 L100.480679,7.9443046 L100.056005,7.94356594 Z M110.875885,26.5717581 L107.932913,28.1593066 L106.870084,27.8050541 L106.706558,29.558299 L108.821593,30.906132 L112.429982,28.3027871 L110.875885,26.5717581 Z M59.4753305,17.8352675 L57.6212267,18.4179134 L57.3396241,18.5779656 L57.1771259,18.6640804 C57.0698291,18.7172693 56.9634283,18.7616059 56.850875,18.7946274 L56.6765496,18.8353657 L55.2533969,21.9563873 L54.1650602,20.2859591 L53.4378272,20.717047 L53.2977095,20.7976854 L53.53554,23.3475848 L50.5723327,25.8190976 L48.7917217,29.5716504 L51.3381821,29.5716504 L53.1727132,25.6946768 L54.3458818,24.8602261 L56.8542636,23.1188054 L57.7448906,22.4923049 L57.7448906,22.4923049 L58.2050439,22.1634629 L62.042868,23.4475149 L62.9943939,24.1078315 L63.9057355,24.7273572 L64.8302805,25.3472879 L67.525969,27.1440551 L68.346813,27.6987322 L68.346813,27.6987322 L69.1558999,28.2540679 L71.9184777,25.6807379 L68.3942313,24.2261977 L66.5224805,20.4962232 L59.4753305,19.7624831 L59.4753305,17.8352675 Z M61.6298992,27.0294469 L60.320879,28.0484253 L63.3702709,29.5675925 L64.2287969,29.5675925 L64.2287969,28.6365513 L61.6298992,27.0294469 Z"></path>
        </g>
        <g id="icon/avatar/remote/128x128" transform="translate(620.000000, 1640.000000)" fill="#AAAAAA">
            <path d="M63.9956713,0 C99.3439297,0 128,28.6541323 128,64 C128,99.3458677 99.3439297,128 63.9956713,128 C28.6560703,128 0,99.3458677 0,64 C0,28.6541323 28.6560703,0 63.9956713,0 Z M31.4684354,14.9478472 L31.0350647,15.2395013 C15.7388701,25.6200903 5.49040252,42.980426 5.08396575,62.8112359 L5.07466699,63.4129211 L9.60458068,66.04409 L14.526692,67.4277928 L16.6898996,70.2063594 L19.9016488,72.5359681 L21.8425047,72.2380499 L23.4614969,72.9655225 L23.4614969,73.6639232 L21.456243,78.7558685 L20.1574102,80.777965 L20.5886178,81.7978678 L19.381712,85.7286665 L23.547669,93.3219034 L27.7945463,97.1110356 L29.6887325,99.7987942 L29.5406563,105.303374 L30.9218303,108.528809 L30.028559,112.219624 L30.3505271,112.444805 C32.4300612,113.886308 34.6044319,115.228676 36.8729964,116.471507 L37.8510034,116.998054 L39.17363,115.675516 L39.9634713,113.78182 L42.9975273,112.718676 L45.1785534,107.046733 L44.4057012,105.492251 L46.2411106,102.820151 L49.6961618,102.06575 L51.4337418,98.0226498 L50.9717262,92.661889 L53.8826579,88.6879516 L54.300746,85.0218891 L53.0516253,84.3749069 L50.1642149,82.8949354 L47.2598925,81.4129796 C46.2713805,80.9078366 45.285623,80.4023763 44.3080493,79.896431 L42.8485052,79.1371282 L41.19627,75.3877495 L37.6866119,74.6233213 L35.8820574,69.6718217 L31.2866592,70.111058 L27.4350684,67.2985733 L23.426679,70.7352695 L23.2177553,71.491577 C23.0244714,71.4392256 22.8040956,71.391959 22.5652659,71.3467201 L22.0655611,71.2580402 L21.4644619,71.158276 L21.0492712,71.0880824 C20.1864343,70.9384283 19.3065593,70.7529962 18.6394605,70.4585166 L18.3997212,70.342832 L16.8007148,67.6110002 L16.8007148,64.9604078 L14.4868336,65.0987866 C14.5164478,64.9105254 14.5514077,64.7129711 14.5905077,64.5086206 L14.6521121,64.1973098 L14.7701659,63.6425281 L14.8548546,63.265649 L15.0333792,62.5029116 L15.3870226,61.0255862 L15.503297,60.5210084 L15.6040509,60.0556673 L15.686725,59.6271533 L14.497136,59.6271533 L12.8698769,61.6927052 L10.9963637,62.5468918 L8.4638493,61.0255602 L8.13232831,57.9591985 L8.61345138,54.6097191 L12.2830936,51.739599 L15.0499502,51.739599 L15.5272715,50.1636448 L19.3785362,51.1670082 L21.5725721,53.8745148 L21.9721041,49.1496005 L26.4188301,45.4719089 L28.1088702,41.4791308 L31.4836015,40.0978575 L33.3302496,37.4899717 L37.580235,36.728315 L39.3145139,34.2539625 L32.4590724,34.2539625 L37.3641006,31.2315509 L40.2859632,31.2315509 L44.2036312,29.7852523 L44.5617801,28.5731378 L43.3729804,27.3844184 L41.4855387,26.8661405 L41.9981236,25.1737579 L40.9499207,23.0849275 L37.9657406,24.2500999 L38.4828666,21.8038617 L35.5839479,20.2268364 L33.1982527,24.4375437 L33.5269527,26.2499666 L30.8253456,27.2108759 L28.8521602,31.3307721 L27.9340624,27.4917139 L23.5390459,25.6699344 L22.6654757,22.8806543 L28.7694233,19.2898156 L31.2464646,16.95424 L31.4684354,14.9478472 Z M94.0468304,13.1616455 L89.5144094,14.1863699 L86.5143749,15.8982303 L86.5143749,17.5507427 L82.4634176,20.4050216 L83.6424139,24.0686169 L86.108149,22.3228621 L87.9217975,24.305525 L89.4144784,25.1756072 L90.4551204,22.4329578 L89.6685271,21.0207608 L90.566102,19.7764798 L93.2582267,17.7078392 L95.0876282,17.7078392 L93.8040247,19.9096443 L93.8060036,21.7782861 L94.0610735,21.7170625 L94.0610735,21.7170625 L94.3257556,21.6615762 L94.5806215,21.6212765 L94.8468403,21.5837317 L95.2125062,21.537048 L96.3650667,21.4018756 L97.8524621,21.2086764 L93.919088,23.9540082 L93.6190613,25.3083226 L89.9447469,28.3533301 L85.9311037,27.5144306 L85.9311037,25.6369822 L84.9226425,26.1827619 L85.7596984,28.0279649 L82.9040095,28.0279649 L82.0232988,29.7792598 L80.1952987,27.575363 L79.99299,27.0672093 L79.99299,27.0672093 L79.7166575,26.3474552 L79.2592888,25.1365099 L79.0775771,24.665103 C78.9075707,24.2297511 78.7377431,23.8132042 78.5678656,23.4370382 L78.4404445,23.1628222 L76.9392649,23.1628222 L76.9392649,24.8623045 L78.1513042,25.9184386 L78.1513042,28.5081605 L77.7606278,31.1450476 L80.0002719,30.6489574 L80.9208547,29.7284369 L81.2892311,31.3940962 C80.8118809,31.6439522 80.3876311,31.9794596 80.0928777,32.3756615 L79.9747059,32.5491055 L79.6239317,32.7246944 L76.9744457,33.2286386 L78.4180759,34.5553138 L79.0158551,36.5289794 L76.4090448,36.5289794 L71.7707834,38.7076595 L71.7707834,41.8690728 L74.972651,41.8690728 L76.3054591,43.7922354 L78.8646448,42.9877554 L80.0593593,40.137701 L82.1895016,38.7696533 L82.6636297,37.6482339 L86.4770816,36.8270758 L88.3783702,39.0345838 L90.7173816,40.2087836 L89.7085816,42.1037584 L90.7056463,41.773001 L91.5166165,39.4715461 L89.0093801,35.7919729 L90.5933721,35.7919729 L93.0249477,38.223384 L93.485372,41.4200766 L95.1256669,43.3012671 L95.5204567,40.2995775 L97.0596745,39.519027 L97.420773,39.8880453 C98.2873039,40.792803 98.9985962,41.7681413 99.6730711,42.7607402 L100.203922,43.5529637 L103.62549,43.8493667 L106.064596,45.2373816 L105.127391,46.9199762 L102.86846,48.5360131 L99.698753,48.5360131 L95.7810094,47.4793247 L93.8113923,47.8956384 L92.1552498,49.7314665 L87.5897673,45.1662928 L84.6779862,44.436323 L80.3449736,44.8789584 L76.504484,45.9148099 L75.2130359,47.3856238 C73.6985986,49.1164275 72.2385988,50.8152708 70.7866374,52.6330617 L70.0611117,53.5525682 L67.5697695,59.4210376 L68.8089445,60.8194405 L66.6447409,64.0787756 L68.6950393,69.6602308 L74.3967153,76.2271186 L77.2892932,73.6387406 L78.5319829,75.2008735 L80.4858232,73.9883253 C80.880283,73.9915208 81.2768731,73.9829337 81.6769069,73.9629373 L82.2797048,73.9244325 L82.8667156,74.6784871 L86.0375633,74.6784871 L88.0662772,76.8705037 L87.0000685,80.3722857 L89.1623062,82.822108 L96.36638,90.169347 L96.6051521,90.7117377 L96.6051521,90.7117377 L96.8338612,91.2519887 L97.0840114,91.8581953 L97.2532205,92.2607425 C98.0373396,94.1064013 98.9380264,95.932863 100.406101,97.2857032 C100.960325,97.7912244 101.621997,98.20817 102.328543,98.4967805 L102.565839,98.588307 L102.565839,98.588307 C102.54114,98.6680622 102.52105,98.7479857 102.505343,98.8277993 L102.488028,98.927116 L102.488028,98.927116 L102.474909,99.0281821 L102.795916,99.0737445 C103.277434,99.1407523 103.758988,99.2007617 104.240569,99.2404443 L104.722159,99.2728576 L104.937098,99.280991 L105.489949,98.8214619 C105.899468,98.723521 106.293581,98.5618076 106.659424,98.3278723 C107.242106,97.954981 107.6833,97.4655853 108.016978,96.9000561 L108.137135,96.6844928 L110.33403,95.25446 L111.422107,94.042995 L110.691334,91.2695665 L110.691334,83.7020913 L115.284368,76.2073237 L117.980884,69.4536507 L117.980621,68.302048 L117.294527,68.355319 L116.902235,68.39152 L116.413043,68.4453767 L116.072161,68.4901784 L115.828029,68.5261173 L115.111697,68.6390974 L114.635148,68.7057396 L113.479978,68.8449954 L117.178151,65.3261747 L120.963525,62.6015797 L122.846356,60.2894874 L122.846356,59.6302858 L122.851834,59.3754568 C122.858069,59.2257033 122.869194,59.080887 122.882765,58.9385005 L122.950303,58.3197731 C122.974555,58.0959621 122.995486,57.8676798 123.000856,57.6238537 C122.570209,57.1697393 122.377107,56.748448 122.240997,56.3269286 L122.192274,56.1687835 L122.042051,55.6445026 L121.965354,55.4127149 L119.325133,57.7603475 L117.635981,56.0616583 L115.097962,54.3185816 L115.097962,49.9586414 L118.226977,53.0874446 L121.262264,52.637803 L121.539198,52.9042032 L121.784611,53.1249925 L121.784611,53.1249925 L122.249639,53.5260615 L122.175708,53.1147396 C119.751115,39.9095338 112.903634,28.3706504 103.169413,19.9157873 L102.671972,19.4885438 L101.601187,20.8639305 L97.7587208,17.4048499 L99.5671441,17.4047758 L99.4674601,17.332118 C99.1152786,17.0722272 98.7595576,16.7977233 98.4021878,16.5165125 L96.7969345,15.238763 C96.2314178,14.791145 95.6691517,14.3568092 95.1193616,13.9696908 L94.7095026,13.6887354 L94.0468304,13.1616455 Z M44.1177237,31.9408057 L44.5817549,34.2555323 L45.4149019,32.9584418 L44.1177237,31.9408057 Z M76.0179074,26.8665307 L74.8501252,27.1871953 L75.2043465,29.4126235 L76.7289032,28.6472855 L76.0179074,26.8665307 Z M64.0358433,5.0838822 C61.7596872,5.0838822 59.3612068,5.20570399 57.1589937,5.44348351 L56.3429861,5.5380749 L48.9920935,7.48678439 L47.6258087,8.85297677 L52.6318182,12.382939 L52.6318182,14.9236698 L50.8666258,16.9815275 L53.6649699,22.1553238 L55.1708719,21.2775351 L57.4680058,17.6006226 L58.0911633,17.4150629 L59.106157,17.0960087 C61.4513286,16.3334095 63.6449131,15.4460529 65.9062164,14.480536 L66.8801318,14.0620935 L67.7595113,13.6810905 L70.4929836,6.92970663 L66.3626046,5.32127212 L66.0575698,5.24264885 C65.6519343,5.15159997 65.2518231,5.11312466 64.8718069,5.09656209 L64.5907902,5.08776972 L64.0358433,5.0838822 Z M70.9605664,17.0059252 L69.0770644,18.0219562 L68.3968536,17.7952347 L68.2921969,18.9173114 L69.6458196,19.7799245 L71.9551884,18.1137837 L70.9605664,17.0059252 Z M38.0642116,11.4145712 L36.8775851,11.7874646 L36.6973594,11.889898 L36.5590525,11.9615525 C36.4980711,11.9900935 36.4369487,12.0139505 36.3725171,12.0320165 L36.2729918,12.0546341 L35.362174,14.0520879 L34.6656386,12.9830139 L34.1105341,13.3105187 L34.2627456,14.9424542 L32.3662929,16.5242225 L31.2267019,18.9258563 L32.8564366,18.9258563 L34.0305364,16.4445932 L34.6117074,16.029945 L35.446803,15.4473493 L36.4802974,14.7306958 L36.9890933,14.3720701 L36.9890933,14.3720701 L37.2512281,14.1846162 L39.7074355,15.0064095 L40.3164121,15.4290122 L40.8996707,15.8255086 L41.4913795,16.2222643 L42.6862265,17.0174675 L43.7419603,17.7271886 L43.7419603,17.7271886 L44.259776,18.0826034 L46.0278257,16.4356723 L43.772308,15.5047665 L42.5743875,13.1175828 L38.0642116,12.6479892 L38.0642116,11.4145712 Z M39.4431355,17.298846 L38.6053626,17.9509922 L40.5569734,18.9232592 L41.10643,18.9232592 L41.10643,18.3273928 L39.4431355,17.298846 Z"></path>
        </g>
        <g id="icon/avatar/remote/40x40" transform="translate(758.000000, 1640.000000)" fill="#AAAAAA">
            <path d="M19.9986473,0 C31.044978,0 40,8.95441634 40,20 C40,31.0455837 31.044978,40 19.9986473,40 C8.95502198,40 0,31.0455837 0,20 C0,8.95441634 8.95502198,0 19.9986473,0 Z M9.83347435,4.67062858 L9.54053166,4.87071017 C4.90309783,8.08805879 1.78818509,13.3739244 1.59440889,19.4128421 L1.58583343,19.8165378 L3.00143146,20.6387781 L4.53959124,21.0711853 L5.21559363,21.9394873 L6.21926525,22.66749 L6.82578273,22.5743906 L7.33171779,22.8017258 L7.33171779,23.019976 L6.70507592,24.6112089 L6.29919069,25.2431141 L6.43394306,25.5618337 L6.056785,26.7902083 L7.35864655,29.1630948 L8.68579573,30.3471986 L9.27772891,31.1871232 L9.23145508,32.9073044 L9.66307196,33.9152529 L9.3839247,35.0686325 L9.48453973,35.1390016 C10.0786923,35.5508596 10.6976186,35.9368211 11.3411649,36.2967901 L11.8284386,36.5618917 L12.2417594,36.1485989 L12.4885848,35.5568189 L13.4367273,35.2245863 L14.1182979,33.4521041 L13.8767816,32.9663283 L14.4503471,32.1312973 L15.5300506,31.8955467 L16.0730443,30.6320781 L15.9286645,28.9568403 L16.8383306,27.7149849 L16.9689831,26.5693404 L15.6763172,25.9046673 L14.0758373,25.086188 L14.0758373,25.086188 L13.3901579,24.7303526 L12.8738344,23.5586717 L11.7770662,23.3197879 L11.2131429,21.7724443 L9.77708101,21.9097056 L8.57345888,21.0308042 L7.32083719,22.1047717 L7.25554852,22.3411178 L7.1475036,22.3151589 L7.1475036,22.3151589 L6.89548785,22.2681376 L6.57789724,22.2150258 C6.33522438,22.1729355 6.08823872,22.121789 5.88929487,22.0448945 L5.74991286,21.982135 L5.25022336,21.1284375 L5.25022336,20.3001274 L4.5271355,20.3433708 L4.55061807,20.2064282 L4.55061807,20.2064282 L4.61567684,19.88829 L4.697931,19.5321599 L4.8447803,18.9128151 L4.87626591,18.767396 L4.90210156,18.6334854 L4.530355,18.6334854 L4.02183654,19.2789704 L3.43636365,19.5459037 L2.64495291,19.0704876 L2.5413526,18.1122495 L2.69170356,17.0655372 L3.83846674,16.1686247 L4.70310945,16.1686247 L4.85227235,15.676139 L6.05579257,15.98969 L6.74142879,16.8357859 L6.86628254,15.3592501 L8.25588439,14.2099715 L8.78402193,12.9622284 L9.83862547,12.5305805 L10.415703,11.7156161 L11.7438234,11.4775984 L12.2857856,10.7043633 L10.1434601,10.7043633 L11.6762814,9.75985964 L12.5893635,9.75985964 L13.8136347,9.30789133 L13.9255563,8.92910555 L13.5540564,8.55763075 L12.9642309,8.3956689 L13.1244136,7.86679933 L12.7968502,7.21403984 L11.8642939,7.57815623 L12.0258958,6.81370677 L11.1199837,6.32088637 L10.374454,7.6367324 L10.4771727,8.20311457 L9.63292051,8.50339873 L9.01630005,9.79086629 L8.7293945,8.59116058 L7.35595185,8.02185449 L7.08296114,7.15020447 L8.99044478,6.02806737 L9.76452018,5.2982 L9.83347435,4.67062858 Z M29.3896345,4.11301421 L27.9732529,4.43324059 L27.0357421,4.96819697 L27.0357421,5.48460708 L25.769818,6.37656925 L26.1382544,7.52144278 L26.9087966,6.97589441 L27.4755617,7.59547657 L27.9420245,7.86737725 L28.2672251,7.0102993 L28.0214147,6.56898774 L28.3019069,6.18014993 L29.1431959,5.53369976 L29.7148838,5.53369976 L29.3137577,6.22176385 L29.3143761,6.80571442 L29.4197877,6.78099433 L29.4197877,6.78099433 L29.5564442,6.75664892 L29.7539082,6.73032749 L30.1140834,6.68808612 L30.5788944,6.62771137 L29.349715,7.48562758 L29.2559567,7.90885082 L28.1077334,8.86041566 L26.8534699,8.59825955 L26.8534699,8.01155693 L26.5383258,8.18211308 L26.7999058,8.75873903 L25.907503,8.75873903 L25.6322809,9.30601868 L25.0610308,8.61730094 L24.9114555,8.23357974 L24.7117428,7.7078447 C24.6674703,7.59447179 24.6232366,7.48517984 24.5790004,7.38387074 L24.5126389,7.23838194 L24.0435203,7.23838194 L24.0435203,7.76947015 L24.4222826,8.09951208 L24.4222826,8.90880015 L24.3001962,9.73282736 L25.000085,9.5777992 L25.2877671,9.29013653 L25.4028847,9.81065506 C25.2664989,9.88204248 25.1439843,9.97580417 25.0535867,10.0859795 L24.9920956,10.1715955 L24.8824786,10.226467 L24.0545143,10.3839496 L24.5056487,10.7985356 L24.6924547,11.4153061 L23.8778265,11.4153061 L22.4283698,12.0961436 L22.4283698,13.0840853 L23.4289534,13.0840853 L23.845456,13.6850736 L24.6452015,13.4336736 L25.0185498,12.5430315 L25.6842193,12.1155166 L25.8323843,11.7650731 L27.024088,11.5084612 L27.6182407,12.1983074 L28.3491818,12.5652449 L28.0339317,13.1574245 L28.3455145,13.0540628 L28.5989426,12.3348582 L27.8154313,11.1849915 L28.3104288,11.1849915 L29.0702961,11.9448075 L29.2141788,12.9437739 L29.7267709,13.531646 L29.8501427,12.593618 L30.3311483,12.3496959 L30.4439916,12.4650141 C30.676098,12.70736 30.872563,12.9659105 31.056691,13.2301728 L31.3137256,13.6103012 L32.3829657,13.7029271 L33.1451862,14.1366818 L32.8523097,14.6624926 L32.1463936,15.1675041 L31.1558603,15.1675041 L29.9315654,14.837289 L29.3160601,14.967387 L28.7985156,15.5410833 L27.3718023,14.1144665 L26.4618707,13.8863509 L25.1078043,14.0246745 L23.9076512,14.3483781 L23.5040737,14.8080074 C23.0899698,15.2812741 22.6888904,15.7468939 22.291122,16.2364597 L21.8940974,16.7351776 L21.115553,18.5690743 L21.5027952,19.0060752 L20.8264815,20.0246174 L21.4671998,21.7688221 L23.2489735,23.8209746 L24.1529041,23.0121064 L24.5412447,23.500273 L25.1518198,23.1213516 L25.4304709,23.1174342 L25.4304709,23.1174342 L25.7124077,23.1013852 L25.8958486,23.3370272 L26.8867385,23.3370272 L27.5207116,24.0220324 L27.1875214,25.1163393 L27.8632207,25.8819088 L30.1144937,28.1779209 L30.2605816,28.5162465 L30.3916314,28.831482 C30.6366686,29.4082504 30.9181333,29.9790197 31.3769066,30.4017822 C31.5068029,30.5202638 31.6555865,30.6231754 31.8150079,30.7052753 L31.9776698,30.7802439 L32.0518245,30.8088459 L32.0329197,30.8836873 L32.0329197,30.8836873 L32.0234091,30.9463069 L32.4246867,30.9982749 L32.4246867,30.9982749 L32.7256747,31.022768 L32.7928432,31.0253097 L32.965609,30.8817069 C33.0935837,30.8511003 33.216744,30.8005649 33.3310699,30.7274601 C33.4949492,30.6225844 33.6230144,30.4882186 33.7230048,30.3335595 L33.7928546,30.213904 L34.4793843,29.7670187 L34.8194084,29.3884359 L34.5910418,28.5217395 L34.5910418,26.1569035 L36.0263651,23.8147886 L36.8690262,21.7042658 L36.8689439,21.34439 L36.6545397,21.3610372 L36.379076,21.3891802 L35.8234838,21.4705436 L35.4624932,21.5140611 L36.6181721,20.4144296 L37.8011014,19.5629937 L38.3894861,18.8404648 L38.3894861,18.6344643 L38.3911981,18.5548302 L38.3978385,18.4518078 L38.3978385,18.4518078 L38.4219697,18.2249291 C38.4295486,18.1549881 38.4360892,18.0836499 38.4377676,18.0074543 C38.3166481,17.8797346 38.2556571,17.7603233 38.2136625,17.6416908 L38.114173,17.3164734 L37.289104,18.0501086 L36.7612441,17.5192682 L35.9681131,16.9745568 L35.9681131,15.6120754 L36.9459303,16.5898265 L37.8944573,16.4493134 L38.0576909,16.6015602 L38.0576909,16.6015602 L38.2030123,16.7268942 L38.1799088,16.5983561 C37.4359514,12.5464958 35.3594714,8.99666304 32.4048927,6.3682416 L32.0849913,6.09016993 L31.750371,6.51997828 L30.5496002,5.4390156 L31.1147325,5.43899244 L30.8343364,5.22688735 L30.8343364,5.22688735 L30.249042,4.76211343 C30.1017721,4.64554625 29.9552075,4.53186149 29.8110168,4.42719614 L29.5967195,4.27772981 L29.3896345,4.11301421 Z M13.7867886,9.98150179 L13.9317984,10.7048538 L14.1921569,10.2995131 L13.7867886,9.98150179 Z M23.7555961,8.39579085 L23.3906641,8.49599854 L23.5013583,9.19144483 L23.9777823,8.95227672 L23.7555961,8.39579085 Z M20.3172583,1.59495628 L20.0961357,1.58886092 L20.011201,1.58871319 C19.3710321,1.58871319 18.6998999,1.61954933 18.0703835,1.6798857 L17.6071831,1.73064841 L15.3100292,2.33962012 L14.8830652,2.76655524 L16.4474432,3.86966845 L16.4474432,4.66364682 L15.8958206,5.30672735 L16.7703031,6.9235387 L17.2408975,6.64922973 L17.9587518,5.50019457 L18.1534885,5.44220715 L18.7201886,5.25928975 C19.2778802,5.0687212 19.8120423,4.85594196 20.354137,4.62763693 L21.1748473,4.27534077 L22.0290574,2.16553332 L20.7383139,1.66289754 L20.595545,1.62840938 C20.5008512,1.610038 20.4074486,1.60023437 20.3172583,1.59495628 Z M22.175177,5.31435163 L21.5865826,5.63186132 L21.3740168,5.56101083 L21.3413115,5.9116598 L21.7643186,6.1812264 L22.4859964,5.66055742 L22.175177,5.31435163 Z M11.8950661,3.56705351 L11.5242453,3.68358268 L11.4679248,3.71559312 L11.4031943,3.74738333 L11.3353099,3.76707314 L11.0506794,4.39127747 L10.833012,4.05719183 L10.6595419,4.15953708 L10.707108,4.66951695 L10.1144665,5.16381952 L9.75834435,5.91433009 L10.2676364,5.91433009 L10.6345426,5.13893537 L10.8691764,4.97204522 L11.4590642,4.56199825 L11.6410088,4.43269257 L12.4085736,4.68950298 L12.7811471,4.94547143 L13.5875239,5.4842653 L13.83118,5.65081357 L14.3836955,5.13614758 L13.6788463,4.84523954 L13.3044961,4.09924464 L11.8950661,3.95249663 L11.8950661,3.56705351 Z M12.3259798,5.40588938 L12.0641758,5.60968506 L12.6740542,5.91351851 L12.8457594,5.91351851 L12.8457594,5.72731025 L12.3259798,5.40588938 Z"></path>
        </g>
        <g id="Group" transform="translate(0.000000, 410.000000)">
            <rect id="Rectangle" x="0" y="0" width="400" height="400"></rect>
            <path d="M-2.84217094e-14,400 L-2.84217094e-14,319.915052 L51.0178554,305.492772 L51.459623,289.289465 C47.1650997,284.246388 44.3870149,280.520428 43.1253687,278.111586 C39.3960375,270.991229 39.2560959,269.401788 37.8926148,264.134343 C37.8926148,264.134343 32.6714375,264.134343 29.4078236,261.187565 C26.2627364,257.833395 25.2512676,255.708617 24.3269257,250.833274 C23.4025838,245.957931 24.177595,240.58124 25.6555775,236.31691 C28.145208,231.102366 31.4464042,232.32039 31.4464042,232.32039 C31.4464042,228.686865 28.437206,205.126803 29.4078236,192.605137 C30.277981,185.31476 40.3544388,179.252222 46.6348616,175.552844 C46.9259092,175.381407 42.1452008,175.719001 42.4370654,175.552844 C50.199818,171.133546 52.6833937,169.791541 58.7570586,168.483602 C66.6622275,166.781257 74.4853131,168.656037 76.3030317,168.483602 C77.2429985,168.394434 73.3667776,165.995221 73.7330367,165.995221 C77.568073,165.995221 87.6204537,163.913974 93.0442707,165.770915 C98.0134286,167.303481 101.433653,171.421005 107.749614,179.169321 C112.424145,178.238244 117.19708,178.238244 121.642575,181.771957 C123.520451,184.043329 126.085658,187.792412 126.266613,192.605137 C126.280597,192.977056 123.089138,191.038967 123.215018,191.419376 C123.662576,192.771897 126.904925,196.022571 127.632104,198.405634 C129.095637,203.201822 128.310145,215.856286 126.085658,232.32039 C124.805148,232.32039 129.807923,232.32039 131.323585,236.31691 C132.822804,240.786235 133.047448,243.853856 133.047448,247.671972 C133.047448,251.490087 131.67411,257.777894 126.725913,261.187565 C123.37642,264.134343 120.085302,264.134343 120.085302,264.134343 C117.627291,270.400147 118.029629,270.782384 113.941334,278.111586 C111.215804,282.99772 108.682033,286.72368 106.34002,289.289465 L106.34002,305.492772 C134.445337,312.489674 151.87166,317.297101 158.618988,319.915052 C160.98101,320.831512 163.555191,323.305756 165.845074,325.401809 C169.694427,341.341595 174.272573,366.207659 179.579512,400 L-2.84217094e-14,400 Z" id="Line" fill="#AAAAAA"></path>
            <path d="M230.28661,400 C233.01284,361.057357 236.023259,336.524627 239.317868,326.401809 C241.010037,324.501556 243.198768,322.041118 246.59987,320.915052 C254.042843,318.450769 271.515505,313.643342 299.017855,306.492772 L299.459623,290.289465 C295.1651,285.246388 292.387015,281.520428 291.125369,279.111586 C287.396038,271.991229 287.256096,270.401788 285.892615,265.134343 C285.892615,265.134343 280.671437,265.134343 277.407824,262.187565 C274.262736,258.833395 273.251268,256.708617 272.326926,251.833274 C271.402584,246.957931 272.177595,241.58124 273.655577,237.31691 C276.145208,232.102366 279.446404,233.32039 279.446404,233.32039 C279.446404,229.686865 276.437206,206.126803 277.407824,193.605137 C278.277981,186.31476 288.354439,180.252222 294.634862,176.552844 C294.925909,176.381407 290.145201,176.719001 290.437065,176.552844 C298.199818,172.133546 300.683394,170.791541 306.757059,169.483602 C314.662227,167.781257 322.485313,169.656037 324.303032,169.483602 C325.242999,169.394434 321.366778,166.995221 321.733037,166.995221 C325.568073,166.995221 335.620454,164.913974 341.044271,166.770915 C346.013429,168.303481 349.433653,172.421005 355.749614,180.169321 C360.424145,179.238244 365.19708,179.238244 369.642575,182.771957 C371.520451,185.043329 374.085658,188.792412 374.266613,193.605137 C374.280597,193.977056 371.089138,192.038967 371.215018,192.419376 C371.662576,193.771897 374.904925,197.022571 375.632104,199.405634 C377.095637,204.201822 376.310145,216.856286 374.085658,233.32039 C372.805148,233.32039 377.807923,233.32039 379.323585,237.31691 C380.822804,241.786235 381.047448,244.853856 381.047448,248.671972 C381.047448,252.490087 379.67411,258.777894 374.725913,262.187565 C371.37642,265.134343 368.085302,265.134343 368.085302,265.134343 C365.627291,271.400147 366.029629,271.782384 361.941334,279.111586 C359.215804,283.99772 356.682033,287.72368 354.34002,290.289465 L354.34002,306.492772 L400,320.915052 L400,400 L230.28661,400 Z" id="Line" fill="#AAAAAA"></path>
            <path d="M96.9229362,400 C106.558282,333.724024 113.023259,295.524627 116.317868,285.401809 C118.010037,283.501556 120.198768,281.041118 123.59987,279.915052 C131.042843,277.450769 148.515505,272.643342 176.017855,265.492772 L176.459623,249.289465 C172.1651,244.246388 169.387015,240.520428 168.125369,238.111586 C164.396038,230.991229 164.256096,229.401788 162.892615,224.134343 C162.892615,224.134343 157.671437,224.134343 154.407824,221.187565 C151.262736,217.833395 150.251268,215.708617 149.326926,210.833274 C148.402584,205.957931 149.177595,200.58124 150.655577,196.31691 C153.145208,191.102366 156.446404,192.32039 156.446404,192.32039 C156.446404,188.686865 153.437206,165.126803 154.407824,152.605137 C155.277981,145.31476 165.354439,139.252222 171.634862,135.552844 C171.925909,135.381407 167.145201,135.719001 167.437065,135.552844 C175.199818,131.133546 177.683394,129.791541 183.757059,128.483602 C191.662227,126.781257 199.485313,128.656037 201.303032,128.483602 C202.242999,128.394434 198.366778,125.995221 198.733037,125.995221 C202.568073,125.995221 212.620454,123.913974 218.044271,125.770915 C223.013429,127.303481 226.433653,131.421005 232.749614,139.169321 C237.424145,138.238244 242.19708,138.238244 246.642575,141.771957 C248.520451,144.043329 251.085658,147.792412 251.266613,152.605137 C251.280597,152.977056 248.089138,151.038967 248.215018,151.419376 C248.662576,152.771897 251.904925,156.022571 252.632104,158.405634 C254.095637,163.201822 253.310145,175.856286 251.085658,192.32039 C249.805148,192.32039 254.807923,192.32039 256.323585,196.31691 C257.822804,200.786235 258.047448,203.853856 258.047448,207.671972 C258.047448,211.490087 256.67411,217.777894 251.725913,221.187565 C248.37642,224.134343 245.085302,224.134343 245.085302,224.134343 C242.627291,230.400147 243.029629,230.782384 238.941334,238.111586 C236.215804,242.99772 233.682033,246.72368 231.34002,249.289465 L231.34002,265.492772 C259.445337,272.489674 276.87166,277.297101 283.618988,279.915052 C285.98101,280.831512 288.555191,283.305756 290.845074,285.401809 C294.694427,301.341595 301.523016,339.540992 311.330842,400 L96.9229362,400 Z" id="Line" fill="#AAAAAA"></path>
        </g>
        <g id="Group" transform="translate(410.000000, 410.000000)">
            <rect id="Rectangle" x="0" y="0" width="200" height="200"></rect>
            <path d="M-1.70530257e-13,200 L-1.70530257e-13,159.957526 L25.5089277,152.746386 L25.7298115,144.644732 C23.5825498,142.123194 22.1935075,140.260214 21.5626844,139.055793 C19.6980188,135.495615 19.628048,134.700894 18.9463074,132.067171 C18.9463074,132.067171 16.3357187,132.067171 14.7039118,130.593782 C13.1313682,128.916697 12.6256338,127.854308 12.1634629,125.416637 C11.7012919,122.978966 12.0887975,120.29062 12.8277887,118.158455 C14.072604,115.551183 15.7232021,116.160195 15.7232021,116.160195 C15.7232021,114.343432 14.218603,102.563401 14.7039118,96.3025687 C15.1389905,92.6573801 20.1772194,89.6261109 23.3174308,87.776422 C23.4629546,87.6907037 21.0726004,87.8595006 21.2185327,87.776422 C25.099909,85.5667731 26.3416969,84.8957704 29.3785293,84.2418012 C33.3311137,83.3906287 37.2426566,84.3280185 38.1515159,84.2418012 C38.6214993,84.1972171 36.6833888,82.9976103 36.8665184,82.9976103 C38.7840365,82.9976103 43.8102269,81.9569868 46.5221353,82.8854575 C49.0067143,83.6517404 50.7168267,85.7105024 53.8748072,89.5846604 C56.2120723,89.1191221 58.5985402,89.1191221 60.8212873,90.8859786 C61.7602255,92.0216646 63.0428291,93.8962062 63.1333065,96.3025687 C63.1402985,96.4885278 61.5445691,95.5194833 61.607509,95.7096878 C61.8312878,96.3859487 63.4524625,98.0112853 63.8160522,99.2028168 C64.5478183,101.600911 64.1550727,107.928143 63.0428291,116.160195 C62.4025739,116.160195 64.9039617,116.160195 65.6617926,118.158455 C66.4114021,120.393118 66.5237241,121.926928 66.5237241,123.835986 C66.5237241,125.745044 65.8370549,128.888947 63.3629567,130.593782 C61.6882101,132.067171 60.0426511,132.067171 60.0426511,132.067171 C58.8136457,135.200073 59.0148147,135.391192 56.9706671,139.055793 C55.6079021,141.49886 54.3410163,143.36184 53.1700098,144.644732 L53.1700098,152.746386 C67.2226685,156.244837 75.9358299,158.648551 79.309494,159.957526 C80.4905048,160.415756 81.7775956,161.652878 82.922537,162.700904 C84.8472134,170.670797 87.1362864,183.103829 89.7897559,200 L-1.70530257e-13,200 Z" id="Line" fill="#AAAAAA"></path>
            <path d="M114.800006,200 C116.391987,180.528678 118.011629,168.262313 119.658934,163.200904 C120.505019,162.250778 121.599384,161.020559 123.299935,160.457526 C127.021421,159.225384 135.757752,156.821671 149.508928,153.246386 L149.729812,145.144732 C147.58255,142.623194 146.193507,140.760214 145.562684,139.555793 C143.698019,135.995615 143.628048,135.200894 142.946307,132.567171 C142.946307,132.567171 140.335719,132.567171 138.703912,131.093782 C137.131368,129.416697 136.625634,128.354308 136.163463,125.916637 C135.701292,123.478966 136.088798,120.79062 136.827789,118.658455 C138.072604,116.051183 139.723202,116.660195 139.723202,116.660195 C139.723202,114.843432 138.218603,103.063401 138.703912,96.8025687 C139.138991,93.1573801 144.177219,90.1261109 147.317431,88.276422 C147.462955,88.1907037 145.0726,88.3595006 145.218533,88.276422 C149.099909,86.0667731 150.341697,85.3957704 153.378529,84.7418012 C157.331114,83.8906287 161.242657,84.8280185 162.151516,84.7418012 C162.621499,84.6972171 160.683389,83.4976103 160.866518,83.4976103 C162.784037,83.4976103 167.810227,82.4569868 170.522135,83.3854575 C173.006714,84.1517404 174.716827,86.2105024 177.874807,90.0846604 C180.212072,89.6191221 182.59854,89.6191221 184.821287,91.3859786 C185.760225,92.5216646 187.042829,94.3962062 187.133307,96.8025687 C187.140298,96.9885278 185.544569,96.0194833 185.607509,96.2096878 C185.831288,96.8859487 187.452462,98.5112853 187.816052,99.7028168 C188.547818,102.100911 188.155073,108.428143 187.042829,116.660195 C186.402574,116.660195 188.903962,116.660195 189.661793,118.658455 C190.411402,120.893118 190.523724,122.426928 190.523724,124.335986 C190.523724,126.245044 189.837055,129.388947 187.362957,131.093782 C185.68821,132.567171 184.042651,132.567171 184.042651,132.567171 C182.813646,135.700073 183.014815,135.891192 180.970667,139.555793 C179.607902,141.99886 178.341016,143.86184 177.17001,145.144732 L177.17001,153.246386 L200,160.457526 L200,200 L114.800006,200 Z" id="Line" fill="#AAAAAA"></path>
            <path d="M48.4614681,200 C53.2791409,166.862012 56.5116295,147.762313 58.1589338,142.700904 C59.0050186,141.750778 60.0993838,140.520559 61.7999348,139.957526 C65.5214214,138.725384 74.2577524,136.321671 88.0089277,132.746386 L88.2298115,124.644732 C86.0825498,122.123194 84.6935075,120.260214 84.0626844,119.055793 C82.1980188,115.495615 82.128048,114.700894 81.4463074,112.067171 C81.4463074,112.067171 78.8357187,112.067171 77.2039118,110.593782 C75.6313682,108.916697 75.1256338,107.854308 74.6634629,105.416637 C74.2012919,102.978966 74.5887975,100.29062 75.3277887,98.1584548 C76.572604,95.5511829 78.2232021,96.1601951 78.2232021,96.1601951 C78.2232021,94.3434323 76.718603,82.5634013 77.2039118,76.3025687 C77.6389905,72.6573801 82.6772194,69.6261109 85.8174308,67.776422 C85.9629546,67.6907037 83.5726004,67.8595006 83.7185327,67.776422 C87.599909,65.5667731 88.8416969,64.8957704 91.8785293,64.2418012 C95.8311137,63.3906287 99.7426566,64.3280185 100.651516,64.2418012 C101.121499,64.1972171 99.1833888,62.9976103 99.3665184,62.9976103 C101.284037,62.9976103 106.310227,61.9569868 109.022135,62.8854575 C111.506714,63.6517404 113.216827,65.7105024 116.374807,69.5846604 C118.712072,69.1191221 121.09854,69.1191221 123.321287,70.8859786 C124.260225,72.0216646 125.542829,73.8962062 125.633307,76.3025687 C125.640298,76.4885278 124.044569,75.5194833 124.107509,75.7096878 C124.331288,76.3859487 125.952462,78.0112853 126.316052,79.2028168 C127.047818,81.6009108 126.655073,87.9281431 125.542829,96.1601951 C124.902574,96.1601951 127.403962,96.1601951 128.161793,98.1584548 C128.911402,100.393118 129.023724,101.926928 129.023724,103.835986 C129.023724,105.745044 128.337055,108.888947 125.862957,110.593782 C124.18821,112.067171 122.542651,112.067171 122.542651,112.067171 C121.313646,115.200073 121.514815,115.391192 119.470667,119.055793 C118.107902,121.49886 116.841016,123.36184 115.67001,124.644732 L115.67001,132.746386 C129.722668,136.244837 138.43583,138.648551 141.809494,139.957526 C142.990505,140.415756 144.277596,141.652878 145.422537,142.700904 C147.347213,150.670797 150.761508,169.770496 155.665421,200 L48.4614681,200 Z" id="Line" fill="#AAAAAA"></path>
        </g>
        <g id="Group" transform="translate(620.000000, 410.000000)">
            <rect id="Rectangle" x="0" y="0" width="128" height="128"></rect>
            <path d="M-1.10134124e-13,128 L-1.10134124e-13,102.372817 L16.3257137,97.757687 L16.4670794,92.5726287 C15.0928319,90.9588441 14.2038448,89.766537 13.800118,88.9957074 C12.606732,86.7171933 12.5619507,86.2085723 12.1256367,84.5229897 C12.1256367,84.5229897 10.45486,84.5229897 9.41050354,83.5800208 C8.40407565,82.5066863 8.08040565,81.8267574 7.78461623,80.2666477 C7.48882681,78.706538 7.73683041,76.9859967 8.2097848,75.621411 C9.00646656,73.9527571 10.0628494,74.3425249 10.0628494,74.3425249 C10.0628494,73.1797967 9.09990592,65.6405768 9.41050354,61.633644 C9.68895393,59.3007233 12.9134204,57.360711 14.9231557,56.1769101 C15.016291,56.1220503 13.4864642,56.2300804 13.5798609,56.1769101 C16.0639418,54.7627348 16.858686,54.3332931 18.8022588,53.9147528 C21.3319128,53.3700024 23.8353002,53.9699318 24.4169702,53.9147528 C24.7177595,53.886219 23.4773688,53.1184706 23.5945718,53.1184706 C24.8217834,53.1184706 28.0385452,52.4524715 29.7741666,53.0466928 C31.3642972,53.5371139 32.4587691,54.8547215 34.4798766,57.3341826 C35.9757263,57.0362382 37.5030657,57.0362382 38.9256239,58.1670263 C39.5265443,58.8938654 40.3474106,60.093572 40.4053162,61.633644 C40.409791,61.7526578 39.3885242,61.1324693 39.4288057,61.2542002 C39.5720242,61.6870072 40.609576,62.7272226 40.8422734,63.4898028 C41.3106037,65.0245829 41.0592465,69.0740116 40.3474106,74.3425249 C39.9376473,74.3425249 41.5385355,74.3425249 42.0235472,75.621411 C42.5032973,77.0515953 42.5751834,78.0332339 42.5751834,79.2550309 C42.5751834,80.4768279 42.1357152,82.488926 40.5522923,83.5800208 C39.4804545,84.5229897 38.4272967,84.5229897 38.4272967,84.5229897 C37.6407332,86.528047 37.7694814,86.6503627 36.461227,88.9957074 C35.5890573,90.5592706 34.7782504,91.7515776 34.0288062,92.5726287 L34.0288062,97.757687 C43.0225078,99.9966958 48.5989311,101.535072 50.7580762,102.372817 C51.5139231,102.666084 52.3376612,103.457842 53.0704237,104.128579 C54.3022166,109.22931 55.7672233,117.186451 57.4654438,128 L-1.10134124e-13,128 Z" id="Line" fill="#AAAAAA"></path>
            <path d="M73.4701146,128 C74.4902419,115.538354 75.5274428,107.68788 76.5817176,104.448579 C77.1232119,103.840498 77.8236057,103.053158 78.9119583,102.692817 C81.2937097,101.904246 86.8849615,100.365869 95.6857137,98.077687 L95.8270794,92.8926287 C94.4528319,91.2788441 93.5638448,90.086537 93.160118,89.3157074 C91.966732,87.0371933 91.9219507,86.5285723 91.4856367,84.8429897 C91.4856367,84.8429897 89.81486,84.8429897 88.7705035,83.9000208 C87.7640757,82.8266863 87.4404056,82.1467574 87.1446162,80.5866477 C86.8488268,79.026538 87.0968304,77.3059967 87.5697848,75.941411 C88.3664666,74.2727571 89.4228494,74.6625249 89.4228494,74.6625249 C89.4228494,73.4997967 88.4599059,65.9605768 88.7705035,61.953644 C89.0489539,59.6207233 92.2734204,57.680711 94.2831557,56.4969101 C94.376291,56.4420503 92.8464642,56.5500804 92.9398609,56.4969101 C95.4239418,55.0827348 96.218686,54.6532931 98.1622588,54.2347528 C100.691913,53.6900024 103.1953,54.2899318 103.77697,54.2347528 C104.07776,54.206219 102.837369,53.4384706 102.954572,53.4384706 C104.181783,53.4384706 107.398545,52.7724715 109.134167,53.3666928 C110.724297,53.8571139 111.818769,55.1747215 113.839877,57.6541826 C115.335726,57.3562382 116.863066,57.3562382 118.285624,58.4870263 C118.886544,59.2138654 119.707411,60.413572 119.765316,61.953644 C119.769791,62.0726578 118.748524,61.4524693 118.788806,61.5742002 C118.932024,62.0070072 119.969576,63.0472226 120.202273,63.8098028 C120.670604,65.3445829 120.419247,69.3940116 119.707411,74.6625249 C119.297647,74.6625249 120.898535,74.6625249 121.383547,75.941411 C121.863297,77.3715953 121.935183,78.3532339 121.935183,79.5750309 C121.935183,80.7968279 121.495715,82.808926 119.912292,83.9000208 C118.840454,84.8429897 117.787297,84.8429897 117.787297,84.8429897 C117.000733,86.848047 117.129481,86.9703627 115.821227,89.3157074 C114.949057,90.8792706 114.13825,92.0715776 113.388806,92.8926287 L113.388806,98.077687 C120.970457,100.316696 125.840855,101.855072 128,102.692817 C128.503898,102.888328 128.503898,111.324056 128,128 L73.4701146,128 Z" id="Line" fill="#AAAAAA"></path>
            <path d="M31.0153396,128 C34.0986502,106.791688 36.1674428,94.5678805 37.2217176,91.3285788 C37.7632119,90.720498 38.4636057,89.9331578 39.5519583,89.5728167 C41.9337097,88.784246 47.5249615,87.2458695 56.3257137,84.957687 L56.4670794,79.7726287 C55.0928319,78.1588441 54.2038448,76.966537 53.800118,76.1957074 C52.606732,73.9171933 52.5619507,73.4085723 52.1256367,71.7229897 C52.1256367,71.7229897 50.45486,71.7229897 49.4105035,70.7800208 C48.4040757,69.7066863 48.0804056,69.0267574 47.7846162,67.4666477 C47.4888268,65.906538 47.7368304,64.1859967 48.2097848,62.821411 C49.0064666,61.1527571 50.0628494,61.5425249 50.0628494,61.5425249 C50.0628494,60.3797967 49.0999059,52.8405768 49.4105035,48.833644 C49.6889539,46.5007233 52.9134204,44.560711 54.9231557,43.3769101 C55.016291,43.3220503 53.4864642,43.4300804 53.5798609,43.3769101 C56.0639418,41.9627348 56.858686,41.5332931 58.8022588,41.1147528 C61.3319128,40.5700024 63.8353002,41.1699318 64.4169702,41.1147528 C64.7177595,41.086219 63.4773688,40.3184706 63.5945718,40.3184706 C64.8217834,40.3184706 68.0385452,39.6524715 69.7741666,40.2466928 C71.3642972,40.7371139 72.4587691,42.0547215 74.4798766,44.5341826 C75.9757263,44.2362382 77.5030657,44.2362382 78.9256239,45.3670263 C79.5265443,46.0938654 80.3474106,47.293572 80.4053162,48.833644 C80.409791,48.9526578 79.3885242,48.3324693 79.4288057,48.4542002 C79.5720242,48.8870072 80.609576,49.9272226 80.8422734,50.6898028 C81.3106037,52.2245829 81.0592465,56.2740116 80.3474106,61.5425249 C79.9376473,61.5425249 81.5385355,61.5425249 82.0235472,62.821411 C82.5032973,64.2515953 82.5751834,65.2332339 82.5751834,66.4550309 C82.5751834,67.6768279 82.1357152,69.688926 80.5522923,70.7800208 C79.4804545,71.7229897 78.4272967,71.7229897 78.4272967,71.7229897 C77.6407332,73.728047 77.7694814,73.8503627 76.461227,76.1957074 C75.5890573,77.7592706 74.7782504,78.9515776 74.0288062,79.7726287 L74.0288062,84.957687 C83.0225078,87.1966958 88.5989311,88.7350723 90.7580762,89.5728167 C91.5139231,89.8660839 92.3376612,90.6578418 93.0704237,91.3285788 C94.3022166,96.4293104 96.4873652,108.653117 99.6258694,128 L31.0153396,128 Z" id="Line" fill="#AAAAAA"></path>
        </g>
        <g id="Group" transform="translate(758.000000, 410.000000)">
            <rect id="Rectangle" x="0" y="0" width="40" height="40"></rect>
            <path d="M-1.58095759e-13,40 L-1.58095759e-13,31.9915052 L5.10178554,30.5492772 L5.1459623,28.9289465 C4.71650997,28.4246388 4.43870149,28.0520428 4.31253687,27.8111586 C3.93960375,27.0991229 3.92560959,26.9401788 3.78926148,26.4134343 C3.78926148,26.4134343 3.26714375,26.4134343 2.94078236,26.1187565 C2.62627364,25.7833395 2.52512676,25.5708617 2.43269257,25.0833274 C2.34025838,24.5957931 2.4177595,24.058124 2.56555775,23.631691 C2.8145208,23.1102366 3.14464042,23.232039 3.14464042,23.232039 C3.14464042,22.8686865 2.8437206,20.5126803 2.94078236,19.2605137 C3.0277981,18.531476 4.03544388,17.9252222 4.66348616,17.5552844 C4.69259092,17.5381407 4.21452008,17.5719001 4.24370654,17.5552844 C5.0199818,17.1133546 5.26833937,16.9791541 5.87570586,16.8483602 C6.66622275,16.6781257 7.44853131,16.8656037 7.63030317,16.8483602 C7.72429985,16.8394434 7.33667776,16.5995221 7.37330367,16.5995221 C7.7568073,16.5995221 8.76204537,16.3913974 9.30442707,16.5770915 C9.80134286,16.7303481 10.1433653,17.1421005 10.7749614,17.9169321 C11.2424145,17.8238244 11.719708,17.8238244 12.1642575,18.1771957 C12.3520451,18.4043329 12.6085658,18.7792412 12.6266613,19.2605137 C12.6280597,19.2977056 12.3089138,19.1038967 12.3215018,19.1419376 C12.3662576,19.2771897 12.6904925,19.6022571 12.7632104,19.8405634 C12.9095637,20.3201822 12.8310145,21.5856286 12.6085658,23.232039 C12.4805148,23.232039 12.9807923,23.232039 13.1323585,23.631691 C13.2822804,24.0786235 13.3047448,24.3853856 13.3047448,24.7671972 C13.3047448,25.1490087 13.167411,25.7777894 12.6725913,26.1187565 C12.337642,26.4134343 12.0085302,26.4134343 12.0085302,26.4134343 C11.7627291,27.0400147 11.8029629,27.0782384 11.3941334,27.8111586 C11.1215804,28.299772 10.8682033,28.672368 10.634002,28.9289465 L10.634002,30.5492772 C13.4445337,31.2489674 15.187166,31.7297101 15.8618988,31.9915052 C16.098101,32.0831512 16.3555191,32.3305756 16.5845074,32.5401809 C16.9694427,34.1341595 17.4272573,36.6207659 17.9579512,40 L-1.58095759e-13,40 Z" id="Line" fill="#AAAAAA"></path>
            <path d="M22.9915813,40 C23.2889241,36.1057357 23.6023259,33.6524627 23.9317868,32.6401809 C24.1010037,32.4501556 24.3198768,32.2041118 24.659987,32.0915052 C25.4042843,31.8450769 27.1515505,31.3643342 29.9017855,30.6492772 L29.9459623,29.0289465 C29.51651,28.5246388 29.2387015,28.1520428 29.1125369,27.9111586 C28.7396038,27.1991229 28.7256096,27.0401788 28.5892615,26.5134343 C28.5892615,26.5134343 28.0671437,26.5134343 27.7407824,26.2187565 C27.4262736,25.8833395 27.3251268,25.6708617 27.2326926,25.1833274 C27.1402584,24.6957931 27.2177595,24.158124 27.3655577,23.731691 C27.6145208,23.2102366 27.9446404,23.332039 27.9446404,23.332039 C27.9446404,22.9686865 27.6437206,20.6126803 27.7407824,19.3605137 C27.8277981,18.631476 28.8354439,18.0252222 29.4634862,17.6552844 C29.4925909,17.6381407 29.0145201,17.6719001 29.0437065,17.6552844 C29.8199818,17.2133546 30.0683394,17.0791541 30.6757059,16.9483602 C31.4662227,16.7781257 32.2485313,16.9656037 32.4303032,16.9483602 C32.5242999,16.9394434 32.1366778,16.6995221 32.1733037,16.6995221 C32.5568073,16.6995221 33.5620454,16.4913974 34.1044271,16.6770915 C34.6013429,16.8303481 34.9433653,17.2421005 35.5749614,18.0169321 C36.0424145,17.9238244 36.519708,17.9238244 36.9642575,18.2771957 C37.1520451,18.5043329 37.4085658,18.8792412 37.4266613,19.3605137 C37.4280597,19.3977056 37.1089138,19.2038967 37.1215018,19.2419376 C37.1662576,19.3771897 37.4904925,19.7022571 37.5632104,19.9405634 C37.7095637,20.4201822 37.6310145,21.6856286 37.4085658,23.332039 C37.2805148,23.332039 37.7807923,23.332039 37.9323585,23.731691 C38.0822804,24.1786235 38.1047448,24.4853856 38.1047448,24.8671972 C38.1047448,25.2490087 37.967411,25.8777894 37.4725913,26.2187565 C37.137642,26.5134343 36.8085302,26.5134343 36.8085302,26.5134343 C36.5627291,27.1400147 36.6029629,27.1782384 36.1941334,27.9111586 C35.9215804,28.399772 35.6682033,28.772368 35.434002,29.0289465 L35.434002,30.6492772 L40,32.0915052 L40,40 L22.9915813,40 Z" id="Line" fill="#AAAAAA"></path>
            <path d="M9.69229362,40 C10.6558282,33.3724024 11.3023259,29.5524627 11.6317868,28.5401809 C11.8010037,28.3501556 12.0198768,28.1041118 12.359987,27.9915052 C13.1042843,27.7450769 14.8515505,27.2643342 17.6017855,26.5492772 L17.6459623,24.9289465 C17.21651,24.4246388 16.9387015,24.0520428 16.8125369,23.8111586 C16.4396038,23.0991229 16.4256096,22.9401788 16.2892615,22.4134343 C16.2892615,22.4134343 15.7671437,22.4134343 15.4407824,22.1187565 C15.1262736,21.7833395 15.0251268,21.5708617 14.9326926,21.0833274 C14.8402584,20.5957931 14.9177595,20.058124 15.0655577,19.631691 C15.3145208,19.1102366 15.6446404,19.232039 15.6446404,19.232039 C15.6446404,18.8686865 15.3437206,16.5126803 15.4407824,15.2605137 C15.5277981,14.531476 16.5354439,13.9252222 17.1634862,13.5552844 C17.1925909,13.5381407 16.7145201,13.5719001 16.7437065,13.5552844 C17.5199818,13.1133546 17.7683394,12.9791541 18.3757059,12.8483602 C19.1662227,12.6781257 19.9485313,12.8656037 20.1303032,12.8483602 C20.2242999,12.8394434 19.8366778,12.5995221 19.8733037,12.5995221 C20.2568073,12.5995221 21.2620454,12.3913974 21.8044271,12.5770915 C22.3013429,12.7303481 22.6433653,13.1421005 23.2749614,13.9169321 C23.7424145,13.8238244 24.219708,13.8238244 24.6642575,14.1771957 C24.8520451,14.4043329 25.1085658,14.7792412 25.1266613,15.2605137 C25.1280597,15.2977056 24.8089138,15.1038967 24.8215018,15.1419376 C24.8662576,15.2771897 25.1904925,15.6022571 25.2632104,15.8405634 C25.4095637,16.3201822 25.3310145,17.5856286 25.1085658,19.232039 C24.9805148,19.232039 25.4807923,19.232039 25.6323585,19.631691 C25.7822804,20.0786235 25.8047448,20.3853856 25.8047448,20.7671972 C25.8047448,21.1490087 25.667411,21.7777894 25.1725913,22.1187565 C24.837642,22.4134343 24.5085302,22.4134343 24.5085302,22.4134343 C24.2627291,23.0400147 24.3029629,23.0782384 23.8941334,23.8111586 C23.6215804,24.299772 23.3682033,24.672368 23.134002,24.9289465 L23.134002,26.5492772 C25.9445337,27.2489674 27.687166,27.7297101 28.3618988,27.9915052 C28.598101,28.0831512 28.8555191,28.3305756 29.0845074,28.5401809 C29.4694427,30.1341595 30.1523016,33.9540992 31.1330842,40 L9.69229362,40 Z" id="Line" fill="#AAAAAA"></path>
        </g>
        <g id="Line" transform="translate(0.000000, 820.000000)">
            <mask id="mask-2" fill="white">
                <use xlink:href="#path-1"></use>
            </mask>
            <circle stroke="#DFDFDF" stroke-width="6" cx="200" cy="200" r="197"></circle>
            <path d="M39.4557682,400 C50.3750586,351.96206 58.4075911,320.046459 63.5533655,304.253199 C66.1963268,301.288492 69.614855,297.449804 74.9269588,295.692956 C86.5519694,291.848269 113.842123,284.347893 156.797419,273.191827 L157.487405,247.912004 C150.779887,240.043974 146.44086,234.230865 144.470323,230.472674 C138.645566,219.363747 138.426994,216.883958 136.297404,208.665877 C136.297404,208.665877 128.142566,208.665877 123.045201,204.068419 C118.132961,198.835362 116.553171,195.520359 115.109463,187.914022 C113.665754,180.307686 114.876226,171.919163 117.184654,165.266107 C121.073151,157.130561 126.229214,159.030879 126.229214,159.030879 C126.229214,153.361982 121.529216,116.604411 123.045201,97.0685539 C124.40428,85.6943666 140.142471,76.2358097 149.95172,70.4641721 C150.406301,70.1967026 142.939421,70.7234046 143.395278,70.4641721 C155.519745,63.5693407 159.398785,61.4755916 168.885104,59.4349927 C181.232007,56.7790544 193.450707,59.7040188 196.28976,59.4349927 C197.757873,59.2958756 191.703692,55.5527078 192.275744,55.5527078 C198.2656,55.5527078 213.966184,52.3056201 222.437521,55.2027543 C230.198735,57.5938089 235.540707,64.0178233 245.405463,76.1064704 C252.706505,74.6538381 260.161245,74.6538381 267.104561,80.1670114 C270.037574,83.7107252 274.044112,89.5599115 274.326742,97.0685539 C274.348583,97.6488074 269.363916,94.6250697 269.560525,95.2185706 C270.259555,97.3287269 275.323706,102.400312 276.459472,106.118282 C278.745329,113.601124 277.518488,133.344169 274.044112,159.030879 C272.044112,159.030879 279.857834,159.030879 282.225111,165.266107 C284.566707,172.23899 284.917574,177.024983 284.917574,182.981871 C284.917574,188.938759 282.772588,198.748771 275.044112,204.068419 C269.812615,208.665877 264.672293,208.665877 264.672293,208.665877 C260.833181,218.441562 261.461584,219.037914 255.076169,230.472674 C250.819226,238.095848 246.861785,243.908958 243.203848,247.912004 L243.203848,273.191827 C287.100905,284.108146 314.318682,291.608522 324.85718,295.692956 C328.546368,297.122785 332.566924,300.983012 336.143439,304.253199 C339.433935,320.806633 346.254572,352.722233 356.605349,400 L39.4557682,400 Z" fill="#AAAAAA" mask="url(#mask-2)"></path>
        </g>
        <g id="Line" transform="translate(410.000000, 820.000000)">
            <mask id="mask-4" fill="white">
                <use xlink:href="#path-3"></use>
            </mask>
            <circle stroke="#DFDFDF" stroke-width="3" cx="100" cy="100" r="98.5"></circle>
            <path d="M19.7278841,200 C25.1875293,175.98103 29.2037955,160.02323 31.7766827,152.1266 C33.0981634,150.644246 34.8074275,148.724902 37.4634794,147.846478 C43.2759847,145.924135 56.9210613,142.173946 78.3987093,136.595914 L78.7437027,123.956002 C75.3899435,120.021987 73.2204298,117.115432 72.2351616,115.236337 C69.3227828,109.681874 69.213497,108.441979 68.1487019,104.332938 C68.1487019,104.332938 64.0712828,104.332938 61.5226007,102.034209 C59.0664806,99.4176808 58.2765856,97.7601793 57.5547313,93.9570111 C56.832877,90.1538429 57.4381132,85.9595814 58.5923268,82.6330533 C60.5365754,78.5652805 63.1146071,79.5154396 63.1146071,79.5154396 C63.1146071,76.6809908 60.7646079,58.3022053 61.5226007,48.5342769 C62.2021402,42.8471833 70.0712353,38.1179049 74.9758601,35.2320861 C75.2031505,35.0983513 71.4697105,35.3617023 71.6976389,35.2320861 C77.7598723,31.7846704 79.6993925,30.7377958 84.442552,29.7174963 C90.6160037,28.3895272 96.7253535,29.8520094 98.1448802,29.7174963 C98.8789366,29.6479378 95.8518459,27.7763539 96.1378718,27.7763539 C99.1327998,27.7763539 106.983092,26.1528101 111.21876,27.6013771 C115.099368,28.7969045 117.770353,32.0089117 122.702731,38.0532352 C126.353252,37.326919 130.080622,37.326919 133.552281,40.0835057 C135.018787,41.8553626 137.022056,44.7799557 137.163371,48.5342769 C137.174291,48.8244037 134.681958,47.3125349 134.780262,47.6092853 C135.129777,48.6643635 137.661853,51.2001558 138.229736,53.0591409 C139.372665,56.8005618 138.759244,66.6720847 137.022056,79.5154396 C136.022056,79.5154396 139.928917,79.5154396 141.112556,82.6330533 C142.283354,86.1194948 142.458787,88.5124913 142.458787,91.4909354 C142.458787,94.4693795 141.386294,99.3743855 137.522056,102.034209 C134.906308,104.332938 132.336146,104.332938 132.336146,104.332938 C130.416591,109.220781 130.730792,109.518957 127.538084,115.236337 C125.409613,119.047924 123.430893,121.954479 121.601924,123.956002 L121.601924,136.595914 C143.550452,142.054073 157.159341,145.804261 162.42859,147.846478 C164.273184,148.561392 166.283462,150.491506 168.07172,152.1266 C169.716968,160.403316 173.127286,176.361116 178.302674,200 L19.7278841,200 Z" fill="#AAAAAA" mask="url(#mask-4)"></path>
        </g>
        <g id="Line" transform="translate(620.000000, 820.000000)">
            <mask id="mask-6" fill="white">
                <use xlink:href="#path-5"></use>
            </mask>
            <circle stroke="#DFDFDF" stroke-width="2" cx="64" cy="64" r="63"></circle>
            <path d="M12.6258458,128 C16.1200188,112.627859 18.6904291,102.414867 20.337077,97.3610237 C21.1828246,96.4123176 22.2767536,95.1839374 23.9766268,94.621746 C27.6966302,93.3914461 36.4294793,90.9913257 50.1751739,87.4213848 L50.3959697,79.3318411 C48.2495639,76.8140718 46.8610751,74.9538767 46.2305034,73.7512558 C44.366581,70.1963991 44.2966381,69.4028666 43.6151692,66.7730806 C43.6151692,66.7730806 41.005621,66.7730806 39.3744644,65.301894 C37.8025476,63.6273157 37.2970148,62.5665148 36.835028,60.1324871 C36.3730413,57.6984594 36.7603924,55.0141321 37.4990891,52.8851541 C38.7434083,50.2817795 40.3933485,50.8898814 40.3933485,50.8898814 C40.3933485,49.0758341 38.8893491,37.3134114 39.3744644,31.0619372 C39.8093698,27.4221973 44.8455906,24.3954591 47.9845505,22.5485351 C48.1300163,22.4629448 45.7406147,22.6314895 45.8864889,22.5485351 C49.7663183,20.342189 51.0076112,19.6721893 54.0432333,19.0191977 C57.9942424,18.1692974 61.9042263,19.105286 62.8127233,19.0191977 C63.2825194,18.9746802 61.3451814,17.7768665 61.528238,17.7768665 C63.4449919,17.7768665 68.469179,16.7377984 71.1800066,17.6648814 C73.6635953,18.4300189 75.3730262,20.4857035 78.5297481,24.3540705 C80.8660816,23.8892282 83.2515984,23.8892282 85.4734596,25.6534436 C86.4120235,26.7874321 87.6941159,28.6591717 87.7845573,31.0619372 C87.7915465,31.2476184 86.1964531,30.2800223 86.2593679,30.4699426 C86.4830575,31.1451926 88.1035861,32.7680997 88.4670309,33.9578502 C89.1985054,36.3523596 88.8059163,42.6701342 87.6941159,50.8898814 C87.0541159,50.8898814 89.5545067,50.8898814 90.3120356,52.8851541 C91.0613464,55.1164767 91.1736236,56.6479944 91.1736236,58.5541986 C91.1736236,60.4604029 90.4872281,63.5996067 88.0141159,65.301894 C86.3400369,66.7730806 84.6951337,66.7730806 84.6951337,66.7730806 C83.4666181,69.9012997 83.6677069,70.0921324 81.6243741,73.7512558 C80.2621522,76.1906714 78.9957713,78.0508665 77.8252315,79.3318411 L77.8252315,87.4213848 C91.8722894,90.9146066 100.581978,93.3147271 103.954298,94.621746 C105.134838,95.0792911 106.421416,96.3145637 107.565901,97.3610237 C108.618859,102.658122 110.801463,112.871115 114.113712,128 L12.6258458,128 Z" fill="#AAAAAA" mask="url(#mask-6)"></path>
        </g>
        <g id="Line" transform="translate(758.000000, 820.000000)">
            <mask id="mask-8" fill="white">
                <use xlink:href="#path-7"></use>
            </mask>
            <circle stroke="#DFDFDF" cx="20" cy="20" r="19.5"></circle>
            <path d="M3.94557682,40 C5.03750586,35.196206 5.84075911,32.0046459 6.35533655,30.4253199 C6.61963268,30.1288492 6.9614855,29.7449804 7.49269588,29.5692956 C8.65519694,29.1848269 11.3842123,28.4347893 15.6797419,27.3191827 L15.7487405,24.7912004 C15.0779887,24.0043974 14.644086,23.4230865 14.4470323,23.0472674 C13.8645566,21.9363747 13.8426994,21.6883958 13.6297404,20.8665877 C13.6297404,20.8665877 12.8142566,20.8665877 12.3045201,20.4068419 C11.8132961,19.8835362 11.6553171,19.5520359 11.5109463,18.7914022 C11.3665754,18.0307686 11.4876226,17.1919163 11.7184654,16.5266107 C12.1073151,15.7130561 12.6229214,15.9030879 12.6229214,15.9030879 C12.6229214,15.3361982 12.1529216,11.6604411 12.3045201,9.70685539 C12.440428,8.56943666 14.0142471,7.62358097 14.995172,7.04641721 C15.0406301,7.01967026 14.2939421,7.07234046 14.3395278,7.04641721 C15.5519745,6.35693407 15.9398785,6.14755916 16.8885104,5.94349927 C18.1232007,5.67790544 19.3450707,5.97040188 19.628976,5.94349927 C19.7757873,5.92958756 19.1703692,5.55527078 19.2275744,5.55527078 C19.82656,5.55527078 21.3966184,5.23056201 22.2437521,5.52027543 C23.0198735,5.75938089 23.5540707,6.40178233 24.5405463,7.61064704 C25.2706505,7.46538381 26.0161245,7.46538381 26.7104561,8.01670114 C27.0037574,8.37107252 27.4044112,8.95599115 27.4326742,9.70685539 C27.4348583,9.76488074 26.9363916,9.46250697 26.9560525,9.52185706 C27.0259555,9.73287269 27.5323706,10.2400312 27.6459472,10.6118282 C27.8745329,11.3601124 27.7518488,13.3344169 27.4044112,15.9030879 C27.2044112,15.9030879 27.9857834,15.9030879 28.2225111,16.5266107 C28.4566707,17.223899 28.4917574,17.7024983 28.4917574,18.2981871 C28.4917574,18.8938759 28.2772588,19.8748771 27.5044112,20.4068419 C26.9812615,20.8665877 26.4672293,20.8665877 26.4672293,20.8665877 C26.0833181,21.8441562 26.1461584,21.9037914 25.5076169,23.0472674 C25.0819226,23.8095848 24.6861785,24.3908958 24.3203848,24.7912004 L24.3203848,27.3191827 C28.7100905,28.4108146 31.4318682,29.1608522 32.485718,29.5692956 C32.8546368,29.7122785 33.2566924,30.0983012 33.6143439,30.4253199 C33.9433935,32.0806633 34.6254572,35.2722233 35.6605349,40 L3.94557682,40 Z" fill="#AAAAAA" mask="url(#mask-8)"></path>
        </g>
    </g>
</svg>